<?xml version="1.0" standalone="no"?>
<!DOCTYPE svg PUBLIC "-//W3C//DTD SVG 1.1//EN" "http://www.w3.org/Graphics/SVG/1.1/DTD/svg11.dtd" >
<svg xmlns="http://www.w3.org/2000/svg" xmlns:xlink="http://www.w3.org/1999/xlink" version="1.1">
<metadata></metadata>
<defs>
<font id="sofiasanssemi_bold" horiz-adv-x="491" >
<font-face units-per-em="2048" ascent="1638" descent="-410" />
<missing-glyph horiz-adv-x="423" />
<glyph horiz-adv-x="0" />
<glyph unicode="&#xd;" horiz-adv-x="16" />
<glyph unicode=" "  horiz-adv-x="423" />
<glyph unicode="&#x09;" horiz-adv-x="423" />
<glyph unicode="&#xa0;" horiz-adv-x="423" />
<glyph unicode="!" horiz-adv-x="497" d="M119 82v59q0 53 33.5 81t95.5 28q63 0 97 -27.5t34 -81.5v-59q0 -51 -34 -79t-97 -28q-62 0 -95.5 28t-33.5 79zM135 1319q0 23 23 22h184q20 0 20 -22l-14 -875q0 -20 -22 -20h-154q-22 0 -22 20z" />
<glyph unicode="&#x22;" horiz-adv-x="712" d="M172 872v504q0 23 23 23h157h4h4h160q10 0 16.5 -6.5t6.5 -16.5v-504q0 -10 -6.5 -16t-16.5 -6h-160h-4h-4h-157q-23 0 -23 22z" />
<glyph unicode="#" horiz-adv-x="1241" d="M59 270v121q0 10 7.5 16.5t15.5 6.5h164v428h-164q-8 0 -15.5 7t-7.5 15v121q0 8 6.5 14.5t16.5 6.5h164v227q0 23 20 22h150q20 0 20 -22v-227h369v227q0 23 20 22h150q20 0 20 -22v-227h164q10 0 16.5 -6.5t6.5 -14.5v-121q0 -8 -6.5 -15t-16.5 -7h-164v-428h164 q10 0 16.5 -6.5t6.5 -16.5v-121q0 -8 -6.5 -14t-16.5 -6h-164v-227q0 -23 -20 -23h-150q-20 0 -20 23v227h-369v-227q0 -23 -20 -23h-150q-20 0 -20 23v227h-164q-10 0 -16.5 6t-6.5 14zM436 414h369v428h-369v-428z" />
<glyph unicode="$" horiz-adv-x="1290" d="M190 319q0 16 5 58q0 23 22 22h156q12 0 16 -7t4 -23q0 -217 246 -217q131 0 188.5 44t57.5 148q0 72 -33 115t-117 82l-274 129q-125 59 -186.5 142t-61.5 206q0 158 90 241.5t254 100.5v139q0 20 21 21h139q20 0 20 -21v-141q166 -23 252 -120t84 -267q0 -23 -20 -23 h-160q-18 0 -19 23q0 217 -239 217q-104 0 -160.5 -41t-58.5 -121q0 -72 38 -118t124 -85l270 -129q127 -57 184.5 -133t57.5 -215q0 -158 -92.5 -250t-260.5 -114v-144q0 -20 -20 -20h-139q-20 0 -21 20v142q-170 14 -268.5 100t-98.5 239z" />
<glyph unicode="%" horiz-adv-x="1933" d="M115 973v61q0 160 89 246t261 86t260 -86t88 -246v-61q0 -158 -88 -244t-260 -86t-261 86t-89 244zM287 973q0 -94 42 -136t136 -42q92 0 134 42t42 136v63q0 94 -42 135t-134 41t-135 -42t-43 -134v-63zM480 7q-5 7 3 20l406 675l364 627q10 16 27 17h156q12 0 16 -8.5 t-2 -18.5l-383 -637l-387 -668q-10 -14 -27 -14h-155q-13 0 -18 7zM1120 307v62q0 158 88 243.5t260 85.5t260.5 -85t88.5 -244v-62q0 -160 -88.5 -246t-260.5 -86t-260 86t-88 246zM1292 305q0 -94 42 -135t134 -41q93 0 135 41t42 135v64q0 94 -42 136t-135 42 q-92 0 -134 -42t-42 -136v-64z" />
<glyph unicode="&#x26;" horiz-adv-x="1382" d="M98 334q0 125 59.5 220t180.5 189q-158 164 -158 326q0 150 87 223.5t251 73.5q147 0 230 -72.5t83 -206.5q0 -88 -55 -172t-172 -180l338 -321q41 125 41 317q0 10 6 16.5t17 6.5h149q23 0 23 -25q0 -268 -95 -450l263 -252q8 -9 8 -17q0 -10 -21 -10h-213q-12 0 -26 10 l-123 119q-164 -154 -445 -154q-213 0 -320.5 98.5t-107.5 260.5zM291 340q0 -86 66.5 -140.5t187.5 -54.5q195 1 301 107l-387 373q-96 -80 -132 -141.5t-36 -143.5zM373 1069q0 -51 26.5 -102.5t85.5 -114.5q82 66 119 119t37 108q0 121 -131 121q-137 0 -137 -131z" />
<glyph unicode="'" horiz-adv-x="397" d="M98 872v504q0 23 21 23h160q10 0 16 -6.5t6 -16.5v-504q0 -10 -6 -16t-16 -6h-160q-20 0 -21 22z" />
<glyph unicode="(" horiz-adv-x="561" d="M143 111v915q0 145 44 232.5t157 185.5q6 8 16 8t17 -8l98 -96q8 -6 8 -15q0 -10 -8 -18q-76 -74 -104.5 -132.5t-28.5 -162.5v-901q0 -72 13.5 -119t40 -84t79.5 -94q8 -8 8 -17q0 -8 -8 -14l-98 -96q-6 -6 -15 -6q-8 0 -18 6q-113 92 -157 179t-44 237z" />
<glyph unicode=")" horiz-adv-x="561" d="M78 -195q0 8 8 17q53 57 80 94t40 84t13 119v901q0 104 -28.5 162.5t-104.5 132.5q-16 18 -2 33l98 96q8 8 19 8q10 0 16 -8q113 -98 157 -185.5t44 -232.5v-915q0 -150 -44 -237t-157 -179q-10 -6 -18 -6q-10 0 -17 6l-98 96q-6 6 -6 14z" />
<glyph unicode="*" horiz-adv-x="845" d="M115 1163l39 113q4 10 12 14t18 -2l178 -82l-18 205v4q0 16 18 17h117q10 0 16.5 -5.5t4.5 -15.5l-19 -207l181 84q4 2 12 2q16 0 18 -16l39 -111l2 -10q0 -12 -16 -18l-201 -41l135 -146q6 -8 6 -16q0 -10 -10 -17l-98 -71q-4 -4 -12 -4q-12 0 -19 12l-96 170l-100 -172 q-4 -10 -13.5 -13t-17.5 5l-96 73q-10 6 -11 17q0 8 9 16l133 148l-197 39q-20 6 -14 28z" />
<glyph unicode="+" horiz-adv-x="1228" d="M184 553v125q0 10 7.5 16t15.5 6h319v283q0 23 23 23h131q22 0 22 -23v-283h320q10 0 16 -6t6 -16v-125q0 -8 -6 -15.5t-16 -7.5h-320v-284q0 -20 -22 -21h-131q-23 0 -23 21v284h-319q-8 0 -15.5 7.5t-7.5 15.5z" />
<glyph unicode="," horiz-adv-x="503" d="M59 -246l105 473q4 19 20 19h189q10 0 17 -9.5t3 -19.5l-155 -473q-6 -16 -23 -16h-131q-12 0 -19.5 8t-5.5 18z" />
<glyph unicode="-" horiz-adv-x="999" d="M133 487v113q0 10 6 16.5t17 6.5h688q10 0 16 -6.5t6 -16.5v-113q0 -8 -6 -15t-16 -7h-688q-8 0 -15.5 7t-7.5 15z" />
<glyph unicode="." horiz-adv-x="505" d="M119 104v27q0 61 32.5 95t100.5 34t101.5 -33.5t33.5 -95.5v-27q0 -61 -34 -95t-101 -34q-68 0 -100.5 34t-32.5 95z" />
<glyph unicode="/" horiz-adv-x="782" d="M25 25l536 1298q10 18 27 18h149q12 0 18.5 -6t2.5 -18l-539 -1299q-6 -18 -26 -18h-148q-12 0 -18.5 6t-1.5 19z" />
<glyph unicode="0" horiz-adv-x="1202" d="M129 451v440q0 225 124 350t347 125q225 0 349 -125t124 -350v-440q0 -225 -124 -350.5t-349 -125.5q-223 0 -347 125t-124 351zM334 438q0 -133 70.5 -207.5t195.5 -74.5q127 0 197.5 74.5t70.5 207.5v465q0 133 -70.5 208t-197.5 75q-125 0 -195.5 -75t-70.5 -208v-465 z" />
<glyph unicode="1" horiz-adv-x="954" d="M78 23v137q0 10 6 16t16 6h316v934l-299 -92q-4 -2 -13 -2q-12 0 -12 16v138q0 20 14 24l439 146q20 4 26 4h33q16 0 17 -21v-1147h282q10 0 16.5 -6t6.5 -16v-137q0 -10 -6.5 -16.5t-16.5 -6.5h-803q-10 0 -16 6t-6 17z" />
<glyph unicode="2" horiz-adv-x="1116" d="M131 23v149q0 117 54.5 207t131 152.5t199.5 140.5q98 63 151.5 104t90.5 93.5t37 113.5v43q0 162 -230 162q-111 0 -166 -48t-55 -128q0 -18 -5 -25.5t-15 -7.5h-158q-10 0 -15.5 10t-5.5 35q0 162 113 252t326 90q416 0 415 -346q0 -121 -49 -208t-120.5 -144.5 t-186.5 -128.5q-100 -61 -157.5 -106.5t-96.5 -107t-39 -143.5h621q23 0 22 -22v-137q0 -23 -22 -23h-817q-11 0 -17 6t-6 17z" />
<glyph unicode="3" horiz-adv-x="1134" d="M117 313q0 31 4 41.5t18 10.5h158q10 0 14 -6.5t4 -22.5q0 -90 58.5 -136t173.5 -46q127 0 196.5 54t69.5 150v50q0 94 -65.5 143t-192.5 49h-174q-20 0 -21 21v131q0 20 21 20h168q115 0 174 51t59 150v49q0 166 -233 166q-231 0 -232 -178q0 -16 -4 -22.5t-16 -6.5 h-156q-23 0 -22 29q0 356 446 356q215 0 318.5 -85t103.5 -259q0 -127 -52 -209t-144 -111v-6q229 -74 229 -325q0 -193 -122 -294.5t-351 -101.5q-209 0 -319.5 90.5t-110.5 247.5z" />
<glyph unicode="4" horiz-adv-x="1138" d="M18 276v21q0 12 9 29l544 999q10 16 25 16h168q12 0 18 -6t-2 -18l-477 -881h420l4 434q0 20 23 21h147q20 0 21 -21v-434h149q20 0 20 -20v-140q0 -10 -6 -16t-14 -6h-149v-231q0 -23 -21 -23h-156q-22 0 -22 23v231h-678q-8 0 -15.5 7t-7.5 15z" />
<glyph unicode="5" horiz-adv-x="1087" d="M94 332q2 18 7 24t18 6h155q10 0 14.5 -6t4.5 -22q0 -180 229 -180q137 0 199.5 57t62.5 178v55q0 123 -64.5 182.5t-201.5 59.5q-74 0 -162 -18.5t-170 -53.5l-16 -4q-16 0 -26.5 11.5t-8.5 25.5l62 672q2 23 22 22h668q23 0 22 -22v-137q0 -23 -22 -23h-512l-25 -332 q123 29 230 29q197 0 304 -109.5t107 -320.5q0 -223 -123 -337t-358 -114q-205 0 -311.5 91.5t-104.5 265.5z" />
<glyph unicode="6" horiz-adv-x="1179" d="M129 428v490q0 213 126 330.5t357 117.5q188 0 302 -72.5t114 -197.5q0 -27 -5 -36t-17 -9h-156q-10 0 -15.5 6t-5.5 20q0 51 -58 82t-157 31q-141 0 -210.5 -64.5t-69.5 -197.5v-197q172 125 373 125q362 0 362 -393q0 -233 -121 -360.5t-348 -127.5t-349 115t-122 338z M334 424q0 -127 69.5 -199.5t194.5 -72.5q127 0 196.5 71.5t69.5 200.5v53q0 207 -217 207q-76 0 -156.5 -29.5t-156.5 -85.5v-145z" />
<glyph unicode="7" horiz-adv-x="1101" d="M104 1004v315q0 23 23 22h928q23 0 22 -20v-18q0 -10 -6 -27l-571 -1260q-6 -16 -27 -16h-170q-12 0 -16 7t0 20l514 1134h-494v-157q0 -10 -6 -16.5t-16 -6.5h-158q-23 0 -23 23z" />
<glyph unicode="8" horiz-adv-x="1191" d="M104 362q0 129 62.5 220.5t171.5 132.5q-90 41 -132 112.5t-42 188.5q0 164 111.5 257t320.5 93t321.5 -93t112.5 -257q0 -117 -43 -188.5t-133 -112.5q111 -41 172 -132t61 -221q0 -193 -125.5 -290t-365.5 -97q-238 0 -365 97.5t-127 289.5zM309 360q0 -104 73 -158.5 t214 -54.5t214 54.5t73 158.5v33q0 115 -76 178.5t-211 63.5t-211 -63.5t-76 -178.5v-33zM367 981q0 -90 60 -141.5t169 -51.5t169 51.5t60 141.5v31q0 88 -59 137t-170 49t-170 -49t-59 -137v-31z" />
<glyph unicode="9" horiz-adv-x="1202" d="M129 895q0 231 120 351t347 120q229 0 353 -121t124 -346v-457q0 -231 -122 -349t-363 -118q-207 0 -319.5 84t-112.5 234q0 39 22 39h156q20 0 20 -31q0 -61 61.5 -105t172.5 -44q281 0 280 276v176q-84 -66 -169 -96.5t-181 -30.5q-193 0 -291 106.5t-98 311.5z M334 852q0 -94 60.5 -147.5t168.5 -53.5q153 0 305 115v152q0 129 -71.5 200.5t-202.5 71.5q-127 0 -193.5 -68.5t-66.5 -197.5v-72z" />
<glyph unicode=":" horiz-adv-x="501" d="M119 102v27q0 59 32.5 93t98.5 34q68 0 100.5 -34t32.5 -93v-27q0 -59 -33 -93t-100 -34q-66 0 -98.5 34t-32.5 93zM119 831v27q0 59 32.5 93t98.5 34q68 0 100.5 -33.5t32.5 -93.5v-27q0 -59 -33 -92.5t-100 -33.5q-66 0 -98.5 33.5t-32.5 92.5z" />
<glyph unicode=";" horiz-adv-x="514" d="M29 -246l104 473q5 19 21 19h188q10 0 16.5 -9.5t3.5 -19.5l-157 -473q-6 -16 -21 -16h-133q-10 0 -17 8t-5 18zM131 831v27q0 59 33 93t98 34q68 0 100.5 -33.5t32.5 -93.5v-27q0 -59 -32.5 -92.5t-100.5 -33.5q-65 0 -98 33.5t-33 92.5z" />
<glyph unicode="&#x3c;" horiz-adv-x="1228" d="M182 543v131q0 18 19 24l819 318q4 2 10 2q16 0 17 -19v-149q0 -20 -19 -27l-637 -215l637 -217q18 -6 19 -24v-152q0 -10 -7.5 -15t-19.5 -1l-819 319q-18 6 -19 25z" />
<glyph unicode="=" horiz-adv-x="1228" d="M184 377v123q0 10 7.5 16t15.5 6h815q10 0 16 -6t6 -16v-123q0 -8 -6 -15.5t-16 -7.5h-815q-8 0 -15.5 7.5t-7.5 15.5zM184 733v121q0 10 6.5 16.5t16.5 6.5h815q10 0 16 -6.5t6 -16.5v-121q0 -10 -6 -16t-16 -6h-815q-10 0 -16.5 6t-6.5 16z" />
<glyph unicode="&#x3e;" horiz-adv-x="1228" d="M182 215v152q0 18 19 24l637 217l-637 215q-18 6 -19 27v149q0 12 7.5 17.5t19.5 -0.5l819 -318q18 -6 19 -24v-131q0 -18 -19 -25l-819 -319q-4 -2 -10 -2q-16 0 -17 18z" />
<glyph unicode="?" horiz-adv-x="972" d="M90 989q-2 190 101.5 283.5t314.5 93.5q197 0 296 -74.5t99 -214.5q0 -84 -33.5 -153.5t-80 -119.5t-117.5 -116q-68 -61 -97.5 -97t-31.5 -73l-2 -74q0 -20 -21 -20h-156q-10 0 -16 6t-6 14v80q0 74 45 131.5t131 132.5q88 78 132 135.5t44 133.5q0 137 -192 137 q-115 0 -162 -51t-47 -156v-4q0 -8 -5 -14t-14 -6h-157q-20 0 -25 26zM317 82v59q0 53 34 81t95 28q63 0 97.5 -27.5t34.5 -81.5v-59q0 -51 -34 -79t-98 -28q-61 0 -95 28t-34 79z" />
<glyph unicode="@" horiz-adv-x="2041" d="M121 391v191q0 391 222 616t663 225q915 0 915 -768v-94q0 -240 -126 -382t-349 -142q-100 0 -169 39t-99 106q-186 -147 -349 -147q-252 0 -251 258q0 43 6 92l30 229q23 180 124.5 278.5t279.5 98.5q80 0 147.5 -10t81.5 -12q94 -16 148 -21q23 -2 20 -28l-69 -519 q-6 -39 -7 -71q0 -63 28 -93t89 -30q121 0 193.5 93t72.5 259v96q0 594 -716 594q-334 0 -510.5 -172t-176.5 -497v-187q0 -301 168 -448.5t521 -147.5h280q20 0 21 -22v-131q0 -23 -21 -23h-287q-449 0 -664.5 192.5t-215.5 577.5zM770 336q0 -68 29.5 -99.5t95.5 -31.5 q59 0 119.5 33.5t136.5 97.5l4 37l59 432q-98 20 -196 20q-88 0 -143.5 -52t-73.5 -173l-27 -201q-4 -23 -4 -63z" />
<glyph unicode="A" horiz-adv-x="1171" d="M0 25l449 1298q6 18 24 18h219q20 0 27 -18l452 -1298l3 -9q0 -16 -21 -16h-176q-20 0 -27 18l-90 281h-555l-90 -281q-6 -18 -27 -18h-170q-25 0 -18 25zM360 473h443l-139 430q-37 113 -82 256h-4q-23 -74 -54 -168l-26 -84z" />
<glyph unicode="B" horiz-adv-x="1187" d="M164 23v1296q0 23 22 22h383q475 0 475 -333q0 -113 -53 -182.5t-172 -112.5v-4q283 -53 283 -334q0 -193 -129 -284t-404 -91h-383q-22 0 -22 23zM369 176h202q174 0 249 49t75 164t-76 168t-241 53h-209v-434zM369 772h192q143 0 210 49t67 154q0 102 -69 147t-224 45 h-176v-395z" />
<glyph unicode="C" horiz-adv-x="1306" d="M139 467v405q0 238 137.5 366t385.5 128q233 0 374.5 -108.5t141.5 -294.5q0 -18 -4 -60q-4 -29 -23 -29l-164 3q-25 0 -20 22v19q0 122 -73 192q-79 76 -230 76q-154 0 -236 -80t-82 -234v-403q0 -154 82 -233.5t236 -79.5q143 0 224 65.5t81 181.5q0 25 -2 39v4 q0 18 20 19l162 2q12 0 17 -7t8 -22q2 -18 2 -53q0 -123 -64.5 -216t-181.5 -143.5t-271 -50.5q-247 0 -383.5 128t-136.5 364z" />
<glyph unicode="D" horiz-adv-x="1320" d="M164 23v1296q0 23 22 22h383q315 0 471 -147t156 -442v-111q0 -324 -154.5 -482.5t-472.5 -158.5h-383q-22 0 -22 23zM371 176h184q223 0 328.5 111.5t105.5 345.5v127q0 207 -105.5 306t-328.5 99h-184v-989z" />
<glyph unicode="E" horiz-adv-x="1097" d="M164 23v1296q0 23 22 22h754q20 0 21 -22v-139q0 -23 -21 -23h-569v-389h520q20 0 20 -20v-134q0 -10 -6 -16t-14 -6h-520v-408h569q20 0 21 -22v-139q0 -23 -21 -23h-754q-22 0 -22 23z" />
<glyph unicode="F" horiz-adv-x="1046" d="M164 23v1296q0 23 22 22h754q20 0 21 -22v-139q0 -23 -21 -23h-569v-407h491q8 0 14.5 -6.5t6.5 -16.5v-135q0 -20 -21 -21h-491v-548q0 -10 -6.5 -16.5t-16.5 -6.5h-162q-22 0 -22 23z" />
<glyph unicode="G" horiz-adv-x="1343" d="M139 467v407q0 233 139.5 362.5t387.5 129.5q156 0 271.5 -48t178 -137t62.5 -206q0 -16 -4 -53q-4 -23 -23 -23l-164 2q-20 0 -20 23q1 12 1 24q0 109 -69 170q-76 68 -229 68q-324 0 -324 -314v-403q0 -313 316 -313q158 0 240.5 75.5t82.5 221.5v73h-301 q-10 0 -16 6.5t-6 14.5v123q0 10 7 16t15 6h473q10 0 16.5 -6t6.5 -16v-391q0 -145 14 -254v-7q0 -18 -18 -18h-134q-18 0 -22 18q-10 45 -14 129h-2q-57 -84 -153.5 -128t-223.5 -44q-228 0 -358 129t-130 363z" />
<glyph unicode="H" horiz-adv-x="1359" d="M164 23v1296q0 23 22 22h162q10 0 16.5 -6t6.5 -16v-541h618v541q0 10 6 16t17 6h164q20 0 20 -22v-1296q0 -23 -20 -23h-164q-10 0 -16.5 6t-6.5 17v575h-618v-575q0 -10 -6.5 -16.5t-16.5 -6.5h-162q-22 0 -22 23z" />
<glyph unicode="I" horiz-adv-x="534" d="M164 23v1296q0 23 22 22h162q10 0 16.5 -6t6.5 -16v-1296q0 -10 -6.5 -16.5t-16.5 -6.5h-162q-22 0 -22 23z" />
<glyph unicode="J" horiz-adv-x="555" d="M-16 -135q0 14 36 24q164 41 164 289v1141q0 23 23 22h162q10 0 16 -6t6 -16v-1131q0 -420 -315 -485l-27 -4q-18 0 -22 16l-41 142q-2 2 -2 8z" />
<glyph unicode="K" horiz-adv-x="1236" d="M164 23v1296q0 23 22 22h162q10 0 16.5 -6t6.5 -16v-375q0 -166 -4 -246h2l53 64q45 55 129 149l369 418q8 12 26 12h207q20 0 21 -12q0 -2 -9 -14l-467 -518l508 -770l4 -13q0 -14 -18 -14h-205q-16 0 -26 14l-404 623l-186 -205v-409q0 -10 -6.5 -16.5t-16.5 -6.5h-162 q-23 0 -22 23z" />
<glyph unicode="L" horiz-adv-x="985" d="M164 23v1296q0 23 22 22h164q20 0 21 -22v-1135h553q23 0 22 -22v-139q0 -23 -22 -23h-738q-22 0 -22 23z" />
<glyph unicode="M" horiz-adv-x="1589" d="M133 23l29 1296q0 23 22 22h238q16 0 24 -16l351 -778l346 778q8 16 24 16h240q20 0 20 -22l29 -1296q0 -23 -20 -23h-160q-20 0 -21 23l-20 749v37q0 81 6 215l2 59h-6q-41 -102 -135 -307l-281 -600q-6 -14 -24 -14h-6q-16 0 -25 14l-283 608q-45 94 -106 246l-23 53 h-4q4 -147 4 -223v-82l-18 -755q0 -23 -23 -23h-157q-11 0 -17 6t-6 17z" />
<glyph unicode="N" horiz-adv-x="1361" d="M164 23v1296q0 23 22 22h252q20 0 27 -16l381 -770q57 -115 151 -315h4q-4 221 -4 342v737q0 23 21 22h160q10 0 16 -6t6 -16v-1296q0 -10 -6 -16.5t-16 -6.5h-248q-18 0 -25 16l-360 715l-88 184q-76 156 -90 185h-5q4 -270 5 -418v-659q0 -10 -6.5 -16.5t-16.5 -6.5 h-158q-22 0 -22 23z" />
<glyph unicode="O" horiz-adv-x="1323" d="M139 467v407q0 240 131 366t392 126q260 0 391 -126t131 -366v-407q0 -240 -131 -366t-391 -126q-261 0 -392 126t-131 366zM346 473q0 -156 80 -235.5t236 -79.5q155 0 235 79.5t80 235.5v395q0 156 -80 236t-235 80q-156 0 -236 -80t-80 -236v-395z" />
<glyph unicode="P" horiz-adv-x="1128" d="M164 23v1296q0 23 22 22h359q508 0 508 -426q0 -209 -129 -317.5t-379 -108.5h-174v-466q0 -10 -6.5 -16.5t-16.5 -6.5h-162q-22 0 -22 23zM371 664h170q158 0 231.5 59t73.5 186q0 133 -75 194.5t-232 61.5h-168v-501z" />
<glyph unicode="Q" horiz-adv-x="1323" d="M139 467v407q0 240 131 366t392 126q260 0 391 -126t131 -366v-407q0 -195 -87 -315.5t-261 -159.5q6 -102 33.5 -145.5t86.5 -43.5q14 0 36 4.5t30 6.5l8 2q16 0 17 -21v-125q0 -18 -25 -26q-39 -16 -107 -17q-123 0 -188 85t-80 263q-252 2 -380 129t-128 363zM346 473 q0 -156 80 -235.5t236 -79.5t235.5 79.5t79.5 235.5v395q0 156 -80 236t-235 80q-156 0 -236 -80t-80 -236v-395z" />
<glyph unicode="R" horiz-adv-x="1245" d="M164 23v1296q0 23 22 22h410q250 0 370.5 -95t120.5 -285q0 -145 -67.5 -242.5t-196.5 -134.5v-2l338 -555q4 -8 4 -13q0 -14 -20 -14h-189q-18 0 -26 14l-324 541h-237v-532q0 -23 -23 -23h-160q-22 0 -22 23zM369 719h213q158 0 228.5 54t70.5 177q0 117 -65.5 166 t-221.5 49h-225v-446z" />
<glyph unicode="S" horiz-adv-x="1165" d="M96 328l2 37q2 18 8.5 26t18.5 8h158q25 0 24 -32q0 -111 66.5 -162t210.5 -51q137 0 204.5 47t67.5 143q0 70 -38 112t-134 83l-301 125q-141 59 -202.5 139t-61.5 203q0 176 113.5 267t334.5 91q225 0 347 -95t122 -274q0 -25 -5 -35t-17 -10h-160q-12 0 -17.5 8.5 t-2.5 28.5q0 96 -70 148.5t-201 52.5q-237 0 -237 -173q0 -67 38.5 -109t139.5 -83l297 -125q143 -61 202.5 -141t59.5 -213q0 -178 -122 -273.5t-372 -95.5q-233 0 -353 92.5t-120 260.5z" />
<glyph unicode="T" horiz-adv-x="1105" d="M66 1180v139q0 23 22 22h930q22 1 22 -22v-139q0 -23 -22 -23h-363v-1134q0 -23 -20 -23h-164q-10 0 -16 6t-6 17v1134h-361q-23 0 -22 23z" />
<glyph unicode="U" horiz-adv-x="1325" d="M154 469v850q0 23 22 22h162q10 0 16 -6t6 -16v-850q0 -152 78 -232.5t226 -80.5q147 0 225 80.5t78 232.5v850q0 23 20 22h164q10 0 16.5 -6t6.5 -16v-852q0 -233 -134.5 -362.5t-375.5 -129.5q-246 0 -378 127t-132 367z" />
<glyph unicode="V" horiz-adv-x="1216" d="M27 1325q0 16 20 16h176q20 0 27 -18l266 -844l86 -286h4q27 94 88 282l275 848q6 18 26 18h174q25 0 19 -24l-443 -1299q-6 -18 -26 -18h-230q-16 0 -26 18l-434 1299z" />
<glyph unicode="W" horiz-adv-x="1759" d="M37 1325q0 16 22 16h162q23 0 25 -18l223 -815q25 -88 43 -174l29 -115h4q39 141 86 283l164 538l-74 254q-2 2 -2 9q0 16 20 16h166q20 0 25 -21l219 -809q27 -90 72 -270h2l71 295l213 809q4 18 25 18h168q25 0 18 -24l-356 -1299q-2 -18 -25 -18h-217q-20 0 -24 18 l-131 455q-53 184 -76 277h-4q-35 -127 -80 -273l-137 -459q-8 -18 -25 -18h-211q-18 0 -22 18l-371 1299z" />
<glyph unicode="X" horiz-adv-x="1153" d="M12 27l437 663l-408 625q-4 12 -4 14q0 12 18 12h197q16 0 24 -14l211 -328l95 -155h2q59 104 98 164l205 319q8 14 26 14h189q28 1 14 -26l-405 -627l428 -661q4 -6 4 -15q0 -12 -17 -12h-198q-14 0 -27 14l-223 348q-23 35 -103 170h-2l-102 -165l-223 -353 q-10 -14 -27 -14h-194q-29 0 -15 27z" />
<glyph unicode="Y" horiz-adv-x="1122" d="M16 1327q0 6 5.5 10t13.5 4h188q18 0 25 -16l207 -428q53 -109 106 -229h2l43 92q12 29 28.5 64.5t39.5 78.5l203 422q6 16 26 16h184q11 0 16 -7t-1 -19l-438 -854v-438q0 -23 -21 -23h-164q-10 0 -16 6t-6 17v438l-437 854q-4 8 -4 12z" />
<glyph unicode="Z" horiz-adv-x="1126" d="M37 20v7q0 14 10 28l582 901q92 145 131 201v2q-78 -2 -234 -2h-401q-10 0 -16.5 6t-6.5 17v139q0 10 6.5 16t16.5 6h936q10 0 16 -6t6 -14v-6q0 -12 -8 -29l-575 -880l-146 -222v-2q86 2 262 2h398q10 0 16 -6t6 -16v-139q0 -10 -6 -16.5t-16 -6.5h-955q-10 0 -16 6 t-6 14z" />
<glyph unicode="[" horiz-adv-x="563" d="M143 -289v1714q0 20 23 21h393q10 0 16.5 -6t6.5 -15v-118q0 -10 -6.5 -16.5t-16.5 -6.5h-217v-1431h217q10 0 16.5 -6.5t6.5 -16.5v-119q0 -10 -6.5 -16t-16.5 -6h-393q-10 0 -16.5 6t-6.5 16z" />
<glyph unicode="\" horiz-adv-x="782" d="M23 1325q0 8 6 12t16 4h148q20 0 26 -18l539 -1298l2 -9q0 -8 -6 -12t-17 -4h-149q-17 0 -27 18l-536 1299z" />
<glyph unicode="]" horiz-adv-x="563" d="M-18 -170q0 23 22 23h217v1431h-217q-23 0 -22 23v118q0 20 22 21h393q20 0 21 -21v-1714q0 -10 -6 -16t-15 -6h-393q-10 0 -16 6t-6 16v119z" />
<glyph unicode="^" horiz-adv-x="1052" d="M91 724q-5 7 1 19l340 639q8 16 27 17h137q18 0 27 -17l338 -639q4 -8 4 -12q0 -6 -5.5 -10t-13.5 -4h-151q-18 0 -27 16l-242 484l-241 -484q-8 -16 -25 -16h-151q-13 0 -18 7z" />
<glyph unicode="_" horiz-adv-x="1110" d="M6 -145q0 20 23 20h1052q23 0 23 -20v-113q0 -23 -23 -23h-1052q-23 0 -23 23v113z" />
<glyph unicode="`" horiz-adv-x="466" d="M61 1411q0 6 6.5 11t14.5 5h158q14 0 26 -16l135 -250l5 -10q0 -16 -21 -16h-117q-14 0 -26 14l-176 252z" />
<glyph unicode="a" horiz-adv-x="1021" d="M90 258q0 109 41 174.5t133 102t250 51.5l160 14v82q0 96 -38 136t-132 40q-86 0 -129 -30q-41 -29 -41 -86v-5q0 -23 -21 -22h-157q-14 0 -19.5 13t-5.5 46q0 117 102.5 185.5t276.5 68.5q188 0 278.5 -84t90.5 -260v-432q0 -143 14 -227v-5q0 -20 -23 -20h-141 q-18 0 -27 29q-10 53 -16 129q-94 -96 -175 -139.5t-173 -43.5q-121 0 -184.5 72t-63.5 211zM291 274q0 -129 108 -129q59 0 122 36t153 126v154l-154 -15q-131 -10 -180 -47t-49 -125z" />
<glyph unicode="b" horiz-adv-x="1101" d="M143 18v1358q0 23 23 23h160q10 0 16 -6.5t6 -16.5v-489q84 74 163 107.5t167 33.5q303 0 303 -373v-264q0 -416 -426 -416q-53 0 -109.5 6.5t-111.5 14.5q-113 16 -191 22zM348 170q102 -18 182 -18q125 0 185.5 64.5t60.5 193.5v221q0 113 -39 165t-119 52 q-59 0 -120.5 -31t-149.5 -106v-541z" />
<glyph unicode="c" horiz-adv-x="1067" d="M117 379v244q0 197 112.5 301t321.5 104q188 0 295.5 -85t107.5 -222q0 -49 -22 -49h-158q-20 0 -20 33q0 68 -54.5 106.5t-146.5 38.5q-117 0 -174 -59.5t-57 -186.5v-205q0 -245 227 -245h2q92 0 146.5 39.5t54.5 103.5q0 33 20 33h158q10 0 16 -6.5t6 -14.5 q1 -13 1 -26q0 -136 -98 -218q-107 -90 -304 -90q-209 0 -321.5 104.5t-112.5 299.5z" />
<glyph unicode="d" horiz-adv-x="1114" d="M121 348v266q0 199 96 306.5t272 107.5q70 0 148 -17.5t129 -43.5v409q0 23 22 23h160q10 0 16.5 -6.5t6.5 -16.5v-1138q0 -53 3 -109.5t9 -99.5l2 -9q0 -20 -22 -20h-148q-23 0 -24 23q-12 51 -17 124q-90 -88 -175 -130t-183 -42q-145 0 -220 94.5t-75 278.5zM326 354 q-1 -200 155 -200q66 0 129.5 35.5t155.5 121.5v488q-55 25 -117.5 39t-113.5 14q-209 0 -209 -258v-240z" />
<glyph unicode="e" horiz-adv-x="1073" d="M117 350v273q0 199 107.5 302t314.5 103q205 0 312 -100.5t107 -292.5v-160q0 -23 -20 -22h-616v-66q0 -127 53 -183.5t172 -56.5q92 0 140 30t48 87q0 10 7.5 16.5t17.5 6.5h158q18 0 22 -21v-15q0 -127 -100 -199q-106 -77 -299 -77q-414 0 -424 375zM322 608h434v10 q-4 123 -55.5 180.5t-159.5 57.5q-219 0 -219 -238v-10z" />
<glyph unicode="f" horiz-adv-x="763" d="M37 852v129q0 10 7 16.5t15 6.5h156v96q0 156 89 239.5t253 83.5q51 0 104.5 -9t90.5 -23q35 -12 34 -31v-131q0 -16 -14 -17q-14 0 -31 9q-35 12 -79 21t-78 9q-164 0 -164 -159v-88h280q10 0 16.5 -6.5t6.5 -16.5v-129q0 -10 -6 -16.5t-15 -6.5h-282v-806 q0 -10 -6 -16.5t-17 -6.5h-159q-23 0 -23 23v806h-156q-8 0 -15 7.5t-7 15.5z" />
<glyph unicode="g" horiz-adv-x="1064" d="M63 -145q0 147 125 225q-51 51 -51 139q0 57 25.5 101.5t85.5 91.5q-94 86 -94 264q0 180 95 266t296 86q55 0 100 -6q20 162 35 221q6 25 25 25h145q27 0 16 -23q-33 -106 -61 -282q121 -84 121 -289q0 -178 -94.5 -263t-292.5 -85q-96 0 -174 22q-47 -33 -48 -82 q0 -33 21.5 -47t71.5 -18l338 -21q129 -8 191 -78.5t62 -205.5q0 -160 -113.5 -229.5t-365.5 -69.5q-242 0 -350.5 62t-108.5 196zM268 -106q0 -74 58.5 -103t203.5 -29q107 0 165.5 12.5t83 42t24.5 83.5q0 55 -26.5 79.5t-86.5 28.5l-342 21q-80 -39 -80 -135zM350 674 q0 -100 42 -140t147 -40q106 0 147 39.5t41 140.5q0 102 -42 144t-146 42q-103 0 -146 -42t-43 -144z" />
<glyph unicode="h" horiz-adv-x="1140" d="M143 23v1353q0 23 23 23h160q10 0 16 -6.5t6 -16.5v-514q84 84 168 125t182 41q148 0 223.5 -86t75.5 -254v-665q0 -23 -20 -23h-162q-10 0 -16 6t-6 17v643q0 92 -38 137t-116 45q-70 0 -140.5 -38t-150.5 -118v-669q0 -10 -6 -16.5t-16 -6.5h-160q-23 0 -23 23z" />
<glyph unicode="i" d="M127 1270v53q0 51 30.5 76.5t90.5 25.5q59 0 89.5 -25.5t30.5 -76.5v-53q0 -49 -30.5 -75t-89.5 -26q-60 0 -90.5 26t-30.5 75zM143 23v958q0 23 23 23h160q10 0 16 -6.5t6 -16.5v-958q0 -10 -6 -16.5t-16 -6.5h-160q-23 0 -23 23z" />
<glyph unicode="j" d="M-33 -252q0 10 13 16q164 115 163 379v838q0 10 6.5 16.5t16.5 6.5h160q10 0 16 -6.5t6 -16.5v-846q0 -188 -60.5 -312t-189.5 -212q-8 -4 -12 -4q-6 0 -16 10l-97 117q-6 8 -6 14zM127 1270v53q0 51 30.5 76.5t90.5 25.5q59 0 89.5 -25.5t30.5 -76.5v-53 q0 -49 -30.5 -75t-89.5 -26q-60 0 -90.5 26t-30.5 75z" />
<glyph unicode="k" horiz-adv-x="1028" d="M143 23v1353q0 23 23 23h160q10 0 16 -6.5t6 -16.5v-516q0 -94 -4 -282h4q78 94 148 170l221 243q8 12 24 13h211q14 0 18.5 -8.5t-5.5 -18.5l-340 -361l368 -589q4 -7 4 -15q0 -12 -18 -12h-191q-16 0 -26 14l-283 455l-131 -135v-311q0 -10 -6 -16.5t-16 -6.5h-160 q-23 0 -23 23z" />
<glyph unicode="l" d="M143 23v1353q0 23 23 23h160q10 0 16 -6.5t6 -16.5v-1353q0 -10 -6 -16.5t-16 -6.5h-160q-23 0 -23 23z" />
<glyph unicode="m" horiz-adv-x="1726" d="M129 977v4q0 23 25 23h143q12 0 16 -3.5t6 -13.5q14 -96 19 -135q92 92 172 134t176 42q205 0 258 -186q94 96 178 141t181 45q139 0 209.5 -85t70.5 -253v-667q0 -23 -22 -23h-160q-23 0 -23 23v643q0 92 -33.5 137t-105.5 45q-61 0 -125.5 -37t-148.5 -119v-669 q0 -23 -21 -23h-162q-10 0 -16 6t-6 17v643q0 92 -34 137t-103 45q-61 0 -126 -37t-149 -119v-669q0 -10 -6 -16.5t-16 -6.5h-160q-23 0 -23 23v727q0 135 -14 227z" />
<glyph unicode="n" horiz-adv-x="1140" d="M129 975v6q0 23 23 23h145q12 0 16 -4.5t9 -16.5q8 -39 16 -129q92 90 176 132t182 42q148 0 224.5 -86t76.5 -254v-665q0 -23 -20 -23h-162q-10 0 -16 6t-6 17v643q0 94 -38 138t-118 44q-68 0 -134.5 -36t-154.5 -118v-671q0 -10 -6 -16.5t-16 -6.5h-160q-23 0 -23 23 v727q0 135 -14 225z" />
<glyph unicode="o" horiz-adv-x="1103" d="M117 387v229q0 207 110.5 309.5t325.5 102.5q213 0 323.5 -103.5t110.5 -308.5v-229q0 -412 -434 -412q-213 0 -324.5 103.5t-111.5 308.5zM322 406q0 -129 55 -190.5t176 -61.5t175 61t54 191v192q0 129 -54 190.5t-175 61.5t-176 -61.5t-55 -190.5v-192z" />
<glyph unicode="p" horiz-adv-x="1103" d="M129 977v4q0 23 23 23h145q23 0 25 -21l16 -106q90 78 168 114.5t172 36.5q303 0 303 -373v-268q0 -203 -93 -307.5t-272 -104.5q-68 0 -141.5 16.5t-126.5 43.5v-391q0 -10 -6 -16.5t-16 -6.5h-160q-23 0 -23 23v1122q0 104 -14 211zM348 201q49 -25 106.5 -37 t110.5 -12q109 0 160 63.5t51 194.5v221q0 111 -39 164t-119 53q-61 0 -122.5 -32t-147.5 -107v-508z" />
<glyph unicode="q" horiz-adv-x="1112" d="M121 348v264q0 209 105.5 312.5t320.5 103.5q59 0 117.5 -7t111.5 -17q14 -2 72.5 -12.5t120.5 -14.5v-1333q0 -23 -23 -23h-160q-23 0 -22 23v475q-86 -76 -168 -110t-174 -34q-152 0 -226.5 92.5t-74.5 280.5zM326 373q0 -115 36.5 -167t118.5 -52q66 0 129.5 31.5 t153.5 107.5v538q-106 20 -201 21q-125 0 -181 -61.5t-56 -196.5v-221z" />
<glyph unicode="r" horiz-adv-x="747" d="M129 979v4q0 20 23 21h145q23 0 25 -21q12 -68 16 -145q66 84 148.5 137t154.5 53q39 0 57 -6q14 -4 19 -25q2 -20 2 -65q0 -66 -6 -125q-4 -25 -29 -19q-27 8 -74 9q-68 0 -136 -38t-126 -106v-630q0 -10 -6 -16.5t-16 -6.5h-160q-23 0 -23 23v733q0 121 -14 223z" />
<glyph unicode="s" horiz-adv-x="958" d="M102 301q0 20 23 21h158q18 0 18 -21q0 -84 42 -122t136 -38q186 0 187 121q0 43 -27 73t-88 56l-234 98q-111 45 -156.5 105.5t-45.5 157.5q0 276 354 276q182 0 280.5 -73.5t98.5 -211.5q0 -8 -6 -14t-17 -6h-157q-23 0 -23 33q0 49 -45 77.5t-123 28.5 q-82 0 -120 -26.5t-38 -83.5q0 -43 21.5 -63.5t91.5 -51.5l234 -96q109 -47 156.5 -108.5t47.5 -160.5q0 -145 -100 -221t-291 -76q-195 0 -287 80q-91 78 -90 239v7z" />
<glyph unicode="t" horiz-adv-x="813" d="M37 852v129q0 23 20 23h162l25 245q2 20 24 21h125q23 0 23 -21l2 -245h303q23 0 22 -23v-129q0 -23 -22 -23h-303v-512q0 -90 32.5 -127.5t110.5 -37.5q76 0 158 34q4 2 12 2q14 0 14 -18v-133q0 -18 -18 -25q-92 -37 -211 -37q-164 0 -233.5 80t-69.5 254v520h-156 q-20 0 -20 23z" />
<glyph unicode="u" horiz-adv-x="1114" d="M143 315v666q0 23 23 23h160q10 0 16 -6.5t6 -16.5v-643q0 -94 33 -139t102 -45q63 0 130 36.5t153 120.5v670q0 23 22 23h160q23 0 23 -23v-729q0 -127 14 -229q0 -23 -24 -23h-138q-25 0 -26 20q-12 86 -15 136q-190 -180 -366 -181q-133 0 -203 87.5t-70 252.5z" />
<glyph unicode="v" horiz-adv-x="1032" d="M47 987q0 16 19 17h172q20 0 26 -19l168 -543q61 -201 82 -280h4q14 53 66 225l16 53l168 545q6 18 27 19h172q10 0 15 -7.5t1 -17.5l-332 -961q-6 -18 -26 -18h-219q-21 0 -27 18l-330 961z" />
<glyph unicode="w" horiz-adv-x="1488" d="M49 987q0 16 21 17h170q18 0 24 -21l150 -534l67 -265h4l80 256l99 314l-58 204l-2 7q0 18 21 18h153q16 0 25 -18l137 -525q8 -29 33 -127l31 -129h4l67 262l150 537q6 20 24 21h172q11 0 16 -7.5t1 -17.5l-299 -961q-6 -18 -25 -18h-205q-18 0 -24 18l-60 193l-73 274 h-4q-53 -180 -82 -268l-64 -199q-6 -18 -24 -18h-203q-18 0 -25 18l-299 961z" />
<glyph unicode="x" horiz-adv-x="1001" d="M20.5 8q-4.5 8 4.5 19l348 489l-326 461q-4 4 -4 12q0 14 18 15h191q18 0 24 -15l132 -190q37 -55 92 -148h2l104 158l123 180q8 14 27 15h180q14 0 18 -8.5t-4 -18.5l-325 -455l354 -495q4 -4 4 -13q0 -14 -18 -14h-191q-16 0 -24 14l-125 179q-86 127 -127 190h-2 q-39 -63 -121 -190l-123 -179q-6 -14 -27 -14h-188q-12 0 -16.5 8z" />
<glyph unicode="y" horiz-adv-x="1030" d="M43 989q0 14 18 15h175q18 0 24 -19l168 -461q25 -68 70 -211l18 -59h4q43 137 90 270l168 461q6 18 25 19h168q12 0 17 -7.5t1 -19.5l-510 -1337q-8 -18 -24 -19h-160q-10 0 -15.5 7t-0.5 20l143 362l-377 967q-2 4 -2 12z" />
<glyph unicode="z" horiz-adv-x="958" d="M45 20v5q0 18 8 28l424 604q72 106 121 172v2h-227h-254q-23 0 -23 21v129q0 23 23 23h772q23 0 22 -21v-6q0 -14 -10 -33l-409 -579l-33 -48q-66 -94 -101 -141v-2h207h299q8 0 14.5 -6t6.5 -16v-129q0 -23 -21 -23h-796q-23 0 -23 20z" />
<glyph unicode="{" horiz-adv-x="567" d="M20 506v123q0 23 23 22h37q68 0 94.5 32t26.5 114v270q0 158 31.5 237.5t105.5 110.5t215 33q10 0 16 -6t6 -17v-118q0 -23 -22 -23q-68 -2 -99.5 -16.5t-44 -50t-12.5 -107.5v-311q0 -100 -29.5 -155.5t-95.5 -76.5q66 -18 95.5 -74.5t29.5 -156.5v-309q0 -74 13.5 -110 t45 -49t97.5 -15q23 0 22 -23v-119q0 -10 -6 -16t-16 -6q-143 2 -217 33.5t-104.5 111.5t-30.5 236v268q0 84 -27 114.5t-94 30.5h-37q-10 0 -16.5 6.5t-6.5 16.5z" />
<glyph unicode="|" horiz-adv-x="514" d="M156 -213v1765q0 10 6 16.5t16 6.5h158q10 0 16 -6t6 -17v-1765q0 -10 -6 -16.5t-16 -6.5h-158q-10 0 -16 6.5t-6 16.5z" />
<glyph unicode="}" horiz-adv-x="567" d="M-8 -170q0 23 22 23q66 2 97.5 15t44 49t12.5 110v309q0 100 30.5 156.5t96.5 74.5q-66 20 -96.5 75.5t-30.5 156.5v311q0 72 -11.5 107.5t-43 50t-99.5 16.5q-23 0 -22 23v118q0 10 6 16.5t16 6.5q141 -2 215 -33t106 -110.5t32 -237.5v-270q0 -82 26.5 -114t93.5 -32 h37q23 0 23 -22v-123q0 -10 -6 -16.5t-17 -6.5h-37q-68 0 -94 -30.5t-26 -114.5v-268q0 -156 -31 -236t-104.5 -111.5t-217.5 -33.5q-10 0 -16 6t-6 16v119z" />
<glyph unicode="~" horiz-adv-x="1228" d="M184 532v125q0 8 2 13.5t9 7.5q113 53 237 53q57 0 98 -7t95 -22q49 -14 87 -21t89 -7q68 0 140.5 20.5t80.5 22.5l8 2q14 0 14 -19v-125q0 -18 -14 -24q-119 -49 -233 -49q-58 0 -98 7t-91 21q-53 14 -90 21.5t-90 7.5q-68 0 -140.5 -20.5t-80.5 -22.5l-8 -2 q-14 0 -15 18z" />
<glyph unicode="&#xa2;" horiz-adv-x="1290" d="M223 481v244q0 174 89 276.5t259 124.5v140q0 20 21 20h141q20 0 21 -20v-142q145 -20 226 -101t81 -200q0 -49 -23 -49h-157q-20 0 -21 33q0 68 -54 106.5t-147 38.5q-116 0 -173.5 -59t-57.5 -186v-205q0 -246 229 -246q92 0 146.5 40t54.5 103q0 33 21 33h157 q10 0 16.5 -6t6.5 -14q8 -133 -73 -219.5t-232 -108.5v-141q0 -20 -21 -21h-141q-20 0 -21 21v139q-170 23 -259 124t-89 275z" />
<glyph unicode="&#xa3;" horiz-adv-x="1290" d="M164 629v121q0 10 6 16t16 6h144v189q4 406 385 405q180 0 275 -86t93 -279q-2 -25 -24 -24h-152q-18 0 -18 24q0 86 -37 137.5t-131 51.5q-104 0 -146.5 -58.5t-42.5 -189.5v-170h308q8 0 14 -6t6 -16v-121q0 -23 -20 -23h-308v-205q0 -78 -20 -130t-59 -89h663 q10 0 16.5 -6t6.5 -16v-137q0 -10 -6.5 -16.5t-16.5 -6.5h-862q-10 0 -16.5 6t-6.5 17v106q0 16 13 27q86 98 86 211v239h-144q-23 0 -22 23z" />
<glyph unicode="&#xa5;" horiz-adv-x="1290" d="M121 1327q0 14 18 14h185q20 0 26 -16l207 -465l35 -82l49 -114h4l84 198l207 463q6 16 27 16h180q12 0 16 -7t0 -19l-346 -713h148q10 0 16 -6t6 -16v-109q0 -8 -6 -15t-16 -7h-216v-103h216q10 0 16 -6t6 -16v-109q0 -8 -6 -15t-16 -7h-216v-170q0 -10 -6 -16.5 t-16 -6.5h-164q-20 0 -20 23v170h-220q-8 0 -15 7t-7 15v109q0 10 6 16t16 6h220v103h-220q-8 0 -15 7t-7 15v109q0 10 6 16t16 6h150l-346 713q-2 4 -2 12z" />
<glyph unicode="&#xa8;" horiz-adv-x="716" d="M62 1253v58q0 45 30.5 70.5t83.5 25.5q58 0 87.5 -24.5t29.5 -71.5v-58q0 -43 -30.5 -68.5t-86.5 -25.5q-53 0 -83.5 25.5t-30.5 68.5zM424 1253v58q0 45 31 70.5t84 25.5q55 0 86 -25.5t31 -70.5v-58q0 -43 -31 -68.5t-86 -25.5q-53 0 -84 25.5t-31 68.5z" />
<glyph unicode="&#xa9;" horiz-adv-x="1456" d="M141 485v267q0 242 145.5 376t442.5 134q295 0 440.5 -134.5t145.5 -375.5v-267q0 -242 -145.5 -376t-440.5 -134q-297 0 -442.5 134.5t-145.5 375.5zM303 477q0 -172 108.5 -262t317.5 -90t316.5 90t107.5 262v283q0 172 -107.5 262t-316.5 90t-317.5 -90t-108.5 -262 v-283zM449 539v159q0 131 74.5 203t209.5 72q133 0 206 -62.5t73 -177.5q0 -25 -21 -24h-121q-18 0 -18 24q0 92 -117 92q-127 0 -127 -139v-135q0 -139 123 -139q119 0 119 92q0 12 4 17t18 5h117q20 0 21 -22q0 -109 -73 -174.5t-206 -65.5q-135 0 -208.5 71t-73.5 204z " />
<glyph unicode="&#xab;" horiz-adv-x="1034" d="M131 539q0 8 4 16l191 322q10 14 26 14h160q12 0 17.5 -7t-3.5 -20l-178 -325l178 -326q4 -8 4 -12q0 -6 -5 -10.5t-13 -4.5h-160q-16 1 -26 17l-191 321q-4 8 -4 15zM496 539q0 10 6 16l188 322q10 14 27 14h160q12 0 17 -7t-1 -20l-178 -325l176 -326q4 -4 4 -12 q0 -14 -18 -15h-160q-17 1 -27 17l-188 321q-6 6 -6 15z" />
<glyph unicode="&#xad;" horiz-adv-x="999" d="M133 487v113q0 10 6 16.5t17 6.5h688q10 0 16 -6.5t6 -16.5v-113q0 -8 -6 -15t-16 -7h-688q-8 0 -15.5 7t-7.5 15z" />
<glyph unicode="&#xae;" horiz-adv-x="1212" d="M152 999v66q0 176 113.5 276.5t340.5 100.5t340 -100.5t113 -276.5v-66q0 -176 -112.5 -276t-340.5 -100q-227 0 -340.5 100t-113.5 276zM268 989q0 -125 87 -191.5t251 -66.5t251 66.5t87 191.5v86q0 125 -87 191.5t-251 66.5t-251 -66.5t-87 -191.5v-86zM438 831v412 q0 18 23 19h143q109 0 157 -36t48 -108q0 -51 -23.5 -81.5t-78.5 -51.5l102 -149q6 -6 6 -13q0 -10 -16 -10h-72q-16 0 -25 12l-94 146h-67v-140q0 -8 -6.5 -13t-14.5 -5h-61q-8 0 -14.5 5t-6.5 13zM541 1051h71q92 0 93 55v16q0 31 -21.5 45.5t-73.5 14.5h-69v-131z" />
<glyph unicode="&#xb4;" horiz-adv-x="466" d="M64.5 1143q-5.5 8 1.5 18l135 250q10 16 26 16h158q14 0 18.5 -8t-4.5 -18l-176 -252q-8 -14 -26 -14h-117q-10 0 -15.5 8z" />
<glyph unicode="&#xb8;" horiz-adv-x="438" d="M61 -297q0 20 21 21q14 0 27.5 -2.5t25.5 -2.5q43 0 63.5 13.5t20.5 34.5v24q0 29 -16.5 40t-53.5 11h-39q-8 0 -14 5.5t-6 13.5q0 25 4 37l47 151q6 18 27 19h98q24 0 18 -25l-39 -123h21q45 0 78 -37t33 -92v-33q0 -82 -51.5 -121.5t-157.5 -39.5q-47 0 -86 8 q-20 0 -21 22v76z" />
<glyph unicode="&#xbb;" horiz-adv-x="1034" d="M137 877q0 14 21 14h159q16 0 27 -14l188 -322q14 -16 0 -31l-188 -321q-10 -16 -27 -17h-159q-13 0 -18 7.5t3 19.5l176 326l-178 325q-4 8 -4 13zM504 877q0 6 5 10t13 4h160q16 0 27 -14l190 -322q10 -16 0 -31l-190 -321q-10 -16 -27 -17h-160q-12 0 -17 7.5t3 19.5 l178 326l-178 325q-4 8 -4 13z" />
<glyph unicode="&#x2c6;" horiz-adv-x="663" d="M62 1141v110q0 16 14 27l242 137q6 6 14 6t17 -6l239 -137q14 -10 15 -27v-110q0 -12 -7.5 -17.5t-19.5 0.5l-244 123l-243 -123q-8 -4 -13 -4q-14 0 -14 21z" />
<glyph unicode="&#x2da;" horiz-adv-x="595" d="M61 1325q0 98 63.5 152.5t174.5 54.5q109 0 172.5 -53.5t63.5 -153.5q0 -98 -62.5 -151.5t-173.5 -53.5t-174.5 53.5t-63.5 151.5zM201 1327q0 -92 98 -92q96 0 96 92t-96 92q-49 0 -73.5 -24.5t-24.5 -67.5z" />
<glyph unicode="&#x2dc;" horiz-adv-x="663" d="M62 1212v105q0 16 12 29q27 20 67 36.5t87 16.5q39 0 65.5 -8.5t61.5 -22.5q53 -23 86 -22q57 0 135 38q8 4 12 5q6 0 10.5 -5.5t4.5 -13.5v-106q0 -16 -13 -27q-72 -55 -153 -55q-45 -1 -111 28q-61 27 -102 27q-53 0 -135 -41q-4 -2 -13 -2q-14 0 -14 18z" />
<glyph unicode="&#x401;" horiz-adv-x="1097" d="M164 23v1296q0 23 22 22h754q20 0 21 -22v-139q0 -23 -21 -23h-569v-389h520q20 0 20 -20v-134q0 -10 -6 -16t-14 -6h-520v-408h569q20 0 21 -22v-139q0 -23 -21 -23h-754q-22 0 -22 23zM279 1550v56q0 49 30.5 74.5t85.5 25.5q58 0 87.5 -25.5t29.5 -74.5v-56 q0 -47 -29.5 -72.5t-87.5 -25.5q-53 0 -84.5 26.5t-31.5 71.5zM639 1550v56q0 49 30.5 74.5t86.5 25.5q57 0 88 -25.5t31 -74.5v-56q0 -47 -31 -72.5t-88 -25.5q-53 0 -85 26.5t-32 71.5z" />
<glyph unicode="&#x402;" horiz-adv-x="1517" d="M66 1180v139q0 23 22 22h965q10 0 16 -6t6 -16v-139q0 -10 -6 -16.5t-16 -6.5h-398v-420q176 160 389 160q160 0 246 -91t86 -265v-135q0 -184 -94 -296t-262 -133q-8 -2 -23 -2q-18 0 -20 15l-41 141q-2 4 -2 12q0 16 33 21q98 16 150 75.5t52 161.5v109q0 207 -186 207 q-80 0 -157.5 -38t-170.5 -120v-536q0 -23 -20 -23h-164q-10 0 -16 6t-6 17v1134h-361q-23 0 -22 23z" />
<glyph unicode="&#x403;" horiz-adv-x="983" d="M164 23v1296q0 23 22 22h711q20 0 21 -22v-139q0 -23 -21 -23h-526v-1134q0 -10 -6.5 -16.5t-16.5 -6.5h-164q-20 0 -20 23zM444 1460q-4 8 2 19l119 215q6 16 24 16h162q14 0 18.5 -8t-4.5 -19l-157 -217q-8 -14 -27 -14h-121q-12 0 -16 8z" />
<glyph unicode="&#x404;" horiz-adv-x="1257" d="M139 412v518q0 227 116 331.5t363 104.5q238 0 368 -84t130 -235q0 -23 -2 -35q-4 -25 -8 -33t-16 -8h-162q-12 0 -16.5 8t-4.5 31q0 90 -66.5 133t-209.5 43q-156 0 -220.5 -52.5t-64.5 -179.5v-184h510q20 0 21 -22v-136q0 -10 -6.5 -16t-14.5 -6h-510v-199 q0 -127 68.5 -181t230.5 -54q145 0 212 43t67 131q0 23 4 31t14 8l164 2q12 0 17 -14.5t5 -49.5q0 -166 -115.5 -249t-353.5 -83q-272 0 -396 103.5t-124 333.5z" />
<glyph unicode="&#x405;" horiz-adv-x="1165" d="M96 328l2 37q2 18 8.5 26t18.5 8h158q25 0 24 -32q0 -111 66.5 -162t210.5 -51q137 0 204.5 47t67.5 143q0 70 -38 112t-134 83l-301 125q-141 59 -202.5 139t-61.5 203q0 176 113.5 267t334.5 91q225 0 347 -95t122 -274q0 -25 -5 -35t-17 -10h-160q-12 0 -17.5 8.5 t-2.5 28.5q0 96 -70 148.5t-201 52.5q-238 0 -237 -174q0 -66 38.5 -108t139.5 -83l297 -125q143 -61 202.5 -141t59.5 -213q0 -178 -122 -273.5t-372 -95.5q-233 0 -353 92.5t-120 260.5z" />
<glyph unicode="&#x406;" horiz-adv-x="534" d="M164 23v1296q0 23 22 22h162q10 0 16.5 -6t6.5 -16v-1296q0 -10 -6.5 -16.5t-16.5 -6.5h-162q-22 0 -22 23z" />
<glyph unicode="&#x407;" horiz-adv-x="534" d="M-28 1550v56q0 49 30.5 74.5t85.5 25.5q58 0 87.5 -25.5t29.5 -74.5v-56q0 -47 -29.5 -72.5t-87.5 -25.5q-53 0 -84.5 26.5t-31.5 71.5zM164 23v1296q0 23 22 22h162q10 0 16.5 -6t6.5 -16v-1296q0 -10 -6.5 -16.5t-16.5 -6.5h-162q-22 0 -22 23zM332 1550v56 q0 49 30.5 74.5t86.5 25.5q57 0 88 -25.5t31 -74.5v-56q0 -47 -31 -72.5t-88 -25.5q-53 0 -85 26.5t-32 71.5z" />
<glyph unicode="&#x408;" horiz-adv-x="555" d="M-16 -135q0 14 36 24q164 41 164 289v1141q0 23 23 22h162q10 0 16 -6t6 -16v-1131q0 -420 -315 -485l-27 -4q-18 0 -22 16l-41 142q-2 2 -2 8z" />
<glyph unicode="&#x409;" horiz-adv-x="1779" d="M0 25l424 1298q6 18 27 18h219q18 0 26 -18l156 -467h348q504 0 504 -412q0 -217 -129 -330.5t-381 -113.5h-268q-16 4 -23 18l-266 875l-80 266h-2q-25 -76 -47 -164l-29 -100l-264 -877q-6 -18 -27 -18h-170q-24 0 -18 25zM907 682l168 -506h113q156 0 232.5 66.5 t76.5 201.5q0 127 -71.5 182.5t-233.5 55.5h-285z" />
<glyph unicode="&#x40a;" horiz-adv-x="1986" d="M164 23v1296q0 23 22 22h162q10 0 16.5 -6t6.5 -16v-504h618v504q0 10 6 16t17 6h162q23 0 22 -22v-490h211q246 0 375 -103t129 -298q0 -205 -131 -316.5t-379 -111.5h-389q-10 0 -16.5 6t-6.5 17v612h-618v-612q0 -10 -6.5 -16.5t-16.5 -6.5h-162q-23 0 -22 23z M1196 176h199q151 0 230 63.5t79 186.5q0 117 -75 172t-230 55h-203v-477z" />
<glyph unicode="&#x40b;" horiz-adv-x="1517" d="M66 1180v139q0 23 22 22h965q10 0 16 -6t6 -16v-139q0 -10 -6 -16.5t-16 -6.5h-398v-420q176 160 387 160q162 0 248 -91t86 -265v-518q0 -10 -6 -16.5t-16 -6.5h-162q-23 0 -23 23v485q0 209 -190 209q-80 0 -157 -38t-167 -120v-536q0 -23 -20 -23h-164q-10 0 -16 6 t-6 17v1134h-361q-23 0 -22 23z" />
<glyph unicode="&#x40c;" horiz-adv-x="1208" d="M164 23v1296q0 23 22 22h162q10 0 16.5 -6t6.5 -16v-551h157l412 561q8 12 27 12h184q14 0 18.5 -8t-4.5 -18l-456 -615l497 -673q4 -4 4 -13q0 -14 -18 -14h-201q-18 0 -28 14l-428 572h-164v-563q0 -10 -6.5 -16.5t-16.5 -6.5h-162q-22 0 -22 23zM492 1460q-4 8 2 19 l119 215q6 16 24 16h162q14 0 18.5 -8t-4.5 -19l-157 -217q-8 -14 -27 -14h-121q-12 0 -16 8z" />
<glyph unicode="&#x40d;" horiz-adv-x="1353" d="M164 23v1296q0 23 20 22h158q23 0 23 -22v-741q-8 -201 -17 -299h6q92 180 156 292l453 754q10 16 26 16h180q20 0 21 -22v-1296q0 -23 -21 -23h-157q-10 0 -16.5 6t-6.5 17v739q4 92 17 301h-5q-37 -72 -68.5 -130.5t-58.5 -107.5q-14 -18 -26 -45l-457 -764 q-10 -16 -26 -16h-181q-20 0 -20 23zM463 1696q0 14 18 14h160q21 0 27 -16l118 -215q4 -8 5 -13q0 -14 -21 -14h-119q-18 0 -26 14l-158 217q-4 4 -4 13z" />
<glyph unicode="&#x40e;" horiz-adv-x="1144" d="M43 1327q0 14 18 14h185q18 0 24 -16l222 -451q57 -119 92 -202h4q23 55 94 202l223 451q6 16 27 16h178q10 0 15 -7t-1 -19l-657 -1299q-6 -16 -27 -16h-161q-13 0 -18 7t1 20l217 440l-434 848q-2 4 -2 12zM295 1563v125q0 12 7 16t20 -2q51 -35 121.5 -65.5 t142.5 -30.5t142.5 30.5t121.5 65.5l12 4q14 0 15 -18v-125q0 -14 -15 -27q-43 -31 -118.5 -61.5t-157.5 -30.5q-84 0 -158 29.5t-121 62.5q-12 12 -12 27z" />
<glyph unicode="&#x40f;" horiz-adv-x="1357" d="M164 23v1296q0 23 22 22h162q10 0 16.5 -6t6.5 -16v-1133h616v1133q0 23 23 22h161q23 1 23 -22v-1296q0 -10 -6 -16.5t-17 -6.5h-389v-250q0 -10 -6 -16t-14 -6h-164q-8 0 -15.5 6t-7.5 16v250h-389q-23 0 -22 23z" />
<glyph unicode="&#x410;" horiz-adv-x="1171" d="M0 25l449 1298q6 18 24 18h219q20 0 27 -18l452 -1298l3 -9q0 -16 -21 -16h-176q-20 0 -27 18l-90 281h-555l-90 -281q-6 -18 -27 -18h-170q-25 0 -18 25zM360 473h443l-139 430q-37 113 -82 256h-4q-23 -74 -54 -168l-26 -84z" />
<glyph unicode="&#x411;" horiz-adv-x="1173" d="M164 23v1296q0 23 22 22h734q10 0 16 -6t6 -16v-139q0 -10 -6 -16.5t-16 -6.5h-549v-328h215q499 0 499 -401q0 -209 -129 -318.5t-378 -109.5h-392q-23 0 -22 23zM371 172h200q156 0 233 63.5t77 192.5q0 123 -73 178.5t-233 55.5h-204v-490z" />
<glyph unicode="&#x412;" horiz-adv-x="1187" d="M164 23v1296q0 23 22 22h383q475 0 475 -333q0 -113 -53 -182.5t-172 -112.5v-4q283 -53 283 -334q0 -193 -129 -284t-404 -91h-383q-22 0 -22 23zM369 176h202q174 0 249 49t75 164t-76 168t-241 53h-209v-434zM369 772h192q143 0 210 49t67 154q0 102 -69 147t-224 45 h-176v-395z" />
<glyph unicode="&#x413;" horiz-adv-x="983" d="M164 23v1296q0 23 22 22h711q20 0 21 -22v-139q0 -23 -21 -23h-526v-1134q0 -10 -6.5 -16.5t-16.5 -6.5h-164q-20 0 -20 23z" />
<glyph unicode="&#x414;" horiz-adv-x="1257" d="M0 164q0 10 6 16t17 6h94l372 1137q10 18 27 18h219q20 0 27 -18l377 -1137h96q10 0 16 -6t6 -16v-414q0 -10 -6 -16t-16 -6h-160q-10 0 -16 6t-6 16v250h-848v-250q0 -10 -6 -16t-17 -6h-159q-10 0 -16.5 6t-6.5 16v414zM328 186h592l-193 627l-104 346h-2l-103 -354z " />
<glyph unicode="&#x415;" horiz-adv-x="1097" d="M164 23v1296q0 23 22 22h754q20 0 21 -22v-139q0 -23 -21 -23h-569v-389h520q20 0 20 -20v-134q0 -10 -6 -16t-14 -6h-520v-408h569q20 0 21 -22v-139q0 -23 -21 -23h-754q-22 0 -22 23z" />
<glyph unicode="&#x416;" horiz-adv-x="1779" d="M56 7q-5 7 1 20l357 665l-330 623q-4 8 -4 12q0 14 20 14h179q20 0 26 -14l289 -559h194v551q0 23 21 22h160q23 0 22 -22v-551h199l291 559q6 14 26 14h172q12 0 17.5 -7t-0.5 -19l-332 -623l356 -665q4 -8 4 -13q0 -14 -20 -14h-191q-14 0 -26 14l-301 574h-195v-565 q0 -23 -22 -23h-160q-20 0 -21 23v565h-198l-301 -574q-8 -14 -27 -14h-188q-13 0 -18 7z" />
<glyph unicode="&#x417;" horiz-adv-x="1191" d="M104 322q0 25 5.5 32.5t17.5 7.5h156q20 0 20 -18q0 -100 60.5 -145t195.5 -45q166 0 244 55t78 176q0 106 -73 155.5t-235 49.5h-198q-10 0 -16.5 6t-6.5 16v129q0 10 6.5 16.5t16.5 6.5h164q154 0 222 51t68 166q0 109 -63.5 158t-206.5 49q-129 0 -187.5 -44 t-58.5 -143q0 -23 -20 -22h-156q-23 0 -22 27q-8 174 109.5 267t348.5 93q463 0 463 -350q0 -119 -60.5 -202t-168.5 -118v-4q139 -27 209.5 -104.5t70.5 -204.5q0 -197 -133 -302.5t-395 -105.5q-455 1 -455 347z" />
<glyph unicode="&#x418;" horiz-adv-x="1353" d="M164 23v1296q0 23 20 22h158q23 0 23 -22v-741q-8 -201 -17 -299h6q92 180 156 292l453 754q10 16 26 16h180q20 0 21 -22v-1296q0 -23 -21 -23h-157q-10 0 -16.5 6t-6.5 17v739q4 92 17 301h-5q-37 -72 -68.5 -130.5t-58.5 -107.5q-14 -18 -26 -45l-457 -764 q-10 -16 -26 -16h-181q-20 0 -20 23z" />
<glyph unicode="&#x419;" horiz-adv-x="1353" d="M164 23v1296q0 23 20 22h158q23 0 23 -22v-741q-8 -201 -17 -299h6q92 180 156 292l453 754q10 16 26 16h180q20 0 21 -22v-1296q0 -23 -21 -23h-157q-10 0 -16.5 6t-6.5 17v739q4 92 17 301h-5q-37 -72 -68.5 -130.5t-58.5 -107.5q-14 -18 -26 -45l-457 -764 q-10 -16 -26 -16h-181q-20 0 -20 23zM389 1563v125q0 12 7 16t20 -2q51 -35 121.5 -65.5t142.5 -30.5t142.5 30.5t121.5 65.5l12 4q14 0 15 -18v-125q0 -14 -15 -27q-43 -31 -118.5 -61.5t-157.5 -30.5q-84 0 -158 29.5t-121 62.5q-12 12 -12 27z" />
<glyph unicode="&#x41a;" horiz-adv-x="1208" d="M164 23v1296q0 23 22 22h162q10 0 16.5 -6t6.5 -16v-551h157l412 561q8 12 27 12h184q14 0 18.5 -8t-4.5 -18l-456 -615l497 -673q4 -4 4 -13q0 -14 -18 -14h-201q-18 0 -28 14l-428 572h-164v-563q0 -10 -6.5 -16.5t-16.5 -6.5h-162q-22 0 -22 23z" />
<glyph unicode="&#x41b;" horiz-adv-x="1159" d="M0 25l442 1298q6 18 25 18h219q20 0 27 -18l446 -1298l2 -9q0 -16 -20 -16h-176q-20 0 -27 18l-283 885q-20 61 -28 92q-25 72 -52 164h-4q-6 -27 -14 -47q-35 -125 -61 -207l-281 -887q-6 -18 -27 -18h-170q-24 0 -18 25z" />
<glyph unicode="&#x41c;" horiz-adv-x="1589" d="M133 23l29 1296q0 23 22 22h238q16 0 24 -16l351 -778l346 778q8 16 24 16h240q20 0 20 -22l29 -1296q0 -23 -20 -23h-160q-20 0 -21 23l-20 749q-2 84 6 252l2 59h-6q-41 -102 -135 -307l-281 -600q-6 -14 -24 -14h-6q-16 0 -25 14l-283 608q-45 94 -106 246l-23 53h-4 q4 -147 4 -223v-82l-18 -755q0 -23 -23 -23h-157q-11 0 -17 6t-6 17z" />
<glyph unicode="&#x41d;" horiz-adv-x="1359" d="M164 23v1296q0 23 22 22h162q10 0 16.5 -6t6.5 -16v-541h618v541q0 10 6 16t17 6h164q20 0 20 -22v-1296q0 -23 -20 -23h-164q-10 0 -16.5 6t-6.5 17v575h-618v-575q0 -10 -6.5 -16.5t-16.5 -6.5h-162q-22 0 -22 23z" />
<glyph unicode="&#x41e;" horiz-adv-x="1323" d="M139 467v407q0 240 131 366t392 126q260 0 391 -126t131 -366v-407q0 -240 -131 -366t-391 -126q-261 0 -392 126t-131 366zM346 473q0 -156 80 -235.5t236 -79.5q155 0 235 79.5t80 235.5v395q0 156 -80 236t-235 80q-156 0 -236 -80t-80 -236v-395z" />
<glyph unicode="&#x41f;" horiz-adv-x="1357" d="M164 23v1296q0 23 22 22h985q23 0 23 -22v-1296q0 -23 -23 -23h-161q-23 0 -23 23v1134h-616v-1134q0 -10 -6.5 -16.5t-16.5 -6.5h-162q-22 0 -22 23z" />
<glyph unicode="&#x420;" horiz-adv-x="1128" d="M164 23v1296q0 23 22 22h359q508 0 508 -426q0 -209 -129 -317.5t-379 -108.5h-174v-466q0 -10 -6.5 -16.5t-16.5 -6.5h-162q-22 0 -22 23zM371 664h170q158 0 231.5 59t73.5 186q0 133 -75 194.5t-232 61.5h-168v-501z" />
<glyph unicode="&#x421;" horiz-adv-x="1306" d="M139 467v405q0 238 137.5 366t385.5 128q233 0 374.5 -108.5t141.5 -294.5q0 -18 -4 -60q-4 -29 -23 -29l-164 3q-25 0 -20 22q6 135 -73 211t-230 76q-154 0 -236 -80t-82 -234v-403q0 -154 82 -233.5t236 -79.5q143 0 224 65.5t81 181.5q0 25 -2 39v4q0 18 20 19l162 2 q12 0 17 -7t8 -22q2 -18 2 -53q0 -123 -64.5 -216t-181.5 -143.5t-271 -50.5q-247 0 -383.5 128t-136.5 364z" />
<glyph unicode="&#x422;" horiz-adv-x="1105" d="M66 1180v139q0 23 22 22h930q22 1 22 -22v-139q0 -23 -22 -23h-363v-1134q0 -23 -20 -23h-164q-10 0 -16 6t-6 17v1134h-361q-23 0 -22 23z" />
<glyph unicode="&#x423;" horiz-adv-x="1144" d="M43 1327q0 14 18 14h185q18 0 24 -16l222 -451q57 -119 92 -202h4q23 55 94 202l223 451q6 16 27 16h178q10 0 15 -7t-1 -19l-657 -1299q-6 -16 -27 -16h-161q-13 0 -18 7t1 20l217 440l-434 848q-2 4 -2 12z" />
<glyph unicode="&#x424;" horiz-adv-x="1716" d="M139 496v348q0 258 161 386t454 134v104q0 8 6 14.5t16 6.5h162q23 0 23 -21v-104q294 -8 455 -135t161 -385v-348q0 -258 -161 -385t-455 -136v-102q0 -20 -23 -20h-162q-10 0 -16 6t-6 14v102q-293 8 -454 135.5t-161 385.5zM344 510q0 -180 105.5 -266t310.5 -92v1036 q-205 -6 -310.5 -91t-105.5 -268v-319zM956 152q205 6 310.5 92t105.5 266v319q0 182 -105.5 267.5t-310.5 91.5v-1036z" />
<glyph unicode="&#x425;" horiz-adv-x="1153" d="M12 27l437 663l-408 625q-4 12 -4 14q0 12 18 12h197q16 0 24 -14l211 -328l95 -155h2q59 104 98 164l205 319q8 14 26 14h189q28 1 14 -26l-405 -627l428 -661q4 -6 4 -15q0 -12 -17 -12h-198q-14 0 -27 14l-223 348q-23 35 -103 170h-2l-102 -165l-223 -353 q-10 -14 -27 -14h-194q-29 0 -15 27z" />
<glyph unicode="&#x426;" horiz-adv-x="1349" d="M164 23v1296q0 23 22 22h162q10 0 16.5 -6t6.5 -16v-1133h587v1133q0 10 6.5 16t16.5 6h164q20 0 20 -22v-1133h121q8 0 14.5 -6t6.5 -16v-414q0 -10 -6.5 -16t-14.5 -6h-162q-8 0 -15 6t-7 16v250h-916q-23 0 -22 23z" />
<glyph unicode="&#x427;" horiz-adv-x="1296" d="M143 815v504q0 23 23 22h162q10 0 16 -6t6 -16v-471q0 -129 51.5 -182.5t167.5 -53.5q92 0 184.5 35t174.5 98v574q0 23 20 22h164q10 0 16.5 -6t6.5 -16v-1296q0 -10 -6.5 -16.5t-16.5 -6.5h-164q-20 0 -20 23v540q-201 -133 -412 -133q-188 0 -280.5 92t-92.5 293z" />
<glyph unicode="&#x428;" horiz-adv-x="1841" d="M164 23v1296q0 23 22 22h162q10 0 16.5 -6t6.5 -16v-1133h448v1133q0 23 23 22h157q23 0 23 -22v-1133h448v1133q0 10 6.5 16t16.5 6h164q20 1 20 -22v-1296q0 -23 -20 -23h-1471q-23 0 -22 23z" />
<glyph unicode="&#x429;" horiz-adv-x="1849" d="M164 23v1296q0 23 22 22h162q10 0 16.5 -6t6.5 -16v-1133h442v1133q0 10 6 16t17 6h159q10 0 16.5 -6t6.5 -16v-1133h442v1133q0 10 6.5 16t16.5 6h162q23 0 22 -22v-1133h117q10 0 16 -6t6 -16v-414q0 -10 -6 -16t-16 -6h-162q-8 0 -14 6t-6 16v250h-1416q-23 0 -22 23z " />
<glyph unicode="&#x42a;" horiz-adv-x="1355" d="M66 1180v139q0 23 22 22h455q23 0 22 -22v-465h213q502 0 502 -410q0 -217 -129 -330.5t-381 -113.5h-389q-10 0 -16.5 6t-6.5 17v1134h-270q-23 0 -22 23zM565 176h199q156 0 232.5 66.5t76.5 201.5q0 127 -71.5 182.5t-233.5 55.5h-203v-506z" />
<glyph unicode="&#x42b;" horiz-adv-x="1695" d="M164 23v1296q0 23 22 22h162q10 0 16.5 -6t6.5 -16v-465h211q502 0 501 -410q0 -217 -129 -330.5t-379 -113.5h-389q-22 0 -22 23zM371 176h196q156 0 233 66.5t77 201.5q0 127 -72 182.5t-232 55.5h-202v-506zM1325 23v1296q0 23 22 22h162q10 0 16.5 -6t6.5 -16v-1296 q0 -10 -6.5 -16.5t-16.5 -6.5h-162q-22 0 -22 23z" />
<glyph unicode="&#x42c;" horiz-adv-x="1161" d="M164 23v1296q0 23 22 22h162q10 0 16.5 -6t6.5 -16v-465h211q502 0 501 -410q0 -217 -129 -330.5t-379 -113.5h-389q-22 0 -22 23zM371 176h196q156 0 233 66.5t77 201.5q0 127 -72 182.5t-232 55.5h-202v-506z" />
<glyph unicode="&#x42d;" horiz-adv-x="1249" d="M123 307q0 37 4 50.5t16 13.5l164 -2q20 0 21 -39q0 -88 65.5 -131t210.5 -43q164 0 232.5 54t68.5 181v199h-510q-10 0 -16 6t-6 16v136q0 23 22 22h510v184q0 127 -65.5 179.5t-221.5 52.5q-143 0 -209.5 -43t-66.5 -133q0 -23 -4 -31t-14 -8h-164q-10 0 -15.5 9 t-9.5 32q-12 168 118 261t380 93q248 0 363.5 -104.5t115.5 -331.5v-518q0 -229 -125 -333t-397 -104q-238 0 -352.5 82t-114.5 250z" />
<glyph unicode="&#x42e;" horiz-adv-x="1796" d="M164 23v1296q0 23 22 22h162q10 0 16.5 -6t6.5 -16v-539h291v94q0 236 128 364t369 128q242 0 370 -128t128 -364v-407q0 -236 -128 -364t-370 -128t-369.5 128t-127.5 364v133h-291v-577q0 -10 -6.5 -16.5t-16.5 -6.5h-162q-23 0 -22 23zM868 469q0 -152 74 -232.5 t217 -80.5t217 80.5t74 232.5v403q0 152 -73.5 233t-217.5 81q-143 0 -217 -81t-74 -233v-403z" />
<glyph unicode="&#x42f;" horiz-adv-x="1249" d="M63.5 7q-4.5 7 2.5 20l206 358l35 59q37 66 84 140v4q-119 39 -180 129t-61 227q0 397 489 397h424q10 0 16 -6t6 -16v-1296q0 -10 -6 -16.5t-16 -6.5h-162q-20 0 -20 23v532h-287l-301 -541q-6 -14 -27 -14h-184q-14 0 -18.5 7zM356 930q0 -117 66.5 -164t230.5 -47h228 v446h-238q-150 0 -218.5 -56t-68.5 -179z" />
<glyph unicode="&#x430;" horiz-adv-x="1021" d="M90 258q0 109 41 174.5t133 102t250 51.5l160 14v82q0 96 -38 136t-132 40q-86 0 -129 -30.5t-41 -90.5q0 -23 -21 -22h-157q-14 0 -19.5 13t-5.5 46q0 117 102.5 185.5t276.5 68.5q188 0 278.5 -84t90.5 -260v-432q0 -143 14 -227v-5q0 -20 -23 -20h-141q-18 0 -27 29 q-10 53 -16 129q-94 -96 -175 -139.5t-173 -43.5q-121 0 -184.5 72t-63.5 211zM291 276q-1 -131 108 -131q59 0 122 36t153 126v154l-154 -15q-131 -10 -180 -47t-49 -123z" />
<glyph unicode="&#x431;" horiz-adv-x="1118" d="M141 381v461q0 176 54.5 279.5t156.5 160.5q49 27 105.5 43t134.5 35q86 20 140 37.5t97 46.5q4 4 13 4q12 0 16 -16l41 -138l2 -10q0 -8 -10 -18q-35 -27 -84 -42.5t-129 -31.5q-131 -25 -199 -55q-70 -31 -101.5 -93.5t-31.5 -156.5v-90q63 74 147.5 114.5t180.5 40.5 q151 0 236 -89t85 -261v-221q0 -199 -109.5 -302.5t-320.5 -103.5q-424 0 -424 406zM346 399q0 -127 52.5 -186t170.5 -59q117 0 169.5 60t52.5 185v176q0 104 -43 151.5t-125 47.5q-76 0 -150 -40t-127 -111v-224z" />
<glyph unicode="&#x432;" horiz-adv-x="1110" d="M141 379v668q0 184 102.5 280t307.5 96q369 0 369 -303q0 -111 -45.5 -191.5t-120.5 -115.5v-2q233 -37 233 -315v-99q0 -205 -112.5 -313.5t-325.5 -108.5q-408 1 -408 404zM344 395q0 -127 50 -184t161 -57q117 0 172 61t55 186v103q0 96 -43 140t-135 44 q-102 0 -260 -45v-248zM344 795l150 32q109 23 167 80.5t58 165.5q0 92 -44 135t-134 43q-96 0 -146.5 -49t-50.5 -143v-264z" />
<glyph unicode="&#x433;" horiz-adv-x="983" d="M96 242q0 109 52.5 179.5t162.5 113.5l232 88q70 27 96.5 56.5t26.5 78.5q0 55 -40 78.5t-128 23.5q-184 0 -185 -110q0 -31 -20 -31h-156q-20 0 -24 31q-12 125 89 201.5t296 76.5q182 0 277 -67.5t95 -200.5q0 -106 -50 -171t-165 -108l-235 -88q-66 -25 -92.5 -57.5 t-26.5 -85.5q0 -61 40 -85t130 -24q111 0 163 30t54 97q0 16 4 22.5t15 6.5h155q14 0 19.5 -9t5.5 -48q0 -127 -101.5 -196t-312.5 -69q-194 0 -285.5 60.5t-91.5 206.5z" />
<glyph unicode="&#x434;" horiz-adv-x="1107" d="M117 401v211q0 209 102.5 312.5t315.5 103.5q59 0 119.5 -7t115.5 -17q104 -23 195 -27v-985q0 -195 -108.5 -295t-315.5 -100q-179 0 -284 64.5t-105 172.5q0 18 2 29q2 33 24 33h158q20 0 20 -29q0 -49 48.5 -76t138.5 -27q117 0 167 49.5t50 159.5v64q0 88 2 133h-2 q-86 -74 -166 -107.5t-170 -33.5q-154 0 -230.5 92t-76.5 280zM322 426q0 -115 37.5 -167t121.5 -52q64 0 126.5 31.5t152.5 107.5v485q-106 20 -209 21q-121 0 -175 -61.5t-54 -196.5v-168z" />
<glyph unicode="&#x435;" horiz-adv-x="1073" d="M117 350v273q0 199 107.5 302t314.5 103q205 0 312 -100.5t107 -292.5v-160q0 -23 -20 -22h-616v-66q0 -127 53 -183.5t172 -56.5q92 0 140 30t48 87q0 10 7.5 16.5t17.5 6.5h158q18 0 22 -21q6 -137 -99.5 -214t-299.5 -77q-414 0 -424 375zM322 608h434v10 q-4 123 -55.5 180.5t-159.5 57.5q-219 0 -219 -238v-10z" />
<glyph unicode="&#x436;" horiz-adv-x="1474" d="M33 8q-4 8 2 19l305 526l-272 424q-4 8 -5 12q0 14 19 15h184q20 0 27 -15l219 -375h123v762q0 23 22 23h160q10 0 16.5 -6.5t6.5 -16.5v-762h123l217 375q8 14 28 15h185q14 0 17 -8.5t-5 -18.5l-270 -424l305 -526q4 -9 4 -13q0 -14 -21 -14h-186q-18 0 -27 12 l-243 441h-127v-430q0 -10 -6.5 -16.5t-16.5 -6.5h-160q-23 0 -22 23v430h-131l-242 -441q-8 -12 -26 -12h-187q-12 0 -16 8z" />
<glyph unicode="&#x437;" horiz-adv-x="987" d="M68 -135q0 23 2 35q6 37 28 37h156q23 0 20 -33q0 -66 47.5 -103t135.5 -37q109 0 165 52.5t56 152.5v115q0 90 -58.5 134t-179.5 44h-164q-10 0 -16 6t-6 17v127q0 10 7 16t15 6h148q104 0 163.5 54.5t59.5 148.5v47q0 178 -190 178q-82 0 -125 -30.5t-43 -86.5 q0 -31 -21 -30h-157q-20 0 -27 37q-12 125 96.5 200.5t296.5 75.5q367 0 367 -313v-72q0 -92 -46 -166t-130 -112v-3q109 -25 162 -92t53 -172v-110q0 -186 -110.5 -288.5t-317.5 -102.5q-181 0 -284 71.5t-103 196.5z" />
<glyph unicode="&#x438;" horiz-adv-x="1114" d="M143 315v666q0 23 23 23h160q10 0 16 -6.5t6 -16.5v-643q0 -94 33 -139t102 -45q63 0 130 36.5t153 120.5v670q0 23 22 23h160q23 0 23 -23v-729q0 -127 14 -229q0 -23 -24 -23h-138q-25 0 -26 20q-12 86 -15 136q-190 -180 -366 -181q-133 0 -203 87.5t-70 252.5z" />
<glyph unicode="&#x439;" horiz-adv-x="1114" d="M143 315v666q0 23 23 23h160q10 0 16 -6.5t6 -16.5v-643q0 -94 33 -139t102 -45q63 0 130 36.5t153 120.5v670q0 23 22 23h160q23 0 23 -23v-729q0 -127 14 -229q0 -23 -24 -23h-138q-25 0 -26 20q-12 86 -15 136q-190 -180 -366 -181q-133 0 -203 87.5t-70 252.5z M299 1268v120q0 18 11 19q4 0 16 -8q106 -100 233 -101q74 0 135.5 31t98.5 70q12 8 16 8q10 0 11 -19v-120q0 -18 -9 -27q-102 -102 -252 -102q-92 0 -154.5 32.5t-96.5 69.5q-8 8 -9 27z" />
<glyph unicode="&#x43a;" horiz-adv-x="1019" d="M143 23v1353q0 23 23 23h160q10 0 16 -6.5t6 -16.5v-760h131l269 373q10 14 28 15h185q14 0 18 -8.5t-4 -18.5l-318 -426l351 -524q4 -9 4 -13q0 -14 -19 -14h-192q-18 0 -27 12l-293 439h-133v-428q0 -10 -6 -16.5t-16 -6.5h-160q-23 0 -23 23z" />
<glyph unicode="&#x43b;" horiz-adv-x="954" d="M10 7q-4 7 0 20l344 948q6 16 13.5 22.5t21.5 6.5h176q14 0 21.5 -6.5t13.5 -22.5l344 -948q2 -4 2 -13q0 -14 -18 -14h-174q-18 0 -25 18l-174 525q-4 10 -7 22.5t-9 24.5q-47 145 -60 188h-4q-29 -109 -76 -239l-176 -521q-6 -18 -22 -18h-174q-13 0 -17 7z" />
<glyph unicode="&#x43c;" horiz-adv-x="1294" d="M125 23l18 958q0 23 23 23h168q16 0 24 -19l289 -565l287 565q8 18 24 19h170q10 0 16.5 -6.5t6.5 -16.5l16 -958q0 -23 -22 -23h-152q-23 0 -22 23l-4 497q0 35 4 109q4 49 4 69h-4l-21 -45q-8 -18 -26.5 -58t-36.5 -71l-219 -395q-6 -10 -21 -10q-14 0 -20 10l-221 395 q-27 47 -58 119l-24 55h-5l3 -55q4 -82 4 -123l-4 -497q0 -23 -23 -23h-152q-10 0 -16 6t-6 17z" />
<glyph unicode="&#x43d;" horiz-adv-x="1116" d="M143 23v958q0 23 23 23h160q10 0 16 -6.5t6 -16.5v-383h422v383q0 23 21 23h161q11 0 17 -6.5t6 -16.5v-958q0 -10 -6 -16.5t-17 -6.5h-161q-20 0 -21 23v401h-422v-401q0 -10 -6 -16.5t-16 -6.5h-160q-23 0 -23 23z" />
<glyph unicode="&#x43e;" horiz-adv-x="1103" d="M117 387v229q0 207 110.5 309.5t325.5 102.5q213 0 323.5 -103.5t110.5 -308.5v-229q0 -412 -434 -412q-213 0 -324.5 103.5t-111.5 308.5zM322 406q0 -129 55 -190.5t176 -61.5t175 61t54 191v192q0 129 -54 190.5t-175 61.5t-176 -61.5t-55 -190.5v-192z" />
<glyph unicode="&#x43f;" horiz-adv-x="1140" d="M129 975v6q0 23 23 23h145q12 0 16 -4.5t9 -16.5q8 -39 16 -129q92 90 176 132t182 42q148 0 224.5 -86t76.5 -254v-665q0 -23 -20 -23h-162q-10 0 -16 6t-6 17v643q0 94 -38 138t-118 44q-68 0 -134.5 -36t-154.5 -118v-671q0 -10 -6 -16.5t-16 -6.5h-160q-23 0 -23 23 v727q0 135 -14 225z" />
<glyph unicode="&#x440;" horiz-adv-x="1103" d="M129 977v4q0 23 23 23h145q23 0 25 -21l16 -106q90 78 168 114.5t172 36.5q303 0 303 -373v-268q0 -203 -93 -307.5t-272 -104.5q-68 0 -141.5 16.5t-126.5 43.5v-391q0 -10 -6 -16.5t-16 -6.5h-160q-23 0 -23 23v1122q0 104 -14 211zM348 201q49 -25 106.5 -37 t110.5 -12q109 0 160 63.5t51 194.5v221q0 111 -39 164t-119 53q-61 0 -122.5 -32t-147.5 -107v-508z" />
<glyph unicode="&#x441;" horiz-adv-x="1067" d="M117 379v244q0 197 112.5 301t321.5 104q188 0 295.5 -85t107.5 -222q0 -49 -22 -49h-158q-20 0 -20 33q0 68 -54.5 106.5t-146.5 38.5q-117 0 -174 -59.5t-57 -186.5v-205q0 -246 229 -245q92 0 146.5 39.5t54.5 103.5q0 33 20 33h158q10 0 16 -6.5t6 -14.5 q10 -154 -97 -244t-304 -90q-209 0 -321.5 104.5t-112.5 299.5z" />
<glyph unicode="&#x442;" horiz-adv-x="1726" d="M129 977v4q0 23 25 23h143q12 0 16 -3.5t6 -13.5q14 -96 19 -135q92 92 172 134t176 42q205 0 258 -186q94 96 178 141t181 45q139 0 209.5 -85t70.5 -253v-667q0 -23 -22 -23h-160q-23 0 -23 23v643q0 92 -33.5 137t-105.5 45q-61 0 -125.5 -37t-148.5 -119v-669 q0 -23 -21 -23h-162q-10 0 -16 6t-6 17v643q0 92 -34 137t-103 45q-61 0 -126 -37t-149 -119v-669q0 -10 -6 -16.5t-16 -6.5h-160q-23 0 -23 23v727q0 135 -14 227z" />
<glyph unicode="&#x443;" horiz-adv-x="1030" d="M43 989q0 14 18 15h175q18 0 24 -19l168 -461q25 -68 70 -211l18 -59h4q43 137 90 270l168 461q6 18 25 19h168q12 0 17 -7.5t1 -19.5l-510 -1337q-8 -18 -24 -19h-160q-10 0 -15.5 7t-0.5 20l143 362l-377 967q-2 4 -2 12z" />
<glyph unicode="&#x444;" horiz-adv-x="1447" d="M117 377v250q0 199 119.5 300t353.5 101h31v356q0 10 7 16.5t15 6.5h160q10 0 16 -6t6 -17v-356h31q236 0 354.5 -101.5t118.5 -299.5v-250q0 -199 -118.5 -300.5t-354.5 -101.5h-31v-331q0 -23 -22 -23h-160q-10 0 -16 6t-6 17v331h-31q-233 0 -353 101.5t-120 300.5z M322 395q0 -248 256 -248h47v709h-47q-129 0 -192.5 -60.5t-63.5 -187.5v-213zM823 147h47q256 0 256 248v213q0 127 -63.5 187.5t-192.5 60.5h-47v-709z" />
<glyph unicode="&#x445;" horiz-adv-x="1001" d="M20.5 8q-4.5 8 4.5 19l348 489l-326 461q-4 4 -4 12q0 14 18 15h191q18 0 24 -15l132 -190q37 -55 92 -148h2l104 158l123 180q8 14 27 15h180q14 0 18 -8.5t-4 -18.5l-325 -455l354 -495q4 -4 4 -13q0 -14 -18 -14h-191q-16 0 -24 14l-125 179q-86 127 -127 190h-2 q-39 -63 -121 -190l-123 -179q-6 -14 -27 -14h-188q-12 0 -16.5 8z" />
<glyph unicode="&#x446;" horiz-adv-x="1134" d="M143 315v666q0 23 23 23h160q10 0 16 -6.5t6 -16.5v-643q0 -94 33 -139t102 -45q63 0 130 36.5t153 120.5v670q0 23 22 23h160q23 0 23 -23v-729q0 -51 2 -78h117q10 0 16 -6t6 -16v-377q0 -23 -22 -23h-148q-10 0 -16 6t-6 17v225h-97q-25 0 -26 20q-12 86 -15 136 q-190 -180 -366 -181q-133 0 -203 87.5t-70 252.5z" />
<glyph unicode="&#x447;" horiz-adv-x="1073" d="M113 592v389q0 23 22 23h160q23 0 22 -23v-346q0 -98 32 -147.5t100 -49.5q133 0 276 150v393q0 23 23 23h159q23 0 23 -23v-958q0 -23 -23 -23h-159q-23 0 -23 23v393q-78 -72 -163 -112t-171 -40q-137 0 -207.5 84t-70.5 244z" />
<glyph unicode="&#x448;" horiz-adv-x="1701" d="M143 313v668q0 23 23 23h160q10 0 16 -6.5t6 -16.5v-643q0 -92 32 -138t99 -46q57 0 122 37.5t147 119.5v670q0 10 6 16.5t16 6.5h162q20 0 20 -23v-643q0 -184 133 -184q57 0 120 37.5t149 119.5v670q0 23 22 23h160q23 0 23 -23v-729q0 -133 14 -225v-4q0 -23 -25 -23 h-145q-10 0 -14.5 3t-6.5 13q-14 96 -18 136q-92 -92 -171 -134.5t-171 -42.5q-199 0 -252 185q-96 -96 -178 -140.5t-176 -44.5q-133 0 -203 85t-70 253z" />
<glyph unicode="&#x449;" horiz-adv-x="1724" d="M143 313v668q0 23 23 23h160q10 0 16 -6.5t6 -16.5v-643q0 -92 32 -138t99 -46q57 0 122 37.5t147 119.5v670q0 10 6 16.5t16 6.5h162q20 0 20 -23v-643q0 -184 133 -184q57 0 120 37.5t149 119.5v670q0 23 22 23h160q23 0 23 -23v-729q0 -51 2 -78h118q11 0 17 -6t6 -16 v-377q0 -23 -23 -23h-147q-10 0 -16.5 6t-6.5 17v225h-106q-10 0 -14.5 3t-6.5 13q-14 96 -18 136q-92 -92 -171 -134.5t-171 -42.5q-199 0 -252 185q-96 -96 -178 -140.5t-176 -44.5q-133 0 -203 85t-70 253z" />
<glyph unicode="&#x44a;" horiz-adv-x="1196" d="M37 856v125q0 10 6 16.5t16 6.5h414q10 0 16.5 -6.5t6.5 -16.5v-365q131 135 305 136q143 0 219 -80t76 -236v-92q0 -180 -108.5 -274.5t-311.5 -94.5q-201 0 -293 90.5t-92 290.5v480h-232q-10 0 -16 6t-6 14zM496 330q0 -186 190 -187q94 0 147.5 49.5t53.5 137.5v94 q0 76 -38 115t-112 39q-135 0 -241 -138v-110z" />
<glyph unicode="&#x44b;" horiz-adv-x="1529" d="M143 356v625q0 23 23 23h160q10 0 16 -6.5t6 -16.5v-365q131 135 305 136q144 0 219.5 -80t75.5 -236v-92q0 -180 -108.5 -274.5t-311.5 -94.5q-201 0 -293 90.5t-92 290.5zM348 330q0 -186 191 -187q94 0 147 49.5t53 137.5v94q0 76 -37.5 115t-111.5 39 q-135 0 -242 -138v-110zM1181 23v958q0 23 23 23h160q10 0 16 -6.5t6 -16.5v-958q0 -10 -6 -16.5t-16 -6.5h-160q-23 0 -23 23z" />
<glyph unicode="&#x44c;" horiz-adv-x="1050" d="M143 356v625q0 23 23 23h160q10 0 16 -6.5t6 -16.5v-365q131 135 305 136q144 0 219.5 -80t75.5 -236v-92q0 -180 -108.5 -274.5t-311.5 -94.5q-201 0 -293 90.5t-92 290.5zM348 330q0 -186 191 -187q94 0 147 49.5t53 137.5v94q0 76 -37.5 115t-111.5 39 q-135 0 -242 -138v-110z" />
<glyph unicode="&#x44d;" horiz-adv-x="1050" d="M96 233q0 33 6.5 47.5t22.5 14.5h158q20 0 20 -29q0 -55 51.5 -83.5t149.5 -28.5q119 0 172 45t53 145v92h-399q-20 0 -21 21v102q0 20 21 21h399v84q0 94 -53 140t-164 46q-90 0 -142.5 -29.5t-54.5 -79.5q0 -31 -20 -30h-158q-27 0 -26 57q0 117 110.5 188.5 t300.5 71.5q412 0 412 -366v-304q0 -383 -422 -383q-193 0 -304.5 72t-111.5 186z" />
<glyph unicode="&#x44e;" horiz-adv-x="1509" d="M143 23v1359q0 10 6.5 16.5t16.5 6.5h158q10 0 16 -6t6 -17v-786h205v27q0 199 108.5 302t311.5 103q205 0 313.5 -103.5t108.5 -301.5v-242q0 -199 -108.5 -302.5t-313.5 -103.5q-203 0 -311.5 103.5t-108.5 302.5v43h-205v-401q0 -23 -20 -23h-160q-23 0 -23 23z M756 399q0 -246 215 -245q217 0 217 245v205q0 246 -217 246q-215 0 -215 -246v-205z" />
<glyph unicode="&#x44f;" horiz-adv-x="1048" d="M65.5 7q-4.5 7 4.5 20l139 219l29 43q37 59 73 108v2q-201 63 -200 281q0 160 96 242t282 82h394q23 0 22 -23v-958q0 -23 -22 -23h-160q-23 0 -23 23v348h-188l-217 -357q-8 -14 -29 -14h-182q-14 0 -18.5 7zM313 680q0 -82 48.5 -116t156.5 -34h182v306h-208 q-96 0 -137.5 -39t-41.5 -117z" />
<glyph unicode="&#x451;" horiz-adv-x="1073" d="M117 350v273q0 199 107.5 302t314.5 103q205 0 312 -100.5t107 -292.5v-160q0 -23 -20 -22h-616v-66q0 -127 53 -183.5t172 -56.5q92 0 140 30t48 87q0 10 7.5 16.5t17.5 6.5h158q18 0 22 -21q6 -137 -99.5 -214t-299.5 -77q-414 0 -424 375zM238 1278v58q0 45 30.5 70.5 t83.5 25.5q58 0 87.5 -24.5t29.5 -71.5v-58q0 -43 -30.5 -68.5t-86.5 -25.5q-53 0 -83.5 25.5t-30.5 68.5zM322 608h434v10q-4 123 -55.5 180.5t-159.5 57.5q-219 0 -219 -238v-10zM600 1278v58q0 45 31 70.5t84 25.5q55 0 86 -25.5t31 -70.5v-58q0 -43 -31 -68.5t-86 -25.5 q-53 0 -84 25.5t-31 68.5z" />
<glyph unicode="&#x452;" horiz-adv-x="1126" d="M-12 1153v111q0 8 6 14t16 6h135v92q0 10 6.5 16.5t16.5 6.5h162q20 0 20 -23v-92h207q20 0 21 -20v-111q0 -23 -21 -23h-207v-266q88 84 172 124t180 40q148 0 223.5 -86t75.5 -254v-553q0 -193 -59 -319.5t-190 -204.5q-8 -4 -13 -4q-6 0 -16 10l-96 117q-4 4 -4 14 t10 16q164 113 164 379v523q0 182 -154 182q-72 0 -141.5 -38t-151.5 -118v-669q0 -23 -20 -23h-162q-10 0 -16.5 6t-6.5 17v1107h-135q-10 0 -16 6.5t-6 16.5z" />
<glyph unicode="&#x453;" horiz-adv-x="983" d="M96 242q0 109 52.5 179.5t162.5 113.5l232 88q70 27 96.5 56.5t26.5 78.5q0 55 -40 78.5t-128 23.5q-184 0 -185 -110q0 -31 -20 -31h-156q-20 0 -24 31q-12 125 89 201.5t296 76.5q182 0 277 -67.5t95 -200.5q0 -106 -50 -171t-165 -108l-235 -88q-66 -25 -92.5 -57.5 t-26.5 -85.5q0 -61 40 -85t130 -24q111 0 163 30t54 97q0 16 4 22.5t15 6.5h155q14 0 19.5 -9t5.5 -48q0 -127 -101.5 -196t-312.5 -69q-194 0 -285.5 60.5t-91.5 206.5zM379.5 1147q-5.5 8 1.5 18l135 250q10 16 26 16h158q14 0 18.5 -8t-4.5 -18l-176 -252q-8 -14 -26 -14 h-117q-10 0 -15.5 8z" />
<glyph unicode="&#x454;" horiz-adv-x="1064" d="M117 358v304q0 367 411 366q193 0 302.5 -70.5t109.5 -187.5q0 -33 -6 -46t-23 -13h-157q-20 0 -21 28q-2 51 -52 81t-140 30q-113 0 -166 -45t-53 -141v-84h399q20 0 20 -21v-102q0 -20 -20 -21h-399v-92q0 -100 53 -145t170 -45q98 0 150.5 28.5t52.5 81.5q0 31 20 31 h158q29 0 28 -62q0 -117 -110.5 -187.5t-304.5 -70.5q-422 0 -422 383z" />
<glyph unicode="&#x455;" horiz-adv-x="958" d="M102 301q0 20 23 21h158q18 0 18 -21q0 -84 42 -122t136 -38q186 0 187 121q0 43 -27 73t-88 56l-234 98q-111 45 -156.5 105.5t-45.5 157.5q0 276 354 276q182 0 280.5 -73.5t98.5 -211.5q0 -8 -6 -14t-17 -6h-157q-23 0 -23 33q0 49 -45 77.5t-123 28.5 q-82 0 -120 -26.5t-38 -83.5q0 -43 21.5 -63.5t91.5 -51.5l234 -96q109 -47 156.5 -108.5t47.5 -160.5q0 -145 -100 -221t-291 -76q-194 0 -286.5 80t-90.5 246z" />
<glyph unicode="&#x456;" d="M127 1270v53q0 51 30.5 76.5t90.5 25.5q59 0 89.5 -25.5t30.5 -76.5v-53q0 -49 -30.5 -75t-89.5 -26q-60 0 -90.5 26t-30.5 75zM143 23v958q0 23 23 23h160q10 0 16 -6.5t6 -16.5v-958q0 -10 -6 -16.5t-16 -6.5h-160q-23 0 -23 23z" />
<glyph unicode="&#x457;" d="M-51 1257v58q0 45 30.5 70.5t83.5 25.5q58 0 87.5 -24.5t29.5 -71.5v-58q0 -43 -30.5 -68.5t-86.5 -25.5q-53 0 -83.5 25.5t-30.5 68.5zM143 23v958q0 23 23 23h160q10 0 16 -6.5t6 -16.5v-958q0 -10 -6 -16.5t-16 -6.5h-160q-23 0 -23 23zM311 1257v58q0 45 31 70.5 t84 25.5q55 0 86 -25.5t31 -70.5v-58q0 -43 -31 -68.5t-86 -25.5q-53 0 -84 25.5t-31 68.5z" />
<glyph unicode="&#x458;" d="M-33 -252q0 10 13 16q164 115 163 379v838q0 10 6.5 16.5t16.5 6.5h160q10 0 16 -6.5t6 -16.5v-846q0 -188 -60.5 -312t-189.5 -212q-8 -4 -12 -4q-6 0 -16 10l-97 117q-6 8 -6 14zM127 1270v53q0 51 30.5 76.5t90.5 25.5q59 0 89.5 -25.5t30.5 -76.5v-53 q0 -49 -30.5 -75t-89.5 -26q-60 0 -90.5 26t-30.5 75z" />
<glyph unicode="&#x459;" horiz-adv-x="1497" d="M-16 7q-4 7 0 20l342 948q10 29 34 29h179q14 0 22 -6.5t12 -22.5l154 -424q158 201 373 201q143 0 219 -81t76 -235v-92q0 -178 -104.5 -273.5t-297.5 -95.5q-156 0 -234.5 55.5t-123.5 194.5l-109 318q-6 20 -13 42.5t-15 47.5q-20 63 -45 145h-7q-23 -82 -73 -239 l-176 -521q-6 -18 -25 -18h-172q-12 0 -16 7zM778 412l45 -129q31 -84 68 -112t106 -28q90 0 140.5 49.5t50.5 137.5v94q0 76 -38 115t-112 39q-72 0 -138 -42t-122 -124z" />
<glyph unicode="&#x45a;" horiz-adv-x="1677" d="M143 23v958q0 23 23 23h160q10 0 16 -6.5t6 -16.5v-385h422v385q0 23 23 23h159q10 0 16.5 -6.5t6.5 -16.5v-365q131 135 305 136q143 0 219 -80t76 -236v-92q0 -180 -108.5 -274.5t-311.5 -94.5q-201 0 -293 90.5t-92 290.5v70h-422v-403q0 -10 -6 -16.5t-16 -6.5h-160 q-23 0 -23 23zM975 330q0 -186 190 -187q94 0 147.5 49.5t53.5 137.5v94q0 76 -38 115t-111 39q-135 0 -242 -138v-110z" />
<glyph unicode="&#x45b;" horiz-adv-x="1144" d="M-12 1153v111q0 8 6 14t16 6h137v92q0 23 23 23h160q10 0 16 -6.5t6 -16.5v-92h201q10 0 16 -6t6 -14v-111q0 -10 -6 -16.5t-16 -6.5h-201v-268q84 84 168 125t182 41q148 0 223.5 -86t75.5 -254v-665q0 -23 -20 -23h-162q-10 0 -16 6t-6 17v643q0 92 -38 137t-116 45 q-70 0 -140.5 -38t-150.5 -118v-669q0 -10 -6 -16.5t-16 -6.5h-160q-23 0 -23 23v1107h-137q-10 0 -16 6.5t-6 16.5z" />
<glyph unicode="&#x45c;" horiz-adv-x="1019" d="M143 23v1353q0 23 23 23h160q10 0 16 -6.5t6 -16.5v-760h131l269 373q10 14 28 15h185q14 0 18 -8.5t-4 -18.5l-318 -426l351 -524q4 -9 4 -13q0 -14 -19 -14h-192q-18 0 -27 12l-293 439h-133v-428q0 -10 -6 -16.5t-16 -6.5h-160q-23 0 -23 23zM465.5 1147 q-5.5 8 1.5 18l135 250q10 16 26 16h158q14 0 18.5 -8t-4.5 -18l-176 -252q-8 -14 -26 -14h-117q-10 0 -15.5 8z" />
<glyph unicode="&#x45d;" horiz-adv-x="1114" d="M143 315v666q0 23 23 23h160q10 0 16 -6.5t6 -16.5v-643q0 -94 33 -139t102 -45q63 0 130 36.5t153 120.5v670q0 23 22 23h160q23 0 23 -23v-729q0 -127 14 -229q0 -23 -24 -23h-138q-25 0 -26 20q-12 86 -15 136q-190 -180 -366 -181q-133 0 -203 87.5t-70 252.5z M335 1415q0 6 6.5 11t14.5 5h158q14 0 26 -16l135 -250l5 -10q0 -16 -21 -16h-117q-14 0 -26 14l-176 252z" />
<glyph unicode="&#x45e;" horiz-adv-x="1030" d="M43 989q0 14 18 15h175q18 0 24 -19l168 -461q25 -68 70 -211l18 -59h4q43 137 90 270l168 461q6 18 25 19h168q12 0 17 -7.5t1 -19.5l-510 -1337q-8 -18 -24 -19h-160q-10 0 -15.5 7t-0.5 20l143 362l-377 967q-2 4 -2 12zM252 1268v120q0 18 11 19q4 0 16 -8 q106 -100 233 -101q74 0 135.5 31t98.5 70q12 8 16 8q10 0 11 -19v-120q0 -18 -9 -27q-102 -102 -252 -102q-92 0 -154.5 32.5t-96.5 69.5q-8 8 -9 27z" />
<glyph unicode="&#x45f;" horiz-adv-x="1114" d="M143 315v666q0 23 23 23h160q10 0 16 -6.5t6 -16.5v-643q0 -94 33 -139t102 -45q63 0 130 36.5t153 120.5v670q0 23 22 23h160q23 0 23 -23v-729q0 -127 14 -229q0 -23 -24 -23h-138q-25 0 -26 20q-12 86 -15 136q-84 -82 -178 -133v-248q0 -10 -6 -16.5t-16 -6.5h-144 q-10 0 -16 6t-6 17v200q-133 0 -203 87.5t-70 252.5z" />
<glyph unicode="&#x490;" horiz-adv-x="989" d="M164 23v1296q0 23 22 22h539v263q0 20 23 20h155q21 0 21 -20v-424q0 -23 -21 -23h-532v-1134q0 -10 -6.5 -16.5t-16.5 -6.5h-164q-20 0 -20 23z" />
<glyph unicode="&#x491;" horiz-adv-x="884" d="M18 27l2 129q0 10 7.5 14t19.5 0q55 -25 103 -25q35 0 51 27t22 107l23 352q14 198 85.5 291.5t235.5 93.5q125 0 150 74q6 23 6 49v32q0 16 25 17h137q18 0 18 -27q0 -82 -10 -135t-39 -86q-35 -43 -85 -65.5t-146 -24.5q-88 -2 -125 -54.5t-47 -183.5l-25 -315 q-12 -174 -68.5 -248t-169.5 -74q-74 0 -151 27q-18 6 -19 25z" />
<glyph unicode="&#x4c0;" horiz-adv-x="534" d="M164 23v1296q0 23 22 22h162q10 0 16.5 -6t6.5 -16v-1296q0 -10 -6.5 -16.5t-16.5 -6.5h-162q-22 0 -22 23z" />
<glyph unicode="&#x4cf;" d="M143 23v1353q0 23 23 23h160q10 0 16 -6.5t6 -16.5v-1353q0 -10 -6 -16.5t-16 -6.5h-160q-23 0 -23 23z" />
<glyph unicode="&#x4e2;" horiz-adv-x="1353" d="M164 23v1296q0 23 20 22h158q23 0 23 -22v-741q-8 -201 -17 -299h6q92 180 156 292l453 754q10 16 26 16h180q20 0 21 -22v-1296q0 -23 -21 -23h-157q-10 0 -16.5 6t-6.5 17v739q4 92 17 301h-5q-37 -72 -68.5 -130.5t-58.5 -107.5q-14 -18 -26 -45l-457 -764 q-10 -16 -26 -16h-181q-20 0 -20 23zM430 1487v125q0 20 22 20h453q23 0 23 -20v-125q0 -23 -23 -23h-453q-23 0 -22 23z" />
<glyph unicode="&#x4e3;" horiz-adv-x="1114" d="M143 315v666q0 23 23 23h160q10 0 16 -6.5t6 -16.5v-643q0 -94 33 -139t102 -45q63 0 130 36.5t153 120.5v670q0 23 22 23h160q23 0 23 -23v-729q0 -127 14 -229q0 -23 -24 -23h-138q-25 0 -26 20q-12 86 -15 136q-190 -180 -366 -181q-133 0 -203 87.5t-70 252.5z M330 1223v118q0 23 22 23h412q23 0 23 -23v-118q0 -23 -23 -23h-412q-23 0 -22 23z" />
<glyph unicode="&#x4ee;" horiz-adv-x="1144" d="M43 1327q0 14 18 14h185q18 0 24 -16l222 -451q57 -119 92 -202h4q23 55 94 202l223 451q6 16 27 16h178q10 0 15 -7t-1 -19l-657 -1299q-6 -16 -27 -16h-161q-13 0 -18 7t1 20l217 440l-434 848q-2 4 -2 12zM336 1487v125q0 20 22 20h453q23 0 23 -20v-125 q0 -23 -23 -23h-453q-23 0 -22 23z" />
<glyph unicode="&#x4ef;" horiz-adv-x="1030" d="M43 989q0 14 18 15h175q18 0 24 -19l168 -461q25 -68 70 -211l18 -59h4q43 137 90 270l168 461q6 18 25 19h168q12 0 17 -7.5t1 -19.5l-510 -1337q-8 -18 -24 -19h-160q-10 0 -15.5 7t-0.5 20l143 362l-377 967q-2 4 -2 12zM283 1223v118q0 23 22 23h412q23 0 23 -23 v-118q0 -23 -23 -23h-412q-23 0 -22 23z" />
<glyph unicode="&#x2000;" horiz-adv-x="855" />
<glyph unicode="&#x2001;" horiz-adv-x="1710" />
<glyph unicode="&#x2002;" horiz-adv-x="855" />
<glyph unicode="&#x2003;" horiz-adv-x="1710" />
<glyph unicode="&#x2004;" horiz-adv-x="570" />
<glyph unicode="&#x2005;" horiz-adv-x="427" />
<glyph unicode="&#x2006;" horiz-adv-x="285" />
<glyph unicode="&#x2007;" horiz-adv-x="285" />
<glyph unicode="&#x2008;" horiz-adv-x="213" />
<glyph unicode="&#x2009;" horiz-adv-x="342" />
<glyph unicode="&#x200a;" horiz-adv-x="95" />
<glyph unicode="&#x2010;" horiz-adv-x="999" d="M133 487v113q0 10 6 16.5t17 6.5h688q10 0 16 -6.5t6 -16.5v-113q0 -8 -6 -15t-16 -7h-688q-8 0 -15.5 7t-7.5 15z" />
<glyph unicode="&#x2011;" horiz-adv-x="999" d="M133 487v113q0 10 6 16.5t17 6.5h688q10 0 16 -6.5t6 -16.5v-113q0 -8 -6 -15t-16 -7h-688q-8 0 -15.5 7t-7.5 15z" />
<glyph unicode="&#x2012;" horiz-adv-x="999" d="M133 487v113q0 10 6 16.5t17 6.5h688q10 0 16 -6.5t6 -16.5v-113q0 -8 -6 -15t-16 -7h-688q-8 0 -15.5 7t-7.5 15z" />
<glyph unicode="&#x2013;" horiz-adv-x="1513" d="M133 487v113q0 10 6 16.5t17 6.5h1202q20 0 20 -23v-113q0 -10 -6 -16t-14 -6h-1202q-8 0 -15.5 7t-7.5 15z" />
<glyph unicode="&#x2014;" horiz-adv-x="1800" d="M133 487v113q0 10 6 16.5t17 6.5h1489q20 0 20 -23v-113q0 -10 -6 -16t-14 -6h-1489q-8 0 -15.5 7t-7.5 15z" />
<glyph unicode="&#x2018;" horiz-adv-x="503" d="M111 852l155 473q6 16 23 16h131q12 0 19.5 -8t5.5 -18l-105 -473q-4 -19 -20 -19h-189q-10 0 -17 9.5t-3 19.5z" />
<glyph unicode="&#x2019;" horiz-adv-x="503" d="M59 850l105 473q4 19 20 19h189q10 0 17 -9.5t3 -19.5l-155 -473q-6 -16 -23 -16h-131q-12 0 -19.5 8t-5.5 18z" />
<glyph unicode="&#x201a;" horiz-adv-x="503" d="M59 -246l105 473q4 19 20 19h189q10 0 17 -9.5t3 -19.5l-155 -473q-6 -16 -23 -16h-131q-12 0 -19.5 8t-5.5 18z" />
<glyph unicode="&#x201c;" horiz-adv-x="856" d="M111 852l155 473q6 16 23 16h131q12 0 19.5 -8t5.5 -18l-105 -473q-4 -19 -20 -19h-189q-10 0 -17 9.5t-3 19.5zM463 852l155 473q6 16 23 16h131q12 0 19.5 -8t5.5 -18l-105 -473q-4 -19 -20 -19h-189q-10 0 -17 9.5t-3 19.5z" />
<glyph unicode="&#x201d;" horiz-adv-x="856" d="M59 850l105 473q4 19 20 19h189q10 0 17 -9.5t3 -19.5l-155 -473q-6 -16 -23 -16h-131q-12 0 -19.5 8t-5.5 18zM409 850l105 473q4 19 20 19h189q10 0 17 -9.5t3 -19.5l-155 -473q-6 -16 -23 -16h-131q-12 0 -19.5 8t-5.5 18z" />
<glyph unicode="&#x201e;" horiz-adv-x="856" d="M59 -246l105 473q4 19 20 19h189q10 0 17 -9.5t3 -19.5l-155 -473q-6 -16 -23 -16h-131q-12 0 -19.5 8t-5.5 18zM409 -246l105 473q4 19 20 19h189q10 0 17 -9.5t3 -19.5l-155 -473q-6 -16 -23 -16h-131q-12 0 -19.5 8t-5.5 18z" />
<glyph unicode="&#x2026;" horiz-adv-x="1492" d="M119 104v27q0 61 32.5 95t100.5 34t101.5 -33.5t33.5 -95.5v-27q0 -61 -34 -95t-101 -34q-68 0 -100.5 34t-32.5 95zM612 104v27q0 61 33 95t100 34q68 0 102 -33.5t34 -95.5v-27q0 -61 -34 -95t-102 -34q-67 0 -100 34t-33 95zM1106 104v27q0 61 32.5 95t100.5 34 t101.5 -33.5t33.5 -95.5v-27q0 -61 -33.5 -95t-101.5 -34t-100.5 34t-32.5 95z" />
<glyph unicode="&#x202f;" horiz-adv-x="342" />
<glyph unicode="&#x2039;" horiz-adv-x="669" d="M131 539q0 8 4 16l191 322q10 14 26 14h160q12 0 17.5 -7t-3.5 -20l-178 -325l178 -326q4 -8 4 -12q0 -6 -5 -10.5t-13 -4.5h-160q-16 1 -26 17l-191 321q-4 8 -4 15z" />
<glyph unicode="&#x203a;" horiz-adv-x="669" d="M137 877q0 14 21 14h159q16 0 27 -14l188 -322q14 -16 0 -31l-188 -321q-10 -16 -27 -17h-159q-13 0 -18 7.5t3 19.5l176 326l-178 325q-4 8 -4 13z" />
<glyph unicode="&#x205f;" horiz-adv-x="427" />
<glyph unicode="&#x20ac;" horiz-adv-x="1290" d="M82 453l22 100q4 18 23 18h119v131h-135q-10 0 -15.5 6.5t-3.5 16.5l23 100q4 18 22 19h109v33q0 223 124 356t357 133q152 0 259.5 -53t161.5 -146.5t50 -210.5q0 -20 -20 -20h-164q-16 0 -17 22q0 100 -65.5 164t-204.5 64q-141 0 -211 -80t-70 -229v-33h394 q20 0 16 -23l-22 -100q-2 -18 -23 -19h-365v-131h345q10 0 14 -6t2 -16l-23 -100q-2 -18 -22 -19h-313q16 -274 278 -274q133 0 201.5 61.5t68.5 167.5q0 23 19 23h160q22 0 22 -23q2 -123 -54.5 -216t-164 -143.5t-252.5 -50.5q-225 0 -348 123t-133 332h-148q-20 0 -16 23 z" />
<glyph unicode="&#x2122;" horiz-adv-x="1681" d="M98 1284v92q0 10 6.5 16.5t16.5 6.5h563q10 0 16.5 -6.5t6.5 -16.5v-92q0 -10 -6.5 -16t-16.5 -6h-195v-523q0 -10 -6 -16t-16 -6h-127q-10 0 -16.5 6t-6.5 16v523h-196q-10 0 -16.5 6t-6.5 16zM817 733l14 651q0 16 17 17h143q10 0 17 -15l198 -344l187 344q6 14 18 15 h141q18 0 19 -17l12 -651q0 -8 -5 -12t-11 -4h-129q-18 0 -19 16l-4 406l-194 -355q-4 -8 -12.5 -8t-12.5 8l-213 355l-2 -406q0 -8 -5 -12t-11 -4h-129q-19 0 -19 16z" />
<glyph unicode="&#x25fc;" horiz-adv-x="1003" d="M0 0v1004h1004v-1004h-1004z" />
</font>
</defs>
</svg>
