<?xml version="1.0" standalone="no"?>
<!DOCTYPE svg PUBLIC "-//W3C//DTD SVG 1.1//EN" "http://www.w3.org/Graphics/SVG/1.1/DTD/svg11.dtd" >
<svg xmlns="http://www.w3.org/2000/svg" xmlns:xlink="http://www.w3.org/1999/xlink" version="1.1">
<metadata></metadata>
<defs>
<font id="sofiasansextrabold" horiz-adv-x="1122" >
<font-face units-per-em="2048" ascent="1638" descent="-410" />
<missing-glyph horiz-adv-x="407" />
<glyph horiz-adv-x="0" />
<glyph unicode="&#xd;" horiz-adv-x="8" />
<glyph unicode=" "  horiz-adv-x="407" />
<glyph unicode="&#x09;" horiz-adv-x="407" />
<glyph unicode="&#xa0;" horiz-adv-x="407" />
<glyph unicode="!" horiz-adv-x="563" d="M109 119v57q0 74 45 110t127 36q174 0 174 -146v-57q0 -72 -45 -108t-129 -36q-82 0 -127 36t-45 108zM119 1315q0 12 7 19t17 7h277q27 0 26 -26l-22 -830q0 -27 -27 -26h-231q-27 -1 -27 26z" />
<glyph unicode="&#x22;" horiz-adv-x="837" d="M209 801v571q0 27 27 27h366q27 0 27 -27v-571q0 -27 -27 -27h-366q-27 0 -27 27z" />
<glyph unicode="#" horiz-adv-x="1273" d="M55 256v166q0 27 27 27h149v358h-149q-27 0 -27 27v165q0 10 7.5 18.5t19.5 8.5h149v203q0 12 8.5 19t18.5 7h186q27 0 27 -26v-203h332v203q0 27 26 26h185q27 0 26 -26v-203h152q10 0 17.5 -8t7.5 -19v-165q0 -12 -7.5 -19.5t-17.5 -7.5h-152v-358h152q10 0 17.5 -7.5 t7.5 -19.5v-166q0 -10 -7.5 -18.5t-17.5 -8.5h-152v-202q0 -27 -26 -27h-185q-27 0 -26 27v202h-332v-202q0 -27 -27 -27h-186q-10 0 -18.5 7t-8.5 20v202h-149q-12 0 -19.5 8.5t-7.5 18.5zM471 449h332v358h-332v-358z" />
<glyph unicode="$" horiz-adv-x="1290" d="M152 328q0 20 4 61q4 27 26 27h226q25 0 24 -29q-4 -86 42 -129t151 -43q100 0 145 33t45 108q0 55 -25.5 89t-93.5 67l-290 139q-121 57 -178.5 140t-57.5 208q0 160 86 249t252 112v139q0 20 20 21h209q20 0 21 -21v-143q346 -53 327 -398q-2 -29 -24 -28h-227 q-27 0 -23 28q6 168 -186 168q-82 0 -125 -33.5t-43 -99.5q0 -51 28.5 -86t96.5 -63l284 -135q123 -60 179.5 -138.5t56.5 -212.5q0 -324 -344 -372v-146q0 -20 -21 -20h-209q-20 0 -20 20v142q-174 20 -265 106t-91 240z" />
<glyph unicode="%" horiz-adv-x="1941" d="M94 963v63q0 162 92.5 251t268.5 89t266 -89t90 -251v-63q0 -162 -90 -251t-266 -89q-179 0 -270 89t-91 251zM315 971q0 -72 33 -104.5t107 -32.5q69 0 102 32.5t33 104.5v47q0 72 -33 105.5t-102 33.5q-72 0 -106 -33.5t-34 -105.5v-47zM458 8q-5 8 3 23l409 682 l355 612q10 18 30 18h209q16 0 21.5 -9t-2.5 -23l-387 -639l-379 -654q-12 -18 -31 -18h-209q-14 0 -19 8zM1130 315v64q0 162 90.5 251t266.5 89t267 -89t91 -251v-64q0 -162 -91 -251t-267 -89t-266.5 89.5t-90.5 250.5zM1352 324q0 -72 32.5 -106t102.5 -34 q72 0 104.5 34t32.5 106v47q0 72 -32.5 104.5t-104.5 32.5q-70 0 -102.5 -33t-32.5 -104v-47z" />
<glyph unicode="&#x26;" horiz-adv-x="1394" d="M90 332q0 121 50 211t165 180q-78 84 -112.5 164t-34.5 168q0 311 368 311q168 0 259.5 -74.5t91.5 -208.5q0 -190 -226 -372l269 -256q35 113 34 293q0 29 27 28h199q27 0 26 -33q-4 -285 -100 -467l260 -245q10 -11 10 -17q0 -14 -22 -14h-273q-23 0 -32 12l-91 86 q-164 -123 -413 -123q-231 0 -343 94.5t-112 262.5zM342 342q0 -74 54.5 -115t162.5 -41q144 0 236 68l-330 311q-68 -59 -95.5 -109t-27.5 -114zM408 1044q0 -82 90 -184q63 49 95 95t32 96q0 106 -107 106q-55 0 -82.5 -28.5t-27.5 -84.5z" />
<glyph unicode="'" horiz-adv-x="448" d="M84 801v571q0 12 8 19.5t19 7.5h225q26 0 26 -27v-571q0 -27 -26 -27h-225q-10 0 -18.5 7t-8.5 20z" />
<glyph unicode="(" horiz-adv-x="579" d="M117 115v907q0 119 24.5 200t71.5 140t129 129q10 10 29 10q12 0 20 -8l135 -129q8 -8 9 -16q0 -12 -13 -25q-78 -74 -111.5 -142.5t-33.5 -181.5v-862q0 -112 33.5 -181t111.5 -142q12 -12 13 -25q0 -10 -9 -18l-135 -127q-8 -8 -20 -9q-14 0 -29 11q-82 68 -129 127 t-71.5 141t-24.5 201z" />
<glyph unicode=")" horiz-adv-x="579" d="M45 -209q0 10 12 23q78 74 112 142.5t34 180.5v862q0 115 -34 183.5t-112 140.5q-12 12 -12 23q0 8 10 18l135 129q6 8 19 8q18 0 29 -10q82 -72 128 -131.5t71.5 -139t25.5 -198.5v-907q0 -119 -24.5 -201t-72 -141.5t-128.5 -126.5q-10 -10 -29 -11q-12 0 -19 9 l-135 127q-10 10 -10 20z" />
<glyph unicode="*" horiz-adv-x="837" d="M86 1147l53 158q6 14 18.5 19t24.5 -3l154 -88l-19 197v4q0 20 23 20h160q10 0 16 -7t4 -17l-18 -199l155 88q6 4 17 4q18 0 24 -20l54 -156q2 -4 2 -12q0 -18 -23 -23l-180 -33l123 -116q10 -8 10 -23q0 -14 -10 -22l-139 -97q-8 -6 -19 -6q-14 0 -20 16l-78 150 l-76 -156q-6 -16 -25 -16q-10 0 -18 6l-137 105q-10 10 -10 22q0 10 10 21l123 118l-176 29q-14 2 -20.5 12.5t-2.5 24.5z" />
<glyph unicode="+" horiz-adv-x="1228" d="M176 526v176q0 27 27 27h295v268q0 10 7 17.5t19 7.5h181q12 0 19 -7t7 -18v-268h295q27 0 27 -27v-176q0 -10 -7.5 -17t-19.5 -7h-295v-269q0 -27 -26 -26h-181q-27 0 -26 26v269h-295q-12 0 -19.5 7t-7.5 17z" />
<glyph unicode="," horiz-adv-x="581" d="M51 -270l107 573q2 10 9 17.5t17 7.5h279q14 0 21.5 -9.5t2.5 -23.5l-184 -574q-6 -23 -27 -22h-200q-14 0 -20.5 8t-4.5 23z" />
<glyph unicode="-" horiz-adv-x="989" d="M109 463v166q0 10 7 18t19 8h719q12 0 19.5 -8t7.5 -18v-166q0 -27 -27 -27h-719q-27 0 -26 27z" />
<glyph unicode="." horiz-adv-x="581" d="M106 139v45q0 78 48.5 121t136.5 43q90 0 137 -43t47 -121v-45q0 -76 -47 -120t-137 -44q-88 0 -136.5 44t-48.5 120z" />
<glyph unicode="/" horiz-adv-x="833" d="M20 29l533 1292q10 20 33 20h205q16 0 22 -7t0 -21l-534 -1293q-6 -20 -31 -20h-207q-14 0 -20.5 7t-0.5 22z" />
<glyph unicode="0" horiz-adv-x="1239" d="M109 477v387q0 244 132 373t380 129t378.5 -129t130.5 -373v-387q0 -244 -131 -373t-378 -129q-248 0 -380 129t-132 373zM395 477q0 -125 57.5 -189.5t168.5 -64.5q108 0 165.5 65.5t57.5 188.5v387q0 123 -57.5 188.5t-165.5 65.5q-111 0 -168.5 -64.5t-57.5 -189.5 v-387z" />
<glyph unicode="1" horiz-adv-x="1017" d="M70 27v192q0 27 26 27h305v801l-288 -91l-9 -2q-20 0 -20 23v190q0 23 18 29l471 152q20 4 33 4h58q25 0 24 -27v-1079h279q10 0 17 -7.5t7 -19.5v-192q0 -12 -7 -19.5t-17 -7.5h-871q-26 0 -26 27z" />
<glyph unicode="2" horiz-adv-x="1142" d="M102 27v174q0 119 57.5 210t137.5 152.5t207 138.5q131 80 193.5 136.5t62.5 126.5v34q0 63 -44 94t-138 31q-90 0 -135.5 -36.5t-45.5 -100.5q0 -20 -6 -27.5t-20 -7.5h-217q-16 0 -22.5 14.5t-6.5 51.5q0 166 123 257t346 91q453 0 453 -365q0 -119 -52.5 -205.5 t-126 -143t-190.5 -126.5q-90 -53 -141.5 -90t-85 -84t-33.5 -106h596q27 0 26 -27v-192q0 -27 -26 -27h-885q-27 0 -27 27z" />
<glyph unicode="3" horiz-adv-x="1169" d="M96 322q0 41 6.5 56t22.5 15h223q23 0 23 -26q0 -78 51 -113t153 -35q100 0 154.5 42t54.5 118v37q0 152 -202 151h-160q-12 0 -19.5 6.5t-7.5 18.5v180q0 10 8.5 17.5t18.5 7.5h133q104 0 151.5 36.5t47.5 116.5v39q0 70 -46 103.5t-143 33.5q-193 0 -192 -137 q0 -33 -25 -33h-221q-12 0 -18.5 10.5t-6.5 37.5q0 176 123 269t359 93q233 0 344.5 -88t111.5 -262q0 -121 -50 -202t-144 -116v-4q111 -33 168 -112.5t57 -202.5q0 -197 -130 -300.5t-376 -103.5q-233 0 -351 91.5t-118 255.5z" />
<glyph unicode="4" horiz-adv-x="1212" d="M16 256v37q0 18 9 33l526 995q12 20 33 20h227q16 0 22.5 -8t-2.5 -22l-432 -834h332l17 391q4 27 26 27h205q27 0 27 -27v-391h127q27 0 26 -26v-195q0 -10 -7 -17.5t-19 -7.5h-127v-204q0 -27 -27 -27h-229q-11 0 -19 7t-8 20v204h-680q-12 0 -19.5 7.5t-7.5 17.5z" />
<glyph unicode="5" horiz-adv-x="1136" d="M74 311q0 49 6 63.5t24 14.5h222q12 0 17 -7t5 -24q0 -66 48 -101.5t147 -35.5q119 0 170 45t51 142v41q0 94 -54.5 142t-170.5 48q-166 0 -363 -64q-16 -4 -22 -4q-20 0 -30.5 11.5t-8.5 31.5l63 703q4 25 27 24h731q27 0 27 -26v-193q0 -27 -27 -26h-516l-23 -260 q135 31 242 30q412 0 412 -430q0 -236 -129 -348.5t-390 -112.5q-215 0 -336.5 89.5t-121.5 246.5z" />
<glyph unicode="6" horiz-adv-x="1220" d="M109 463v416q0 236 132 361.5t384 125.5q209 0 334.5 -77t125.5 -222q0 -57 -28 -57h-217q-27 0 -27 28q0 45 -48 68.5t-136 23.5q-119 0 -176.5 -54t-57.5 -177v-151q170 117 357 116q376 0 376 -399q0 -240 -129 -365t-381 -125q-258 0 -383.5 120t-125.5 368zM395 440 q0 -106 54.5 -167.5t164.5 -61.5q111 0 169.5 56.5t58.5 160.5v41q0 88 -47 128t-140 40q-133 0 -260 -92v-105z" />
<glyph unicode="7" horiz-adv-x="1146" d="M84 969v346q0 27 27 26h1003q10 0 18.5 -7t8.5 -17v-19q0 -16 -8 -32l-566 -1248q-8 -18 -30 -18h-244q-14 0 -19.5 9t0.5 22l476 1069h-385v-131q0 -27 -27 -27h-227q-27 0 -27 27z" />
<glyph unicode="8" horiz-adv-x="1226" d="M84 365q0 127 61.5 217t176.5 133q-176 76 -177 303q0 166 120 257t347 91t348 -91t121 -257q0 -113 -45 -189.5t-131 -113.5q115 -43 176.5 -133t61.5 -217q0 -195 -135.5 -292.5t-395.5 -97.5t-394 97.5t-134 292.5zM371 383q0 -86 61.5 -131t179.5 -45q121 0 182.5 45 t61.5 131v31q0 92 -63.5 141t-180.5 49q-115 0 -178 -49t-63 -141v-31zM424 963q0 -74 49 -114t139 -40t140.5 40t50.5 114v30q0 72 -49 112t-142 40q-90 0 -139 -40t-49 -112v-30z" />
<glyph unicode="9" horiz-adv-x="1239" d="M109 893q0 240 126.5 356.5t382.5 116.5q261 0 386.5 -123t125.5 -377v-395q0 -244 -130 -370t-386 -126q-227 0 -351 86t-124 248q0 45 27 45h219q25 0 25 -28q0 -51 52 -83t148 -32q119 0 176.5 58.5t57.5 181.5v141q-166 -117 -346 -117q-197 0 -293 107.5t-96 310.5z M395 868q0 -78 53.5 -122t143.5 -44q127 1 252 91v112q0 109 -57.5 168.5t-174.5 59.5q-217 0 -217 -211v-54z" />
<glyph unicode=":" horiz-adv-x="567" d="M106 135v43q0 76 46.5 118t132.5 42t131 -42t45 -118v-43q0 -74 -45 -117t-131 -43t-132.5 43t-46.5 117zM106 799v45q0 74 46.5 115.5t132.5 41.5t131 -40.5t45 -116.5v-45q0 -72 -45 -115t-131 -43t-132.5 43t-46.5 115z" />
<glyph unicode=";" horiz-adv-x="595" d="M35 -270l106 573q2 10 9.5 17.5t17.5 7.5h278q14 0 21.5 -9.5t3.5 -23.5l-182 -574q-6 -23 -29 -22h-201q-14 0 -20 8t-4 23zM129 799v45q0 74 46 115.5t132 41.5t131 -40.5t45 -116.5v-45q0 -72 -45 -115t-131 -43t-132 43t-46 115z" />
<glyph unicode="&#x3c;" horiz-adv-x="1228" d="M178 530v158q0 23 21 31l823 332q4 2 12 2q16 0 17 -23v-209q0 -25 -21 -30l-547 -181l547 -184q20 -6 21 -31v-209q0 -14 -7.5 -20t-21.5 0l-823 334q-20 8 -21 30z" />
<glyph unicode="=" horiz-adv-x="1228" d="M172 346v174q0 27 27 27h831q27 0 27 -27v-174q0 -27 -27 -27h-831q-27 0 -27 27zM172 713v176q0 10 7 18t20 8h831q12 0 19.5 -8t7.5 -18v-176q0 -10 -7.5 -17.5t-19.5 -7.5h-831q-13 0 -20 7t-7 18z" />
<glyph unicode="&#x3e;" horiz-adv-x="1228" d="M178 186v209q0 25 21 31l546 184l-546 181q-20 6 -21 30v209q0 14 7.5 20.5t21.5 0.5l823 -332q20 -8 21 -31v-158q0 -23 -21 -30l-823 -334q-4 -2 -12 -2q-16 0 -17 22z" />
<glyph unicode="?" horiz-adv-x="1024" d="M82 975q-6 197 101.5 294t336.5 97q221 0 328.5 -76t107.5 -227q0 -88 -31.5 -155.5t-76.5 -113.5t-113 -102q-66 -53 -94.5 -86t-28.5 -71l-2 -52q0 -25 -22 -24h-238q-22 -1 -22 24v80q0 82 47 138.5t141 127.5q80 61 117 102.5t37 94.5q0 104 -156 104 q-92 0 -128 -38.5t-34 -120.5q0 -31 -24 -31h-217q-16 0 -21.5 8t-7.5 27zM307 119v57q0 145 172 146q172 0 172 -146v-57q0 -72 -44 -108t-128 -36q-82 0 -127 36t-45 108z" />
<glyph unicode="@" horiz-adv-x="2027" d="M92 406v157q0 412 231.5 636t684.5 224q456 0 691.5 -193.5t235.5 -563.5v-76q0 -252 -135 -393.5t-381 -141.5q-98 0 -166.5 36t-105.5 102q-166 -139 -338 -140q-238 0 -238 252q0 39 7 84l28 223q23 182 120 271.5t278 89.5q80 0 151.5 -10.5t83.5 -12.5 q80 -12 154 -18q29 -2 24 -31l-61 -473q-4 -41 -4 -57q0 -53 22.5 -78t73.5 -25q106 0 165.5 82t59.5 238v78q0 532 -665 532q-322 0 -488 -164t-166 -483v-133q0 -205 66.5 -329t212 -181.5t391.5 -57.5h283q12 0 19 -7t7 -17v-178q0 -27 -26 -27h-306q-473 0 -691 189.5 t-218 595.5zM819 367q0 -51 22.5 -76t73.5 -25q84 0 197 103q0 16 4 49l45 336q-78 14 -151 14q-72 0 -112 -38t-52 -126l-25 -194q-2 -16 -2 -43z" />
<glyph unicode="A" horiz-adv-x="1236" d="M-4 29l434 1292q8 20 31 20h313q23 0 29 -20l438 -1292l2 -9q0 -20 -22 -20h-265q-23 0 -28 20l-72 240h-481l-70 -237q-6 -23 -29 -23h-260q-14 0 -19 8t-1 21zM442 494h344l-94 319q-37 121 -76 281h-4q-18 -82 -75 -281z" />
<glyph unicode="B" horiz-adv-x="1222" d="M135 27v1288q0 27 27 26h434q500 0 500 -329q0 -119 -52.5 -190.5t-164.5 -110.5v-6q274 -51 274 -314q0 -207 -132 -299t-427 -92h-432q-27 0 -27 27zM424 240h182q135 0 194.5 38.5t59.5 129.5q0 86 -60.5 126.5t-193.5 40.5h-182v-335zM424 791h166q111 0 162 39.5 t51 121.5q0 78 -54.5 115t-170.5 37h-154v-313z" />
<glyph unicode="C" horiz-adv-x="1331" d="M111 496v346q0 258 146 391t413 133q260 0 407.5 -115.5t147.5 -314.5q0 -37 -2 -55q-4 -29 -27 -29h-242q-27 0 -22 27v7q0 108 -62 167q-64 61 -196 61q-131 0 -201 -69.5t-70 -210.5v-326q0 -141 70 -211t201 -70q136 1 200 65q59 59 59 153q0 9 -1 18v4q0 23 22 22 h240q25 0 29 -28q2 -18 2 -51q0 -201 -149.5 -318t-407.5 -117q-267 0 -412 132.5t-145 388.5z" />
<glyph unicode="D" horiz-adv-x="1339" d="M135 27v1288q0 27 27 26h446q319 0 476 -147t157 -440v-138q0 -309 -155.5 -462.5t-477.5 -153.5h-446q-27 0 -27 27zM428 250h162q184 0 272 92t88 281v125q0 172 -88 258t-272 86h-162v-842z" />
<glyph unicode="E" horiz-adv-x="1114" d="M135 27v1288q0 27 27 26h817q10 0 18.5 -7t8.5 -19v-203q0 -10 -8.5 -17.5t-18.5 -7.5h-551v-290h502q10 0 18 -7.5t8 -19.5v-188q0 -10 -8 -17.5t-18 -7.5h-502v-303h551q10 0 18.5 -7t8.5 -18v-202q0 -12 -8.5 -19.5t-18.5 -7.5h-817q-27 0 -27 27z" />
<glyph unicode="F" horiz-adv-x="1073" d="M135 27v1288q0 27 27 26h817q10 0 18.5 -7t8.5 -19v-203q0 -10 -8.5 -17.5t-18.5 -7.5h-551v-309h473q10 0 18.5 -7t8.5 -19v-195q0 -12 -8.5 -19.5t-18.5 -7.5h-473v-503q0 -27 -27 -27h-239q-27 0 -27 27z" />
<glyph unicode="G" horiz-adv-x="1359" d="M111 496v350q0 254 147.5 387t413.5 133q174 0 298 -51t187.5 -143.5t63.5 -210.5q0 -33 -2 -50q-2 -25 -29 -24h-240q-12 0 -18 8t-4 20v11q0 86 -58 136q-63 52 -192 52q-137 0 -206 -68.5t-69 -211.5v-326q0 -143 69 -212t208 -69q129 0 195.5 56.5t66.5 165.5v57 h-250q-12 0 -19 8t-7 18v154q0 27 26 27h504q10 0 17.5 -7.5t7.5 -19.5v-360q0 -184 18 -297v-6q0 -23 -25 -23h-192q-20 0 -27 23q-8 43 -12 127h-4q-109 -174 -354 -175q-236 0 -375 134.5t-139 386.5z" />
<glyph unicode="H" horiz-adv-x="1376" d="M135 27v1288q0 27 27 26h239q27 0 27 -26v-510h522v510q0 27 27 26h237q27 0 27 -26v-1288q0 -27 -27 -27h-237q-27 0 -27 27v526h-522v-526q0 -27 -27 -27h-239q-27 0 -27 27z" />
<glyph unicode="I" horiz-adv-x="563" d="M135 27v1288q0 27 27 26h239q27 0 27 -26v-1288q0 -27 -27 -27h-239q-27 0 -27 27z" />
<glyph unicode="J" horiz-adv-x="583" d="M-29 -106q0 18 29 28q156 35 156 281v1112q0 27 26 26h240q27 0 27 -26v-1092q0 -248 -92.5 -383t-278.5 -166l-15 -2q-25 0 -30 19l-62 194v9z" />
<glyph unicode="K" horiz-adv-x="1286" d="M135 27v1288q0 27 27 26h239q27 0 27 -26v-324q0 -135 -8 -241h6q66 102 162 227l286 350q8 14 31 14h295q23 0 23 -14q0 -6 -6 -16l-431 -512l476 -768q4 -7 4 -17q0 -14 -21 -14h-293q-23 0 -32 18l-334 549l-158 -180v-360q0 -27 -27 -27h-239q-27 0 -27 27z" />
<glyph unicode="L" horiz-adv-x="1011" d="M135 27v1288q0 27 27 26h244q23 -4 22 -26v-1061h524q10 0 17.5 -7t7.5 -18v-202q0 -12 -7 -19.5t-18 -7.5h-790q-27 0 -27 27z" />
<glyph unicode="M" horiz-adv-x="1630" d="M109 27l26 1288q0 12 8.5 19t18.5 7h295q20 0 28 -20l332 -709l328 709q8 20 31 20h292q10 0 17.5 -7t7.5 -19l29 -1288q0 -27 -27 -27h-233q-10 0 -18.5 7t-8.5 20l-12 559v50q0 129 8 296h-6q-78 -190 -154 -334l-221 -448q-8 -16 -31 -17h-10q-20 0 -29 17l-223 452 q-53 104 -149 330h-7q7 -200 7 -315v-27l-13 -563q0 -27 -26 -27h-234q-26 0 -26 27z" />
<glyph unicode="N" horiz-adv-x="1380" d="M135 27v1288q0 27 27 26h315q23 0 31 -18l309 -612q90 -178 154 -340h6q-14 152 -14 362v582q0 12 7 19t17 7h232q27 0 26 -26v-1288q0 -27 -26 -27h-312q-20 0 -30 18l-293 574q-43 82 -121 264l-45 105h-6q6 -121 6 -404v-530q0 -27 -27 -27h-229q-27 0 -27 27z" />
<glyph unicode="O" horiz-adv-x="1345" d="M111 496v350q0 256 142 388t419 132q279 0 421 -132t142 -388v-350q0 -256 -142.5 -388.5t-420.5 -132.5q-277 0 -419 132.5t-142 388.5zM403 512q0 -137 68 -210t201 -73t201.5 73t68.5 210v317q0 137 -68.5 210t-201.5 73t-201 -72.5t-68 -210.5v-317z" />
<glyph unicode="P" horiz-adv-x="1161" d="M135 27v1288q0 27 27 26h405q274 0 403.5 -112.5t129.5 -337.5q0 -217 -133 -332t-398 -115h-141v-417q0 -27 -27 -27h-239q-27 0 -27 27zM428 692h137q123 0 182.5 47t59.5 150q0 106 -58.5 154.5t-183.5 48.5h-137v-400z" />
<glyph unicode="Q" horiz-adv-x="1345" d="M111 496v350q0 256 142 388t419 132q279 0 421 -132t142 -388v-350q0 -398 -340 -494q8 -80 33.5 -118t79.5 -38q29 0 73 13q4 2 11 2q18 0 18 -25v-151q0 -25 -20 -33q-61 -29 -140 -29q-266 0 -299 352q-266 4 -403 136.5t-137 384.5zM403 512q0 -137 68 -210t201 -73 t201.5 73t68.5 210v317q0 137 -68.5 210t-201.5 73t-201 -72.5t-68 -210.5v-317z" />
<glyph unicode="R" horiz-adv-x="1265" d="M135 27v1288q0 27 27 26h450q272 0 399.5 -104t127.5 -311q0 -143 -62.5 -238.5t-187.5 -132.5v-2l323 -522q4 -8 5 -15q0 -6 -6.5 -11t-16.5 -5h-270q-20 0 -33 18l-293 494h-174v-485q0 -27 -27 -27h-235q-27 0 -27 27zM424 741h184q123 0 180.5 43t57.5 138 q0 92 -53.5 132t-176.5 40h-192v-353z" />
<glyph unicode="S" horiz-adv-x="1175" d="M76 334q0 33 2 51q2 35 28 35l234 -4q27 0 27 -29v-6q0 -79 51 -118q53 -40 166 -40q111 0 163 33t52 100q0 49 -30 80t-110 64l-294 129q-150 63 -210.5 147t-60.5 215q0 180 119 277.5t352 97.5q256 0 383 -102q116 -93 116 -264q0 -16 -1 -33q0 -35 -27 -35h-233 q-27 0 -27 35v10q0 65 -50 103q-54 42 -157 42q-180 0 -184 -125q0 -47 32 -79.5t111 -65.5l293 -125q152 -66 211.5 -150.5t59.5 -224.5q-2 -188 -128 -282.5t-391 -94.5q-497 1 -497 359z" />
<glyph unicode="T" horiz-adv-x="1130" d="M49 1112v203q0 27 27 26h981q10 0 17 -7t7 -19v-203q0 -10 -7 -17.5t-17 -7.5h-344v-1060q0 -12 -8.5 -19.5t-18.5 -7.5h-242q-10 0 -17 7t-7 20v1060h-344q-12 0 -19.5 7.5t-7.5 17.5z" />
<glyph unicode="U" horiz-adv-x="1343" d="M125 494v821q0 27 27 26h239q27 0 27 -26v-811q0 -276 254 -277q254 0 254 277v811q0 27 26 26h240q27 0 27 -26v-823q0 -256 -139.5 -386.5t-407.5 -130.5q-271 0 -409 129t-138 390z" />
<glyph unicode="V" horiz-adv-x="1271" d="M18 1321q0 20 25 20h260q25 0 31 -20l223 -770q31 -109 74 -299h6q31 133 78 301l225 766q6 23 29 22h260q31 0 22 -28l-428 -1293q-8 -20 -30 -20h-318q-25 0 -31 20l-424 1293z" />
<glyph unicode="W" horiz-adv-x="1818" d="M29 1323q0 18 24 18h236q25 0 28 -22l185 -737q25 -111 43 -217q6 -23 14 -72h4l29 96q43 147 57 193l146 454l-78 246l-2 8q0 20 26 21h236q23 0 29 -23l188 -700q39 -147 68 -295h6q27 164 61 325l170 701q6 23 31 22h235q14 0 20.5 -7t4.5 -21l-350 -1290 q-4 -23 -27 -23h-280q-10 0 -18.5 6t-10.5 17l-109 383q-49 176 -77 292h-5q-35 -131 -82 -290l-118 -388q-8 -20 -31 -20h-268q-23 0 -29 23l-354 1290q-2 4 -2 10z" />
<glyph unicode="X" horiz-adv-x="1216" d="M4 14q0 8 6 17l428 657l-401 623q-6 10 -6 16q0 14 20 14h285q20 0 29 -16l161 -262q45 -80 84 -162h6q61 123 91 170l153 254q10 16 31 16h276q21 0 21 -14q0 -6 -6 -16l-400 -625l424 -655q4 -6 4 -15q0 -16 -20 -16h-285q-23 0 -33 16l-170 279q-51 84 -94 176h-4 q-45 -92 -92 -170l-174 -283q-10 -18 -33 -18h-278q-23 0 -23 14z" />
<glyph unicode="Y" horiz-adv-x="1189" d="M8 1323q0 8 6 13t17 5h270q23 0 31 -18l155 -338q59 -137 109 -260h2q61 154 111 260l153 338q10 18 31 18h266q15 0 20 -9t-1 -21l-437 -848v-436q0 -27 -26 -27h-240q-27 0 -26 27v436l-437 848q-4 8 -4 12z" />
<glyph unicode="Z" horiz-adv-x="1155" d="M29 25v14q0 16 10 33l512 823q59 96 121 190v5q-74 -2 -223 -3h-332q-12 0 -19.5 7.5t-7.5 17.5v203q0 27 27 26h977q10 0 17 -7t7 -17v-14q0 -12 -8 -33l-508 -801q-53 -90 -137 -213v-4q80 2 242 2h337q12 0 19.5 -7t7.5 -18v-202q0 -27 -27 -27h-989q-12 0 -19 7 t-7 18z" />
<glyph unicode="[" horiz-adv-x="585" d="M117 -336v1806q0 12 8 19.5t18 7.5h430q27 0 27 -27v-159q0 -27 -27 -27h-196v-1431h196q27 0 27 -27v-162q0 -27 -27 -26h-430q-10 0 -18 7t-8 19z" />
<glyph unicode="\" horiz-adv-x="833" d="M18 1325q0 16 23 16h207q25 0 31 -20l534 -1292q2 -4 2 -13q0 -16 -24 -16h-205q-23 0 -33 20l-533 1293q-2 4 -2 12z" />
<glyph unicode="]" horiz-adv-x="585" d="M-14 -174q0 12 8 19.5t18 7.5h197v1431h-197q-10 0 -18 7t-8 20v159q0 12 8 19.5t18 7.5h430q27 0 27 -27v-1806q0 -27 -27 -26h-430q-10 0 -18 7t-8 19v162z" />
<glyph unicode="^" horiz-adv-x="1093" d="M82 725q-6 8 2 23l342 632q12 18 31 19h180q20 0 33 -19l342 -632l4 -13q0 -18 -23 -18h-213q-25 0 -30 18l-203 414l-201 -414q-8 -18 -31 -18h-213q-14 0 -20 8z" />
<glyph unicode="_" horiz-adv-x="1120" d="M20 -137q0 10 7.5 18t19.5 8h1026q12 0 19.5 -8t7.5 -18v-166q0 -27 -27 -27h-1026q-27 0 -27 27v166z" />
<glyph unicode="`" horiz-adv-x="526" d="M61 1419q0 16 23 17h206q23 0 31 -21l139 -256q4 -12 5 -14q0 -18 -21 -19h-154q-20 1 -30 17l-193 260q-6 10 -6 16z" />
<glyph unicode="a" horiz-adv-x="1046" d="M66 262q0 106 40.5 173t132 103.5t248.5 51.5l160 16v78q0 78 -29.5 109.5t-105.5 31.5q-133 0 -133 -93v-11q0 -27 -27 -27h-215q-27 0 -28 33q-1 15 -1 30q0 129 96 201q107 80 318 80q213 0 311.5 -87t98.5 -275v-416q0 -127 12 -231v-4q0 -25 -26 -25h-201 q-23 0 -29 27q-10 68 -18 125q-86 -88 -166 -132.5t-180 -44.5q-125 0 -191.5 75t-66.5 212zM340 295q0 -53 21.5 -79t68.5 -26q51 0 101.5 27t115.5 92v142l-123 -13q-104 -10 -144 -41.5t-40 -101.5z" />
<glyph unicode="b" horiz-adv-x="1110" d="M115 23v1349q0 27 26 27h232q27 0 26 -27v-465q156 131 320 131q149 0 223 -87t74 -267v-293q0 -211 -108.5 -313.5t-336.5 -102.5q-66 0 -134 7.5t-132 17.5q-143 20 -190 23zM399 225q94 -16 148 -16q94 0 139 51t45 156v211q0 86 -29.5 126t-95.5 40q-45 0 -93 -22.5 t-114 -74.5v-471z" />
<glyph unicode="c" horiz-adv-x="1089" d="M90 399v215q0 205 122 314.5t347 109.5q143 0 245 -47t152 -130q44 -73 44 -160q0 -12 -1 -25q0 -39 -26 -39h-217q-10 0 -17.5 8t-7.5 23q0 61 -45 95t-123 34q-96 0 -142 -50.5t-46 -158.5v-162q0 -109 46 -158t140 -49q82 0 125 35t43 92q0 14 7 22.5t18 8.5h217 q27 0 26 -27q1 -14 1 -27q0 -153 -106 -247q-114 -102 -333 -101q-225 0 -347 110t-122 314z" />
<glyph unicode="d" d="M94 328v295q0 209 93.5 312t269.5 103q63 0 137 -15t127 -40v389q0 12 8 19.5t19 7.5h233q10 0 17.5 -7.5t7.5 -19.5v-1120q0 -106 12 -221v-8q0 -23 -25 -23h-205q-25 0 -26 25q-10 43 -19 122q-84 -82 -167.5 -127t-188.5 -45q-293 0 -293 353zM379 377 q0 -80 30.5 -118t94.5 -38q53 0 105.5 26.5t111.5 82.5v434q-88 41 -178 41q-164 0 -164 -207v-221z" />
<glyph unicode="e" horiz-adv-x="1099" d="M90 377v235q0 426 461 426q227 0 343 -103.5t116 -307.5v-160q0 -27 -27 -27h-610v-61q0 -96 43 -141t137 -45q74 0 116 24.5t44 69.5q0 27 26 26h224q27 0 26 -26v-8q0 -303 -434 -304q-233 0 -347 100.5t-118 301.5zM373 612h358v11q-2 102 -44 149t-132 47 q-96 0 -139 -48t-43 -150v-9z" />
<glyph unicode="f" horiz-adv-x="798" d="M29 803v184q0 10 8 18.5t18 8.5h148v71q0 166 92 252t270 86q66 0 129.5 -8t104.5 -20q29 -12 28 -31v-176q0 -23 -20 -23q-4 0 -21 4q-76 29 -157 29q-141 0 -142 -131v-53h242q14 0 21.5 -8.5t7.5 -20.5v-182q0 -10 -8.5 -18.5t-18.5 -8.5h-244v-749q0 -10 -8 -18.5 t-18 -8.5h-232q-10 0 -18 8t-8 19v749h-148q-10 0 -18 8.5t-8 18.5z" />
<glyph unicode="g" horiz-adv-x="1073" d="M39 -154q0 141 123 220q-53 53 -53 141q0 63 27.5 113.5t92.5 95.5q-100 86 -100 264q0 182 101.5 270t312.5 88q33 0 90 -4q6 113 24 217q6 25 25 25h186q16 0 21.5 -8t1.5 -21q-43 -137 -62 -280q123 -86 123 -289q0 -178 -100 -264t-311 -86q-84 0 -160 16 q-37 -27 -37 -61q0 -23 16.5 -34t55.5 -13l327 -23q154 -10 221.5 -84t67.5 -217q0 -166 -122 -240.5t-392 -74.5q-250 0 -364.5 61t-114.5 188zM313 -92q0 -55 47.5 -76.5t171.5 -24.5q95 0 144 9.5t68.5 31t19.5 60.5t-19.5 58.5t-62.5 21.5l-315 18q-53 -35 -54 -98z M389 682q0 -78 35 -110.5t117 -32.5t116.5 32.5t34.5 110.5t-34.5 111.5t-116.5 33.5t-117 -33.5t-35 -111.5z" />
<glyph unicode="h" horiz-adv-x="1146" d="M115 27v1345q0 27 26 27h232q27 0 26 -27v-485q80 72 161 111.5t177 39.5q295 0 295 -336v-675q0 -27 -26 -27h-232q-27 0 -26 27v618q0 74 -31 111t-94 37q-106 0 -224 -113v-653q0 -27 -26 -27h-232q-27 0 -26 27z" />
<glyph unicode="i" horiz-adv-x="514" d="M105 1290v49q0 66 40 100t114 34t113.5 -34t39.5 -100v-49q0 -63 -40 -98t-113 -35q-72 0 -113 35t-41 98zM115 27v960q0 27 26 27h232q27 0 26 -27v-960q0 -27 -26 -27h-232q-26 0 -26 27z" />
<glyph unicode="j" horiz-adv-x="516" d="M-45 -209q0 10 12 21q74 55 111 142t37 218v815q0 10 8 18.5t18 8.5h232q12 0 19 -8.5t7 -18.5v-817q0 -209 -61.5 -340t-206.5 -221q-8 -4 -12 -4q-8 0 -19 10l-137 158q-8 8 -8 18zM109 1290v49q0 66 40 100t114 34t113.5 -34t39.5 -100v-49q0 -63 -40 -98t-113 -35 q-72 0 -113 35t-41 98z" />
<glyph unicode="k" horiz-adv-x="1089" d="M115 27v1345q0 27 26 27h232q27 0 26 -27v-483q0 -141 -6 -283h6q70 106 138 189l165 204q12 14 31 15h289q23 0 22 -15q0 -10 -8 -18l-340 -391l369 -559q4 -7 4 -15q0 -16 -20 -16h-275q-20 0 -33 16l-239 379l-103 -112v-256q0 -27 -26 -27h-232q-27 0 -26 27z" />
<glyph unicode="l" horiz-adv-x="514" d="M115 27v1345q0 27 26 27h232q27 0 26 -27v-1345q0 -27 -26 -27h-232q-26 0 -26 27z" />
<glyph unicode="m" horiz-adv-x="1712" d="M102 985v4q0 10 7.5 17.5t19.5 7.5h203q12 0 18 -4t8 -17q12 -53 19 -127q82 84 159.5 128t178.5 44q106 0 165.5 -42t88.5 -130q82 82 165 127t179 45q285 0 284 -336v-675q0 -27 -26 -27h-232q-27 0 -26 27v618q0 76 -26.5 112t-86.5 36q-49 0 -96 -27t-105 -82v-657 q0 -27 -26 -27h-232q-27 0 -26 27v618q0 76 -26.5 112t-88.5 36q-49 0 -95 -27t-106 -82v-657q0 -27 -26 -27h-232q-26 0 -26 27v727q0 127 -13 231z" />
<glyph unicode="n" horiz-adv-x="1146" d="M102 983v4q0 27 27 27h203q23 0 28 -23q12 -66 19 -125q84 82 169 127t189 45q295 0 295 -336v-675q0 -27 -26 -27h-232q-27 0 -26 27v618q0 76 -31 112t-94 36q-55 0 -108.5 -28t-115.5 -85v-653q0 -27 -26 -27h-232q-27 0 -26 27v727q0 137 -13 229z" />
<glyph unicode="o" horiz-adv-x="1124" d="M90 401v211q0 209 122 317.5t349 108.5t349 -108.5t122 -317.5v-211q0 -211 -122 -318.5t-349 -107.5t-349 107.5t-122 318.5zM375 428q0 -111 45 -161t141 -50t141.5 50t45.5 161v158q0 111 -45.5 161t-141.5 50t-141 -50.5t-45 -160.5v-158z" />
<glyph unicode="p" horiz-adv-x="1112" d="M102 985v4q0 25 27 25h203q23 0 28 -23q8 -39 17 -108q82 74 163 114.5t179 40.5q149 0 223 -87t74 -267v-293q0 -416 -359 -416q-61 0 -131.5 14.5t-126.5 39.5v-381q0 -27 -26 -27h-232q-27 0 -26 27v1114q0 123 -13 223zM399 246q84 -37 170 -37q84 0 123 52t39 155 v211q0 84 -30.5 125t-94.5 41q-92 0 -207 -99v-448z" />
<glyph unicode="q" horiz-adv-x="1120" d="M94 328v295q0 211 109.5 313t335.5 102h8q102 0 264 -24q23 -2 82 -10.5t113 -12.5v-1343q0 -27 -27 -27h-231q-27 0 -27 27v461q-154 -133 -332 -134q-150 0 -222.5 86t-72.5 267zM379 387q0 -88 29.5 -127t95.5 -39q51 0 102 22.5t115 73.5v469q-88 18 -162 19 q-92 0 -136 -50t-44 -157v-211z" />
<glyph unicode="r" horiz-adv-x="792" d="M102 985v4q0 25 27 25h203q23 0 28 -23q12 -66 17 -141q63 84 148 136t167 52q41 0 60 -8q20 -4 20 -29q1 -34 1 -68q0 -85 -7 -167q-2 -31 -31 -25q-37 8 -73 9q-68 0 -137.5 -35t-125.5 -97v-591q0 -27 -26 -27h-232q-27 0 -26 27v729q0 123 -13 229z" />
<glyph unicode="s" horiz-adv-x="972" d="M84 305q4 25 27 25h217q25 0 24 -25q0 -66 31 -95.5t98 -29.5q72 0 106 22.5t34 69.5q0 37 -23 60.5t-80 48.5l-235 100q-102 43 -147.5 105.5t-45.5 163.5q0 147 95.5 217.5t295.5 70.5q207 0 306.5 -73.5t99.5 -223.5q0 -27 -27 -26h-215q-27 0 -27 33q0 41 -32.5 63.5 t-91.5 22.5t-88 -20.5t-29 -63.5q0 -31 19.5 -50.5t76.5 -42.5l234 -98q109 -45 155.5 -107.5t46.5 -166.5q0 -152 -107.5 -231t-318.5 -79q-215 0 -312 80q-88 73 -88 219q0 15 1 31z" />
<glyph unicode="t" horiz-adv-x="868" d="M23 803v184q0 12 8 19.5t18 7.5h156l31 243q6 27 28 27h191q27 0 26 -27v-243h299q10 0 18.5 -7.5t8.5 -19.5v-184q0 -12 -8 -19.5t-19 -7.5h-299v-414q0 -76 30 -109.5t101 -33.5q90 0 166 35q4 2 13 2q18 0 18 -23v-186q0 -20 -23 -31q-111 -41 -241 -41 q-191 0 -269.5 85t-78.5 284v432h-148q-10 0 -18 7.5t-8 19.5z" />
<glyph unicode="u" d="M115 311v676q0 27 26 27h232q27 0 26 -27v-618q0 -76 27 -112t82 -36q94 0 215 111v655q0 27 27 27h231q27 0 27 -27v-727q0 -123 12 -233v-4q0 -23 -27 -23h-198q-23 0 -29 23q-12 57 -18 127q-86 -82 -170 -128.5t-183 -46.5q-281 0 -280 336z" />
<glyph unicode="v" horiz-adv-x="1073" d="M33 993q0 20 24 21h250q25 0 31 -23l129 -467q45 -166 65 -272h7q23 109 69 274l129 465q6 23 31 23h250q14 0 19 -8.5t1 -22.5l-325 -963q-8 -20 -31 -20h-293q-23 0 -31 20l-323 963z" />
<glyph unicode="w" horiz-adv-x="1550" d="M43 995q0 8 6 13.5t17 5.5h245q23 0 29 -25l113 -457q25 -96 55 -268h6q49 172 72 258l69 242l-47 197l-2 10q0 20 25 20h213q25 0 30 -22l105 -441q37 -176 57 -264h6q23 141 56 273l112 452q6 25 29 25h246q26 0 20 -31l-305 -960q-8 -23 -29 -23h-251q-23 0 -29 23 l-45 153q-27 88 -51 207q-8 25 -15 59h-6q-20 -88 -69 -264l-46 -155q-6 -23 -30 -23h-250q-23 0 -31 23l-303 960q-2 4 -2 12z" />
<glyph unicode="x" horiz-adv-x="1067" d="M16.5 9q-6.5 9 3.5 22l340 489l-317 461q-6 10 -6 16q0 16 22 17h269q23 0 32 -17l95 -153q20 -35 33.5 -62.5t23.5 -46.5l20 -39h5q27 51 84 154l88 145q10 18 32 19h263q23 0 22 -17q0 -6 -6 -16l-315 -457l342 -493q6 -8 6 -15q0 -16 -23 -16h-268q-23 0 -33 16 l-90 146l-78 131l-29 49h-2l-28 -51l-74 -127l-92 -148q-8 -16 -31 -16h-266q-16 0 -22.5 9z" />
<glyph unicode="y" horiz-adv-x="1067" d="M31 995q0 18 22 19h254q23 0 29 -23l125 -373q29 -94 63 -239q2 -16 11 -45h6q35 152 73 282l123 375q6 23 31 23h248q14 0 20 -8.5t0 -22.5l-491 -1341q-6 -20 -29 -21h-225q-14 0 -19.5 8.5t-1.5 22.5l133 354l-368 977z" />
<glyph unicode="z" horiz-adv-x="983" d="M31 25v8q0 18 8 35l356 526q72 113 127 184v4q-72 -2 -209 -2h-204q-10 0 -17.5 7.5t-7.5 19.5v180q0 12 7 19.5t18 7.5h809q29 0 28 -27v-6q0 -20 -20 -51l-334 -490q-100 -147 -141 -200v-7q80 2 208 3h224q27 0 26 -27v-182q0 -27 -26 -27h-826q-12 0 -19 7t-7 18z " />
<glyph unicode="{" horiz-adv-x="624" d="M20 481v174q0 27 27 27h55q47 0 66.5 23.5t19.5 76.5v305q0 158 40 247t129 127t247 38q25 0 25 -26v-162q0 -27 -27 -27q-92 0 -122.5 -32.5t-30.5 -121.5v-339q0 -186 -148 -222q72 -16 110 -73.5t38 -149.5v-340q0 -90 30.5 -121.5t122.5 -31.5q27 0 27 -27v-162 q0 -27 -25 -26q-158 2 -247 39.5t-129 125.5t-40 246v305q0 55 -19 78t-67 23h-55q-27 0 -27 26z" />
<glyph unicode="|" horiz-adv-x="481" d="M111 -268v1878q0 10 7 17t19 7h209q12 0 19.5 -7t7.5 -17v-1878q0 -27 -27 -27h-209q-27 0 -26 27z" />
<glyph unicode="}" horiz-adv-x="624" d="M-4 -174q0 27 27 27q92 0 122.5 31.5t30.5 121.5v340q0 92 38 149.5t110 73.5q-72 16 -110 72.5t-38 149.5v339q0 88 -30.5 121t-122.5 33q-27 0 -27 27v162q0 27 27 26q156 0 244.5 -38t128.5 -127t40 -247v-305q0 -53 19.5 -76.5t66.5 -23.5h56q27 0 26 -27v-174 q0 -27 -26 -26h-56q-47 0 -66.5 -22.5t-19.5 -78.5v-305q0 -158 -40 -246t-128 -125.5t-245 -39.5q-27 -1 -27 26v162z" />
<glyph unicode="~" horiz-adv-x="1228" d="M172 500v184q0 8 1 13t9 8q111 55 248 55q57 0 96 -7.5t99 -23.5q47 -14 86 -22.5t92 -8.5q74 0 147.5 21.5t83.5 23.5l8 2q14 0 15 -18v-184q0 -18 -15 -25q-125 -51 -243 -51q-58 0 -99 8t-92 25q-57 16 -93 23t-89 7q-72 0 -145.5 -21.5t-85.5 -25.5l-9 -2 q-14 0 -14 19z" />
<glyph unicode="&#xa2;" horiz-adv-x="1290" d="M172 502v215q0 174 90 280.5t258 132.5v144q0 20 21 20h209q20 0 20 -20v-146q154 -29 235.5 -124t75.5 -226q0 -39 -26 -39h-217q-10 0 -17.5 8.5t-7.5 22.5q0 61 -45 95t-123 34q-96 0 -142 -50t-46 -159v-162q0 -109 46 -157.5t140 -48.5q82 0 125 34.5t43 92.5 q0 14 7 22t18 8h217q27 0 26 -26q10 -145 -69.5 -240.5t-239.5 -124.5v-143q0 -20 -20 -21h-209q-20 0 -21 21v143q-168 27 -258 133.5t-90 280.5z" />
<glyph unicode="&#xa3;" horiz-adv-x="1290" d="M131 584v170q0 12 8 19t19 7h127v178q2 201 103 304.5t319 103.5q213 0 318 -93t97 -292q0 -33 -28 -33h-209q-25 0 -25 29q4 72 -28.5 111.5t-112.5 39.5q-82 0 -117 -45t-35 -149v-154h287q10 0 18.5 -7t8.5 -19v-170q0 -10 -8.5 -17.5t-18.5 -7.5h-287v-90 q0 -76 -18.5 -129t-56.5 -94h638q27 0 27 -27v-192q0 -27 -27 -27h-913q-27 0 -27 27v157q0 18 13 33q82 94 82 219v123h-127q-10 0 -18.5 7t-8.5 18z" />
<glyph unicode="&#xa5;" horiz-adv-x="1290" d="M68 1323q0 8 6 13t16 5h268q25 0 31 -18l156 -381l84 -209h2l37 94q25 66 45 113l157 383q10 18 31 18h264q15 0 21 -9t0 -21l-328 -676h135q10 0 17.5 -7t7.5 -20v-125q0 -12 -7 -19t-18 -7h-219v-99h219q10 0 17.5 -7t7.5 -19v-125q0 -12 -7 -19.5t-18 -7.5h-219v-153 q0 -12 -7 -19.5t-17 -7.5h-242q-10 0 -18.5 7t-8.5 20v153h-219q-10 0 -17 7.5t-7 19.5v125q0 12 7 19t17 7h219v99h-219q-10 0 -17 7t-7 19v125q0 12 7 19.5t17 7.5h135l-325 676q-4 8 -4 12z" />
<glyph unicode="&#xa8;" horiz-adv-x="817" d="M61 1260v51q0 61 38 93t106 32q69 0 107 -32t38 -93v-51q0 -59 -38 -91t-107 -32q-66 0 -105 32.5t-39 90.5zM469 1260v51q0 59 38 92t103 33q72 0 109 -32t37 -93v-51q0 -59 -38 -91t-108 -32q-66 0 -103.5 32.5t-37.5 90.5z" />
<glyph unicode="&#xa9;" horiz-adv-x="1431" d="M113 508v221q0 248 148.5 390.5t453.5 142.5q307 0 455.5 -142.5t148.5 -390.5v-221q0 -248 -148.5 -390.5t-455.5 -142.5q-305 0 -453.5 142.5t-148.5 390.5zM311 500q0 -164 101.5 -251t302.5 -87q203 0 304 87t101 251v237q0 164 -101 251t-304 87q-201 0 -302.5 -87 t-101.5 -251v-237zM434 547v143q0 135 74 205t211 70q133 0 205.5 -63.5t72.5 -184.5q0 -14 -5 -21.5t-17 -7.5h-133q-23 0 -23 25q4 41 -21.5 64.5t-78.5 23.5q-55 0 -81 -31t-26 -94v-115q0 -125 105 -125q102 0 102 86q0 25 25 25h131q23 0 22 -23q0 -121 -71.5 -186.5 t-208.5 -65.5q-135 0 -209 70t-74 205z" />
<glyph unicode="&#xab;" horiz-adv-x="1071" d="M90 541q0 10 6 18l193 328q12 18 30 18h222q16 0 22 -9t-2 -24l-184 -331l182 -332q4 -12 4 -16q0 -16 -22 -17h-222q-18 1 -30 19l-193 327q-6 12 -6 19zM500 541q0 6 4 18l194 328q10 18 31 18h221q14 0 20.5 -9t-1.5 -24l-183 -331l183 -332q4 -12 4 -14 q0 -18 -23 -19h-221q-21 1 -31 19l-194 327z" />
<glyph unicode="&#xad;" horiz-adv-x="989" d="M109 463v166q0 10 7 18t19 8h719q12 0 19.5 -8t7.5 -18v-166q0 -27 -27 -27h-719q-27 0 -26 27z" />
<glyph unicode="&#xae;" horiz-adv-x="1177" d="M129 995v74q0 182 116.5 281.5t344.5 99.5q225 0 343 -100.5t118 -280.5v-74q0 -180 -118 -280.5t-343 -100.5q-228 0 -344.5 100.5t-116.5 280.5zM266 993q0 -250 324 -250q321 0 321 250v78q0 250 -321 250q-324 0 -324 -250v-78zM424 840v395q0 18 22 18h138 q100 0 148 -33.5t48 -103.5q0 -47 -20.5 -76.5t-65.5 -50.5l88 -145q4 -8 4 -13q0 -10 -14 -10h-90q-14 0 -25 13l-75 133h-43v-127q0 -8 -6.5 -13.5t-14.5 -5.5h-74q-8 0 -14 5t-6 14zM539 1053h51q39 0 56.5 12t17.5 39v12q0 27 -18.5 39t-57.5 12h-49v-114z" />
<glyph unicode="&#xb4;" horiz-adv-x="526" d="M62.5 1135.5q-5.5 9.5 2.5 23.5l139 256q12 20 33 21h205q23 -1 23 -17q0 -6 -7 -16l-190 -260q-14 -16 -33 -17h-151q-16 0 -21.5 9.5z" />
<glyph unicode="&#xb8;" horiz-adv-x="491" d="M62 -272q0 25 24 24q14 0 26.5 -2t23.5 -2q43 0 63.5 12.5t20.5 32.5v17q0 25 -16.5 36t-53.5 11h-31q-27 0 -26 18q0 16 6 35l51 162q8 23 31 22h131q14 0 20 -8t2 -23l-43 -129h21q49 0 84 -37.5t35 -91.5v-34q0 -174 -246 -174q-33 0 -99 8q-25 2 -24 26v97z" />
<glyph unicode="&#xbb;" horiz-adv-x="1073" d="M98 887q0 8 6.5 13t16.5 5h221q23 0 31 -18l194 -328q6 -8 6 -18q0 -6 -6 -19l-194 -327q-8 -18 -31 -19h-221q-15 0 -21 9.5t2 23.5l183 332l-183 331q-4 8 -4 15zM506 887q0 8 7 13t17 5h222q18 0 30 -18l193 -328q6 -8 6 -18q0 -6 -6 -19l-193 -327q-12 -18 -30 -19 h-222q-16 0 -21 9.5t3 23.5l182 332l-184 331q-4 8 -4 15z" />
<glyph unicode="&#x2c6;" horiz-adv-x="686" d="M61 1128v140q0 23 19 30l246 146q8 6 16 6t18 -6l246 -146q18 -8 19 -30v-140q0 -14 -9.5 -20t-23.5 2l-250 125l-250 -125q-8 -4 -12 -4q-8 0 -13.5 6t-5.5 16z" />
<glyph unicode="&#x2da;" horiz-adv-x="645" d="M61 1329q0 111 67.5 170.5t192.5 59.5t194 -59.5t69 -170.5t-69 -171t-194 -60q-123 0 -191.5 60.5t-68.5 170.5zM244 1331q0 -39 19.5 -61.5t57.5 -22.5q80 0 80 84q0 86 -80 86q-77 0 -77 -86z" />
<glyph unicode="&#x2dc;" horiz-adv-x="686" d="M61 1190v131q0 20 15 33q74 59 159 59q39 0 66 -8t68 -27q53 -25 86 -24q55 0 137 41q6 4 16 4q16 0 17 -21v-133q0 -20 -15 -33q-80 -59 -160 -59q-28 0 -50.5 7t-63.5 24q-25 10 -51.5 19t-53.5 9q-49 0 -139 -43q-8 -4 -12 -4q-18 0 -19 25z" />
<glyph unicode="&#x401;" horiz-adv-x="1114" d="M135 27v1288q0 27 27 26h817q10 0 18.5 -7t8.5 -19v-203q0 -10 -8.5 -17.5t-18.5 -7.5h-551v-290h502q10 0 18 -7.5t8 -19.5v-188q0 -10 -8 -17.5t-18 -7.5h-502v-303h551q10 0 18.5 -7t8.5 -18v-202q0 -12 -8.5 -19.5t-18.5 -7.5h-817q-27 0 -27 27zM235 1573v53 q0 59 38 92t106 33q69 0 107 -32.5t38 -92.5v-53q0 -57 -38 -90t-107 -33q-66 0 -105 33t-39 90zM641 1573v53q0 59 39 92t104 33q72 0 110 -32.5t38 -92.5v-53q0 -57 -39 -90t-109 -33q-66 0 -104.5 33t-38.5 90z" />
<glyph unicode="&#x402;" horiz-adv-x="1515" d="M49 1112v203q0 27 27 26h997q25 0 25 -26v-203q0 -25 -25 -25h-360v-348q76 70 174 110t200 40q312 0 312 -346v-125q0 -190 -99.5 -305t-289.5 -138h-11q-14 0 -21 4.5t-9 14.5l-62 194l-2 11q0 18 29 24q90 16 133 62.5t43 130.5v71q0 76 -33 112t-102 36 q-129 0 -262 -127v-481q0 -12 -8.5 -19.5t-18.5 -7.5h-242q-10 0 -17 7t-7 20v1060h-344q-12 0 -19.5 7.5t-7.5 17.5z" />
<glyph unicode="&#x403;" horiz-adv-x="985" d="M135 27v1288q0 27 27 26h749q10 0 17.5 -7t7.5 -19v-203q0 -10 -7 -17.5t-18 -7.5h-483v-1060q0 -27 -27 -27h-239q-27 0 -27 27zM416.5 1458q-5.5 8 2.5 23l131 239q8 18 33 19h207q23 -1 23 -15q0 -4 -9 -16l-182 -244q-10 -14 -31 -14h-153q-16 0 -21.5 8z" />
<glyph unicode="&#x404;" horiz-adv-x="1286" d="M111 467v405q0 252 133 373t393 121q256 0 396.5 -96t140.5 -266q0 -31 -3 -48q-4 -35 -26 -34l-240 2q-14 0 -19 8t-5 26q0 76 -59.5 116t-176.5 40q-129 0 -185.5 -49t-56.5 -166v-100h396q27 0 26 -27v-190q0 -27 -26 -27h-396v-102q0 -123 57.5 -174.5t190.5 -51.5 q121 0 179.5 44t58.5 112q0 20 5 28.5t19 8.5l240 2q14 0 20.5 -15.5t6.5 -54.5q0 -178 -133.5 -277.5t-382.5 -99.5q-277 0 -415 120t-138 372z" />
<glyph unicode="&#x405;" horiz-adv-x="1175" d="M76 334q0 33 2 51q2 35 28 35l234 -4q27 0 27 -29q-2 -84 51 -124t166 -40q111 0 163 33t52 100q0 49 -30 80t-110 64l-294 129q-150 63 -210.5 147t-60.5 215q0 180 119 277.5t352 97.5q256 0 383 -101.5t115 -297.5q0 -35 -27 -35h-233q-27 0 -27 35q4 72 -50 113.5 t-157 41.5q-180 0 -184 -125q0 -47 32 -79.5t111 -65.5l293 -125q152 -66 211.5 -150.5t59.5 -224.5q-2 -188 -128 -282.5t-391 -94.5q-497 1 -497 359z" />
<glyph unicode="&#x406;" horiz-adv-x="563" d="M135 27v1288q0 27 27 26h239q27 0 27 -26v-1288q0 -27 -27 -27h-239q-27 0 -27 27z" />
<glyph unicode="&#x407;" horiz-adv-x="563" d="M-64 1573v53q0 59 38 92t106 33q69 0 107 -32.5t38 -92.5v-53q0 -57 -38 -90t-107 -33q-66 0 -105 33t-39 90zM135 27v1288q0 27 27 26h239q27 0 27 -26v-1288q0 -27 -27 -27h-239q-27 0 -27 27zM342 1573v53q0 59 39 92t104 33q72 0 110 -32.5t38 -92.5v-53 q0 -57 -39 -90t-109 -33q-66 0 -104.5 33t-38.5 90z" />
<glyph unicode="&#x408;" horiz-adv-x="583" d="M-29 -106q0 18 29 28q156 35 156 281v1112q0 27 26 26h240q27 0 27 -26v-1092q0 -248 -92.5 -383t-278.5 -166l-15 -2q-25 0 -30 19l-62 194v9z" />
<glyph unicode="&#x409;" horiz-adv-x="1845" d="M-4 29l420 1292q6 20 30 20h312q25 0 30 -20l140 -426h323q266 0 397.5 -110.5t131.5 -325.5q0 -227 -131 -343t-402 -116h-321q-18 0 -27 20l-223 787q-33 119 -74 287h-6q-8 -27 -10 -45q-10 -43 -28.5 -117t-33.5 -125l-219 -784q-6 -23 -29 -23h-260q-14 0 -19 8 t-1 21zM1008 653l127 -403h110q123 0 183.5 50t60.5 159q0 104 -59.5 149t-184.5 45h-237z" />
<glyph unicode="&#x40a;" horiz-adv-x="2007" d="M135 27v1288q0 27 27 26h239q27 0 27 -26v-492h520v492q0 27 27 26h239q10 0 18.5 -7t8.5 -19v-438h174q260 0 392 -111t132 -317q0 -449 -532 -449h-432q-27 0 -27 27v544h-520v-544q0 -27 -27 -27h-239q-27 0 -27 27zM1241 250h164q244 -1 244 196q0 98 -60.5 143.5 t-181.5 45.5h-166v-385z" />
<glyph unicode="&#x40b;" horiz-adv-x="1515" d="M49 1112v203q0 27 27 26h997q25 0 25 -26v-203q0 -25 -25 -25h-360v-348q166 150 370 150q315 0 316 -346v-516q0 -12 -7.5 -19.5t-17.5 -7.5h-239q-10 0 -17.5 7t-7.5 20v448q0 160 -139 160q-127 0 -258 -127v-481q0 -12 -8.5 -19.5t-18.5 -7.5h-242q-10 0 -17 7t-7 20 v1060h-344q-12 0 -19.5 7.5t-7.5 17.5z" />
<glyph unicode="&#x40c;" horiz-adv-x="1261" d="M135 27v1288q0 27 27 26h239q27 0 27 -26v-524h121l346 534q8 16 33 16h272q14 0 19.5 -9t-2.5 -21l-416 -613l461 -667q6 -8 6 -15q0 -16 -23 -16h-293q-18 0 -32 16l-363 525h-129v-514q0 -27 -27 -27h-239q-27 0 -27 27zM503.5 1458q-5.5 8 2.5 23l131 239q8 18 33 19 h207q23 -1 23 -15q0 -4 -9 -16l-182 -244q-10 -14 -31 -14h-153q-16 0 -21.5 8z" />
<glyph unicode="&#x40d;" horiz-adv-x="1370" d="M135 27v1288q0 27 27 26h231q10 0 17.5 -7t7.5 -19v-563q-2 -170 -25 -365h6q63 156 168 336l355 600q14 18 30 18h256q27 0 27 -26v-1288q0 -27 -27 -27h-229q-10 0 -17.5 7t-7.5 20v551q0 152 21 366h-6q-47 -106 -121 -235l-39 -70l-360 -621q-10 -18 -31 -18h-256 q-27 0 -27 27zM413 1722q0 16 23 17h207q20 -1 32 -19l131 -239l5 -15q0 -16 -23 -16h-154q-23 0 -32 14l-183 244q-6 10 -6 14z" />
<glyph unicode="&#x40e;" horiz-adv-x="1208" d="M20 1323q0 8 7.5 13t17.5 5h266q23 0 31 -18l176 -371q53 -113 88 -223h6q39 113 95 227l178 367q6 18 30 18h261q14 0 20 -9t0 -21l-653 -1293q-8 -18 -31 -18h-242q-14 0 -20 8t0 23l209 428l-434 852q-4 8 -5 12zM319 1579v154q0 23 15 22q8 0 16 -8q57 -43 128 -75 t142 -32q74 0 146 32t125 75q8 8 18 8q14 0 15 -22v-154q0 -18 -15 -33q-47 -39 -125 -71.5t-164 -32.5t-162.5 32.5t-123.5 71.5q-14 14 -15 33z" />
<glyph unicode="&#x40f;" horiz-adv-x="1372" d="M135 27v1288q0 27 27 26h239q27 0 27 -26v-1057h516v1057q0 27 27 26h239q11 0 18 -7t7 -19v-1288q0 -10 -7 -18.5t-18 -8.5h-376v-260q0 -10 -8.5 -18.5t-18.5 -8.5h-240q-10 0 -18 8.5t-8 18.5v260h-379q-27 0 -27 27z" />
<glyph unicode="&#x410;" horiz-adv-x="1236" d="M-4 29l434 1292q8 20 31 20h313q23 0 29 -20l438 -1292l2 -9q0 -20 -22 -20h-265q-23 0 -28 20l-72 240h-481l-70 -237q-6 -23 -29 -23h-260q-14 0 -19 8t-1 21zM442 494h344l-94 319q-37 121 -76 281h-4q-18 -82 -75 -281z" />
<glyph unicode="&#x411;" horiz-adv-x="1208" d="M135 27v1288q0 27 27 26h805q27 0 26 -26v-203q0 -10 -7 -17.5t-19 -7.5h-539v-239h190q519 -1 519 -402q0 -221 -131.5 -333.5t-401.5 -112.5h-442q-27 0 -27 27zM428 238h172q125 0 185.5 48t60.5 152q0 100 -58.5 144.5t-183.5 44.5h-176v-389z" />
<glyph unicode="&#x412;" horiz-adv-x="1222" d="M135 27v1288q0 27 27 26h434q500 0 500 -329q0 -119 -52.5 -190.5t-164.5 -110.5v-6q274 -51 274 -314q0 -207 -132 -299t-427 -92h-432q-27 0 -27 27zM424 240h182q135 0 194.5 38.5t59.5 129.5q0 86 -60.5 126.5t-193.5 40.5h-182v-335zM424 791h166q111 0 162 39.5 t51 121.5q0 78 -54.5 115t-170.5 37h-154v-313z" />
<glyph unicode="&#x413;" horiz-adv-x="985" d="M135 27v1288q0 27 27 26h749q10 0 17.5 -7t7.5 -19v-203q0 -10 -7 -17.5t-18 -7.5h-483v-1060q0 -27 -27 -27h-239q-27 0 -27 27z" />
<glyph unicode="&#x414;" horiz-adv-x="1329" d="M0 233q0 10 8 17.5t19 7.5h108l342 1063q6 20 31 20h311q25 0 31 -20l344 -1063h111q10 0 17 -7t7 -18v-493q0 -10 -7 -18.5t-17 -8.5h-234q-10 0 -18.5 8.5t-8.5 18.5v260h-759v-260q0 -10 -8.5 -18.5t-18.5 -8.5h-231q-10 0 -18.5 8.5t-8.5 18.5v493zM434 258h457 l-143 508q-51 190 -84 328h-5l-20 -84l-66 -250z" />
<glyph unicode="&#x415;" horiz-adv-x="1114" d="M135 27v1288q0 27 27 26h817q10 0 18.5 -7t8.5 -19v-203q0 -10 -8.5 -17.5t-18.5 -7.5h-551v-290h502q10 0 18 -7.5t8 -19.5v-188q0 -10 -8 -17.5t-18 -7.5h-502v-303h551q10 0 18.5 -7t8.5 -18v-202q0 -12 -8.5 -19.5t-18.5 -7.5h-817q-27 0 -27 27z" />
<glyph unicode="&#x416;" horiz-adv-x="1839" d="M41 8q-6 8 2 23l346 665l-309 615q-4 8 -4 12q0 8 6 13t16 5h279q10 0 19.5 -4t11.5 -12l233 -539h139v529q0 27 27 26h227q10 0 18.5 -7t8.5 -19v-529h139l236 539q2 8 11 12t19 4h277q14 0 19 -9t-3 -21l-307 -615l346 -665q4 -8 4 -15q0 -16 -22 -16h-285 q-23 0 -31 18l-258 527h-145v-518q0 -12 -8.5 -19.5t-18.5 -7.5h-227q-27 0 -27 27v518h-145l-258 -527q-10 -18 -33 -18h-283q-14 0 -20 8z" />
<glyph unicode="&#x417;" horiz-adv-x="1214" d="M78 317l2 35q2 25 9 35t20 10h217q25 0 24 -18q0 -82 53.5 -120t169.5 -38q139 0 203 43t64 139q0 82 -54.5 120t-177.5 38h-207q-27 0 -26 27v174q0 10 7 17t19 7h152q125 0 181.5 39t56.5 127q0 92 -52.5 132t-175.5 40q-106 0 -156.5 -34.5t-48.5 -108.5 q0 -29 -26 -29h-217q-16 0 -22.5 17.5t-6.5 58.5q0 166 126 252t370 86q500 0 499 -360q0 -111 -54 -193t-157 -115v-4q129 -27 196 -105.5t67 -197.5q0 -203 -143.5 -309.5t-422.5 -106.5q-239 0 -364 86t-125 256z" />
<glyph unicode="&#x418;" horiz-adv-x="1370" d="M135 27v1288q0 27 27 26h231q10 0 17.5 -7t7.5 -19v-563q-2 -170 -25 -365h6q63 156 168 336l355 600q14 18 30 18h256q27 0 27 -26v-1288q0 -27 -27 -27h-229q-10 0 -17.5 7t-7.5 20v551q0 152 21 366h-6q-47 -106 -121 -235l-39 -70l-360 -621q-10 -18 -31 -18h-256 q-27 0 -27 27z" />
<glyph unicode="&#x419;" horiz-adv-x="1370" d="M135 27v1288q0 27 27 26h231q10 0 17.5 -7t7.5 -19v-563q-2 -170 -25 -365h6q63 156 168 336l355 600q14 18 30 18h256q27 0 27 -26v-1288q0 -27 -27 -27h-229q-10 0 -17.5 7t-7.5 20v551q0 152 21 366h-6q-47 -106 -121 -235l-39 -70l-360 -621q-10 -18 -31 -18h-256 q-27 0 -27 27zM397 1579v154q0 23 15 22q8 0 16 -8q57 -43 128 -75t142 -32q74 0 146 32t125 75q8 8 18 8q14 0 15 -22v-154q0 -18 -15 -33q-47 -39 -125 -71.5t-164 -32.5t-162.5 32.5t-123.5 71.5q-14 14 -15 33z" />
<glyph unicode="&#x41a;" horiz-adv-x="1261" d="M135 27v1288q0 27 27 26h239q27 0 27 -26v-524h121l346 534q8 16 33 16h272q14 0 19.5 -9t-2.5 -21l-416 -613l461 -667q6 -8 6 -15q0 -16 -23 -16h-293q-18 0 -32 16l-363 525h-129v-514q0 -27 -27 -27h-239q-27 0 -27 27z" />
<glyph unicode="&#x41b;" horiz-adv-x="1224" d="M-4 29l428 1292q8 20 31 20h313q23 0 29 -20l432 -1292l2 -9q0 -20 -23 -20h-264q-23 0 -29 20l-231 793q-39 133 -74 281h-4l-28 -113q-16 -78 -43 -170l-230 -788q-6 -23 -29 -23h-260q-14 0 -19 8t-1 21z" />
<glyph unicode="&#x41c;" horiz-adv-x="1630" d="M109 27l26 1288q0 12 8.5 19t18.5 7h295q20 0 28 -20l332 -709l328 709q8 20 31 20h292q10 0 17.5 -7t7.5 -19l29 -1288q0 -27 -27 -27h-233q-10 0 -18.5 7t-8.5 20l-12 559q-2 145 8 346h-6q-78 -190 -154 -334l-221 -448q-8 -16 -31 -17h-10q-20 0 -29 17l-223 452 q-53 104 -149 330h-7q8 -225 7 -342l-13 -563q0 -27 -26 -27h-234q-26 0 -26 27z" />
<glyph unicode="&#x41d;" horiz-adv-x="1376" d="M135 27v1288q0 27 27 26h239q27 0 27 -26v-510h522v510q0 27 27 26h237q27 0 27 -26v-1288q0 -27 -27 -27h-237q-27 0 -27 27v526h-522v-526q0 -27 -27 -27h-239q-27 0 -27 27z" />
<glyph unicode="&#x41e;" horiz-adv-x="1345" d="M111 496v350q0 256 142 388t419 132q279 0 421 -132t142 -388v-350q0 -256 -142.5 -388.5t-420.5 -132.5q-277 0 -419 132.5t-142 388.5zM403 512q0 -137 68 -210t201 -73t201.5 73t68.5 210v317q0 137 -68.5 210t-201.5 73t-201 -72.5t-68 -210.5v-317z" />
<glyph unicode="&#x41f;" horiz-adv-x="1372" d="M135 27v1288q0 27 27 26h1048q10 0 17.5 -7t7.5 -19v-1288q0 -12 -7 -19.5t-18 -7.5h-239q-27 0 -27 27v1060h-516v-1060q0 -27 -27 -27h-239q-27 0 -27 27z" />
<glyph unicode="&#x420;" horiz-adv-x="1161" d="M135 27v1288q0 27 27 26h405q274 0 403.5 -112.5t129.5 -337.5q0 -217 -133 -332t-398 -115h-141v-417q0 -27 -27 -27h-239q-27 0 -27 27zM428 692h137q123 0 182.5 47t59.5 150q0 106 -58.5 154.5t-183.5 48.5h-137v-400z" />
<glyph unicode="&#x421;" horiz-adv-x="1331" d="M111 496v346q0 258 146 391t413 133q260 0 407.5 -115.5t147.5 -314.5q0 -37 -2 -55q-4 -29 -27 -29h-242q-27 0 -22 27q2 113 -62.5 174t-195.5 61t-201 -69.5t-70 -210.5v-326q0 -141 70 -211t201 -70q135 0 199.5 64.5t58.5 171.5v4q0 23 22 22h240q25 0 29 -28 q2 -18 2 -51q0 -201 -149.5 -318t-407.5 -117q-267 0 -412 132.5t-145 388.5z" />
<glyph unicode="&#x422;" horiz-adv-x="1130" d="M49 1112v203q0 27 27 26h981q10 0 17 -7t7 -19v-203q0 -10 -7 -17.5t-17 -7.5h-344v-1060q0 -12 -8.5 -19.5t-18.5 -7.5h-242q-10 0 -17 7t-7 20v1060h-344q-12 0 -19.5 7.5t-7.5 17.5z" />
<glyph unicode="&#x423;" horiz-adv-x="1208" d="M20 1323q0 8 7.5 13t17.5 5h266q23 0 31 -18l176 -371q53 -113 88 -223h6q39 113 95 227l178 367q6 18 30 18h261q14 0 20 -9t0 -21l-653 -1293q-8 -18 -31 -18h-242q-14 0 -20 8t0 23l209 428l-434 852q-4 8 -5 12z" />
<glyph unicode="&#x424;" horiz-adv-x="1738" d="M111 510v321q0 252 158.5 385.5t455.5 147.5v106q0 12 7 19.5t18 7.5h239q27 0 27 -27v-106q295 -12 453.5 -146.5t158.5 -386.5v-321q0 -252 -158.5 -386t-453.5 -147v-106q0 -27 -27 -27h-239q-10 0 -17.5 7.5t-7.5 19.5v106q-297 12 -455.5 146.5t-158.5 386.5z M395 539q0 -156 83 -229.5t255 -84.5v889q-172 -10 -255 -84t-83 -227v-264zM1008 225q172 10 255 84t83 230v264q0 154 -83 227.5t-255 83.5v-889z" />
<glyph unicode="&#x425;" horiz-adv-x="1216" d="M4 14q0 8 6 17l428 657l-401 623q-6 10 -6 16q0 14 20 14h285q20 0 29 -16l161 -262q45 -80 84 -162h6q61 123 91 170l153 254q10 16 31 16h276q21 0 21 -14q0 -6 -6 -16l-400 -625l424 -655q4 -6 4 -15q0 -16 -20 -16h-285q-23 0 -33 16l-170 279q-51 84 -94 176h-4 q-45 -92 -92 -170l-174 -283q-10 -18 -33 -18h-278q-23 0 -23 14z" />
<glyph unicode="&#x426;" horiz-adv-x="1390" d="M135 27v1288q0 27 27 26h239q27 0 27 -26v-1057h502v1057q0 27 26 26h240q10 0 18.5 -7t8.5 -19v-1057h118q10 0 18.5 -7t8.5 -18v-493q0 -10 -8 -18.5t-19 -8.5h-231q-10 0 -18.5 8.5t-8.5 18.5v260h-921q-27 0 -27 27z" />
<glyph unicode="&#x427;" horiz-adv-x="1314" d="M115 795v520q0 27 26 26h240q27 0 27 -26v-471q0 -113 45 -156t141 -43q72 0 149.5 26.5t143.5 73.5v570q0 27 26 26h240q27 1 27 -26v-1288q0 -27 -27 -27h-240q-27 0 -26 27v481q-80 -53 -184.5 -85t-202.5 -32q-190 0 -287.5 95.5t-97.5 308.5z" />
<glyph unicode="&#x428;" horiz-adv-x="1863" d="M135 27v1288q0 27 27 26h239q27 0 27 -26v-1057h358v1057q0 12 8.5 19t18.5 7h238q27 0 26 -26v-1057h359v1057q0 12 7 19t17 7h242q10 0 18.5 -7t8.5 -19v-1288q0 -12 -8.5 -19.5t-18.5 -7.5h-1540q-27 0 -27 27z" />
<glyph unicode="&#x429;" horiz-adv-x="1888" d="M135 27v1288q0 27 27 26h239q27 0 27 -26v-1057h356v1057q0 27 27 26h238q27 0 26 -26v-1057h357v1059q0 10 7 17t17 7h240q27 0 26 -26v-1057h119q10 0 17.5 -7t7.5 -18v-493q0 -10 -7.5 -18.5t-17.5 -8.5h-233q-11 0 -19 8.5t-8 18.5v260h-1419q-27 0 -27 27z" />
<glyph unicode="&#x42a;" horiz-adv-x="1390" d="M49 1112v203q0 27 27 26h524q10 0 17.5 -7t7.5 -19v-422h180q260 0 390 -110.5t130 -323.5q0 -227 -131 -343t-401 -116h-433q-27 0 -26 27v1060h-258q-12 0 -19.5 7.5t-7.5 17.5zM625 250h166q122 0 182.5 50t60.5 159q0 104 -59.5 149t-183.5 45h-166v-403z" />
<glyph unicode="&#x42b;" horiz-adv-x="1755" d="M135 27v1288q0 27 27 26h239q27 0 27 -26v-422h178q260 0 391 -110.5t131 -323.5q0 -227 -131 -343t-403 -116h-432q-27 0 -27 27zM428 250h164q123 0 183.5 50t60.5 159q0 104 -58.5 149t-183.5 45h-166v-403zM1329 27v1288q0 27 27 26h239q27 0 27 -26v-1288 q0 -27 -27 -27h-239q-27 0 -27 27z" />
<glyph unicode="&#x42c;" horiz-adv-x="1193" d="M135 27v1288q0 27 27 26h239q27 0 27 -26v-422h178q260 0 391 -110.5t131 -323.5q0 -227 -131 -343t-403 -116h-432q-27 0 -27 27zM428 250h164q123 0 183.5 50t60.5 159q0 104 -58.5 149t-183.5 45h-166v-403z" />
<glyph unicode="&#x42d;" horiz-adv-x="1284" d="M104 352q0 39 6.5 54.5t20.5 15.5l240 -2q14 0 19 -8.5t5 -28.5q0 -68 58.5 -112t179.5 -44q133 0 190.5 51.5t57.5 174.5v102h-398q-10 0 -17 7t-7 20v190q0 12 7 19.5t17 7.5h398v100q0 117 -55.5 166t-184.5 49q-119 0 -178.5 -40t-59.5 -116q0 -18 -5 -26t-19 -8 l-240 -2q-27 0 -26 34q-14 190 129 300t411 110q258 0 388 -120t130 -374v-405q0 -252 -139 -372t-416 -120q-249 0 -380.5 99.5t-131.5 277.5z" />
<glyph unicode="&#x42e;" horiz-adv-x="1824" d="M135 27v1288q0 27 27 26h239q27 0 27 -26v-506h209v37q0 254 138 387t401 133q260 0 399 -134t139 -386v-350q0 -252 -139 -386.5t-399 -134.5q-262 0 -400.5 133.5t-138.5 387.5v63h-209v-532q0 -27 -27 -27h-239q-27 0 -27 27zM928 508q0 -137 61.5 -209t186.5 -72 q123 0 184 72t61 209v326q0 137 -61.5 208.5t-183.5 71.5q-125 0 -186.5 -71.5t-61.5 -208.5v-326z" />
<glyph unicode="&#x42f;" horiz-adv-x="1257" d="M38 9q-5 9 3 22l215 352q66 109 113 170v4q-123 39 -185.5 131t-62.5 227q0 211 124 318.5t392 107.5h459q10 0 17 -7t7 -19v-1288q0 -12 -7 -19.5t-17 -7.5h-234q-27 0 -26 27v485h-191l-287 -494q-8 -18 -30 -18h-269q-16 0 -21 9zM414 909q0 -92 53 -130t180 -38h189 v353h-201q-119 0 -170 -44t-51 -141z" />
<glyph unicode="&#x430;" horiz-adv-x="1046" d="M66 262q0 106 40.5 173t132 103.5t248.5 51.5l160 16v78q0 78 -29.5 109.5t-105.5 31.5q-141 0 -133 -104q0 -27 -27 -27h-215q-27 0 -28 33q-12 150 95 230.5t318 80.5q213 0 311.5 -87t98.5 -275v-416q0 -127 12 -231v-4q0 -25 -26 -25h-201q-23 0 -29 27 q-10 68 -18 125q-86 -88 -166 -132.5t-180 -44.5q-125 0 -191.5 75t-66.5 212zM340 295q0 -53 21.5 -79t68.5 -26q51 0 101.5 27t115.5 92v142l-123 -13q-104 -10 -144 -41.5t-40 -101.5z" />
<glyph unicode="&#x431;" horiz-adv-x="1126" d="M109 401v426q0 178 52 284t163 169q47 27 106 45t143 37q96 23 162 43t113 53q8 4 14 4q16 0 19 -18l55 -189q2 -4 2 -12q0 -12 -12 -22q-41 -31 -93.5 -46.5t-148.5 -35.5q-111 -18 -170 -43q-68 -31 -95.5 -86.5t-27.5 -143.5v-61q61 61 141 100t170 39q156 0 242 -92 t86 -274v-177q0 -207 -121 -316.5t-342 -109.5q-225 0 -341.5 109t-116.5 317zM391 426q0 -109 42 -158t134 -49t135 50t43 157v115q0 90 -34.5 131t-108.5 41q-55 0 -110.5 -31t-100.5 -80v-176z" />
<glyph unicode="&#x432;" horiz-adv-x="1120" d="M109 393v604q0 426 438 426q203 0 308.5 -79.5t105.5 -231.5q0 -113 -45.5 -190.5t-118.5 -118.5v-2q113 -18 170 -95t57 -200v-88q0 -215 -123 -329t-348 -114q-219 0 -331.5 104.5t-112.5 313.5zM389 416q0 -102 41 -150.5t133 -48.5q90 0 135 53.5t45 147.5v90 q0 76 -36.5 112.5t-112.5 36.5q-84 0 -205 -36v-205zM389 809l107 20q184 41 184 215q0 76 -34 111t-105 35q-76 0 -114 -42t-38 -130v-209z" />
<glyph unicode="&#x433;" horiz-adv-x="1001" d="M76 260q0 106 49 176t154 113l231 94q61 23 86 46.5t25 60.5q0 41 -29 59t-98 18q-72 0 -106 -21.5t-34 -66.5q0 -29 -24 -28h-209q-25 0 -29 30q-2 12 -2 35q0 123 105.5 192.5t306.5 69.5q403 0 403 -276q0 -109 -49 -173.5t-156 -107.5l-231 -94q-63 -27 -87 -53.5 t-22 -69.5q0 -43 31 -60.5t98 -17.5q88 0 128 26t42 79q0 16 5.5 23.5t17.5 7.5h209q14 0 20.5 -6.5t8.5 -22.5q2 -14 2 -39q0 -141 -104.5 -210t-334.5 -69q-215 0 -311 65.5t-96 219.5z" />
<glyph unicode="&#x434;" horiz-adv-x="1116" d="M90 381v242q0 213 107.5 314t334.5 101q102 0 275 -24q150 -20 194 -23v-971q0 -221 -116.5 -322t-341.5 -101q-205 0 -312.5 64.5t-107.5 191.5q0 23 2 34q2 33 31 33h215q25 0 24 -29q0 -41 39 -61t111 -20q96 0 134 42t38 130v65q0 76 4 113h-4q-147 -127 -328 -127 q-152 0 -225.5 85t-73.5 263zM375 438q0 -86 30.5 -126t96.5 -40q49 0 100 22.5t115 74.5v417q-88 18 -166 19q-92 0 -134 -50t-42 -157v-160z" />
<glyph unicode="&#x435;" horiz-adv-x="1099" d="M90 377v235q0 426 461 426q227 0 343 -103.5t116 -307.5v-160q0 -27 -27 -27h-610v-61q0 -96 43 -141t137 -45q74 0 116 24.5t44 69.5q0 27 26 26h224q27 0 26 -26q6 -311 -434 -312q-233 0 -347 100.5t-118 301.5zM373 612h358v11q-2 102 -44 149t-132 47 q-96 0 -139 -48t-43 -150v-9z" />
<glyph unicode="&#x436;" horiz-adv-x="1583" d="M25.5 9q-5.5 9 3.5 22l282 514l-252 436q-6 10 -6 16q0 16 21 17h270q23 0 31 -17l176 -354h100v729q0 12 8.5 19.5t18.5 7.5h227q27 0 27 -27v-729h100l176 354q8 16 33 17h268q20 0 21 -17l-4 -16l-254 -436l282 -514q7 -9 7 -17q0 -14 -23 -14h-272q-23 0 -31 16 l-201 402h-102v-391q0 -27 -27 -27h-227q-10 0 -18.5 7t-8.5 20v391h-102l-203 -402q-8 -16 -31 -16h-270q-14 0 -19.5 9z" />
<glyph unicode="&#x437;" horiz-adv-x="1011" d="M57 -113q0 16 4 58q6 33 29 32h215q27 0 27 -32q-4 -66 31.5 -100.5t107.5 -34.5q92 0 136 44t44 138v84q0 160 -205 160h-174q-12 0 -19 8t-7 18v174q0 10 7 18.5t19 8.5h152q96 0 145 44t49 126v49q0 76 -34.5 110.5t-114.5 34.5q-66 0 -98.5 -27.5t-30.5 -76.5v-4 q0 -25 -25 -25h-215q-27 0 -28 33q-2 12 -2 37q0 135 111.5 204.5t305.5 69.5q412 0 412 -325v-56q0 -96 -49 -175t-137 -113v-4q109 -20 166 -92t57 -183v-82q0 -197 -113.5 -304t-347.5 -107q-201 0 -309.5 71.5t-108.5 218.5z" />
<glyph unicode="&#x438;" d="M115 311v676q0 27 26 27h232q27 0 26 -27v-618q0 -76 27 -112t82 -36q94 0 215 111v655q0 27 27 27h231q27 0 27 -27v-727q0 -123 12 -233v-4q0 -23 -27 -23h-198q-23 0 -29 23q-12 57 -18 127q-86 -82 -170 -128.5t-183 -46.5q-281 0 -280 336z" />
<glyph unicode="&#x439;" d="M115 311v676q0 27 26 27h232q27 0 26 -27v-618q0 -76 27 -112t82 -36q94 0 215 111v655q0 27 27 27h231q27 0 27 -27v-727q0 -123 12 -233v-4q0 -23 -27 -23h-198q-23 0 -29 23q-12 57 -18 127q-86 -82 -170 -128.5t-183 -46.5q-281 0 -280 336zM285 1276v151q0 20 12 21 q10 0 18 -9q43 -43 107.5 -72.5t138.5 -29.5q76 0 139.5 29.5t106.5 72.5q10 10 16 11q14 0 15 -23v-151q0 -23 -13 -33q-115 -104 -264 -105q-90 0 -158.5 34t-109.5 75q-8 8 -8 29z" />
<glyph unicode="&#x43a;" horiz-adv-x="1085" d="M115 27v1345q0 27 26 27h232q27 0 26 -27v-727h107l227 352q10 16 31 17h266q23 0 23 -17q0 -6 -6 -16l-299 -436l329 -514q4 -5 4 -15q0 -16 -22 -16h-275q-23 0 -32 16l-250 398h-103v-387q0 -27 -26 -27h-232q-27 0 -26 27z" />
<glyph unicode="&#x43b;" horiz-adv-x="1013" d="M6 31l338 956q8 27 35 27h256q27 0 35 -27l338 -956q2 -4 2 -13q0 -18 -23 -18h-254q-23 0 -28 23l-134 454q-4 14 -8 27.5t-6 23.5q-43 150 -51 193h-4q-16 -78 -45 -186l-17 -58l-133 -454q-6 -23 -31 -23h-249q-15 0 -20 8t-1 23z" />
<glyph unicode="&#x43c;" horiz-adv-x="1323" d="M102 27l19 960q0 12 7 19.5t17 7.5h234q18 0 31 -21l252 -504l251 504q12 20 31 21h232q27 0 26 -27l19 -960q0 -12 -7.5 -19.5t-17.5 -7.5h-213q-27 0 -27 27l-4 356l6 111q2 18 4.5 45.5t2.5 62.5h-7q-72 -147 -100 -199l-168 -290q-6 -14 -28 -15q-20 0 -31 15 l-166 290q-51 98 -64 123l-36 76h-5l7 -108q4 -78 4 -111l-4 -356q0 -12 -8.5 -19.5t-18.5 -7.5h-213q-10 0 -17.5 7t-7.5 20z" />
<glyph unicode="&#x43d;" horiz-adv-x="1124" d="M115 27v960q0 27 26 27h232q27 0 26 -27v-360h326v360q0 27 27 27h231q27 0 27 -27v-960q0 -27 -27 -27h-231q-27 0 -27 27v362h-326v-362q0 -27 -26 -27h-232q-27 0 -26 27z" />
<glyph unicode="&#x43e;" horiz-adv-x="1124" d="M90 401v211q0 209 122 317.5t349 108.5t349 -108.5t122 -317.5v-211q0 -211 -122 -318.5t-349 -107.5t-349 107.5t-122 318.5zM375 428q0 -111 45 -161t141 -50t141.5 50t45.5 161v158q0 111 -45.5 161t-141.5 50t-141 -50.5t-45 -160.5v-158z" />
<glyph unicode="&#x43f;" horiz-adv-x="1146" d="M102 983v4q0 27 27 27h203q23 0 28 -23q12 -66 19 -125q84 82 169 127t189 45q295 0 295 -336v-675q0 -27 -26 -27h-232q-27 0 -26 27v618q0 76 -31 112t-94 36q-55 0 -108.5 -28t-115.5 -85v-653q0 -27 -26 -27h-232q-27 0 -26 27v727q0 137 -13 229z" />
<glyph unicode="&#x440;" horiz-adv-x="1112" d="M102 985v4q0 25 27 25h203q23 0 28 -23q8 -39 17 -108q82 74 163 114.5t179 40.5q149 0 223 -87t74 -267v-293q0 -416 -359 -416q-61 0 -131.5 14.5t-126.5 39.5v-381q0 -27 -26 -27h-232q-27 0 -26 27v1114q0 123 -13 223zM399 246q84 -37 170 -37q84 0 123 52t39 155 v211q0 84 -30.5 125t-94.5 41q-92 0 -207 -99v-448z" />
<glyph unicode="&#x441;" horiz-adv-x="1089" d="M90 399v215q0 205 122 314.5t347 109.5q143 0 244.5 -47t152 -130t43.5 -185q0 -39 -26 -39h-217q-10 0 -17.5 8t-7.5 23q0 61 -45 95t-123 34q-96 0 -142 -50.5t-46 -158.5v-162q0 -109 46 -158t140 -49q82 0 125 35t43 92q0 14 7 22.5t18 8.5h217q27 0 26 -27 q10 -172 -104.5 -273.5t-333.5 -101.5q-225 0 -347 110t-122 314z" />
<glyph unicode="&#x442;" horiz-adv-x="1712" d="M102 985v4q0 10 7.5 17.5t19.5 7.5h203q12 0 18 -4t8 -17q12 -53 19 -127q82 84 159.5 128t178.5 44q106 0 165.5 -42t88.5 -130q82 82 165 127t179 45q285 0 284 -336v-675q0 -27 -26 -27h-232q-27 0 -26 27v618q0 76 -26.5 112t-86.5 36q-49 0 -96 -27t-105 -82v-657 q0 -27 -26 -27h-232q-27 0 -26 27v618q0 76 -26.5 112t-88.5 36q-49 0 -95 -27t-106 -82v-657q0 -27 -26 -27h-232q-26 0 -26 27v727q0 127 -13 231z" />
<glyph unicode="&#x443;" horiz-adv-x="1067" d="M31 995q0 18 22 19h254q23 0 29 -23l125 -373q29 -94 63 -239q2 -16 11 -45h6q35 152 73 282l123 375q6 23 31 23h248q14 0 20 -8.5t0 -22.5l-491 -1341q-6 -20 -29 -21h-225q-14 0 -19.5 8.5t-1.5 22.5l133 354l-368 977z" />
<glyph unicode="&#x444;" horiz-adv-x="1476" d="M90 399v215q0 207 128 315.5t364 108.5h16v355q0 12 7 19t18 7h231q10 0 17.5 -7t7.5 -19v-355h16q235 0 363 -108.5t128 -315.5v-215q0 -207 -128 -315.5t-363 -108.5h-16v-327q0 -12 -7.5 -19.5t-17.5 -7.5h-231q-10 0 -17.5 7t-7.5 20v327h-16q-236 0 -364 109 t-128 315zM375 420q0 -109 50 -160t153 -51h26v598h-26q-102 0 -152.5 -51t-50.5 -160v-176zM870 209h29q102 0 152.5 51t50.5 160v176q0 109 -50.5 160t-152.5 51h-29v-598z" />
<glyph unicode="&#x445;" horiz-adv-x="1067" d="M16.5 9q-6.5 9 3.5 22l340 489l-317 461q-6 10 -6 16q0 16 22 17h269q23 0 32 -17l95 -153q20 -35 33.5 -62.5t23.5 -46.5l20 -39h5q27 51 84 154l88 145q10 18 32 19h263q23 0 22 -17q0 -6 -6 -16l-315 -457l342 -493q6 -8 6 -15q0 -16 -23 -16h-268q-23 0 -33 16 l-90 146l-78 131l-29 49h-2l-28 -51l-74 -127l-92 -148q-8 -16 -31 -16h-266q-16 0 -22.5 9z" />
<glyph unicode="&#x446;" horiz-adv-x="1173" d="M115 311v676q0 27 26 27h232q27 0 26 -27v-618q0 -76 27 -112t82 -36q94 0 215 111v655q0 27 27 27h231q27 0 27 -27v-727v-22h114q11 0 19 -8.5t8 -18.5v-440q0 -10 -8 -18.5t-19 -8.5h-217q-10 0 -18 8t-8 19v229h-84q-23 0 -29 23q-12 57 -18 127q-86 -82 -170 -128.5 t-183 -46.5q-281 0 -280 336z" />
<glyph unicode="&#x447;" horiz-adv-x="1083" d="M86 557v430q0 27 27 27h231q27 0 27 -27v-352q0 -78 25.5 -115t80.5 -37q100 0 207 107v397q0 12 7 19.5t18 7.5h233q10 0 18.5 -7.5t8.5 -19.5v-960q0 -12 -8.5 -19.5t-18.5 -7.5h-233q-11 0 -18 7t-7 20v354q-160 -141 -317 -141q-281 0 -281 317z" />
<glyph unicode="&#x448;" horiz-adv-x="1691" d="M115 311v676q0 27 26 27h232q27 0 26 -27v-618q0 -76 25 -112t82 -36q47 0 93 27.5t103 83.5v655q0 27 27 27h232q27 0 26 -27v-618q0 -76 24.5 -112t82.5 -36q45 0 92 27.5t104 83.5v655q0 12 8.5 19.5t18.5 7.5h233q10 0 17.5 -7.5t7.5 -19.5v-727q0 -127 12 -231v-4 q0 -25 -24 -25h-205q-20 0 -27 20q-14 90 -18 127q-80 -84 -158 -128t-176 -44q-104 0 -160.5 42t-85.5 130q-82 -82 -164 -127t-178 -45q-139 0 -207.5 82t-68.5 254z" />
<glyph unicode="&#x449;" horiz-adv-x="1740" d="M115 311v676q0 27 26 27h232q27 0 26 -27v-618q0 -76 25 -112t82 -36q47 0 93 27.5t103 83.5v655q0 27 27 27h232q27 0 26 -27v-618q0 -76 24.5 -112t82.5 -36q45 0 92 27.5t104 83.5v655q0 12 8.5 19.5t18.5 7.5h233q10 0 17.5 -7.5t7.5 -19.5v-727v-22h115 q10 0 18 -8.5t8 -18.5v-440q0 -10 -8 -18.5t-18 -8.5h-217q-10 0 -18.5 8t-8.5 19v229h-88q-20 0 -27 20q-14 90 -18 127q-80 -84 -158 -128t-176 -44q-104 0 -160.5 42t-85.5 130q-82 -82 -164 -127t-178 -45q-139 0 -207.5 82t-68.5 254z" />
<glyph unicode="&#x44a;" horiz-adv-x="1210" d="M29 805v182q0 27 26 27h457q27 0 27 -27v-336q129 123 292 123q146 0 225 -79t79 -240v-101q0 -184 -119 -281.5t-334 -97.5t-321.5 94.5t-106.5 301.5v407h-199q-12 0 -19 8.5t-7 18.5zM539 348q0 -145 153 -145q72 0 115 39t43 108v78q0 121 -125 121q-104 0 -186 -98 v-103z" />
<glyph unicode="&#x44b;" horiz-adv-x="1581" d="M115 371v616q0 27 26 27h232q27 0 26 -27v-336q129 123 293 123q146 0 224.5 -79t78.5 -240v-101q0 -184 -118.5 -281.5t-333.5 -97.5t-321.5 94.5t-106.5 301.5zM399 348q0 -145 154 -145q72 0 115 39t43 108v78q0 121 -125 121q-104 0 -187 -98v-103zM1182 27v960 q0 27 26 27h232q27 0 26 -27v-960q0 -27 -26 -27h-232q-26 0 -26 27z" />
<glyph unicode="&#x44c;" horiz-adv-x="1071" d="M115 371v616q0 27 26 27h232q27 0 26 -27v-336q129 123 293 123q146 0 224.5 -79t78.5 -240v-101q0 -184 -118.5 -281.5t-333.5 -97.5t-321.5 94.5t-106.5 301.5zM399 348q0 -145 154 -145q72 0 115 39t43 108v78q0 121 -125 121q-104 0 -187 -98v-103z" />
<glyph unicode="&#x44d;" horiz-adv-x="1069" d="M80 276q0 23 2 33q4 35 29 35h217q27 0 26 -29q0 -47 43 -71.5t125 -24.5q94 0 133 39t39 131v47h-295q-20 0 -20 21v102q0 20 20 21h295v43q0 92 -40 132t-128 40q-76 0 -120 -26t-46 -69q0 -29 -24 -28h-217q-27 0 -29 33q-2 10 -2 28q0 84 54.5 153.5t155.5 110.5 t241 41q217 0 328.5 -103.5t111.5 -299.5v-248q0 -203 -111.5 -307.5t-332.5 -104.5q-216 0 -335.5 83t-119.5 218z" />
<glyph unicode="&#x44e;" horiz-adv-x="1546" d="M115 27v1366q0 27 26 26h228q27 0 26 -26v-770h146q2 199 122.5 307t333.5 108q217 0 338 -110.5t121 -315.5v-211q0 -205 -121 -315.5t-338 -110.5q-215 0 -334.5 109t-121.5 311h-146v-368q0 -27 -26 -27h-228q-10 0 -18 7t-8 20zM825 426q0 -106 43 -156.5t129 -50.5 q88 0 131 50t43 157v162q0 106 -43 155.5t-131 49.5t-130 -49.5t-42 -155.5v-162z" />
<glyph unicode="&#x44f;" horiz-adv-x="1077" d="M42 8q-5 8 3 23l141 213q31 47 101 145v2q-195 66 -195 287q0 336 400 336h444q27 0 27 -27v-960q0 -27 -27 -27h-231q-27 0 -27 27v323h-121l-205 -332q-8 -18 -33 -18h-256q-16 0 -21 8zM365 672q0 -66 38.5 -94.5t118.5 -28.5h156v248h-170q-78 0 -110.5 -31 t-32.5 -94z" />
<glyph unicode="&#x451;" horiz-adv-x="1099" d="M90 377v235q0 426 461 426q227 0 343 -103.5t116 -307.5v-160q0 -27 -27 -27h-610v-61q0 -96 43 -141t137 -45q74 0 116 24.5t44 69.5q0 27 26 26h224q27 0 26 -26q6 -311 -434 -312q-233 0 -347 100.5t-118 301.5zM198 1285v51q0 61 38 93t106 32q69 0 107 -32t38 -93 v-51q0 -59 -38 -91t-107 -32q-66 0 -105 32.5t-39 90.5zM373 612h358v11q-2 102 -44 149t-132 47q-96 0 -139 -48t-43 -150v-9zM606 1285v51q0 59 38 92t103 33q72 0 109 -32t37 -93v-51q0 -59 -38 -91t-108 -32q-66 0 -103.5 32.5t-37.5 90.5z" />
<glyph unicode="&#x452;" horiz-adv-x="1146" d="M-8 1151v131q0 27 26 27h109v63q0 27 27 27h231q27 0 27 -27v-63h168q27 0 26 -27v-131q0 -10 -7 -17.5t-19 -7.5h-168v-239q78 74 158.5 112.5t179.5 38.5q292 0 292 -336v-532q0 -211 -61 -342t-207 -219q-8 -4 -12 -4q-8 0 -19 10l-137 158q-8 12 -8 18q0 10 12 21 q74 53 111 140t37 220v473q0 74 -30 111t-93 37q-106 0 -223 -113v-653q0 -27 -27 -27h-231q-27 0 -27 27v1099h-109q-12 0 -19 7.5t-7 17.5z" />
<glyph unicode="&#x453;" horiz-adv-x="1001" d="M76 260q0 106 49 176t154 113l231 94q61 23 86 46.5t25 60.5q0 41 -29 59t-98 18q-72 0 -106 -21.5t-34 -66.5q0 -29 -24 -28h-209q-25 0 -29 30q-2 12 -2 35q0 123 105.5 192.5t306.5 69.5q403 0 403 -276q0 -109 -49 -173.5t-156 -107.5l-231 -94q-63 -27 -87 -53.5 t-22 -69.5q0 -43 31 -60.5t98 -17.5q88 0 128 26t42 79q0 16 5.5 23.5t17.5 7.5h209q14 0 20.5 -6.5t8.5 -22.5q2 -14 2 -39q0 -141 -104.5 -210t-334.5 -69q-215 0 -311 65.5t-96 219.5zM367.5 1149.5q-5.5 9.5 2.5 23.5l139 256q12 20 33 21h205q23 -1 23 -17q0 -6 -7 -16 l-190 -260q-14 -16 -33 -17h-151q-16 0 -21.5 9.5z" />
<glyph unicode="&#x454;" horiz-adv-x="1077" d="M90 387v248q0 197 114.5 300t334.5 103q137 0 237.5 -40t152.5 -109.5t52 -153.5q0 -20 -2 -30q-2 -33 -29 -33h-217q-25 0 -24 28q0 43 -43 69t-117 26q-88 0 -131 -41t-43 -131v-43h295q20 0 20 -21v-102q0 -20 -20 -21h-295v-47q0 -92 41 -131t133 -39q80 0 123 26.5 t43 69.5q0 29 26 29h217q25 0 29 -35q2 -10 2 -33q0 -135 -116.5 -218t-331.5 -83q-222 0 -336.5 104.5t-114.5 307.5z" />
<glyph unicode="&#x455;" horiz-adv-x="972" d="M84 305q4 25 27 25h217q25 0 24 -25q0 -66 31 -95.5t98 -29.5q72 0 106 22.5t34 69.5q0 37 -23 60.5t-80 48.5l-235 100q-102 43 -147.5 105.5t-45.5 163.5q0 147 95.5 217.5t295.5 70.5q207 0 306.5 -73.5t99.5 -223.5q0 -27 -27 -26h-215q-27 0 -27 33q0 41 -32.5 63.5 t-91.5 22.5t-88 -20.5t-29 -63.5q0 -31 19.5 -50.5t76.5 -42.5l234 -98q109 -45 155.5 -107.5t46.5 -166.5q0 -152 -107.5 -231t-318.5 -79q-215 0 -312 80t-87 250z" />
<glyph unicode="&#x456;" horiz-adv-x="514" d="M105 1290v49q0 66 40 100t114 34t113.5 -34t39.5 -100v-49q0 -63 -40 -98t-113 -35q-72 0 -113 35t-41 98zM115 27v960q0 27 26 27h232q27 0 26 -27v-960q0 -27 -26 -27h-232q-26 0 -26 27z" />
<glyph unicode="&#x457;" horiz-adv-x="514" d="M-90 1274v51q0 61 38 93t106 32q69 0 107 -32t38 -93v-51q0 -59 -38 -91t-107 -32q-66 0 -105 32.5t-39 90.5zM115 27v960q0 27 26 27h232q27 0 26 -27v-960q0 -27 -26 -27h-232q-26 0 -26 27zM318 1274v51q0 59 38 92t103 33q72 0 109 -32t37 -93v-51q0 -59 -38 -91 t-108 -32q-66 0 -103.5 32.5t-37.5 90.5z" />
<glyph unicode="&#x458;" horiz-adv-x="516" d="M-45 -209q0 10 12 21q74 55 111 142t37 218v815q0 10 8 18.5t18 8.5h232q12 0 19 -8.5t7 -18.5v-817q0 -209 -61.5 -340t-206.5 -221q-8 -4 -12 -4q-8 0 -19 10l-137 158q-8 8 -8 18zM109 1290v49q0 66 40 100t114 34t113.5 -34t39.5 -100v-49q0 -63 -40 -98t-113 -35 q-72 0 -113 35t-41 98z" />
<glyph unicode="&#x459;" horiz-adv-x="1544" d="M-8 31l338 956q8 27 35 27h258q25 0 34 -27l142 -401q80 98 171 143t197 45q146 0 224.5 -80t78.5 -239v-101q0 -184 -116.5 -281.5t-325.5 -97.5q-184 0 -273 62.5t-130 216.5l-70 225q-47 164 -63 242h-5q-25 -115 -61 -244l-133 -454q-6 -23 -31 -23h-250q-14 0 -19 8 t-1 23zM854 426l41 -121q23 -59 52.5 -80.5t84.5 -21.5q72 0 112 39t40 108v78q0 121 -123 121q-57 0 -110.5 -32t-96.5 -91z" />
<glyph unicode="&#x45a;" horiz-adv-x="1679" d="M115 27v960q0 27 26 27h232q27 0 26 -27v-362h326v362q0 27 27 27h231q27 0 27 -27v-336q129 123 293 123q145 0 224 -79t79 -240v-101q0 -184 -119 -281.5t-334 -97.5t-321.5 94.5t-106.5 301.5v20h-326v-364q0 -27 -26 -27h-232q-27 0 -26 27zM1010 348 q0 -145 153 -145q72 0 115 39t43 108v78q0 121 -125 121q-104 0 -186 -98v-103z" />
<glyph unicode="&#x45b;" horiz-adv-x="1159" d="M-8 1151v131q0 27 26 27h109v63q0 27 27 27h231q27 0 27 -27v-63h168q10 0 17 -7.5t7 -19.5v-131q0 -10 -7 -17.5t-17 -7.5h-168v-239q80 72 160.5 111.5t177.5 39.5q294 0 294 -336v-675q0 -27 -26 -27h-232q-27 0 -26 27v618q0 74 -31 111t-94 37q-106 0 -223 -113 v-653q0 -27 -27 -27h-231q-27 0 -27 27v1099h-109q-12 0 -19 7.5t-7 17.5z" />
<glyph unicode="&#x45c;" horiz-adv-x="1085" d="M115 27v1345q0 27 26 27h232q27 0 26 -27v-727h107l227 352q10 16 31 17h266q23 0 23 -17q0 -6 -6 -16l-299 -436l329 -514q4 -5 4 -15q0 -16 -22 -16h-275q-23 0 -32 16l-250 398h-103v-387q0 -27 -26 -27h-232q-27 0 -26 27zM490.5 1149.5q-5.5 9.5 2.5 23.5l139 256 q12 20 33 21h205q23 -1 23 -17q0 -6 -7 -16l-190 -260q-14 -16 -33 -17h-151q-16 0 -21.5 9.5z" />
<glyph unicode="&#x45d;" d="M115 311v676q0 27 26 27h232q27 0 26 -27v-618q0 -76 27 -112t82 -36q94 0 215 111v655q0 27 27 27h231q27 0 27 -27v-727q0 -123 12 -233v-4q0 -23 -27 -23h-198q-23 0 -29 23q-12 57 -18 127q-86 -82 -170 -128.5t-183 -46.5q-281 0 -280 336zM283 1433q0 16 23 17h206 q23 0 31 -21l139 -256q4 -12 5 -14q0 -18 -21 -19h-154q-20 1 -30 17l-193 260q-6 10 -6 16z" />
<glyph unicode="&#x45e;" horiz-adv-x="1067" d="M31 995q0 18 22 19h254q23 0 29 -23l125 -373q29 -94 63 -239q2 -16 11 -45h6q35 152 73 282l123 375q6 23 31 23h248q14 0 20 -8.5t0 -22.5l-491 -1341q-6 -20 -29 -21h-225q-14 0 -19.5 8.5t-1.5 22.5l133 354l-368 977zM258 1276v151q0 20 12 21q10 0 18 -9 q43 -43 107.5 -72.5t138.5 -29.5q76 0 139.5 29.5t106.5 72.5q10 10 16 11q14 0 15 -23v-151q0 -23 -13 -33q-115 -104 -264 -105q-90 0 -158.5 34t-109.5 75q-8 8 -8 29z" />
<glyph unicode="&#x45f;" d="M115 311v676q0 27 26 27h232q27 0 26 -27v-618q0 -76 27 -112t82 -36q94 0 215 111v655q0 27 27 27h231q27 0 27 -27v-727q0 -123 12 -233v-4q0 -23 -27 -23h-198q-23 0 -29 23q-12 57 -18 127q-76 -72 -130 -105v-274q0 -10 -8 -18.5t-18 -8.5h-195q-12 0 -19 8t-7 19 v204q-256 16 -256 336z" />
<glyph unicode="&#x490;" horiz-adv-x="1009" d="M135 27v1288q0 27 27 26h516v271q0 10 7 18t17 8h230q12 0 19 -8t7 -18v-500q0 -25 -24 -25h-506v-1060q0 -27 -27 -27h-239q-27 0 -27 27z" />
<glyph unicode="&#x491;" horiz-adv-x="962" d="M14 29l4 172q0 12 9.5 18t23.5 -2q57 -20 96 -20q35 0 52.5 27.5t21.5 105.5l21 301q14 198 85.5 291.5t235.5 93.5q125 0 150 74q6 23 6 47v30q0 20 24 21h209q14 0 19.5 -8.5t5.5 -26.5q2 -100 -9.5 -158.5t-39.5 -93.5q-35 -43 -85 -65.5t-149 -24.5q-88 -2 -125 -54 t-47 -184l-20 -274q-12 -172 -80 -248t-205 -76q-57 0 -97 6.5t-85 22.5q-20 6 -21 25z" />
<glyph unicode="&#x4c0;" horiz-adv-x="563" d="M135 27v1288q0 27 27 26h239q27 0 27 -26v-1288q0 -27 -27 -27h-239q-27 0 -27 27z" />
<glyph unicode="&#x4cf;" horiz-adv-x="514" d="M115 27v1345q0 27 26 27h232q27 0 26 -27v-1345q0 -27 -26 -27h-232q-26 0 -26 27z" />
<glyph unicode="&#x4e2;" horiz-adv-x="1370" d="M135 27v1288q0 27 27 26h231q10 0 17.5 -7t7.5 -19v-563q-2 -170 -25 -365h6q63 156 168 336l355 600q14 18 30 18h256q27 0 27 -26v-1288q0 -27 -27 -27h-229q-10 0 -17.5 7t-7.5 20v551q0 152 21 366h-6q-47 -106 -121 -235l-39 -70l-360 -621q-10 -18 -31 -18h-256 q-27 0 -27 27zM426 1491v156q0 27 26 26h490q10 0 18.5 -7t8.5 -19v-156q0 -12 -8.5 -19.5t-18.5 -7.5h-490q-27 0 -26 27z" />
<glyph unicode="&#x4e3;" d="M115 311v676q0 27 26 27h232q27 0 26 -27v-618q0 -76 27 -112t82 -36q94 0 215 111v655q0 27 27 27h231q27 0 27 -27v-727q0 -123 12 -233v-4q0 -23 -27 -23h-198q-23 0 -29 23q-12 57 -18 127q-86 -82 -170 -128.5t-183 -46.5q-281 0 -280 336zM309 1210v154q0 27 26 26 h449q10 0 18.5 -7t8.5 -19v-154q0 -10 -8.5 -18.5t-18.5 -8.5h-449q-12 0 -19 8.5t-7 18.5z" />
<glyph unicode="&#x4ee;" horiz-adv-x="1208" d="M20 1323q0 8 7.5 13t17.5 5h266q23 0 31 -18l176 -371q53 -113 88 -223h6q39 113 95 227l178 367q6 18 30 18h261q14 0 20 -9t0 -21l-653 -1293q-8 -18 -31 -18h-242q-14 0 -20 8t0 23l209 428l-434 852q-4 8 -5 12zM348 1491v156q0 27 26 26h490q10 0 18.5 -7t8.5 -19 v-156q0 -12 -8.5 -19.5t-18.5 -7.5h-490q-27 0 -26 27z" />
<glyph unicode="&#x4ef;" horiz-adv-x="1067" d="M31 995q0 18 22 19h254q23 0 29 -23l125 -373q29 -94 63 -239q2 -16 11 -45h6q35 152 73 282l123 375q6 23 31 23h248q14 0 20 -8.5t0 -22.5l-491 -1341q-6 -20 -29 -21h-225q-14 0 -19.5 8.5t-1.5 22.5l133 354l-368 977zM283 1210v154q0 27 26 26h449q10 0 18.5 -7 t8.5 -19v-154q0 -10 -8.5 -18.5t-18.5 -8.5h-449q-12 0 -19 8.5t-7 18.5z" />
<glyph unicode="&#x2000;" horiz-adv-x="877" />
<glyph unicode="&#x2001;" horiz-adv-x="1755" />
<glyph unicode="&#x2002;" horiz-adv-x="877" />
<glyph unicode="&#x2003;" horiz-adv-x="1755" />
<glyph unicode="&#x2004;" horiz-adv-x="585" />
<glyph unicode="&#x2005;" horiz-adv-x="438" />
<glyph unicode="&#x2006;" horiz-adv-x="292" />
<glyph unicode="&#x2007;" horiz-adv-x="292" />
<glyph unicode="&#x2008;" horiz-adv-x="219" />
<glyph unicode="&#x2009;" horiz-adv-x="351" />
<glyph unicode="&#x200a;" horiz-adv-x="97" />
<glyph unicode="&#x2010;" horiz-adv-x="989" d="M109 463v166q0 10 7 18t19 8h719q12 0 19.5 -8t7.5 -18v-166q0 -27 -27 -27h-719q-27 0 -26 27z" />
<glyph unicode="&#x2011;" horiz-adv-x="989" d="M109 463v166q0 10 7 18t19 8h719q12 0 19.5 -8t7.5 -18v-166q0 -27 -27 -27h-719q-27 0 -26 27z" />
<glyph unicode="&#x2012;" horiz-adv-x="989" d="M109 463v166q0 10 7 18t19 8h719q12 0 19.5 -8t7.5 -18v-166q0 -27 -27 -27h-719q-27 0 -26 27z" />
<glyph unicode="&#x2013;" horiz-adv-x="1505" d="M109 463v166q0 10 7 18t19 8h1237q10 0 18.5 -8t8.5 -18v-166q0 -12 -8.5 -19.5t-18.5 -7.5h-1237q-27 0 -26 27z" />
<glyph unicode="&#x2014;" horiz-adv-x="1792" d="M109 463v166q0 10 7 18t19 8h1524q10 0 18.5 -8t8.5 -18v-166q0 -12 -8.5 -19.5t-18.5 -7.5h-1524q-27 0 -26 27z" />
<glyph unicode="&#x2018;" horiz-adv-x="581" d="M95 745l184 574q6 23 27 22h200q14 0 20.5 -8t4.5 -23l-107 -573q-2 -10 -9 -17.5t-17 -7.5h-279q-14 0 -21.5 9.5t-2.5 23.5z" />
<glyph unicode="&#x2019;" horiz-adv-x="581" d="M51 744l107 573q2 10 9 17.5t17 7.5h279q14 0 21.5 -9.5t2.5 -23.5l-184 -574q-6 -23 -27 -22h-200q-14 0 -20.5 8t-4.5 23z" />
<glyph unicode="&#x201a;" horiz-adv-x="581" d="M51 -270l107 573q2 10 9 17.5t17 7.5h279q14 0 21.5 -9.5t2.5 -23.5l-184 -574q-6 -23 -27 -22h-200q-14 0 -20.5 8t-4.5 23z" />
<glyph unicode="&#x201c;" horiz-adv-x="1019" d="M95 745l184 574q6 23 27 22h200q14 0 20.5 -8t4.5 -23l-107 -573q-2 -10 -9 -17.5t-17 -7.5h-279q-14 0 -21.5 9.5t-2.5 23.5zM533 745l184 574q6 23 27 22h200q14 0 20.5 -8t4.5 -23l-107 -573q-2 -10 -9 -17.5t-17 -7.5h-279q-14 0 -21.5 9.5t-2.5 23.5z" />
<glyph unicode="&#x201d;" horiz-adv-x="1019" d="M51 744l107 573q2 10 9 17.5t17 7.5h279q14 0 21.5 -9.5t2.5 -23.5l-184 -574q-6 -23 -27 -22h-200q-14 0 -20.5 8t-4.5 23zM489 744l107 573q2 10 9 17.5t17 7.5h279q14 0 21.5 -9.5t2.5 -23.5l-184 -574q-6 -23 -27 -22h-200q-14 0 -20.5 8t-4.5 23z" />
<glyph unicode="&#x201e;" horiz-adv-x="1019" d="M51 -270l107 573q2 10 9 17.5t17 7.5h279q14 0 21.5 -9.5t2.5 -23.5l-184 -574q-6 -23 -27 -22h-200q-14 0 -20.5 8t-4.5 23zM489 -270l107 573q2 10 9 17.5t17 7.5h279q14 0 21.5 -9.5t2.5 -23.5l-184 -574q-6 -23 -27 -22h-200q-14 0 -20.5 8t-4.5 23z" />
<glyph unicode="&#x2026;" horiz-adv-x="1697" d="M106 139v45q0 78 48.5 121t136.5 43q90 0 137 -43t47 -121v-45q0 -76 -47 -120t-137 -44q-88 0 -136.5 44t-48.5 120zM664 139v45q0 78 48 121t136 43q90 0 137 -43t47 -121v-45q0 -76 -47 -120t-137 -44q-88 0 -136 44t-48 120zM1221 139v45q0 78 48 121t138 43t137 -43 t47 -121v-45q0 -76 -48 -120t-136 -44t-137 44t-49 120z" />
<glyph unicode="&#x202f;" horiz-adv-x="351" />
<glyph unicode="&#x2039;" horiz-adv-x="661" d="M90 541q0 10 6 18l193 328q12 18 30 18h222q16 0 22 -9t-2 -24l-184 -331l182 -332q4 -12 4 -16q0 -16 -22 -17h-222q-18 1 -30 19l-193 327q-6 12 -6 19z" />
<glyph unicode="&#x203a;" horiz-adv-x="663" d="M98 887q0 8 6.5 13t16.5 5h221q23 0 31 -18l194 -328q6 -8 6 -18q0 -6 -6 -19l-194 -327q-8 -18 -31 -19h-221q-15 0 -21 9.5t2 23.5l183 332l-183 331q-4 8 -4 15z" />
<glyph unicode="&#x205f;" horiz-adv-x="438" />
<glyph unicode="&#x20ac;" horiz-adv-x="1290" d="M49 461l25 117q4 18 22 18h105v98h-125q-10 0 -15.5 6.5t-3.5 16.5l25 117q4 18 22 18h97v4q0 246 126 378t378 132q242 0 371.5 -106.5t129.5 -288.5l-2 -37q-2 -27 -24 -27l-232 2q-23 0 -22 27q0 86 -53.5 135t-167.5 49q-117 0 -169.5 -66.5t-52.5 -201.5h330 q20 0 16 -23l-24 -116q-2 -18 -23 -19h-299v-98h283q23 0 18 -23l-26 -116q-2 -18 -23 -19h-250q10 -113 62.5 -165t159.5 -52q115 0 167 48t52 143q0 25 22 24l232 2q22 1 24 -24q14 -205 -118 -322t-381 -117q-240 0 -366 120t-136 343h-137q-20 0 -17 23z" />
<glyph unicode="&#x2122;" horiz-adv-x="1646" d="M90 1239v133q0 27 27 27h551q10 0 17 -7.5t7 -19.5v-133q0 -12 -7 -19.5t-17 -7.5h-164v-469q0 -27 -27 -26h-170q-10 0 -17 7t-7 19v469h-166q-27 0 -27 27zM782 741l15 635q0 23 24 23h162q20 0 27 -17l161 -305l158 305q6 16 25 17h164q25 0 24 -23l14 -635 q0 -10 -7 -17t-17 -7h-160q-25 0 -24 24l2 320l-158 -273q-6 -10 -16 -10q-8 0 -19 10l-168 273l2 -320q0 -25 -24 -24h-160q-10 0 -17.5 7t-7.5 17z" />
<glyph unicode="&#x25fc;" horiz-adv-x="1013" d="M0 0v1014h1014v-1014h-1014z" />
</font>
</defs>
</svg>
