<?xml version="1.0" standalone="no"?>
<!DOCTYPE svg PUBLIC "-//W3C//DTD SVG 1.1//EN" "http://www.w3.org/Graphics/SVG/1.1/DTD/svg11.dtd" >
<svg xmlns="http://www.w3.org/2000/svg" xmlns:xlink="http://www.w3.org/1999/xlink" version="1.1">
<metadata></metadata>
<defs>
<font id="sofiasansblack" horiz-adv-x="1290" >
<font-face units-per-em="2048" ascent="1638" descent="-410" />
<missing-glyph horiz-adv-x="397" />
<glyph horiz-adv-x="0" />
<glyph unicode="&#xd;" horiz-adv-x="4" />
<glyph unicode=" "  horiz-adv-x="397" />
<glyph unicode="&#x09;" horiz-adv-x="397" />
<glyph unicode="&#xa0;" horiz-adv-x="397" />
<glyph unicode="!" horiz-adv-x="598" d="M104 139v56q0 166 195 165q195 0 195 -165v-56q0 -164 -195 -164t-195 164zM109 1313q0 12 8 20t20 8h324q14 0 21 -8t7 -20l-24 -807q0 -12 -8 -20.5t-21 -8.5h-274q-12 0 -19.5 8.5t-7.5 20.5z" />
<glyph unicode="&#x22;" horiz-adv-x="905" d="M139 762v608q0 12 7.5 20.5t21.5 8.5h260q18 0 25 -15q8 14 24 15h260q15 0 22 -8.5t7 -20.5v-608q0 -12 -7 -20.5t-22 -8.5h-260q-16 0 -24 15q-6 -14 -25 -15h-260q-14 0 -21.5 8.5t-7.5 20.5z" />
<glyph unicode="#" d="M53 250v188q0 14 8.5 21.5t20.5 7.5h143v321h-143q-12 0 -20.5 7.5t-8.5 21.5v189q0 14 8.5 21t20.5 7h143v193q0 12 8.5 20t20.5 8h207q12 0 20 -8t8 -20v-193h312v193q0 12 8 20t20 8h207q12 0 20.5 -8t8.5 -20v-193h143q12 0 20.5 -7t8.5 -21v-189q0 -14 -8 -21.5 t-21 -7.5h-143v-321h143q12 0 20.5 -7t8.5 -22v-188q0 -14 -8 -21.5t-21 -7.5h-143v-192q0 -12 -8 -20.5t-21 -8.5h-207q-12 0 -20 8t-8 21v192h-312v-192q0 -12 -8 -20.5t-20 -8.5h-207q-12 0 -20.5 8t-8.5 21v192h-143q-12 0 -20.5 7.5t-8.5 21.5zM489 467h312v321h-312 v-321z" />
<glyph unicode="$" d="M131 332q0 18 4 63q2 14 10.5 21.5t18.5 7.5h262q27 0 27 -31q-6 -74 33.5 -109.5t131.5 -35.5q84 0 121 26.5t37 90.5q0 47 -22.5 75.5t-79.5 55.5l-297 145q-121 57 -175.5 139t-54.5 207q0 322 334 369v143q0 20 21 21h243q20 0 21 -21v-143q166 -27 247 -116t81 -245 q0 -29 -2 -45q-2 -31 -27 -30h-264q-27 0 -25 30q6 143 -155 144q-70 0 -107 -28t-37 -81q0 -47 23.5 -74.5t83.5 -56.5l293 -139q120 -58 175.5 -138.5t55.5 -211.5q0 -166 -85 -259.5t-257 -119.5v-144q0 -20 -21 -20h-243q-20 0 -21 20v142q-350 43 -350 348z" />
<glyph unicode="%" horiz-adv-x="1945" d="M84 958v64q0 162 93 253t272 91q178 0 269 -90t91 -254v-64q0 -164 -92 -254t-268 -90q-181 0 -273 90.5t-92 253.5zM332 971q0 -59 27.5 -88t89.5 -29q59 0 86.5 28.5t27.5 88.5v37q0 119 -114 118q-117 0 -117 -118v-37zM442 18q0 8 7 17l411 684l348 604q12 18 35 18 h238q25 0 24 -16q0 -6 -6 -16l-389 -643l-373 -648q-12 -18 -35 -18h-235q-25 0 -25 18zM1135 319v64q0 164 92 254t270 90q180 0 272.5 -90t92.5 -254v-64q0 -162 -93.5 -253t-271.5 -91t-270 91.5t-92 252.5zM1382 334q0 -119 115 -119q117 0 117 119v37q0 59 -27.5 87.5 t-89.5 28.5q-59 0 -87 -28.5t-28 -87.5v-37z" />
<glyph unicode="&#x26;" horiz-adv-x="1402" d="M84 330q0 119 46 206t157 177q-76 82 -110 162.5t-34 173.5q0 156 96.5 236.5t288.5 80.5q180 0 275.5 -74.5t95.5 -210.5q0 -205 -223 -385l233 -219q31 117 29 281q0 31 29 30h227q12 0 20.5 -9t8.5 -27q-6 -289 -105 -473l258 -244q10 -15 10 -21q0 -14 -24 -14h-303 q-23 0 -35 14l-76 70q-156 -109 -393 -109q-471 0 -471 355zM369 344q0 -135 198 -135q117 0 197 49l-293 277q-53 -47 -77.5 -92.5t-24.5 -98.5zM428 1032q0 -76 76 -166q111 84 110 170q0 98 -90 99q-47 0 -71.5 -27t-24.5 -76z" />
<glyph unicode="'" horiz-adv-x="475" d="M78 762v608q0 12 8 20.5t20 8.5h261q14 0 21 -8.5t7 -20.5v-608q0 -12 -7 -20.5t-21 -8.5h-261q-12 0 -20 8.5t-8 20.5z" />
<glyph unicode="(" horiz-adv-x="589" d="M104 115v905q0 129 28 216t77 147.5t133 132.5q16 12 33 12q14 0 22 -8l156 -146q8 -8 8 -20q0 -14 -14 -27q-78 -74 -114 -147.5t-36 -192.5v-840q0 -118 36 -193t114 -147q14 -12 14 -26q0 -10 -8 -19l-156 -145q-8 -8 -22 -8q-18 0 -33 10q-84 72 -133 132.5 t-77 147.5t-28 216z" />
<glyph unicode=")" horiz-adv-x="589" d="M29 -217q0 10 14 24q78 72 114 147t36 193v840q0 121 -36 195.5t-114 144.5q-14 14 -14 27q0 12 10 20l154 146q8 8 22 8q20 0 33 -12q86 -74 134 -134.5t76.5 -146.5t28.5 -215v-905q0 -129 -27.5 -216t-76.5 -147.5t-135 -132.5q-14 -10 -33 -10q-14 0 -22 8l-154 145 q-10 8 -10 21z" />
<glyph unicode="*" horiz-adv-x="835" d="M72 1137l61 184q10 23 29 22q8 0 18 -6l142 -90l-17 193v4q0 23 21 22h182q27 0 22 -26l-16 -195l139 90q8 6 19 6q20 0 30 -22l62 -182q2 -4 2 -11q0 -10 -7 -18t-22 -10l-168 -25l119 -104q12 -8 12 -25q0 -12 -14 -24l-158 -113q-8 -6 -20 -6q-16 0 -27 18l-63 139 l-68 -145q-6 -20 -26 -20q-12 0 -21 8l-158 123q-12 10 -12 24t12 23l117 104l-164 21q-16 4 -23 15t-3 26z" />
<glyph unicode="+" horiz-adv-x="1228" d="M172 514v203q0 12 8 20t21 8h282v259q0 12 8.5 20t20.5 8h205q12 0 20 -8t8 -20v-259h283q12 0 20.5 -8t8.5 -20v-203q0 -14 -8.5 -21.5t-20.5 -7.5h-283v-260q0 -12 -8 -20t-20 -8h-205q-12 0 -20.5 8t-8.5 20v260h-282q-12 0 -20.5 7.5t-8.5 21.5z" />
<glyph unicode="," horiz-adv-x="622" d="M45 -285l109 629q2 12 10 19.5t20 7.5h326q16 0 23.5 -9.5t3.5 -25.5l-197 -627q-6 -25 -31 -24h-237q-14 0 -21.5 8t-5.5 22z" />
<glyph unicode="-" horiz-adv-x="983" d="M94 449v194q0 12 8.5 20.5t20.5 8.5h735q14 0 21.5 -8.5t7.5 -20.5v-194q0 -12 -7.5 -20.5t-21.5 -8.5h-735q-12 0 -20.5 8t-8.5 21z" />
<glyph unicode="." horiz-adv-x="624" d="M100 160v53q0 88 55.5 136t155.5 48q104 0 158.5 -48t54.5 -136v-53q0 -86 -55 -135.5t-158 -49.5q-98 0 -154.5 49.5t-56.5 135.5z" />
<glyph unicode="/" horiz-adv-x="860" d="M16 33l533 1286q10 23 35 22h237q16 0 22.5 -9t0.5 -23l-533 -1286q-10 -23 -35 -23h-235q-16 0 -23.5 9t-1.5 24z" />
<glyph unicode="0" horiz-adv-x="1259" d="M96 489v363q0 250 136.5 382t396.5 132t396 -132t136 -382v-363q0 -250 -136 -382t-396 -132t-396.5 132.5t-136.5 381.5zM428 498q0 -238 201 -238q202 0 202 238v346q0 238 -202 237q-201 0 -201 -237v-346z" />
<glyph unicode="1" horiz-adv-x="1050" d="M66 29v223q0 12 8 20.5t20 8.5h301v727l-282 -86q-4 -2 -13 -2q-20 0 -20 24v217q0 25 22 33l488 154q16 6 35 6h71q12 0 19.5 -8.5t7.5 -20.5v-1044h276q14 0 21.5 -8.5t7.5 -20.5v-223q0 -12 -7 -20.5t-22 -8.5h-905q-12 0 -20 8t-8 21z" />
<glyph unicode="2" horiz-adv-x="1157" d="M86 29v188q0 121 59.5 213t141.5 153.5t211 137.5q127 76 185 125t58 108v33q0 53 -37.5 78t-119.5 25q-158 0 -158 -117q0 -35 -29 -35h-252q-29 0 -28 59q-8 178 122 273.5t361 95.5q236 0 353.5 -92t117.5 -283q0 -119 -54 -205t-130 -143t-195 -125 q-123 -72 -180 -121t-57 -116h581q14 0 21.5 -8.5t7.5 -20.5v-223q0 -12 -7 -20.5t-22 -8.5h-921q-13 0 -21 8t-8 21z" />
<glyph unicode="3" horiz-adv-x="1187" d="M86 324q0 29 2 45q2 23 10 32t21 9h256q25 0 24 -21q0 -74 46.5 -103.5t146.5 -29.5q176 0 176 135v29q0 129 -174 129h-152q-10 0 -18 7t-8 19v207q0 12 8 19.5t18 7.5h117q96 0 138 30.5t42 98.5v35q0 121 -166 121q-172 0 -172 -117q0 -18 -6 -25.5t-20 -7.5h-254 q-14 0 -20.5 9.5t-8.5 35.5q-4 180 126 278.5t376 98.5q477 0 477 -354q0 -119 -50 -199t-144 -115v-6q106 -27 163.5 -107.5t57.5 -201.5q0 -199 -133.5 -303.5t-389.5 -104.5q-245 0 -367 92.5t-122 256.5z" />
<glyph unicode="4" horiz-adv-x="1251" d="M14 246v43q0 12 9 37l520 995q12 20 32 20h263q16 0 22 -9t-2 -25l-405 -809h282l25 368q4 29 28 29h236q29 0 29 -29v-368h116q29 0 29 -29v-223q0 -12 -7 -20.5t-22 -8.5h-116v-188q0 -12 -7.5 -20.5t-21.5 -8.5h-268q-15 0 -22 8t-7 21v188h-684q-14 0 -21.5 8 t-7.5 21z" />
<glyph unicode="5" horiz-adv-x="1163" d="M63 311q0 31 3 47q2 27 9 36t23 9h254q14 0 19.5 -7t5.5 -25q0 -51 44 -83t134 -32q106 0 152.5 39t46.5 123v33q0 162 -205 161q-168 0 -379 -59q-8 -2 -23 -2q-23 0 -35 12t-10 33l66 719q2 27 29 26h766q12 0 20 -8t8 -20v-223q0 -12 -8 -20.5t-20 -8.5h-521l-18 -221 q143 33 250 32q207 0 309 -105t102 -327q0 -242 -132 -353.5t-406 -111.5q-225 0 -354.5 90.5t-129.5 245.5z" />
<glyph unicode="6" horiz-adv-x="1243" d="M96 481v377q0 246 136.5 377t398.5 131q221 0 352 -79t131 -232q0 -35 -7 -50.5t-24 -15.5h-249q-29 0 -29 29q-2 80 -170 80q-106 0 -156.5 -48.5t-50.5 -166.5v-125q164 109 348 108q385 0 385 -399q0 -492 -532 -492q-274 0 -403.5 122t-129.5 384zM428 449 q0 -205 197 -205q100 0 152 48t52 138v35q0 78 -43 111.5t-129 33.5q-113 0 -229 -78v-83z" />
<glyph unicode="7" horiz-adv-x="1171" d="M72 950v363q0 12 8 20t20 8h1045q12 0 20.5 -7t8.5 -17v-21q0 -18 -9 -34l-561 -1242q-10 -20 -33 -20h-282q-33 0 -23 35l455 1032h-326v-117q0 -14 -8 -21t-20 -7h-267q-12 0 -20 7t-8 21z" />
<glyph unicode="8" horiz-adv-x="1245" d="M72 367q0 127 62.5 216t178.5 132q-84 33 -131 113.5t-47 191.5q0 168 124 257t364 89q238 0 361.5 -89t123.5 -257q0 -111 -46 -191.5t-130 -113.5q117 -43 178 -132t61 -216q0 -195 -139 -293.5t-409 -98.5q-273 0 -412 98.5t-139 293.5zM403 397q0 -156 220 -155 q108 0 163.5 40t55.5 115v27q0 80 -56.5 122t-162.5 42t-163 -42t-57 -122v-27zM455 952q0 -63 44 -99t124 -36q79 0 122 35t43 100v31q0 63 -43 97t-122 34q-80 0 -124 -33.5t-44 -97.5v-31z" />
<glyph unicode="9" horiz-adv-x="1259" d="M96 891q0 244 132 359.5t403 115.5q274 0 402 -124t128 -392v-363q0 -252 -135 -382t-399 -130q-238 0 -368 87.5t-130 256.5q0 23 8 36.5t23 13.5h252q27 0 26 -29q0 -45 47 -70.5t138 -25.5q106 0 157 52t51 167v125q-166 -115 -344 -115q-199 0 -295 107.5t-96 310.5z M428 877q0 -68 50 -108t130 -40q106 0 223 78v90q0 205 -208 205q-195 0 -195 -180v-45z" />
<glyph unicode=":" horiz-adv-x="604" d="M100 152v53q0 82 53.5 129t149.5 47t148.5 -47t52.5 -129v-53q0 -82 -52.5 -129.5t-148.5 -47.5t-149.5 47.5t-53.5 129.5zM100 782v54q0 82 53.5 129t149.5 47t148.5 -47t52.5 -129v-54q0 -82 -52.5 -129t-148.5 -47t-149.5 48t-53.5 128z" />
<glyph unicode=";" horiz-adv-x="638" d="M39 -285l108 629q4 27 29 27h328q14 0 21 -9.5t3 -25.5l-196 -627q-6 -25 -31 -24h-238q-31 0 -24 30zM127 782v54q0 82 53 129t150 47q98 0 150 -47t52 -129v-54q0 -82 -52 -129t-150 -47q-97 0 -150 48t-53 128z" />
<glyph unicode="&#x3c;" horiz-adv-x="1228" d="M174 524v170q0 25 23 35l825 340q8 4 14 4q18 0 19 -26v-242q0 -23 -23 -33l-500 -162l500 -166q23 -6 23 -32v-242q0 -16 -9.5 -22.5t-23.5 -0.5l-825 342q-23 10 -23 35z" />
<glyph unicode="=" horiz-adv-x="1228" d="M164 330v202q0 12 8 20.5t21 8.5h843q12 0 20.5 -8t8.5 -21v-202q0 -14 -8 -21.5t-21 -7.5h-843q-13 0 -21 7t-8 22zM164 705v202q0 12 8 20.5t21 8.5h843q12 0 20.5 -8t8.5 -21v-202q0 -14 -8 -21.5t-21 -7.5h-843q-13 0 -21 7t-8 22z" />
<glyph unicode="&#x3e;" horiz-adv-x="1228" d="M174 170v242q0 27 23 32l499 166l-499 162q-23 10 -23 33v242q0 16 9.5 23t23.5 -1l825 -340q23 -10 23 -35v-170q0 -25 -23 -35l-825 -342q-4 -2 -12 -2q-20 0 -21 25z" />
<glyph unicode="?" horiz-adv-x="1050" d="M78 967q-10 201 99.5 300t348.5 99q236 0 348.5 -77t112.5 -232q0 -90 -31.5 -156.5t-74.5 -109.5t-111 -95q-61 -47 -91 -78.5t-30 -72.5v-41q0 -27 -24 -27h-281q-25 0 -25 27v80q0 86 51.5 144t147.5 124q70 47 103.5 81t33.5 77q0 88 -135 88q-80 0 -109.5 -34 t-25.5 -103v-7q0 -27 -27 -26h-247q-18 0 -24.5 9t-8.5 30zM301 139v56q0 84 50 124.5t145 40.5q195 0 194 -165v-56q0 -164 -194 -164q-93 0 -144 41t-51 123z" />
<glyph unicode="@" horiz-adv-x="2019" d="M76 414v139q0 422 236.5 646t697.5 224q454 0 693 -193.5t239 -559.5v-64q0 -258 -139.5 -399t-397.5 -141q-98 0 -168 33.5t-104 97.5q-162 -133 -332 -134q-233 0 -234 252q0 35 6 78l29 219q23 180 117 265.5t278 85.5q92 0 236 -21q106 -16 158 -18q33 -4 28 -33 l-59 -449q-4 -33 -4 -47q0 -49 21.5 -71.5t66.5 -22.5q98 0 150.5 77t52.5 226v66q0 248 -160 374.5t-477 126.5q-315 0 -476 -159.5t-161 -474.5v-107q0 -207 62.5 -324.5t205.5 -171t393 -53.5h283q14 0 21.5 -8t7.5 -20v-203q0 -12 -7.5 -20.5t-21.5 -8.5h-316 q-328 0 -530.5 83t-298.5 257t-96 453zM844 383q0 -84 80 -84q74 0 168 90q0 16 4 53l34 285q-70 12 -126 12q-59 0 -92 -30.5t-42 -102.5l-24 -190q-2 -13 -2 -33z" />
<glyph unicode="A" horiz-adv-x="1271" d="M-6 33l426 1286q8 23 33 22h364q25 0 33 -22l428 -1286q2 -5 2 -13q0 -20 -25 -20h-307q-25 0 -33 23l-61 217h-440l-60 -215q-6 -25 -32 -25h-306q-33 0 -22 33zM485 504h295l-71 260q-43 145 -74 293h-4q-20 -98 -74 -295z" />
<glyph unicode="B" horiz-adv-x="1243" d="M121 29v1284q0 12 8 20t21 8h458q514 0 514 -327q0 -121 -52 -193.5t-161 -109.5v-6q270 -51 271 -304q0 -145 -58.5 -232t-184.5 -128t-331 -41h-456q-13 0 -21 8t-8 21zM453 272h172q115 0 166 34t51 112q0 72 -52.5 105.5t-166.5 33.5h-170v-285zM453 801h153 q92 0 135 34.5t43 104.5q0 129 -190 129h-141v-268z" />
<glyph unicode="C" horiz-adv-x="1345" d="M96 512v313q0 270 150.5 405.5t427.5 135.5q274 0 425.5 -121t151.5 -325q0 -35 -2 -54q-4 -29 -28 -28l-283 2q-14 0 -20.5 9t-6.5 28q0 92 -57 145t-176 53q-244 0 -244 -262v-285q0 -262 244 -262q125 0 181 56q52 53 52 137v12q0 31 27 31l281 2q27 0 30 -29 q2 -16 2 -49q0 -209 -152.5 -330t-424.5 -121q-277 0 -427.5 134.5t-150.5 402.5z" />
<glyph unicode="D" horiz-adv-x="1349" d="M121 29v1284q0 12 8 20t21 8h481q635 0 635 -587v-150q0 -301 -157 -452.5t-478 -151.5h-481q-13 0 -21 8t-8 21zM459 289h149q319 0 320 327v125q0 311 -320 312h-149v-764z" />
<glyph unicode="E" horiz-adv-x="1124" d="M121 29v1284q0 12 8 20t21 8h851q10 0 18.5 -8t8.5 -20v-236q0 -12 -8 -20t-19 -8h-542v-236h493q10 0 18.5 -8t8.5 -21v-219q0 -12 -8 -20t-19 -8h-493v-244h542q10 0 18.5 -8.5t8.5 -20.5v-235q0 -12 -8 -20.5t-19 -8.5h-851q-13 0 -21 8t-8 21z" />
<glyph unicode="F" horiz-adv-x="1087" d="M121 29v1284q0 12 8 20t21 8h851q10 0 18.5 -8t8.5 -20v-236q0 -12 -8 -20t-19 -8h-542v-254h465q10 0 18 -8.5t8 -20.5v-229q0 -12 -8 -19.5t-18 -7.5h-465v-481q0 -12 -8.5 -20.5t-18.5 -8.5h-282q-13 0 -21 8t-8 21z" />
<glyph unicode="G" horiz-adv-x="1370" d="M96 512v317q0 266 151.5 401.5t428.5 135.5q182 0 310 -53t192.5 -145.5t64.5 -211.5q0 -33 -2 -49q-4 -29 -29 -28l-282 2q-25 0 -25 34q0 74 -55 117t-170 43q-123 0 -184.5 -63.5t-61.5 -198.5v-285q0 -135 63.5 -198.5t192.5 -63.5q113 0 171.5 46t58.5 134v52h-226 q-12 0 -20 7t-8 21v168q0 12 8 20.5t20 8.5h523q12 0 19 -8t7 -21v-342q0 -207 21 -321v-6q0 -10 -8.5 -17.5t-18.5 -7.5h-225q-23 0 -29 27t-12 125h-4q-109 -176 -344 -177q-240 0 -383.5 137.5t-143.5 399.5z" />
<glyph unicode="H" horiz-adv-x="1386" d="M121 29v1284q0 12 8 20t21 8h282q10 0 18.5 -8t8.5 -20v-494h469v494q0 12 8 20t20 8h281q12 0 20.5 -8t8.5 -20v-1284q0 -12 -8.5 -20.5t-20.5 -8.5h-281q-12 0 -20 8t-8 21v499h-469v-499q0 -12 -8.5 -20.5t-18.5 -8.5h-282q-13 0 -21 8t-8 21z" />
<glyph unicode="I" horiz-adv-x="579" d="M121 29v1284q0 12 8 20t21 8h280q12 0 20.5 -8t8.5 -20v-1284q0 -12 -8.5 -20.5t-20.5 -8.5h-280q-13 0 -21 8t-8 21z" />
<glyph unicode="J" horiz-adv-x="600" d="M-37 -88q0 23 29 29q150 33 149 276v1096q0 12 8.5 20t20.5 8h281q12 0 20 -8t8 -20v-1071q0 -266 -99 -409.5t-302 -174.5h-8q-27 0 -33 20l-72 224q-2 4 -2 10z" />
<glyph unicode="K" horiz-adv-x="1312" d="M121 29v1284q0 12 8 20t21 8h280q12 0 20.5 -8t8.5 -20v-297q0 -133 -8 -240h4q82 141 153 236l242 313q12 16 35 16h342q25 0 24 -16q0 -10 -8 -18l-412 -508l461 -764l4 -17q0 -8 -6 -13t-16 -5h-342q-25 0 -35 18l-295 512l-143 -168v-333q0 -12 -8.5 -20.5 t-20.5 -8.5h-280q-12 0 -20.5 8t-8.5 21z" />
<glyph unicode="L" horiz-adv-x="1026" d="M121 29v1284q0 12 8 20t21 8h286q23 -6 23 -28v-1020h508q12 0 19 -8.5t7 -20.5v-235q0 -12 -7 -20.5t-19 -8.5h-817q-13 0 -21 8t-8 21z" />
<glyph unicode="M" horiz-adv-x="1650" d="M94 29l29 1284q0 29 27 28h325q23 0 31 -20l319 -672l320 672q12 20 33 20h323q12 0 20.5 -7t8.5 -21l26 -1284q0 -12 -8 -20.5t-18 -8.5h-275q-29 0 -28 29l-13 458v36q0 122 11 325h-8q-90 -209 -162 -346l-189 -365q-10 -20 -35 -20h-12q-25 0 -33 20l-190 367 q-63 123 -160 344h-8q10 -200 10 -322v-39l-12 -458q0 -29 -29 -29h-274q-12 0 -20.5 8t-8.5 21z" />
<glyph unicode="N" horiz-adv-x="1390" d="M121 29v1284q0 12 8 20t21 8h348q23 0 32 -20l271 -528q41 -78 86 -178.5t69 -172.5h7q-18 160 -19 371v500q0 12 7 20t20 8h270q12 0 20.5 -8t8.5 -20v-1284q0 -12 -8.5 -20.5t-20.5 -8.5h-348q-18 0 -33 20l-256 494q-31 59 -112 258l-48 113h-6q8 -113 8 -396v-460 q0 -12 -8 -20.5t-20 -8.5h-268q-13 0 -21 8t-8 21z" />
<glyph unicode="O" horiz-adv-x="1357" d="M96 510v321q0 264 147.5 399.5t434.5 135.5t435.5 -135t148.5 -400v-321q0 -264 -148.5 -399.5t-435.5 -135.5t-434.5 135.5t-147.5 399.5zM434 532q0 -129 61.5 -195.5t182.5 -66.5q246 0 246 262v277q0 262 -246 262q-121 0 -182.5 -66.5t-61.5 -195.5v-277z" />
<glyph unicode="P" horiz-adv-x="1179" d="M121 29v1284q0 12 8 20t21 8h430q283 0 413.5 -115.5t130.5 -346.5q0 -221 -136 -339t-406 -118h-123v-393q0 -12 -8.5 -20.5t-20.5 -8.5h-280q-13 0 -21 8t-8 21zM459 709h119q104 0 156 39.5t52 130.5q0 92 -50 133t-158 41h-119v-344z" />
<glyph unicode="Q" horiz-adv-x="1357" d="M96 510v321q0 264 147.5 399.5t434.5 135.5t435.5 -135t148.5 -400v-321q0 -197 -83 -323t-247 -177q6 -70 30.5 -105.5t73.5 -35.5q39 0 78 14q4 2 10 2q20 0 21 -26v-168q0 -25 -21 -35q-57 -33 -155 -33q-281 0 -316 352q-274 6 -415.5 141.5t-141.5 393.5zM434 532 q0 -129 61.5 -195.5t182.5 -66.5q246 0 246 262v277q0 262 -246 262q-121 0 -182.5 -66.5t-61.5 -195.5v-277z" />
<glyph unicode="R" horiz-adv-x="1277" d="M121 29v1284q0 12 8 20t21 8h473q283 0 412.5 -109.5t129.5 -324.5q0 -139 -59 -234t-182 -132v-4l315 -502q6 -8 6 -17q0 -18 -24 -18h-316q-23 0 -35 18l-278 471h-139v-460q0 -12 -7.5 -20.5t-21.5 -8.5h-274q-13 0 -21 8t-8 21zM453 754h170q102 0 153 36.5t51 114.5 q0 80 -46 115t-150 35h-178v-301z" />
<glyph unicode="S" horiz-adv-x="1179" d="M63 340q0 37 3 57q2 31 30 31l275 -4q29 0 26 -29v-8q0 -125 187 -125q96 0 140 24.5t44 78.5q0 35 -26.5 60.5t-94.5 53.5l-293 129q-152 66 -213 152t-61 223q0 184 122 283.5t363 99.5q254 0 384 -91t130 -274q0 -29 -2 -45q-4 -35 -28 -34h-275q-31 0 -26 34v9 q0 51 -44 84q-48 36 -131 36q-155 0 -155 -99q0 -38 26.5 -64.5t96.5 -55.5l290 -125q152 -66 213.5 -151.5t61.5 -224.5q0 -195 -128 -292.5t-405 -97.5q-258 0 -384 90.5t-126 274.5z" />
<glyph unicode="T" horiz-adv-x="1144" d="M41 1077v236q0 12 8 20t21 8h1007q13 0 20 -8t7 -20v-236q0 -12 -7 -20t-20 -8h-336v-1020q0 -12 -7 -20.5t-21 -8.5h-281q-14 0 -21.5 8t-7.5 21v1020h-333q-12 0 -20.5 8t-8.5 20z" />
<glyph unicode="U" horiz-adv-x="1353" d="M111 506v807q0 12 8 20t20 8h283q10 0 18.5 -8t8.5 -20v-791q0 -127 54 -191.5t175 -64.5q119 0 173 64.5t54 191.5v791q0 12 7.5 20t21.5 8h280q12 0 20.5 -8t8.5 -20v-807q0 -530 -565 -531q-283 0 -425 130.5t-142 400.5z" />
<glyph unicode="V" horiz-adv-x="1300" d="M14 1321q0 20 25 20h307q25 0 33 -22l201 -729q31 -117 67 -303h6q16 88 72 307l199 723q6 25 32 24h306q33 0 22 -32l-420 -1286q-6 -23 -33 -23h-364q-25 0 -33 23l-418 1286q-2 4 -2 12z" />
<glyph unicode="W" horiz-adv-x="1853" d="M25 1309v8q0 25 24 24h275q27 0 32 -24l162 -696q16 -74 37 -207q6 -23 14 -82h4q35 131 86 293l136 409l-78 242q-2 4 -2 12q0 18 26 19h275q23 0 28 -23l175 -643q45 -174 65 -309h6q27 190 60 344l147 641q4 25 31 24h274q16 0 22.5 -9t2.5 -23l-344 -1284 q-6 -25 -29 -25h-313q-27 0 -33 25l-96 346q-51 195 -78 301h-4q-43 -162 -86 -301l-107 -348q-8 -23 -32 -23h-302q-24 0 -30 25z" />
<glyph unicode="X" horiz-adv-x="1249" d="M2 18q0 8 6 17l426 651l-401 621q-6 10 -6 18q0 16 24 16h330q23 0 33 -18l133 -225q45 -84 80 -166h6q51 113 86 172l129 219q8 18 31 18h323q23 0 23 -16q0 -8 -6 -18l-398 -621l420 -651q6 -8 6 -17q0 -18 -24 -18h-332q-23 0 -35 18l-141 242q-49 88 -88 178h-6 q-35 -82 -89 -174l-147 -246q-8 -18 -33 -18h-325q-25 0 -25 18z" />
<glyph unicode="Y" horiz-adv-x="1226" d="M4 1321q0 8 7 14t18 6h313q27 0 33 -20l129 -289q61 -145 110 -276h2q31 88 111 274l129 291q6 20 33 20h309q16 0 22.5 -10t-1.5 -24l-437 -842v-436q0 -12 -8 -20.5t-18 -8.5h-283q-12 0 -20.5 8t-8.5 21v436l-436 842q-4 12 -4 14z" />
<glyph unicode="Z" horiz-adv-x="1169" d="M25 29v16q0 23 10 37l475 780q63 104 117 185v4q-74 -2 -221 -2h-295q-12 0 -20.5 8t-8.5 20v236q0 12 8 20t21 8h999q12 0 20.5 -8t8.5 -20v-17q0 -16 -11 -36l-469 -756q-59 -98 -135 -211v-4q76 4 232 4h305q14 0 21.5 -8.5t7.5 -20.5v-235q0 -12 -7.5 -20.5 t-21.5 -8.5h-1008q-12 0 -20 8t-8 21z" />
<glyph unicode="[" horiz-adv-x="600" d="M104 -362v1857q0 29 27 29h451q28 0 28 -29v-182q0 -12 -7 -20.5t-21 -8.5h-185v-1431h185q14 0 21 -8.5t7 -20.5v-186q0 -12 -7 -20.5t-21 -8.5h-451q-12 0 -19.5 8t-7.5 21z" />
<glyph unicode="\" horiz-adv-x="860" d="M14 1321q0 20 27 20h235q25 0 35 -22l533 -1286q2 -4 2 -13q0 -20 -25 -20h-237q-25 0 -35 23l-533 1286q-2 4 -2 12z" />
<glyph unicode="]" horiz-adv-x="600" d="M-10 -176q0 12 7 20.5t21 8.5h185v1431h-185q-14 0 -21 8t-7 21v182q0 29 28 29h449q29 0 29 -29v-1857q0 -12 -7.5 -20.5t-21.5 -8.5h-449q-14 0 -21 8t-7 21v186z" />
<glyph unicode="^" horiz-adv-x="1116" d="M76 735l4 17l342 626q12 20 35 21h202q23 0 35 -21l344 -626q4 -12 4 -15q0 -8 -7 -14t-17 -6h-246q-23 0 -33 20l-180 377l-180 -377q-10 -20 -33 -20h-248q-10 0 -16 5t-6 13z" />
<glyph unicode="_" horiz-adv-x="1126" d="M29 -133q0 12 8 20.5t20 8.5h1012q12 0 20.5 -8.5t8.5 -20.5v-195q0 -12 -8.5 -20t-20.5 -8h-1012q-12 0 -20 8t-8 20v195z" />
<glyph unicode="`" horiz-adv-x="561" d="M61 1423q0 6 7.5 11.5t17.5 5.5h231q23 0 35 -21l143 -262q4 -12 5 -14q0 -8 -7.5 -14.5t-17.5 -6.5h-172q-23 1 -33 17l-201 266q-8 8 -8 18z" />
<glyph unicode="a" horiz-adv-x="1060" d="M53 264q0 109 40 174.5t131 102.5t251 53l158 16v76q0 68 -25.5 94.5t-91.5 26.5q-114 0 -114 -82q0 -7 1 -14q0 -12 -7 -20.5t-21 -8.5h-248q-27 0 -31 31q-1 16 -1 31q1 138 99 214q110 84 334 84q227 0 330 -87t103 -283v-408q0 -139 10 -233v-4q0 -27 -27 -27h-233 q-25 0 -29 25l-12 73l-8 49q-84 -84 -163 -128t-182 -44q-127 0 -195.5 76t-68.5 213zM367 305q0 -47 19.5 -69.5t59.5 -22.5q48 0 92 23.5t95 76.5v131l-109 -12q-88 -10 -122.5 -36.5t-34.5 -90.5z" />
<glyph unicode="b" horiz-adv-x="1116" d="M100 25v1345q0 12 8.5 20.5t20.5 8.5h270q12 0 20.5 -8.5t8.5 -20.5v-455q145 127 313 127q150 0 221.5 -84t71.5 -258v-309q0 -213 -109.5 -314.5t-344.5 -101.5q-98 0 -190.5 12.5t-108.5 14.5q-111 16 -181 23zM428 254q10 -2 51 -8t78 -6q76 0 113 45t37 135v205 q0 72 -26 104.5t-83 32.5q-76 0 -170 -74v-434z" />
<glyph unicode="c" horiz-adv-x="1101" d="M78 408v202q0 209 126 320.5t359 111.5q152 0 258.5 -52t158.5 -140q45 -76 45 -168q0 -14 -1 -29q0 -14 -8 -24.5t-21 -10.5h-250q-10 0 -18 8.5t-8 20.5q0 59 -40 89t-112 30q-84 0 -122.5 -43t-38.5 -143v-140q0 -100 38.5 -143t120.5 -43q76 0 114 30.5t38 88.5 q0 12 8 20t18 8h250q12 0 20.5 -8t8.5 -20q1 -17 1 -33q1 -159 -107 -257q-118 -108 -351 -108t-360 112t-127 321z" />
<glyph unicode="d" horiz-adv-x="1126" d="M82 317v310q0 215 90 315t266 100q61 0 133 -14t127 -39v381q0 12 8.5 20.5t20.5 8.5h270q12 0 20.5 -8.5t8.5 -20.5v-1110q0 -121 10 -227v-8q0 -25 -26 -25h-234q-25 0 -31 25q-12 49 -18 120q-82 -80 -165 -125t-191 -45q-145 0 -217 83t-72 259zM410 389 q0 -67 25.5 -100t80.5 -33q86 0 182 86v403q-78 33 -153 33q-135 0 -135 -178v-211z" />
<glyph unicode="e" horiz-adv-x="1112" d="M78 389v217q0 217 117.5 326.5t361.5 109.5q238 0 358.5 -105.5t120.5 -313.5v-160q0 -12 -7 -20.5t-21 -8.5h-609v-59q0 -78 38 -118t120 -40q66 0 103.5 21.5t37.5 62.5q0 25 29 25h260q29 0 29 -27v-6q0 -162 -108 -239q-110 -79 -345 -79q-250 0 -367.5 102.5 t-117.5 311.5zM399 614h318v9q-2 94 -38 135t-118 41q-86 0 -124 -42t-38 -134v-9z" />
<glyph unicode="f" horiz-adv-x="817" d="M25 776v215q0 10 8 18.5t20 8.5h144v61q0 344 374 344q74 0 142.5 -8t109.5 -20q25 -6 25 -29v-201q0 -27 -21 -26q-6 0 -18 4q-71 24 -150 24h-6q-68 0 -98.5 -27.5t-30.5 -86.5v-35h221q31 0 31 -29v-213q0 -10 -9 -19t-19 -9h-224v-719q0 -12 -8 -20.5t-20 -8.5h-271 q-12 0 -20 8t-8 21v719h-144q-12 0 -20 9t-8 19z" />
<glyph unicode="g" horiz-adv-x="1075" d="M27 -158q0 139 120 217q-53 49 -53 142q0 68 30 121t97 94q-104 90 -104 266q0 184 104.5 272t321.5 88q31 0 84 -4q0 115 18 215q6 25 25 25h209q37 0 24 -31q-45 -133 -59 -278q123 -86 123 -287q0 -178 -104.5 -265t-319.5 -87q-84 0 -152 12q-33 -20 -33 -51 q0 -18 13.5 -26.5t48.5 -10.5l323 -23q164 -12 235 -86.5t71 -222.5q0 -170 -126 -247.5t-405 -77.5q-256 0 -373.5 61t-117.5 184zM336 -86q0 -45 42 -62.5t157 -19.5q88 0 132 7t60 24.5t16 48.5t-15 46t-52 17l-295 21q-45 -31 -45 -82zM410 686q0 -66 30.5 -94.5 t102.5 -28.5q70 0 100.5 29t30.5 94q0 66 -31 95.5t-100 29.5q-72 0 -102.5 -29.5t-30.5 -95.5z" />
<glyph unicode="h" horiz-adv-x="1150" d="M100 29v1341q0 12 8.5 20.5t20.5 8.5h270q12 0 20.5 -8.5t8.5 -20.5v-469q72 66 151.5 103.5t178.5 37.5q147 0 220 -80.5t73 -252.5v-680q0 -12 -8.5 -20.5t-20.5 -8.5h-270q-14 0 -21.5 8t-7.5 21v604q0 66 -26.5 97.5t-82.5 31.5q-92 0 -186 -88v-645q0 -12 -8 -20.5 t-21 -8.5h-270q-12 0 -20.5 8t-8.5 21z" />
<glyph unicode="i" horiz-adv-x="528" d="M94 1300v50q0 74 44 111.5t126 37.5q84 0 127 -38t43 -111v-50q0 -72 -44 -110.5t-126 -38.5t-126 39t-44 110zM100 29v962q0 12 8.5 19.5t20.5 7.5h270q12 0 20.5 -7t8.5 -20v-962q0 -12 -8 -20.5t-21 -8.5h-270q-12 0 -20.5 8t-8.5 21z" />
<glyph unicode="j" horiz-adv-x="528" d="M-51 -184q0 12 12 22q72 53 105.5 137t33.5 213v803q0 10 8.5 18.5t20.5 8.5h270q13 0 21 -8.5t8 -18.5v-803q0 -219 -62.5 -353t-215.5 -228q-8 -4 -13 -4q-10 0 -20 10l-160 182q-8 8 -8 21zM98 1300v50q0 74 44 111.5t126 37.5q84 0 127 -38t43 -111v-50 q0 -72 -44 -110.5t-126 -38.5t-126 39t-44 110z" />
<glyph unicode="k" horiz-adv-x="1122" d="M100 29v1341q0 12 8.5 20.5t20.5 8.5h270q12 0 20.5 -8.5t8.5 -20.5v-465q0 -94 -8 -282h6q61 102 133 198l137 180q10 16 33 17h330q25 0 24 -14q0 -6 -8 -19l-338 -410l365 -540q6 -9 6 -19q0 -16 -23 -16h-319q-23 0 -35 18l-217 338l-86 -100v-227q0 -12 -8 -20.5 t-21 -8.5h-270q-12 0 -20.5 8t-8.5 21z" />
<glyph unicode="l" horiz-adv-x="528" d="M100 29v1341q0 12 8.5 20.5t20.5 8.5h270q12 0 20.5 -8.5t8.5 -20.5v-1341q0 -12 -8 -20.5t-21 -8.5h-270q-12 0 -20.5 8t-8.5 21z" />
<glyph unicode="m" horiz-adv-x="1705" d="M90 987v6q0 25 27 25h233q27 0 29 -21q10 -47 18 -125q78 80 155 125t179 45q109 0 166 -38.5t86 -124.5q76 76 157 119.5t179 43.5q143 0 215 -80.5t72 -250.5v-682q0 -12 -7.5 -20.5t-21.5 -8.5h-270q-12 0 -20.5 8t-8.5 21v604q0 66 -23.5 97.5t-76.5 31.5 q-41 0 -80 -20.5t-80 -61.5v-651q0 -12 -8.5 -20.5t-20.5 -8.5h-270q-14 0 -21.5 8t-7.5 21v604q0 66 -23.5 97.5t-78.5 31.5q-41 0 -80 -20.5t-80 -61.5v-651q0 -12 -8 -20.5t-21 -8.5h-270q-12 0 -20.5 8t-8.5 21v725q0 117 -10 233z" />
<glyph unicode="n" horiz-adv-x="1150" d="M90 987v6q0 25 27 25h233q27 0 31 -23q14 -66 18 -123q82 80 166 125t193 45q147 0 220 -80.5t73 -252.5v-680q0 -12 -8.5 -20.5t-20.5 -8.5h-270q-14 0 -21.5 8t-7.5 21v604q0 66 -25.5 97.5t-83.5 31.5q-88 0 -186 -88v-645q0 -12 -8 -20.5t-21 -8.5h-270 q-12 0 -20.5 8t-8.5 21v725q0 121 -10 233z" />
<glyph unicode="o" horiz-adv-x="1132" d="M78 410v198q0 213 127 323.5t362 110.5q233 0 361.5 -110.5t128.5 -323.5v-198q0 -213 -128 -324t-362 -111q-233 0 -361 111t-128 324zM406 440q0 -100 37.5 -144t123.5 -44q84 0 123 44t39 144v140q0 100 -39 143t-123 43q-86 0 -123.5 -43t-37.5 -143v-140z" />
<glyph unicode="p" horiz-adv-x="1116" d="M90 987v4q0 27 27 27h233q25 0 31 -23q10 -45 16 -108q78 74 159 114.5t185 40.5q148 0 220.5 -82.5t72.5 -259.5v-309q0 -215 -90 -315.5t-266 -100.5q-57 0 -126 13.5t-124 36.5v-375q0 -12 -8 -20.5t-21 -8.5h-270q-12 0 -20.5 8.5t-8.5 20.5v1108q0 117 -10 229z M428 270q72 -30 137 -30h4q137 0 138 180v205q0 70 -26 103.5t-83 33.5q-80 0 -170 -74v-418z" />
<glyph unicode="q" horiz-adv-x="1126" d="M82 317v310q0 213 109.5 314t345.5 101h9q112 0 285 -24q127 -16 195 -21v-1347q0 -12 -8 -20.5t-21 -8.5h-270q-14 0 -21.5 8.5t-7.5 20.5v454q-147 -129 -325 -129q-150 0 -220.5 83t-70.5 259zM410 393q0 -72 24.5 -104.5t81.5 -32.5q84 0 182 76v432q-76 14 -141 14 q-76 0 -111.5 -44t-35.5 -134v-207z" />
<glyph unicode="r" horiz-adv-x="817" d="M90 989v4q0 25 27 25h233q25 0 31 -23q12 -61 16 -137q63 84 148.5 134t173.5 50q37 0 61 -6q20 -8 21 -35l2 -81q0 -102 -8 -177q-2 -16 -9.5 -22t-23.5 -4q-43 6 -74 6q-68 0 -137.5 -30.5t-122.5 -92.5v-571q0 -12 -8 -20.5t-21 -8.5h-270q-12 0 -20.5 8t-8.5 21v727 q0 111 -10 233z" />
<glyph unicode="s" horiz-adv-x="980" d="M72 264q0 29 2 43q4 29 30 29h248q27 0 27 -31q0 -104 102 -104q59 0 87 18.5t28 59.5q0 33 -19.5 53t-76.5 45l-236 100q-98 41 -142 104.5t-44 168.5q0 150 98 221t311 71q219 0 320.5 -73.5t101.5 -229.5q0 -29 -30 -28h-246q-27 0 -27 32q-4 76 -102 76 q-49 0 -72.5 -16.5t-23.5 -52.5q0 -27 18 -45.5t70 -38.5l233 -97q109 -43 155 -106.5t46 -171.5q0 -315 -445 -316q-215 0 -314 70t-99 219z" />
<glyph unicode="t" horiz-adv-x="897" d="M16 776v215q0 12 8.5 19.5t20.5 7.5h154l34 246q2 27 31 26h223q12 0 20.5 -8t8.5 -20v-244h295q29 0 29 -27v-215q0 -12 -7.5 -20t-21.5 -8h-295v-361q0 -70 27.5 -101.5t95.5 -31.5q86 0 170 37q8 4 14 4q18 0 19 -27v-217q0 -23 -23 -31q-49 -18 -117.5 -31.5 t-140.5 -13.5q-139 0 -220 38t-117 122t-36 227v386h-143q-12 0 -20.5 8t-8.5 20z" />
<glyph unicode="u" horiz-adv-x="1128" d="M100 309v682q0 12 8.5 19.5t20.5 7.5h270q12 0 20.5 -7t8.5 -20v-606q0 -129 92 -129q82 0 180 88v647q0 27 29 27h270q12 0 20.5 -7t8.5 -20v-727q0 -115 10 -233v-4q0 -27 -26 -27h-232q-14 0 -21 5t-9 20q-8 37 -21 122q-82 -80 -162 -126t-184 -46q-143 0 -213 82 t-70 252z" />
<glyph unicode="v" horiz-adv-x="1095" d="M27 997q0 20 24 21h295q25 0 31 -23l108 -426q41 -162 58 -270h6q20 117 61 274l111 422q6 23 33 23h290q14 0 20.5 -8.5t2.5 -22.5l-322 -964q-6 -23 -32 -23h-332q-25 0 -33 23l-319 964q-2 4 -2 10z" />
<glyph unicode="w" horiz-adv-x="1583" d="M39 997q0 20 27 21h284q25 0 31 -25l94 -413q27 -121 47 -273h8q14 61 48 180l20 80l53 201l-41 195q0 2 -1 4t1 6q0 23 25 22h246q27 0 32 -24l86 -393l54 -271h8q8 96 49 279l92 407q6 25 31 25h285q14 0 20 -8.5t2 -22.5l-307 -964q-6 -23 -31 -23h-276q-25 0 -31 25 l-41 131q-25 88 -57 264h-9q-20 -115 -63 -262l-37 -133q-6 -25 -33 -25h-274q-25 0 -33 23l-307 964z" />
<glyph unicode="x" horiz-adv-x="1103" d="M14 18q0 8 6 17l332 489l-311 461q-6 10 -6 16q0 16 24 17h312q27 0 32 -19l76 -131q14 -27 72 -147h4l74 151l69 127q10 18 35 19h305q27 0 27 -17q0 -6 -6 -16l-311 -459l335 -491q6 -8 7 -17q0 -18 -25 -18h-311q-25 0 -33 18l-76 127l-94 177h-2l-37 -70l-55 -105 l-74 -129q-10 -18 -35 -18h-309q-25 0 -25 18z" />
<glyph unicode="y" horiz-adv-x="1087" d="M27 999q0 18 24 19h293q27 0 33 -23l100 -325q29 -96 68 -293h6q31 172 65 291l101 327q6 23 33 23h290q17 0 23 -8.5t0 -22.5l-481 -1343q-8 -23 -33 -23h-260q-16 0 -22.5 9.5t-0.5 23.5l127 348l-364 985q-2 4 -2 12z" />
<glyph unicode="z" horiz-adv-x="995" d="M23 29v8q0 18 10 37l317 487q84 129 131 191v4q-68 -2 -198 -2h-177q-29 0 -28 28v209q0 27 28 27h828q14 0 22.5 -7t8.5 -20v-10q0 -20 -25 -57l-297 -443q-37 -59 -143 -209v-4h209h184q29 0 29 -28v-211q0 -12 -7.5 -20.5t-21.5 -8.5h-842q-14 0 -21 8t-7 21z" />
<glyph unicode="{" horiz-adv-x="655" d="M20 467v203q0 14 8.5 21t20.5 7h66q35 0 51 18.5t16 59.5v324q0 160 44 252t141.5 134t263.5 42q14 0 21 -8.5t7 -20.5v-186q0 -29 -30 -29q-90 0 -122 -31.5t-32 -109.5v-359q0 -86 -41 -143t-117 -72q76 -14 117 -71.5t41 -145.5v-358q0 -80 32 -110.5t122 -30.5 q31 0 30 -29v-186q0 -12 -7 -20.5t-21 -8.5q-166 0 -263.5 42t-141.5 135t-44 251v325q0 39 -16 57.5t-51 18.5h-66q-12 0 -20.5 8.5t-8.5 20.5z" />
<glyph unicode="|" horiz-adv-x="464" d="M86 -297v1935q0 12 7 20.5t22 8.5h235q15 0 22 -8t7 -21v-1935q0 -29 -29 -29h-235q-29 0 -29 29z" />
<glyph unicode="}" horiz-adv-x="655" d="M-2 -176q0 29 31 29q88 0 119.5 30.5t31.5 110.5v358q0 86 41 144.5t117 72.5q-76 14 -117 71.5t-41 143.5v359q0 78 -30.5 109.5t-120.5 31.5q-31 0 -31 29v186q0 12 7 20.5t22 8.5q164 0 261 -42t142 -134t45 -252v-324q0 -41 15.5 -59.5t52.5 -18.5h65q27 0 27 -28 v-203q0 -12 -7 -20.5t-20 -8.5h-65q-37 0 -52.5 -17.5t-15.5 -58.5v-325q0 -158 -44 -251t-141 -135t-263 -42q-15 0 -22 8t-7 21v186z" />
<glyph unicode="~" horiz-adv-x="1228" d="M164 483v215q0 8 2 13.5t8 7.5q63 27 116.5 42t139.5 15q57 0 99 -8t96 -25q47 -14 86 -22t92 -8q82 0 155.5 21.5t83.5 23.5l9 2q14 0 14 -19v-215q0 -18 -14 -24q-53 -23 -110.5 -38t-141.5 -15q-58 0 -99 8t-92 24t-90 24.5t-92 8.5q-80 0 -153.5 -21.5t-86.5 -25.5 l-8 -2q-14 0 -14 18z" />
<glyph unicode="&#xa2;" d="M147 510v203q0 174 89.5 281.5t257.5 138.5v147q0 20 20 20h244q20 0 20 -20v-150q160 -35 243 -137t73 -237q0 -14 -8.5 -24.5t-20.5 -10.5h-250q-10 0 -18.5 8t-8.5 21q0 59 -39.5 88.5t-111.5 29.5q-84 0 -123 -43t-39 -143v-139q0 -100 39 -143.5t121 -43.5 q76 0 113.5 31t37.5 88q0 12 8.5 20.5t18.5 8.5h250q12 0 20.5 -8.5t8.5 -20.5q10 -152 -70 -252t-244 -133v-145q0 -20 -20 -21h-244q-20 0 -20 21v145q-168 31 -257.5 138.5t-89.5 281.5z" />
<glyph unicode="&#xa3;" d="M115 561v197q0 12 8 20t20 8h119v172q0 205 107.5 306.5t332.5 101.5q463 0 443 -397q-2 -20 -9.5 -28.5t-23.5 -8.5h-240q-29 0 -26 33q4 66 -25.5 98.5t-101.5 32.5t-102.5 -39t-30.5 -127v-144h274q14 0 21.5 -8t7.5 -20v-197q0 -12 -7.5 -20.5t-21.5 -8.5h-274v-28 q0 -76 -17.5 -129t-56.5 -94h627q14 0 21 -8.5t7 -20.5v-223q0 -12 -7 -20.5t-21 -8.5h-942q-12 0 -20.5 8t-8.5 21v184q0 20 14 37q80 94 80 223v59h-119q-12 0 -20 8.5t-8 20.5z" />
<glyph unicode="&#xa5;" d="M39 1321q0 8 7 14t17 6h314q27 0 33 -20l129 -336l51 -135l31 -78h4l47 125l30 86l134 338q10 20 32 20h310q16 0 22 -10t-2 -24l-315 -654h127q12 0 20 -8t8 -20v-136q0 -12 -8 -20t-20 -8h-219v-96h219q12 0 20 -8.5t8 -20.5v-135q0 -12 -8 -20.5t-20 -8.5h-219v-143 q0 -12 -8.5 -20.5t-20.5 -8.5h-281q-14 0 -21 8t-7 21v143h-222q-12 0 -20 8t-8 21v135q0 12 8 20.5t20 8.5h222v96h-222q-12 0 -20 8t-8 20v136q0 12 8 20t20 8h129l-317 654q-4 12 -4 14z" />
<glyph unicode="&#xa8;" horiz-adv-x="872" d="M61 1264v47q0 68 42 103.5t116 35.5q78 0 118.5 -36t40.5 -103v-47q0 -66 -42 -103t-117 -37q-74 0 -116 37t-42 103zM493 1264v47q0 68 42 103.5t116 35.5q78 0 119 -36t41 -103v-47q0 -66 -42 -103t-118 -37q-74 0 -116 37t-42 103z" />
<glyph unicode="&#xa9;" horiz-adv-x="1417" d="M96 522v193q0 254 149.5 400.5t463.5 146.5q313 0 462.5 -146.5t149.5 -400.5v-193q0 -254 -149.5 -400.5t-462.5 -146.5q-314 0 -463.5 146.5t-149.5 400.5zM315 512q0 -160 98.5 -245t295.5 -85q196 0 294.5 85t98.5 245v213q0 160 -98.5 245t-294.5 85 q-197 0 -295.5 -85t-98.5 -245v-213zM426 551v135q0 137 72.5 206t212.5 69q133 0 206.5 -65t73.5 -187q0 -16 -5 -23.5t-19 -7.5h-142q-25 0 -22 22q4 39 -19.5 62.5t-72.5 23.5q-51 0 -75 -27.5t-24 -86.5v-107q0 -59 23.5 -86.5t75.5 -27.5q92 0 92 81q0 27 24 27h140 q25 0 24 -27q0 -125 -71.5 -190.5t-208.5 -65.5q-138 0 -211.5 69t-73.5 206z" />
<glyph unicode="&#xab;" horiz-adv-x="1091" d="M68 543q0 10 6 18l194 330q12 20 35 20h254q16 0 23.5 -10t-0.5 -24l-187 -334l185 -338q4 -12 4 -17q0 -16 -25 -16h-254q-23 0 -35 18l-194 332q-6 12 -6 21zM500 543q0 10 6 18l194 330q12 20 35 20h254q16 0 23.5 -10t-0.5 -24l-187 -334l185 -338q4 -12 4 -17 q0 -16 -25 -16h-254q-23 0 -35 18l-194 332q-6 12 -6 21z" />
<glyph unicode="&#xad;" horiz-adv-x="983" d="M94 449v194q0 12 8.5 20.5t20.5 8.5h735q14 0 21.5 -8.5t7.5 -20.5v-194q0 -12 -7.5 -20.5t-21.5 -8.5h-735q-12 0 -20.5 8t-8.5 21z" />
<glyph unicode="&#xae;" horiz-adv-x="1159" d="M115 993v78q0 182 119.5 281.5t345.5 99.5q225 0 344.5 -99.5t119.5 -281.5v-78q0 -182 -119.5 -281.5t-344.5 -99.5q-226 0 -345.5 99.5t-119.5 281.5zM264 993q0 -125 80 -183t236 -58q155 0 235 58t80 183v78q0 127 -80 184.5t-235 57.5q-156 0 -236 -57.5t-80 -184.5 v-78zM418 844v387q0 18 20 18h135q98 0 144.5 -32.5t46.5 -102.5q0 -47 -18.5 -75.5t-59.5 -49.5l82 -143q2 -4 2 -10q0 -10 -12 -11h-101q-16 0 -22 13l-66 127h-32v-121q0 -8 -5.5 -13.5t-13.5 -5.5h-82q-8 0 -13 5.5t-5 13.5zM537 1055h38q35 0 50.5 11t15.5 36v10 q0 47 -66 47h-38v-104z" />
<glyph unicode="&#xb4;" horiz-adv-x="561" d="M61 1141l4 16l144 262q12 20 33 21h231q25 -1 25 -19q0 -6 -7 -16l-200 -266q-14 -16 -35 -17h-172q-10 0 -16.5 5.5t-6.5 13.5z" />
<glyph unicode="&#xb8;" horiz-adv-x="522" d="M61 -258q0 27 27 27q12 0 23.5 -2.5t23.5 -2.5q41 0 62.5 12.5t21.5 30.5v13q0 25 -16.5 34t-53.5 9h-26q-12 0 -20.5 5t-8.5 13q0 18 6 37l55 166q6 23 33 22h148q32 1 24 -30l-47 -135h21q51 0 89 -38t38 -89v-37q0 -180 -267 -180q-37 0 -106 8q-27 4 -27 30v107z" />
<glyph unicode="&#xbb;" horiz-adv-x="1093" d="M76 188q0 8 6 17l184 338l-186 334q-4 12 -4 14q0 8 7 14t17 6h256q25 0 33 -20l197 -330q6 -8 6 -18q0 -8 -6 -21l-197 -332q-8 -18 -33 -18h-256q-24 0 -24 16zM508 188q0 8 6 17l184 338l-186 334q-4 12 -4 14q0 8 7 14t17 6h256q25 0 33 -20l197 -330q6 -8 6 -18 q0 -8 -6 -21l-197 -332q-8 -18 -33 -18h-256q-24 0 -24 16z" />
<glyph unicode="&#x2c6;" horiz-adv-x="698" d="M61 1122v154q0 23 19 35l249 147q9 8 19 8t20 -8l248 -147q20 -12 21 -35v-154q0 -16 -10.5 -22t-24.5 2l-254 127l-252 -127q-12 -4 -14 -4q-8 0 -14.5 7t-6.5 17z" />
<glyph unicode="&#x2da;" horiz-adv-x="671" d="M62 1329q0 117 71.5 180.5t202.5 63.5t203 -62.5t72 -181.5q0 -117 -72 -180.5t-203 -63.5t-202.5 63.5t-71.5 180.5zM266 1335q0 -39 18.5 -60.5t51.5 -21.5t51.5 21.5t18.5 60.5q0 37 -18.5 58.5t-51.5 21.5t-51.5 -21.5t-18.5 -58.5z" />
<glyph unicode="&#x2dc;" horiz-adv-x="698" d="M61 1178v147q0 20 16 35q80 61 160 61q41 0 71 -9t66 -28q53 -27 88 -26q53 0 140 43q8 6 16 6q18 0 19 -25v-147q0 -25 -17 -35q-82 -63 -162 -63q-30 0 -57 8t-59 24q-33 14 -56.5 22.5t-52.5 8.5t-60.5 -11t-76.5 -32q-12 -4 -16 -4q-18 0 -19 25z" />
<glyph unicode="&#x401;" horiz-adv-x="1124" d="M121 29v1284q0 12 8 20t21 8h851q10 0 18.5 -8t8.5 -20v-236q0 -12 -8 -20t-19 -8h-542v-236h493q10 0 18.5 -8t8.5 -21v-219q0 -12 -8 -20t-19 -8h-493v-244h542q10 0 18.5 -8.5t8.5 -20.5v-235q0 -12 -8 -20.5t-19 -8.5h-851q-13 0 -21 8t-8 21zM211 1587v47 q0 68 42 105t116 37q78 0 118.5 -36t40.5 -106v-47q0 -68 -40.5 -103.5t-118.5 -35.5q-74 0 -116 37t-42 102zM641 1587v47q0 68 42 105t118 37q78 0 119 -36t41 -106v-47q0 -66 -42 -102.5t-118 -36.5q-74 0 -117 37t-43 102z" />
<glyph unicode="&#x402;" horiz-adv-x="1513" d="M41 1077v236q0 12 8 20t21 8h1015q12 0 19.5 -8t7.5 -20v-236q0 -12 -7 -20t-20 -8h-344v-308q74 63 171.5 102.5t199.5 39.5q152 0 226.5 -83t74.5 -255v-119q0 -197 -103.5 -311.5t-305.5 -139.5h-9q-25 0 -32 21l-70 223q-2 4 -2 10q0 23 27 29q82 16 120.5 55 t38.5 111v49q0 61 -25.5 90t-78.5 29q-59 0 -119.5 -31t-112.5 -80v-452q0 -12 -7 -20.5t-21 -8.5h-281q-14 0 -21.5 8t-7.5 21v1020h-333q-12 0 -20.5 8t-8.5 20z" />
<glyph unicode="&#x403;" horiz-adv-x="987" d="M121 29v1284q0 12 8 20t21 8h768q14 0 21 -8t7 -20v-236q0 -12 -7 -20t-21 -8h-459v-1020q0 -12 -8.5 -20.5t-20.5 -8.5h-283q-12 0 -19 8t-7 21zM401 1466l4 17l140 252q8 20 33 20h233q25 0 25 -16q0 -8 -9 -17l-196 -258q-10 -16 -33 -16h-174q-10 0 -16.5 5t-6.5 13z " />
<glyph unicode="&#x404;" horiz-adv-x="1302" d="M96 498v344q0 264 142.5 394t408.5 130q264 0 411.5 -103.5t147.5 -281.5q0 -16 -4 -53q-4 -33 -28 -33l-281 2q-27 0 -27 35q0 70 -54 106.5t-161 36.5q-115 0 -166 -47t-51 -160v-55h336q10 0 18.5 -8t8.5 -21v-219q0 -29 -27 -28h-336v-52q0 -119 51.5 -169t169.5 -50 q106 0 160.5 45t54.5 103q0 18 6.5 25t20.5 7l281 3q27 0 28 -35l2 -37q0 -182 -142 -292t-398 -110q-572 1 -572 523z" />
<glyph unicode="&#x405;" horiz-adv-x="1179" d="M63 340q0 37 3 57q2 31 30 31l275 -4q29 0 26 -29q-6 -133 187 -133q96 0 140 24.5t44 78.5q0 35 -26.5 60.5t-94.5 53.5l-293 129q-152 66 -213 152t-61 223q0 184 122 283.5t363 99.5q254 0 384 -91t130 -274q0 -29 -2 -45q-4 -35 -28 -34h-275q-31 0 -26 34 q4 57 -43.5 93t-131.5 36q-156 0 -155 -100q0 -37 26.5 -63.5t96.5 -55.5l290 -125q152 -66 213.5 -151.5t61.5 -224.5q0 -195 -128 -292.5t-405 -97.5q-258 0 -384 90.5t-126 274.5z" />
<glyph unicode="&#x406;" horiz-adv-x="579" d="M121 29v1284q0 12 8 20t21 8h280q12 0 20.5 -8t8.5 -20v-1284q0 -12 -8.5 -20.5t-20.5 -8.5h-280q-13 0 -21 8t-8 21z" />
<glyph unicode="&#x407;" horiz-adv-x="579" d="M-82 1587v47q0 68 42 105t116 37q78 0 118.5 -36t40.5 -106v-47q0 -68 -40.5 -103.5t-118.5 -35.5q-74 0 -116 37t-42 102zM121 29v1284q0 12 8 20t21 8h280q12 0 20.5 -8t8.5 -20v-1284q0 -12 -8.5 -20.5t-20.5 -8.5h-280q-13 0 -21 8t-8 21zM348 1587v47q0 68 42 105 t118 37q78 0 119 -36t41 -106v-47q0 -66 -42 -102.5t-118 -36.5q-74 0 -117 37t-43 102z" />
<glyph unicode="&#x408;" horiz-adv-x="600" d="M-37 -88q0 23 29 29q150 33 149 276v1096q0 12 8.5 20t20.5 8h281q12 0 20 -8t8 -20v-1071q0 -266 -99 -409.5t-302 -174.5h-8q-27 0 -33 20l-72 224q-2 4 -2 10z" />
<glyph unicode="&#x409;" horiz-adv-x="1882" d="M-6 33l416 1286q8 23 32 22h365q25 0 33 -22l131 -401h309q270 0 406.5 -116t136.5 -335q0 -231 -132 -349t-415 -118h-350q-23 0 -31 23l-199 737q-16 61 -57 233l-14 64h-7q-35 -170 -69 -299l-195 -733q-6 -25 -32 -25h-306q-32 0 -22 33zM1059 639l110 -350h107 q106 0 157.5 42t51.5 134q0 94 -52.5 134t-156.5 40h-217z" />
<glyph unicode="&#x40a;" horiz-adv-x="2015" d="M121 29v1284q0 12 8 20t21 8h282q10 0 18.5 -8t8.5 -20v-484h467v484q0 12 8 20t20 8h281q12 0 20.5 -8t8.5 -20v-412h153q269 0 404 -113.5t135 -326.5q0 -227 -132 -344t-413 -117h-457q-12 0 -20 8t-8 21v510h-467v-510q0 -12 -8.5 -20.5t-18.5 -8.5h-282 q-12 0 -20.5 8t-8.5 21zM1266 289h143q107 0 159 41t52 129t-53.5 127t-157.5 39h-143v-336z" />
<glyph unicode="&#x40b;" horiz-adv-x="1513" d="M41 1077v236q0 12 8 20t21 8h1015q12 0 19.5 -8t7.5 -20v-236q0 -12 -7 -20t-20 -8h-344v-308q164 141 365 142q156 0 231.5 -83t75.5 -255v-516q0 -12 -8 -20.5t-21 -8.5h-278q-12 0 -20.5 8t-8.5 21v428q0 135 -110 135q-55 0 -114.5 -31t-111.5 -80v-452 q0 -12 -7 -20.5t-21 -8.5h-281q-14 0 -21.5 8t-7.5 21v1020h-333q-12 0 -20.5 8t-8.5 20z" />
<glyph unicode="&#x40c;" d="M121 29v1284q0 12 8 20t21 8h280q12 0 20.5 -8t8.5 -20v-510h102l309 522q4 8 14.5 12t20.5 4h322q23 0 22 -16q0 -8 -6 -18l-391 -609l440 -663q6 -8 6 -17q0 -18 -24 -18h-342q-23 0 -35 18l-328 498h-110v-487q0 -12 -8.5 -20.5t-20.5 -8.5h-280q-13 0 -21 8t-8 21z M508 1466l4 17l140 252q8 20 33 20h233q25 0 25 -16q0 -8 -9 -17l-196 -258q-10 -16 -33 -16h-174q-10 0 -16.5 5t-6.5 13z" />
<glyph unicode="&#x40d;" horiz-adv-x="1380" d="M121 29v1284q0 12 8 20t18 8h273q10 0 18 -8t8 -20v-469q-2 -174 -28 -398h6q61 164 174 361l301 514q14 20 33 20h299q12 0 20.5 -8t8.5 -20v-1284q0 -12 -8.5 -20.5t-20.5 -8.5h-268q-12 0 -20.5 8t-8.5 21v450q0 186 24 402h-8q-37 -90 -79 -167t-48 -89 q-25 -41 -35 -62l-309 -543q-10 -20 -30 -20h-302q-10 0 -18 8t-8 21zM387 1739q0 16 25 16h231q27 0 35 -20l139 -252q4 -12 5 -17q0 -18 -25 -18h-172q-20 0 -35 16l-194 258q-8 8 -9 17z" />
<glyph unicode="&#x40e;" horiz-adv-x="1241" d="M10 1321q0 8 7.5 14t17.5 6h313q25 0 33 -20l149 -326q51 -109 88 -235h7q37 117 94 239l153 322q10 20 33 20h307q16 0 22.5 -10t-1.5 -24l-649 -1287q-14 -20 -33 -20h-285q-16 0 -23 10t1 25l205 418l-435 854q-4 12 -4 14zM332 1589v168q0 23 14 23q10 0 21 -8 q55 -45 127 -78t145 -33q74 0 147.5 32.5t127.5 78.5q8 8 18 8q16 0 17 -23v-168q0 -20 -15 -37q-49 -43 -129 -77.5t-166 -34.5t-164.5 34.5t-126.5 77.5q-16 16 -16 37z" />
<glyph unicode="&#x40f;" horiz-adv-x="1378" d="M121 29v1284q0 12 8 20t21 8h282q10 0 18.5 -8t8.5 -20v-1014h463v1014q0 12 7 20t21 8h281q12 0 19 -8t7 -20v-1284q0 -12 -8 -20.5t-18 -8.5h-371v-264q0 -12 -9 -20.5t-20 -8.5h-280q-12 0 -20.5 8.5t-8.5 20.5v264h-372q-12 0 -20.5 8t-8.5 21z" />
<glyph unicode="&#x410;" horiz-adv-x="1271" d="M-6 33l426 1286q8 23 33 22h364q25 0 33 -22l428 -1286q2 -5 2 -13q0 -20 -25 -20h-307q-25 0 -33 23l-61 217h-440l-60 -215q-6 -25 -32 -25h-306q-33 0 -22 33zM485 504h295l-71 260q-43 145 -74 293h-4q-20 -98 -74 -295z" />
<glyph unicode="&#x411;" horiz-adv-x="1226" d="M121 29v1284q0 12 8 20t21 8h843q12 0 19.5 -8t7.5 -20v-236q0 -12 -7 -20t-20 -8h-534v-191h178q270 0 398 -101.5t128 -299.5q0 -229 -131 -343t-416 -114h-466q-12 0 -20.5 8t-8.5 21zM459 272h157q107 0 159 40t52 132q0 88 -50 125t-156 37h-162v-334z" />
<glyph unicode="&#x412;" horiz-adv-x="1243" d="M121 29v1284q0 12 8 20t21 8h458q514 0 514 -327q0 -121 -52 -193.5t-161 -109.5v-6q270 -51 271 -304q0 -145 -58.5 -232t-184.5 -128t-331 -41h-456q-13 0 -21 8t-8 21zM453 272h172q115 0 166 34t51 112q0 72 -52.5 105.5t-166.5 33.5h-170v-285zM453 801h153 q92 0 135 34.5t43 104.5q0 129 -190 129h-141v-268z" />
<glyph unicode="&#x413;" horiz-adv-x="987" d="M121 29v1284q0 12 8 20t21 8h768q14 0 21 -8t7 -20v-236q0 -12 -7 -20t-21 -8h-459v-1020q0 -12 -8.5 -20.5t-20.5 -8.5h-283q-12 0 -19 8t-7 21z" />
<glyph unicode="&#x414;" horiz-adv-x="1370" d="M0 -264v534q0 10 8 19.5t21 9.5h116l324 1020q8 23 33 22h364q25 0 33 -22l326 -1020h116q11 0 20 -9t9 -20v-534q0 -12 -9 -20.5t-20 -8.5h-270q-12 0 -20.5 8.5t-8.5 20.5v264h-714v-264q0 -12 -8.5 -20.5t-20.5 -8.5h-270q-12 0 -20.5 8.5t-8.5 20.5zM492 299h385 l-117 442q-31 117 -55 230l-21 86h-4l-76 -322z" />
<glyph unicode="&#x415;" horiz-adv-x="1124" d="M121 29v1284q0 12 8 20t21 8h851q10 0 18.5 -8t8.5 -20v-236q0 -12 -8 -20t-19 -8h-542v-236h493q10 0 18.5 -8t8.5 -21v-219q0 -12 -8 -20t-19 -8h-493v-244h542q10 0 18.5 -8.5t8.5 -20.5v-235q0 -12 -8 -20.5t-19 -8.5h-851q-13 0 -21 8t-8 21z" />
<glyph unicode="&#x416;" horiz-adv-x="1873" d="M29 18q0 8 6 17l340 661l-295 611q-6 10 -6 18q0 16 22 16h334q10 0 20.5 -5t12.5 -13l205 -526h108v516q0 12 7.5 20t21.5 8h264q12 0 20.5 -8t8.5 -20v-516h108l205 526q2 8 12.5 13t22.5 5h330q23 0 22 -18q0 -10 -4 -16l-297 -611l342 -661q4 -12 4 -15q0 -8 -7 -14 t-17 -6h-334q-25 0 -35 18l-236 504h-116v-493q0 -12 -8.5 -20.5t-20.5 -8.5h-264q-14 0 -21.5 8t-7.5 21v493h-119l-235 -504q-8 -18 -33 -18h-336q-24 0 -24 18z" />
<glyph unicode="&#x417;" horiz-adv-x="1228" d="M66 313q0 31 2 47q2 31 9 43.5t21 12.5h250q27 0 27 -19q0 -72 49 -106.5t158 -34.5q127 0 182 38t55 120q0 70 -45 100.5t-147 30.5h-213q-12 0 -19.5 8t-7.5 20v199q0 12 7 20.5t20 8.5h147q113 0 160 31.5t47 103.5q0 82 -46 119t-159 37q-186 0 -182 -121 q0 -33 -29 -33h-250q-16 0 -23 19.5t-7 70.5q0 168 129 253t383 85q264 0 393 -91t129 -274q0 -109 -51 -188.5t-150 -112.5v-4q123 -27 187.5 -106.5t64.5 -194.5q0 -205 -148.5 -312.5t-437.5 -107.5q-245 0 -375 86t-130 252z" />
<glyph unicode="&#x418;" horiz-adv-x="1380" d="M121 29v1284q0 12 8 20t18 8h273q10 0 18 -8t8 -20v-469q-2 -174 -28 -398h6q61 164 174 361l301 514q14 20 33 20h299q12 0 20.5 -8t8.5 -20v-1284q0 -12 -8.5 -20.5t-20.5 -8.5h-268q-12 0 -20.5 8t-8.5 21v450q0 186 24 402h-8q-37 -90 -79 -167t-48 -89 q-25 -41 -35 -62l-309 -543q-10 -20 -30 -20h-302q-10 0 -18 8t-8 21z" />
<glyph unicode="&#x419;" horiz-adv-x="1380" d="M121 29v1284q0 12 8 20t18 8h273q10 0 18 -8t8 -20v-469q-2 -174 -28 -398h6q61 164 174 361l301 514q14 20 33 20h299q12 0 20.5 -8t8.5 -20v-1284q0 -12 -8.5 -20.5t-20.5 -8.5h-268q-12 0 -20.5 8t-8.5 21v450q0 186 24 402h-8q-37 -90 -79 -167t-48 -89 q-25 -41 -35 -62l-309 -543q-10 -20 -30 -20h-302q-10 0 -18 8t-8 21zM401 1589v168q0 23 14 23q10 0 21 -8q55 -45 127 -78t145 -33q74 0 147.5 32.5t127.5 78.5q8 8 18 8q16 0 17 -23v-168q0 -20 -15 -37q-49 -43 -129 -77.5t-166 -34.5t-164.5 34.5t-126.5 77.5 q-16 16 -16 37z" />
<glyph unicode="&#x41a;" d="M121 29v1284q0 12 8 20t21 8h280q12 0 20.5 -8t8.5 -20v-510h102l309 522q4 8 14.5 12t20.5 4h322q23 0 22 -16q0 -8 -6 -18l-391 -609l440 -663q6 -8 6 -17q0 -18 -24 -18h-342q-23 0 -35 18l-328 498h-110v-487q0 -12 -8.5 -20.5t-20.5 -8.5h-280q-13 0 -21 8t-8 21z " />
<glyph unicode="&#x41b;" horiz-adv-x="1259" d="M-6 33l420 1286q8 23 32 22h365q25 0 33 -22l422 -1286q2 -4 2 -13q0 -20 -25 -20h-307q-25 0 -33 23l-203 741q-23 86 -71 293h-4l-17 -74q-33 -147 -53 -221l-201 -737q-6 -25 -32 -25h-306q-32 0 -22 33z" />
<glyph unicode="&#x41c;" horiz-adv-x="1650" d="M94 29l29 1284q0 29 27 28h325q23 0 31 -20l319 -672l320 672q12 20 33 20h323q12 0 20.5 -7t8.5 -21l26 -1284q0 -12 -8 -20.5t-18 -8.5h-275q-29 0 -28 29l-13 458q-2 127 11 361h-8q-90 -209 -162 -346l-189 -365q-10 -20 -35 -20h-12q-25 0 -33 20l-190 367 q-63 123 -160 344h-8q12 -233 10 -361l-12 -458q0 -29 -29 -29h-274q-12 0 -20.5 8t-8.5 21z" />
<glyph unicode="&#x41d;" horiz-adv-x="1386" d="M121 29v1284q0 12 8 20t21 8h282q10 0 18.5 -8t8.5 -20v-494h469v494q0 12 8 20t20 8h281q12 0 20.5 -8t8.5 -20v-1284q0 -12 -8.5 -20.5t-20.5 -8.5h-281q-12 0 -20 8t-8 21v499h-469v-499q0 -12 -8.5 -20.5t-18.5 -8.5h-282q-13 0 -21 8t-8 21z" />
<glyph unicode="&#x41e;" horiz-adv-x="1357" d="M96 510v321q0 264 147.5 399.5t434.5 135.5t435.5 -135t148.5 -400v-321q0 -264 -148.5 -399.5t-435.5 -135.5t-434.5 135.5t-147.5 399.5zM434 532q0 -129 61.5 -195.5t182.5 -66.5q246 0 246 262v277q0 262 -246 262q-121 0 -182.5 -66.5t-61.5 -195.5v-277z" />
<glyph unicode="&#x41f;" horiz-adv-x="1378" d="M121 29v1284q0 12 8 20t21 8h1081q12 0 19 -8t7 -20v-1284q0 -12 -7 -20.5t-19 -8.5h-281q-14 0 -21 8t-7 21v1020h-463v-1020q0 -12 -8.5 -20.5t-18.5 -8.5h-282q-13 0 -21 8t-8 21z" />
<glyph unicode="&#x420;" horiz-adv-x="1179" d="M121 29v1284q0 12 8 20t21 8h430q283 0 413.5 -115.5t130.5 -346.5q0 -221 -136 -339t-406 -118h-123v-393q0 -12 -8.5 -20.5t-20.5 -8.5h-280q-13 0 -21 8t-8 21zM459 709h119q104 0 156 39.5t52 130.5q0 92 -50 133t-158 41h-119v-344z" />
<glyph unicode="&#x421;" horiz-adv-x="1345" d="M96 512v313q0 270 150.5 405.5t427.5 135.5q274 0 425.5 -121t151.5 -325q0 -35 -2 -54q-4 -29 -28 -28l-283 2q-14 0 -20.5 9t-6.5 28q0 92 -57 145t-176 53q-244 0 -244 -262v-285q0 -262 244 -262q125 0 181 56.5t52 148.5q0 31 27 31l281 2q27 0 30 -29q2 -16 2 -49 q0 -209 -152.5 -330t-424.5 -121q-277 0 -427.5 134.5t-150.5 402.5z" />
<glyph unicode="&#x422;" horiz-adv-x="1144" d="M41 1077v236q0 12 8 20t21 8h1007q13 0 20 -8t7 -20v-236q0 -12 -7 -20t-20 -8h-336v-1020q0 -12 -7 -20.5t-21 -8.5h-281q-14 0 -21.5 8t-7.5 21v1020h-333q-12 0 -20.5 8t-8.5 20z" />
<glyph unicode="&#x423;" horiz-adv-x="1241" d="M10 1321q0 8 7.5 14t17.5 6h313q25 0 33 -20l149 -326q51 -109 88 -235h7q37 117 94 239l153 322q10 20 33 20h307q16 0 22.5 -10t-1.5 -24l-649 -1287q-14 -20 -33 -20h-285q-16 0 -23 10t1 25l205 418l-435 854q-4 12 -4 14z" />
<glyph unicode="&#x424;" horiz-adv-x="1753" d="M96 516v307q0 250 157 387.5t456 153.5v109q0 29 28 28h279q29 0 28 -28v-109q299 -16 456 -153.5t157 -387.5v-307q0 -248 -157 -385t-456 -154v-108q0 -29 -28 -29h-279q-29 0 -28 29v108q-297 16 -455 153.5t-158 385.5zM422 553q0 -139 71.5 -208t225.5 -79v807 q-154 -8 -225.5 -76.5t-71.5 -208.5v-235zM1034 266q154 10 225.5 79t71.5 208v235q0 139 -71.5 208t-225.5 77v-807z" />
<glyph unicode="&#x425;" horiz-adv-x="1249" d="M2 18q0 8 6 17l426 651l-401 621q-6 10 -6 18q0 16 24 16h330q23 0 33 -18l133 -225q45 -84 80 -166h6q51 113 86 172l129 219q8 18 31 18h323q23 0 23 -16q0 -8 -6 -18l-398 -621l420 -651q6 -8 6 -17q0 -18 -24 -18h-332q-23 0 -35 18l-141 242q-49 88 -88 178h-6 q-35 -82 -89 -174l-147 -246q-8 -18 -33 -18h-325q-25 0 -25 18z" />
<glyph unicode="&#x426;" horiz-adv-x="1411" d="M121 29v1284q0 12 8 20t21 8h282q10 0 18.5 -8t8.5 -20v-1014h454v1014q0 12 8.5 20t20.5 8h281q14 0 21 -8t7 -20v-1014h121q10 0 19.5 -9t9.5 -20v-534q0 -12 -9.5 -20.5t-19.5 -8.5h-270q-12 0 -20.5 8.5t-8.5 20.5v264h-923q-12 0 -20.5 8t-8.5 21z" />
<glyph unicode="&#x427;" horiz-adv-x="1325" d="M100 784v529q0 12 8.5 20t20.5 8h283q10 0 18 -8t8 -20v-473q0 -102 42 -139t128 -37q61 0 131 22.5t127 61.5v565q0 12 7.5 20t21.5 8h281q12 0 20 -8t8 -20v-1284q0 -12 -8 -20.5t-20 -8.5h-281q-14 0 -21.5 8t-7.5 21v450q-74 -47 -177 -77.5t-200 -30.5 q-193 0 -291 97t-98 316z" />
<glyph unicode="&#x428;" horiz-adv-x="1875" d="M121 29v1284q0 12 8 20t21 8h280q12 0 20.5 -8t8.5 -20v-1014h311v1014q0 12 8 20t21 8h278q14 0 21.5 -8t7.5 -20v-1014h311v1014q0 12 7.5 20t19.5 8h282q13 0 21 -8t8 -20v-1284q0 -12 -8 -20.5t-21 -8.5h-1576q-12 0 -20.5 8t-8.5 21z" />
<glyph unicode="&#x429;" horiz-adv-x="1910" d="M121 29v1284q0 12 8 20t21 8h280q12 0 20.5 -8t8.5 -20v-1014h309v1014q0 12 8 20t21 8h280q12 0 20.5 -8t8.5 -20v-1014h309v1016q0 10 7.5 18t19.5 8h280q14 0 21.5 -8t7.5 -20v-1014h121q10 0 19.5 -9t9.5 -20v-534q0 -12 -9.5 -20.5t-19.5 -8.5h-270q-13 0 -21 8.5 t-8 20.5v264h-1423q-12 0 -20.5 8t-8.5 21z" />
<glyph unicode="&#x42a;" horiz-adv-x="1409" d="M41 1077v236q0 12 8 20t21 8h559q12 0 20 -8t8 -20v-400h160q266 0 399.5 -114.5t133.5 -331.5q0 -233 -131.5 -350t-413.5 -117h-457q-12 0 -20.5 8t-8.5 21v1020h-249q-12 0 -20.5 8t-8.5 20zM657 289h146q106 0 158.5 42t52.5 134q0 94 -52.5 134t-158.5 40h-146v-350 z" />
<glyph unicode="&#x42b;" horiz-adv-x="1789" d="M121 29v1284q0 12 8 20t21 8h280q12 0 20.5 -8t8.5 -20v-400h159q266 0 399.5 -114.5t133.5 -331.5q0 -231 -132 -349t-415 -118h-454q-13 0 -21 8t-8 21zM459 289h145q106 0 157.5 42t51.5 134q0 94 -52 134t-157 40h-145v-350zM1331 29v1284q0 12 8 20t21 8h280 q12 0 20.5 -8t8.5 -20v-1284q0 -12 -8.5 -20.5t-20.5 -8.5h-280q-13 0 -21 8t-8 21z" />
<glyph unicode="&#x42c;" horiz-adv-x="1210" d="M121 29v1284q0 12 8 20t21 8h280q12 0 20.5 -8t8.5 -20v-400h159q266 0 399.5 -114.5t133.5 -331.5q0 -231 -132 -349t-415 -118h-454q-13 0 -21 8t-8 21zM459 289h145q106 0 157.5 42t51.5 134q0 94 -52 134t-157 40h-145v-350z" />
<glyph unicode="&#x42d;" horiz-adv-x="1302" d="M92 377l2 37q2 35 29 35l283 -3q27 0 26 -32q0 -57 54.5 -102.5t160.5 -45.5q117 0 169 50.5t52 168.5v52h-336q-27 0 -26 28v219q0 12 7 20.5t19 8.5h336v55q0 113 -50 160t-165 47q-104 0 -160.5 -38t-56.5 -105q0 -35 -26 -35l-283 -2q-25 0 -29 33q-8 133 56.5 232.5 t194.5 152.5t317 53q264 0 402 -129t138 -395v-344q0 -264 -148.5 -393.5t-428.5 -129.5q-254 0 -395.5 110t-141.5 292z" />
<glyph unicode="&#x42e;" horiz-adv-x="1841" d="M121 29v1284q0 12 8 20t21 8h282q10 0 18.5 -8t8.5 -20v-488h164v6q0 262 144 398.5t417 136.5q272 0 416.5 -136t144.5 -399v-321q0 -262 -144.5 -398.5t-416.5 -136.5t-416.5 136.5t-144.5 398.5v27h-164v-508q0 -12 -8.5 -20.5t-18.5 -8.5h-282q-12 0 -20.5 8t-8.5 21 zM961 528q0 -262 223 -262t223 262v285q0 262 -223 262t-223 -262v-285z" />
<glyph unicode="&#x42f;" horiz-adv-x="1261" d="M23 18q0 4 4 17l221 346q61 96 106 156v4q-123 39 -186.5 132t-63.5 226q0 219 126 330.5t405 111.5h477q12 0 20.5 -8t8.5 -20v-1284q0 -12 -8.5 -20.5t-20.5 -8.5h-272q-12 0 -20.5 8t-8.5 21v460h-137l-279 -471q-12 -18 -35 -18h-313q-24 0 -24 18zM442 897 q0 -78 48.5 -110.5t152.5 -32.5h168v301h-180q-100 0 -144.5 -38t-44.5 -120z" />
<glyph unicode="&#x430;" horiz-adv-x="1060" d="M53 264q0 109 40 174.5t131 102.5t251 53l158 16v76q0 68 -25.5 94.5t-91.5 26.5q-123 0 -113 -96q0 -12 -7 -20.5t-21 -8.5h-248q-27 0 -31 31q-12 162 97.5 245.5t334.5 83.5q227 0 330 -87t103 -283v-408q0 -139 10 -233v-4q0 -27 -27 -27h-233q-25 0 -29 25l-12 73 l-8 49q-84 -84 -163 -128t-182 -44q-127 0 -195.5 76t-68.5 213zM367 305q0 -47 19.5 -69.5t59.5 -22.5q48 0 92 23.5t95 76.5v131l-109 -12q-88 -10 -122.5 -36.5t-34.5 -90.5z" />
<glyph unicode="&#x431;" horiz-adv-x="1130" d="M92 412v407q0 180 51.5 285.5t165.5 173.5q45 27 100.5 43t155.5 41q109 25 175.5 46.5t117.5 55.5q4 4 14 4q18 0 21 -18l63 -215q2 -4 2 -14q0 -14 -12 -25q-49 -35 -109.5 -52.5t-150.5 -33.5q-10 -2 -63.5 -11t-90.5 -26q-70 -31 -93 -83t-23 -136v-47q57 57 137 96 t166 39q155 0 242.5 -95t87.5 -284v-151q0 -209 -128 -323t-354 -114q-231 0 -353 113t-122 324zM416 440q0 -98 36.5 -141t112.5 -43q80 0 118 44t38 140v82q0 84 -29.5 121t-97.5 37q-88 0 -178 -90v-150z" />
<glyph unicode="&#x432;" horiz-adv-x="1124" d="M90 399v572q0 219 107.5 335.5t345.5 116.5q215 0 326.5 -81.5t111.5 -235.5q0 -213 -162 -307v-4q109 -18 167 -93t58 -190v-84q0 -219 -128 -336t-361 -117q-227 0 -346 106.5t-119 317.5zM412 424q0 -88 35.5 -131t117.5 -43q78 0 117 48t39 130v80q0 70 -33 101.5 t-100 31.5q-68 0 -176 -33v-184zM412 815l84 16q78 16 120.5 65.5t42.5 131.5q0 68 -27.5 98.5t-88.5 30.5q-66 0 -98.5 -38t-32.5 -122v-182z" />
<glyph unicode="&#x433;" horiz-adv-x="1011" d="M63 264q0 106 48.5 178t150.5 115l232 96q57 25 80.5 44.5t23.5 47.5q0 33 -23.5 48.5t-82.5 15.5t-87 -17.5t-28 -56.5q0 -31 -27 -30h-239q-27 0 -31 30q-2 12 -2 35q0 129 107.5 200.5t316.5 71.5q424 0 424 -278q0 -111 -49.5 -175.5t-151.5 -107.5l-229 -98 q-59 -25 -82 -48.5t-23 -60.5q0 -39 29 -52t94 -13q68 0 98.5 22.5t30.5 69.5q0 18 6 25.5t21 7.5h237q14 0 21.5 -6t9.5 -23q2 -16 2 -47q0 -145 -106.5 -214t-344.5 -69q-223 0 -324.5 68t-101.5 221z" />
<glyph unicode="&#x434;" horiz-adv-x="1122" d="M78 369v258q0 215 109.5 315t342.5 100q113 0 297 -24q127 -16 195 -21v-962q0 -231 -121 -334.5t-356 -103.5q-219 0 -327.5 63.5t-108.5 200.5q0 27 2 41q4 31 30 30h248q27 0 27 -28q0 -37 34.5 -54.5t96.5 -17.5q84 0 115.5 38t31.5 116v65q0 70 4 105h-4 q-143 -123 -323 -123q-150 0 -221.5 81t-71.5 255zM406 446q0 -72 25.5 -104.5t82.5 -32.5q82 0 180 74v381q-76 14 -143 14q-76 0 -110.5 -44t-34.5 -134v-154z" />
<glyph unicode="&#x435;" horiz-adv-x="1112" d="M78 389v217q0 217 117.5 326.5t361.5 109.5q238 0 358.5 -105.5t120.5 -313.5v-160q0 -12 -7 -20.5t-21 -8.5h-609v-59q0 -78 38 -118t120 -40q66 0 103.5 21.5t37.5 62.5q0 25 29 25h260q29 0 29 -27q2 -166 -108.5 -245t-344.5 -79q-250 0 -367.5 102.5t-117.5 311.5z M399 614h318v9q-2 94 -38 135t-118 41q-86 0 -124 -42t-38 -134v-9z" />
<glyph unicode="&#x436;" horiz-adv-x="1642" d="M20 18q0 4 5 17l272 508l-244 442l-4 16q0 16 23 17h313q29 0 35 -17l153 -344h89v713q0 12 7 20.5t21 8.5h264q12 0 20.5 -8.5t8.5 -20.5v-713h88l154 344q6 16 32 17h316q23 0 22 -14q0 -8 -6 -19l-243 -442l272 -508q6 -9 6 -17q0 -18 -25 -18h-317q-23 0 -33 16 l-180 383h-86v-370q0 -12 -8 -20.5t-21 -8.5h-264q-14 0 -21 8t-7 21v370h-89l-180 -383q-10 -16 -35 -16h-315q-23 0 -23 18z" />
<glyph unicode="&#x437;" horiz-adv-x="1026" d="M53 -100q0 20 4 69q2 14 10.5 22.5t20.5 8.5h244q14 0 22 -9t6 -24q-6 -66 26 -100.5t93 -34.5q82 0 120 41t38 133v64q0 152 -186 151h-183q-10 0 -19 8.5t-9 20.5v201q0 10 9 19t19 9h156q178 0 178 152v51q0 68 -28.5 97.5t-96.5 29.5q-57 0 -84.5 -25.5t-23.5 -72.5 v-4q0 -10 -8.5 -17.5t-18.5 -7.5h-246q-27 0 -30 33q-2 16 -3 45q0 143 113 212.5t316 69.5q217 0 326.5 -80.5t109.5 -250.5v-47q0 -100 -50.5 -180.5t-142.5 -114.5v-4q111 -18 170.5 -92t59.5 -187v-70q0 -420 -478 -419q-213 0 -323.5 70.5t-110.5 232.5z" />
<glyph unicode="&#x438;" horiz-adv-x="1128" d="M100 309v682q0 12 8.5 19.5t20.5 7.5h270q12 0 20.5 -7t8.5 -20v-606q0 -129 92 -129q82 0 180 88v647q0 27 29 27h270q12 0 20.5 -7t8.5 -20v-727q0 -115 10 -233v-4q0 -27 -26 -27h-232q-14 0 -21 5t-9 20q-8 37 -21 122q-82 -80 -162 -126t-184 -46q-143 0 -213 82 t-70 252z" />
<glyph unicode="&#x439;" horiz-adv-x="1128" d="M100 309v682q0 12 8.5 19.5t20.5 7.5h270q12 0 20.5 -7t8.5 -20v-606q0 -129 92 -129q82 0 180 88v647q0 27 29 27h270q12 0 20.5 -7t8.5 -20v-727q0 -115 10 -233v-4q0 -27 -26 -27h-232q-14 0 -21 5t-9 20q-8 37 -21 122q-82 -80 -162 -126t-184 -46q-143 0 -213 82 t-70 252zM278 1278v167q0 23 15 23q10 0 18 -8q49 -43 113.5 -74t138.5 -31t140.5 30t111.5 75q10 10 18 10q14 0 15 -25v-167q0 -25 -13 -35q-127 -106 -272 -107q-90 0 -162 35t-115 78q-8 8 -8 29z" />
<glyph unicode="&#x43a;" horiz-adv-x="1122" d="M100 29v1341q0 12 8.5 20.5t20.5 8.5h270q12 0 20.5 -8.5t8.5 -20.5v-708h90l207 339q10 16 33 17h311q23 0 23 -17q0 -6 -7 -16l-290 -444l319 -506q4 -7 4 -17q0 -18 -22 -18h-322q-23 0 -35 16l-229 377h-82v-364q0 -12 -8 -20.5t-21 -8.5h-270q-12 0 -20.5 8t-8.5 21 z" />
<glyph unicode="&#x43b;" horiz-adv-x="1046" d="M4 33l334 960q8 25 35 25h301q25 0 35 -25l333 -960q2 -4 2 -13q0 -20 -24 -20h-297q-27 0 -33 25l-110 415l-17 66q-31 113 -43 184h-6q-16 -104 -53 -246l-111 -419q-6 -25 -31 -25h-292q-15 0 -21 9t-2 24z" />
<glyph unicode="&#x43c;" horiz-adv-x="1339" d="M88 29l21 962q0 27 28 27h266q20 0 33 -21l234 -471l233 471q12 20 33 21h266q12 0 20.5 -7t8.5 -20l20 -962q0 -12 -8 -20.5t-20 -8.5h-244q-29 0 -29 29l-4 280q0 43 2 78t4 59q2 18 4 44t2 61h-6l-32 -66q-47 -96 -78 -147l-137 -236q-10 -16 -35 -16t-35 16l-137 236 q-31 51 -78 147l-33 66h-4l6 -121q4 -82 4 -121l-4 -280q0 -14 -8 -21.5t-21 -7.5h-243q-13 0 -21 8t-8 21z" />
<glyph unicode="&#x43d;" horiz-adv-x="1128" d="M100 29v962q0 12 8.5 19.5t20.5 7.5h270q12 0 20.5 -7t8.5 -20v-348h272v348q0 12 8.5 19.5t20.5 7.5h270q29 0 29 -27v-962q0 -12 -7 -20.5t-22 -8.5h-270q-12 0 -20.5 8t-8.5 21v342h-272v-342q0 -12 -8 -20.5t-21 -8.5h-270q-12 0 -20.5 8t-8.5 21z" />
<glyph unicode="&#x43e;" horiz-adv-x="1132" d="M78 410v198q0 213 127 323.5t362 110.5q233 0 361.5 -110.5t128.5 -323.5v-198q0 -213 -128 -324t-362 -111q-233 0 -361 111t-128 324zM406 440q0 -100 37.5 -144t123.5 -44q84 0 123 44t39 144v140q0 100 -39 143t-123 43q-86 0 -123.5 -43t-37.5 -143v-140z" />
<glyph unicode="&#x43f;" horiz-adv-x="1150" d="M90 987v6q0 25 27 25h233q27 0 31 -23q14 -66 18 -123q82 80 166 125t193 45q147 0 220 -80.5t73 -252.5v-680q0 -12 -8.5 -20.5t-20.5 -8.5h-270q-14 0 -21.5 8t-7.5 21v604q0 66 -25.5 97.5t-83.5 31.5q-88 0 -186 -88v-645q0 -12 -8 -20.5t-21 -8.5h-270 q-12 0 -20.5 8t-8.5 21v725q0 121 -10 233z" />
<glyph unicode="&#x440;" horiz-adv-x="1116" d="M90 987v4q0 27 27 27h233q25 0 31 -23q10 -45 16 -108q78 74 159 114.5t185 40.5q148 0 220.5 -82.5t72.5 -259.5v-309q0 -215 -90 -315.5t-266 -100.5q-57 0 -126 13.5t-124 36.5v-375q0 -12 -8 -20.5t-21 -8.5h-270q-12 0 -20.5 8.5t-8.5 20.5v1108q0 117 -10 229z M428 270q74 -31 141 -30q137 0 138 180v205q0 70 -26 103.5t-83 33.5q-80 0 -170 -74v-418z" />
<glyph unicode="&#x441;" horiz-adv-x="1101" d="M78 408v202q0 209 126 320.5t359 111.5q152 0 258.5 -52t158.5 -140t44 -197q0 -14 -8 -24.5t-21 -10.5h-250q-10 0 -18 8.5t-8 20.5q0 59 -40 89t-112 30q-84 0 -122.5 -43t-38.5 -143v-140q0 -100 38.5 -143t120.5 -43q76 0 114 30.5t38 88.5q0 12 8 20t18 8h250 q12 0 20.5 -8t8.5 -20q12 -182 -106.5 -290t-350.5 -108q-233 0 -360 112t-127 321z" />
<glyph unicode="&#x442;" horiz-adv-x="1705" d="M90 987v6q0 25 27 25h233q27 0 29 -21q10 -47 18 -125q78 80 155 125t179 45q109 0 166 -38.5t86 -124.5q76 76 157 119.5t179 43.5q143 0 215 -80.5t72 -250.5v-682q0 -12 -7.5 -20.5t-21.5 -8.5h-270q-12 0 -20.5 8t-8.5 21v604q0 66 -23.5 97.5t-76.5 31.5 q-41 0 -80 -20.5t-80 -61.5v-651q0 -12 -8.5 -20.5t-20.5 -8.5h-270q-14 0 -21.5 8t-7.5 21v604q0 66 -23.5 97.5t-78.5 31.5q-41 0 -80 -20.5t-80 -61.5v-651q0 -12 -8 -20.5t-21 -8.5h-270q-12 0 -20.5 8t-8.5 21v725q0 117 -10 233z" />
<glyph unicode="&#x443;" horiz-adv-x="1087" d="M27 999q0 18 24 19h293q27 0 33 -23l100 -325q29 -96 68 -293h6q31 172 65 291l101 327q6 23 33 23h290q17 0 23 -8.5t0 -22.5l-481 -1343q-8 -23 -33 -23h-260q-16 0 -22.5 9.5t-0.5 23.5l127 348l-364 985q-2 4 -2 12z" />
<glyph unicode="&#x444;" horiz-adv-x="1492" d="M78 412v196q0 209 131 321.5t366 112.5h9v357q0 12 8 20t20 8h269q12 0 20 -8t8 -20v-357h6q238 0 369 -112.5t131 -321.5v-196q0 -209 -131 -323t-369 -114h-6v-325q0 -12 -8 -20.5t-20 -8.5h-269q-12 0 -20 8.5t-8 20.5v325h-9q-236 0 -366.5 114t-130.5 323zM403 434 q0 -100 43 -146t132 -46h18v538h-18q-88 0 -131.5 -46t-43.5 -146v-154zM897 242h18q88 0 131.5 46t43.5 146v154q0 100 -43 146t-132 46h-18v-538z" />
<glyph unicode="&#x445;" horiz-adv-x="1103" d="M14 18q0 8 6 17l332 489l-311 461q-6 10 -6 16q0 16 24 17h312q27 0 32 -19l76 -131q14 -27 72 -147h4l74 151l69 127q10 18 35 19h305q27 0 27 -17q0 -6 -6 -16l-311 -459l335 -491q6 -8 7 -17q0 -18 -25 -18h-311q-25 0 -33 18l-76 127l-94 177h-2l-37 -70l-55 -105 l-74 -129q-10 -18 -35 -18h-309q-25 0 -25 18z" />
<glyph unicode="&#x446;" horiz-adv-x="1193" d="M100 309v682q0 12 8.5 19.5t20.5 7.5h270q12 0 20.5 -7t8.5 -20v-606q0 -129 92 -129q82 0 180 88v647q0 27 29 27h270q12 0 20.5 -7t8.5 -20v-721h109q12 0 20 -8t8 -20v-471q0 -12 -8 -20.5t-20 -8.5h-254q-12 0 -20.5 8t-8.5 21v229h-74q-14 0 -21 5t-9 20 q-8 37 -21 122q-82 -80 -162 -126t-184 -46q-143 0 -213 82t-70 252z" />
<glyph unicode="&#x447;" horiz-adv-x="1087" d="M72 539v452q0 27 28 27h271q12 0 20 -7t8 -20v-356q0 -68 22.5 -97.5t72.5 -29.5q90 0 168 82v401q0 27 26 27h273q12 0 20 -7t8 -20v-962q0 -12 -8 -20.5t-20 -8.5h-273q-12 0 -19 8t-7 21v333q-156 -135 -310 -135q-143 0 -211.5 76t-68.5 236z" />
<glyph unicode="&#x448;" horiz-adv-x="1685" d="M100 309v682q0 12 8.5 19.5t20.5 7.5h270q12 0 20.5 -7t8.5 -20v-606q0 -68 19.5 -98.5t70.5 -30.5q41 0 79 21.5t81 64.5v649q0 12 8 19.5t21 7.5h270q29 0 29 -27v-606q0 -68 20.5 -98.5t71.5 -30.5q39 0 76.5 22.5t82.5 65.5v647q0 27 29 27h270q12 0 20.5 -7t8.5 -20 v-727q0 -115 10 -233v-4q0 -27 -26 -27h-236q-23 0 -28 23q-14 82 -19 124q-76 -80 -152.5 -126t-177.5 -46q-106 0 -160.5 39t-82.5 125q-76 -76 -157 -120t-179 -44q-141 0 -209 81t-68 253z" />
<glyph unicode="&#x449;" horiz-adv-x="1751" d="M100 309v682q0 12 8.5 19.5t20.5 7.5h270q12 0 20.5 -7t8.5 -20v-606q0 -68 19.5 -98.5t70.5 -30.5q41 0 79 21.5t81 64.5v649q0 12 8 19.5t21 7.5h270q29 0 29 -27v-606q0 -68 20.5 -98.5t71.5 -30.5q39 0 76.5 22.5t82.5 65.5v647q0 27 29 27h270q12 0 20.5 -7t8.5 -20 v-721h109q12 0 20 -8t8 -20v-471q0 -12 -8 -20.5t-20 -8.5h-254q-12 0 -20.5 8t-8.5 21v229h-78q-23 0 -28 23q-14 82 -19 124q-76 -80 -152.5 -126t-177.5 -46q-106 0 -160.5 39t-82.5 125q-76 -76 -157 -120t-179 -44q-141 0 -209 81t-68 253z" />
<glyph unicode="&#x44a;" horiz-adv-x="1216" d="M25 778v213q0 12 8 19.5t20 7.5h482q12 0 20 -7t8 -20v-319q129 115 285 114q147 0 228 -78.5t81 -242.5v-105q0 -186 -124 -285.5t-347 -99.5t-336.5 95.5t-113.5 308.5v371h-183q-12 0 -20 7t-8 21zM563 358q0 -66 33 -95.5t98 -29.5q61 0 98 35t37 92v70 q0 102 -110 102q-86 0 -156 -73v-101z" />
<glyph unicode="&#x44b;" horiz-adv-x="1607" d="M100 379v612q0 12 8.5 19.5t20.5 7.5h270q12 0 20.5 -7t8.5 -20v-319q129 115 285 114q147 0 228 -78.5t81 -242.5v-105q0 -186 -124 -285.5t-347 -99.5t-337 95.5t-114 308.5zM428 358q0 -66 33 -95.5t98 -29.5q61 0 98 35t37 92v70q0 102 -110 102q-86 0 -156 -73v-101 zM1179 29v962q0 12 8.5 19.5t20.5 7.5h270q12 0 20.5 -7t8.5 -20v-962q0 -12 -8 -20.5t-21 -8.5h-270q-12 0 -20.5 8t-8.5 21z" />
<glyph unicode="&#x44c;" horiz-adv-x="1081" d="M100 379v612q0 12 8.5 19.5t20.5 7.5h270q12 0 20.5 -7t8.5 -20v-319q129 115 285 114q147 0 228 -78.5t81 -242.5v-105q0 -186 -124 -285.5t-347 -99.5t-337 95.5t-114 308.5zM428 358q0 -66 33 -95.5t98 -29.5q61 0 98 35t37 92v70q0 102 -110 102q-86 0 -156 -73v-101 z" />
<glyph unicode="&#x44d;" horiz-adv-x="1079" d="M72 297q0 27 2 39q2 16 10 25.5t20 9.5h248q12 0 20.5 -8.5t8.5 -20.5q0 -41 40 -63.5t111 -22.5q80 0 112 35t32 121v24h-238q-20 0 -20 21v102q0 20 20 21h238v22q0 90 -33 127t-111 37q-68 0 -107.5 -24.5t-39.5 -63.5q0 -12 -8 -20.5t-21 -8.5h-247q-27 0 -31 33 q-2 10 -2 31q0 90 56 164.5t162.5 119.5t252.5 45q225 0 341 -107.5t116 -313.5v-218q0 -211 -115 -319.5t-342 -108.5q-225 0 -350 89.5t-125 232.5z" />
<glyph unicode="&#x44e;" horiz-adv-x="1566" d="M100 29v1368q0 14 8.5 21t20.5 7h264q12 0 20.5 -7t8.5 -21v-494h-2v-268h115q8 195 135 301t342 106q223 0 350 -113.5t127 -320.5v-196q0 -209 -127 -323t-350 -114q-213 0 -340 105.5t-137 298.5h-115v-350q0 -12 -7 -20.5t-22 -8.5h-264q-12 0 -19.5 8t-7.5 21z M862 440q0 -98 37 -141t113 -43t112.5 43t36.5 141v138q0 98 -37 142t-112 44q-76 0 -113 -44t-37 -142v-138z" />
<glyph unicode="&#x44f;" horiz-adv-x="1093" d="M27 18q0 8 6 17l139 207q47 74 100 141v4q-190 70 -190 289q0 342 412 342h473q27 0 26 -27v-962q0 -12 -7 -20.5t-19 -8.5h-273q-12 0 -20 8t-8 21v313h-86l-197 -324q-8 -18 -33 -18h-299q-24 0 -24 18zM393 666q0 -55 33 -81t100 -26h140v217h-148q-68 0 -96.5 -26.5 t-28.5 -83.5z" />
<glyph unicode="&#x451;" horiz-adv-x="1112" d="M78 389v217q0 217 117.5 326.5t361.5 109.5q238 0 358.5 -105.5t120.5 -313.5v-160q0 -12 -7 -20.5t-21 -8.5h-609v-59q0 -78 38 -118t120 -40q66 0 103.5 21.5t37.5 62.5q0 25 29 25h260q29 0 29 -27q2 -166 -108.5 -245t-344.5 -79q-250 0 -367.5 102.5t-117.5 311.5z M180 1289v47q0 68 42 103.5t116 35.5q78 0 118.5 -36t40.5 -103v-47q0 -66 -42 -103t-117 -37q-74 0 -116 37t-42 103zM399 614h318v9q-2 94 -38 135t-118 41q-86 0 -124 -42t-38 -134v-9zM612 1289v47q0 68 42 103.5t116 35.5q78 0 119 -36t41 -103v-47q0 -66 -42 -103 t-118 -37q-74 0 -116 37t-42 103z" />
<glyph unicode="&#x452;" horiz-adv-x="1155" d="M-8 1151v141q0 14 8 21.5t20 7.5h97v49q0 12 7 20.5t21 8.5h271q12 0 20 -8.5t8 -20.5v-49h150q12 0 20.5 -7t8.5 -22v-141q0 -12 -8.5 -20.5t-20.5 -8.5h-150v-221q152 141 330 141q148 0 219.5 -80.5t71.5 -252.5v-521q0 -221 -61.5 -355t-217.5 -226q-8 -4 -12 -4 q-8 0 -18 10l-162 182q-8 12 -8 21q0 12 12 22q72 51 105.5 136t33.5 214v445q0 66 -25.5 97.5t-80.5 31.5q-92 0 -187 -88v-645q0 -12 -8 -20.5t-20 -8.5h-271q-14 0 -21 8t-7 21v1093h-97q-12 0 -20 8.5t-8 20.5z" />
<glyph unicode="&#x453;" horiz-adv-x="1011" d="M63 264q0 106 48.5 178t150.5 115l232 96q57 25 80.5 44.5t23.5 47.5q0 33 -23.5 48.5t-82.5 15.5t-87 -17.5t-28 -56.5q0 -31 -27 -30h-239q-27 0 -31 30q-2 12 -2 35q0 129 107.5 200.5t316.5 71.5q424 0 424 -278q0 -111 -49.5 -175.5t-151.5 -107.5l-229 -98 q-59 -25 -82 -48.5t-23 -60.5q0 -39 29 -52t94 -13q68 0 98.5 22.5t30.5 69.5q0 18 6 25.5t21 7.5h237q14 0 21.5 -6t9.5 -23q2 -16 2 -47q0 -145 -106.5 -214t-344.5 -69q-223 0 -324.5 68t-101.5 221zM360 1159l4 16l144 262q12 20 33 21h231q25 -1 25 -19q0 -6 -7 -16 l-200 -266q-14 -16 -35 -17h-172q-10 0 -16.5 5.5t-6.5 13.5z" />
<glyph unicode="&#x454;" horiz-adv-x="1083" d="M78 403v218q0 205 120.5 313t346.5 108q143 0 247.5 -44t158 -118.5t53.5 -162.5q0 -23 -3 -35q-4 -33 -30 -33h-248q-12 0 -20.5 8.5t-8.5 20.5q0 39 -38 63.5t-103 24.5q-76 0 -111.5 -38t-35.5 -126v-22h237q20 0 21 -21v-102q0 -20 -21 -21h-237v-24q0 -86 32.5 -121 t110.5 -35q72 0 110.5 24.5t38.5 61.5q0 12 8.5 20.5t20.5 8.5h248q27 0 31 -35q2 -14 2 -41q0 -145 -121 -232.5t-344 -87.5q-230 0 -347.5 110t-117.5 318z" />
<glyph unicode="&#x455;" horiz-adv-x="980" d="M72 264q0 29 2 43q4 29 30 29h248q27 0 27 -31q0 -104 102 -104q59 0 87 18.5t28 59.5q0 33 -19.5 53t-76.5 45l-236 100q-98 41 -142 104.5t-44 168.5q0 150 98 221t311 71q219 0 320.5 -73.5t101.5 -229.5q0 -29 -30 -28h-246q-27 0 -27 32q-4 76 -102 76 q-49 0 -72.5 -16.5t-23.5 -52.5q0 -27 18 -45.5t70 -38.5l233 -97q109 -43 155 -106.5t46 -171.5q0 -315 -445 -316q-215 0 -314 70t-99 219z" />
<glyph unicode="&#x456;" horiz-adv-x="528" d="M94 1300v50q0 74 44 111.5t126 37.5q84 0 127 -38t43 -111v-50q0 -72 -44 -110.5t-126 -38.5t-126 39t-44 110zM100 29v962q0 12 8.5 19.5t20.5 7.5h270q12 0 20.5 -7t8.5 -20v-962q0 -12 -8 -20.5t-21 -8.5h-270q-12 0 -20.5 8t-8.5 21z" />
<glyph unicode="&#x457;" horiz-adv-x="528" d="M-111 1282v47q0 68 42 103.5t116 35.5q78 0 118.5 -36t40.5 -103v-47q0 -66 -42 -103t-117 -37q-74 0 -116 37t-42 103zM100 29v962q0 12 8.5 19.5t20.5 7.5h270q12 0 20.5 -7t8.5 -20v-962q0 -12 -8 -20.5t-21 -8.5h-270q-12 0 -20.5 8t-8.5 21zM321 1282v47 q0 68 42 103.5t116 35.5q78 0 119 -36t41 -103v-47q0 -66 -42 -103t-118 -37q-74 0 -116 37t-42 103z" />
<glyph unicode="&#x458;" horiz-adv-x="528" d="M-51 -184q0 12 12 22q72 53 105.5 137t33.5 213v803q0 10 8.5 18.5t20.5 8.5h270q13 0 21 -8.5t8 -18.5v-803q0 -219 -62.5 -353t-215.5 -228q-8 -4 -13 -4q-10 0 -20 10l-160 182q-8 8 -8 21zM98 1300v50q0 74 44 111.5t126 37.5q84 0 127 -38t43 -111v-50 q0 -72 -44 -110.5t-126 -38.5t-126 39t-44 110z" />
<glyph unicode="&#x459;" horiz-adv-x="1570" d="M-2 33l332 960q10 25 35 25h301q27 0 34 -25l136 -387q82 96 171 138t195 42q148 0 228.5 -78.5t80.5 -242.5v-105q0 -186 -122.5 -285.5t-341.5 -99.5q-135 0 -219.5 28t-132.5 91.5t-77 175.5l-49 174q-39 156 -55 246h-6q-16 -104 -53 -246l-111 -419q-6 -25 -33 -25 h-291q-16 0 -21 9t-1 24zM897 432l37 -113q16 -49 43 -67.5t74 -18.5q59 0 96 35t37 92v70q0 102 -111 102q-96 0 -176 -100z" />
<glyph unicode="&#x45a;" horiz-adv-x="1681" d="M100 29v962q0 12 8.5 19.5t20.5 7.5h270q12 0 20.5 -7t8.5 -20v-350h272v350q0 12 8.5 19.5t20.5 7.5h270q12 0 20.5 -7t8.5 -20v-319q129 115 285 114q147 0 228 -78.5t81 -242.5v-105q0 -186 -124 -285.5t-347 -99.5q-221 0 -335 94.5t-116 303.5h-272v-344 q0 -12 -8 -20.5t-21 -8.5h-270q-12 0 -20.5 8t-8.5 21zM1028 358q0 -66 33 -95.5t98 -29.5q61 0 98 35t37 92v70q0 102 -110 102q-86 0 -156 -73v-101z" />
<glyph unicode="&#x45b;" horiz-adv-x="1165" d="M-8 1151v141q0 14 8 21.5t20 7.5h97v49q0 12 8 20.5t20 8.5h271q12 0 20 -8.5t8 -20.5v-49h148q29 0 29 -29v-141q0 -12 -7.5 -20.5t-21.5 -8.5h-148v-221q72 66 152 103.5t178 37.5q148 0 220.5 -80.5t72.5 -252.5v-680q0 -12 -8 -20.5t-21 -8.5h-270q-14 0 -21.5 8 t-7.5 21v604q0 66 -26.5 97.5t-81.5 31.5q-92 0 -187 -88v-645q0 -12 -8 -20.5t-20 -8.5h-271q-12 0 -20 8t-8 21v1093h-97q-12 0 -20 8.5t-8 20.5z" />
<glyph unicode="&#x45c;" horiz-adv-x="1122" d="M100 29v1341q0 12 8.5 20.5t20.5 8.5h270q12 0 20.5 -8.5t8.5 -20.5v-708h90l207 339q10 16 33 17h311q23 0 23 -17q0 -6 -7 -16l-290 -444l319 -506q4 -7 4 -17q0 -18 -22 -18h-322q-23 0 -35 16l-229 377h-82v-364q0 -12 -8 -20.5t-21 -8.5h-270q-12 0 -20.5 8t-8.5 21 zM506 1159l4 16l144 262q12 20 33 21h231q25 -1 25 -19q0 -6 -7 -16l-200 -266q-14 -16 -35 -17h-172q-10 0 -16.5 5.5t-6.5 13.5z" />
<glyph unicode="&#x45d;" horiz-adv-x="1128" d="M100 309v682q0 12 8.5 19.5t20.5 7.5h270q12 0 20.5 -7t8.5 -20v-606q0 -129 92 -129q82 0 180 88v647q0 27 29 27h270q12 0 20.5 -7t8.5 -20v-727q0 -115 10 -233v-4q0 -27 -26 -27h-232q-14 0 -21 5t-9 20q-8 37 -21 122q-82 -80 -162 -126t-184 -46q-143 0 -213 82 t-70 252zM256 1441q0 6 7.5 11.5t17.5 5.5h231q23 0 35 -21l143 -262q4 -12 5 -14q0 -8 -7.5 -14.5t-17.5 -6.5h-172q-23 1 -33 17l-201 266q-8 8 -8 18z" />
<glyph unicode="&#x45e;" horiz-adv-x="1087" d="M27 999q0 18 24 19h293q27 0 33 -23l100 -325q29 -96 68 -293h6q31 172 65 291l101 327q6 23 33 23h290q17 0 23 -8.5t0 -22.5l-481 -1343q-8 -23 -33 -23h-260q-16 0 -22.5 9.5t-0.5 23.5l127 348l-364 985q-2 4 -2 12zM264 1278v167q0 23 15 23q10 0 18 -8 q49 -43 113.5 -74t138.5 -31t140.5 30t111.5 75q10 10 18 10q14 0 15 -25v-167q0 -25 -13 -35q-127 -106 -272 -107q-90 0 -162 35t-115 78q-8 8 -8 29z" />
<glyph unicode="&#x45f;" horiz-adv-x="1128" d="M100 309v682q0 12 8.5 19.5t20.5 7.5h270q12 0 20.5 -7t8.5 -20v-606q0 -129 92 -129q82 0 180 88v647q0 27 29 27h270q12 0 20.5 -7t8.5 -20v-727q0 -115 10 -233v-4q0 -27 -26 -27h-232q-14 0 -21 5t-9 20q-8 37 -21 122q-49 -51 -104 -90v-286q0 -12 -8.5 -20.5 t-20.5 -8.5h-221q-12 0 -20.5 8t-8.5 21v206q-123 10 -184.5 91.5t-61.5 240.5z" />
<glyph unicode="&#x490;" horiz-adv-x="1017" d="M121 29v1284q0 12 8 20t21 8h501v275q0 10 8.5 19.5t20.5 9.5h268q13 0 21 -9.5t8 -19.5v-539q0 -29 -27 -28h-491v-1020q0 -12 -8.5 -20.5t-20.5 -8.5h-283q-12 0 -19 8t-7 21z" />
<glyph unicode="&#x491;" horiz-adv-x="1003" d="M12 31l6 194q0 12 9.5 18.5t25.5 0.5q55 -20 92 -21q33 0 52.5 29t23.5 104l19 275q12 198 84.5 291.5t236.5 93.5q125 0 150 74q6 23 6 47v30q0 20 26 21h244q16 0 22.5 -8.5t6.5 -28.5q2 -113 -9.5 -174.5t-39.5 -95.5q-35 -43 -85.5 -65.5t-148.5 -24.5 q-86 -2 -123 -54.5t-47 -183.5l-20 -252q-14 -174 -88 -250t-222 -76q-68 0 -111.5 6.5t-88.5 22.5q-20 8 -21 27z" />
<glyph unicode="&#x4c0;" horiz-adv-x="579" d="M121 29v1284q0 12 8 20t21 8h280q12 0 20.5 -8t8.5 -20v-1284q0 -12 -8.5 -20.5t-20.5 -8.5h-280q-13 0 -21 8t-8 21z" />
<glyph unicode="&#x4cf;" horiz-adv-x="528" d="M100 29v1341q0 12 8.5 20.5t20.5 8.5h270q12 0 20.5 -8.5t8.5 -20.5v-1341q0 -12 -8 -20.5t-21 -8.5h-270q-12 0 -20.5 8t-8.5 21z" />
<glyph unicode="&#x4e2;" horiz-adv-x="1380" d="M121 29v1284q0 12 8 20t18 8h273q10 0 18 -8t8 -20v-469q-2 -174 -28 -398h6q61 164 174 361l301 514q14 20 33 20h299q12 0 20.5 -8t8.5 -20v-1284q0 -12 -8.5 -20.5t-20.5 -8.5h-268q-12 0 -20.5 8t-8.5 21v450q0 186 24 402h-8q-37 -90 -79 -167t-48 -89 q-25 -41 -35 -62l-309 -543q-10 -20 -30 -20h-302q-10 0 -18 8t-8 21zM424 1493v172q0 14 8.5 21.5t20.5 7.5h508q12 0 20.5 -7.5t8.5 -21.5v-172q0 -12 -8.5 -20.5t-20.5 -8.5h-508q-12 0 -20.5 8.5t-8.5 20.5z" />
<glyph unicode="&#x4e3;" horiz-adv-x="1128" d="M100 309v682q0 12 8.5 19.5t20.5 7.5h270q12 0 20.5 -7t8.5 -20v-606q0 -129 92 -129q82 0 180 88v647q0 27 29 27h270q12 0 20.5 -7t8.5 -20v-727q0 -115 10 -233v-4q0 -27 -26 -27h-232q-14 0 -21 5t-9 20q-8 37 -21 122q-82 -80 -162 -126t-184 -46q-143 0 -213 82 t-70 252zM299 1202v172q0 12 8.5 20t20.5 8h467q12 0 20.5 -8t8.5 -20v-172q0 -12 -8.5 -19.5t-20.5 -7.5h-467q-12 0 -20.5 7t-8.5 20z" />
<glyph unicode="&#x4ee;" horiz-adv-x="1241" d="M10 1321q0 8 7.5 14t17.5 6h313q25 0 33 -20l149 -326q51 -109 88 -235h7q37 117 94 239l153 322q10 20 33 20h307q16 0 22.5 -10t-1.5 -24l-649 -1287q-14 -20 -33 -20h-285q-16 0 -23 10t1 25l205 418l-435 854q-4 12 -4 14zM354 1493v172q0 14 8.5 21.5t20.5 7.5h508 q12 0 20.5 -7.5t8.5 -21.5v-172q0 -12 -8.5 -20.5t-20.5 -8.5h-508q-12 0 -20.5 8.5t-8.5 20.5z" />
<glyph unicode="&#x4ef;" horiz-adv-x="1087" d="M27 999q0 18 24 19h293q27 0 33 -23l100 -325q29 -96 68 -293h6q31 172 65 291l101 327q6 23 33 23h290q17 0 23 -8.5t0 -22.5l-481 -1343q-8 -23 -33 -23h-260q-16 0 -22.5 9.5t-0.5 23.5l127 348l-364 985q-2 4 -2 12zM284 1202v172q0 12 8.5 20t20.5 8h467 q12 0 20.5 -8t8.5 -20v-172q0 -12 -8.5 -19.5t-20.5 -7.5h-467q-12 0 -20.5 7t-8.5 20z" />
<glyph unicode="&#x2000;" horiz-adv-x="890" />
<glyph unicode="&#x2001;" horiz-adv-x="1780" />
<glyph unicode="&#x2002;" horiz-adv-x="890" />
<glyph unicode="&#x2003;" horiz-adv-x="1780" />
<glyph unicode="&#x2004;" horiz-adv-x="593" />
<glyph unicode="&#x2005;" horiz-adv-x="445" />
<glyph unicode="&#x2006;" horiz-adv-x="296" />
<glyph unicode="&#x2007;" horiz-adv-x="296" />
<glyph unicode="&#x2008;" horiz-adv-x="222" />
<glyph unicode="&#x2009;" horiz-adv-x="356" />
<glyph unicode="&#x200a;" horiz-adv-x="98" />
<glyph unicode="&#x2010;" horiz-adv-x="983" d="M94 449v194q0 12 8.5 20.5t20.5 8.5h735q14 0 21.5 -8.5t7.5 -20.5v-194q0 -12 -7.5 -20.5t-21.5 -8.5h-735q-12 0 -20.5 8t-8.5 21z" />
<glyph unicode="&#x2011;" horiz-adv-x="983" d="M94 449v194q0 12 8.5 20.5t20.5 8.5h735q14 0 21.5 -8.5t7.5 -20.5v-194q0 -12 -7.5 -20.5t-21.5 -8.5h-735q-12 0 -20.5 8t-8.5 21z" />
<glyph unicode="&#x2012;" horiz-adv-x="983" d="M94 449v194q0 12 8.5 20.5t20.5 8.5h735q14 0 21.5 -8.5t7.5 -20.5v-194q0 -12 -7.5 -20.5t-21.5 -8.5h-735q-12 0 -20.5 8t-8.5 21z" />
<glyph unicode="&#x2013;" horiz-adv-x="1503" d="M94 449v194q0 12 8.5 20.5t20.5 8.5h1255q15 0 22 -8.5t7 -20.5v-194q0 -12 -7 -20.5t-22 -8.5h-1255q-12 0 -20.5 8t-8.5 21z" />
<glyph unicode="&#x2014;" horiz-adv-x="1789" d="M94 449v194q0 12 8.5 20.5t20.5 8.5h1542q14 0 21.5 -8.5t7.5 -20.5v-194q0 -12 -7.5 -20.5t-21.5 -8.5h-1542q-12 0 -20.5 8t-8.5 21z" />
<glyph unicode="&#x2018;" horiz-adv-x="622" d="M86 690l197 627q6 25 31 24h237q14 0 21.5 -8t5.5 -22l-109 -629q-2 -12 -10 -19.5t-20 -7.5h-326q-16 0 -23.5 9.5t-3.5 25.5z" />
<glyph unicode="&#x2019;" horiz-adv-x="622" d="M45 686l109 629q2 12 10 19.5t20 7.5h326q16 0 23.5 -9.5t3.5 -25.5l-197 -627q-6 -25 -31 -24h-237q-14 0 -21.5 8t-5.5 22z" />
<glyph unicode="&#x201a;" horiz-adv-x="622" d="M45 -285l109 629q2 12 10 19.5t20 7.5h326q16 0 23.5 -9.5t3.5 -25.5l-197 -627q-6 -25 -31 -24h-237q-14 0 -21.5 8t-5.5 22z" />
<glyph unicode="&#x201c;" horiz-adv-x="1107" d="M86 690l197 627q6 25 31 24h237q14 0 21.5 -8t5.5 -22l-109 -629q-2 -12 -10 -19.5t-20 -7.5h-326q-16 0 -23.5 9.5t-3.5 25.5zM571 690l197 627q6 25 31 24h237q14 0 21.5 -8t5.5 -22l-109 -629q-2 -12 -10 -19.5t-20 -7.5h-326q-16 0 -23.5 9.5t-3.5 25.5z" />
<glyph unicode="&#x201d;" horiz-adv-x="1107" d="M45 686l109 629q2 12 10 19.5t20 7.5h326q16 0 23.5 -9.5t3.5 -25.5l-197 -627q-6 -25 -31 -24h-237q-14 0 -21.5 8t-5.5 22zM530 686l109 629q2 12 10 19.5t20 7.5h326q16 0 23.5 -9.5t3.5 -25.5l-197 -627q-6 -25 -31 -24h-237q-14 0 -21.5 8t-5.5 22z" />
<glyph unicode="&#x201e;" horiz-adv-x="1107" d="M45 -285l109 629q2 12 10 19.5t20 7.5h326q16 0 23.5 -9.5t3.5 -25.5l-197 -627q-6 -25 -31 -24h-237q-14 0 -21.5 8t-5.5 22zM530 -285l109 629q2 12 10 19.5t20 7.5h326q16 0 23.5 -9.5t3.5 -25.5l-197 -627q-6 -25 -31 -24h-237q-14 0 -21.5 8t-5.5 22z" />
<glyph unicode="&#x2026;" horiz-adv-x="1808" d="M100 160v53q0 88 55.5 136t155.5 48q104 0 158.5 -48t54.5 -136v-53q0 -86 -55 -135.5t-158 -49.5q-98 0 -154.5 49.5t-56.5 135.5zM692 160v53q0 88 55.5 136t155.5 48q104 0 158.5 -48t54.5 -136v-53q0 -86 -55 -135.5t-158 -49.5q-98 0 -154.5 49.5t-56.5 135.5z M1284 160v53q0 88 55.5 136t155.5 48q104 0 158.5 -48t54.5 -136v-53q0 -86 -55.5 -135.5t-157.5 -49.5q-98 0 -154.5 49.5t-56.5 135.5z" />
<glyph unicode="&#x202f;" horiz-adv-x="356" />
<glyph unicode="&#x2039;" horiz-adv-x="659" d="M68 543q0 10 6 18l194 330q12 20 35 20h254q16 0 23.5 -10t-0.5 -24l-187 -334l185 -338q4 -12 4 -17q0 -16 -25 -16h-254q-23 0 -35 18l-194 332q-6 12 -6 21z" />
<glyph unicode="&#x203a;" horiz-adv-x="659" d="M76 188q0 8 6 17l184 338l-186 334q-4 12 -4 14q0 8 7 14t17 6h256q25 0 33 -20l197 -330q6 -8 6 -18q0 -8 -6 -21l-197 -332q-8 -18 -33 -18h-256q-24 0 -24 16z" />
<glyph unicode="&#x205f;" horiz-adv-x="445" />
<glyph unicode="&#x20ac;" d="M31 465l26 125q4 18 23 18h96v82h-119q-10 0 -15 6t-3 17l24 125q4 18 23 18h90q6 510 516 510q252 0 385 -104.5t133 -292.5q0 -33 -2 -49q-4 -27 -26 -27l-271 2q-25 0 -24 29q0 160 -195 159q-100 0 -142 -54t-46 -173h297q20 0 16 -22l-26 -125q-2 -18 -23 -19h-264 v-82h250q20 0 16 -22l-25 -125q-2 -18 -22 -19h-215q10 -96 53 -140t135 -44q104 0 147.5 40t43.5 126q0 16 6 22.5t20 6.5l267 2q26 0 28 -27q2 -16 2 -49q0 -190 -134 -297t-384 -107q-492 0 -514 467h-129q-23 0 -18 23z" />
<glyph unicode="&#x2122;" horiz-adv-x="1628" d="M86 1214v156q0 12 8 20.5t21 8.5h542q14 0 21.5 -8.5t7.5 -20.5v-156q0 -12 -7 -20t-22 -8h-147v-441q0 -12 -7 -20t-22 -8h-190q-12 0 -20.5 8t-8.5 20v441h-147q-12 0 -20.5 8t-8.5 20zM764 743l14 629q0 12 8.5 19.5t20.5 7.5h174q23 0 31 -21l141 -282l141 282 q8 20 31 21h174q27 0 27 -27l16 -629q0 -12 -8 -19t-21 -7h-178q-27 0 -26 26l4 277l-137 -227q-8 -12 -21 -13q-8 0 -18 13l-144 227l2 -277q0 -27 -26 -26h-178q-27 -1 -27 26z" />
<glyph unicode="&#x25fc;" horiz-adv-x="1013" d="M0 0v1014h1014v-1014h-1014z" />
</font>
</defs>
</svg>
