<?xml version="1.0" standalone="no"?>
<!DOCTYPE svg PUBLIC "-//W3C//DTD SVG 1.1//EN" "http://www.w3.org/Graphics/SVG/1.1/DTD/svg11.dtd" >
<svg xmlns="http://www.w3.org/2000/svg" xmlns:xlink="http://www.w3.org/1999/xlink" version="1.1">
<metadata></metadata>
<defs>
<font id="sofiasansregular" horiz-adv-x="1228" >
<font-face units-per-em="2048" ascent="1638" descent="-410" />
<missing-glyph horiz-adv-x="430" />
<glyph horiz-adv-x="0" />
<glyph unicode="&#xd;" horiz-adv-x="20" />
<glyph unicode=" "  horiz-adv-x="430" />
<glyph unicode="&#x09;" horiz-adv-x="430" />
<glyph unicode="&#xa0;" horiz-adv-x="430" />
<glyph unicode="!" horiz-adv-x="473" d="M123 68v59q0 45 29.5 69.5t83.5 24.5q55 0 84.5 -24.5t29.5 -69.5v-59q0 -45 -29.5 -69t-84.5 -24q-54 0 -83.5 24t-29.5 69zM141 1321q0 20 21 20h149q20 0 21 -20l-13 -891q0 -20 -20 -20h-125q-20 0 -20 20z" />
<glyph unicode="&#x22;" horiz-adv-x="665" d="M102 899v479q0 20 21 21h133q20 -1 20 -21v-479q0 -20 -20 -20h-133q-20 0 -21 20zM389 899v479q0 20 21 21h133q20 -1 20 -21v-479q0 -20 -20 -20h-133q-20 0 -21 20z" />
<glyph unicode="#" d="M61 276v103q0 20 21 20h168v457h-168q-20 0 -21 21v102q0 20 21 20h168v236q0 20 20 20h133q20 0 21 -20v-236h381v236q0 20 20 20h133q20 0 21 -20v-236h168q20 0 20 -20v-102q0 -20 -20 -21h-168v-457h168q20 0 20 -20v-103q0 -20 -20 -20h-168v-236q0 -20 -21 -20 h-133q-20 0 -20 20v236h-381v-236q0 -20 -21 -20h-133q-20 0 -20 20v236h-168q-20 0 -21 20zM424 399h381v457h-381v-457z" />
<glyph unicode="$" horiz-adv-x="1290" d="M205 317q0 18 4 56q0 20 20 20h131q18 0 19 -22q0 -119 63.5 -181.5t202.5 -62.5q141 0 203.5 48t62.5 163q0 80 -34.5 127t-124.5 88l-271 125q-127 57 -189.5 141t-62.5 205q0 158 91.5 241t254.5 97v137q0 20 21 21h115q20 0 20 -21v-141q162 -18 250 -114.5 t88 -266.5q0 -20 -18 -21h-136q-16 0 -16 21q0 236 -260 235q-115 0 -176.5 -46t-61.5 -136q0 -74 41 -123t133 -92l267 -125q127 -59 185 -133t58 -213q0 -156 -94 -249t-260 -113v-144q0 -20 -20 -20h-115q-20 0 -21 20v139q-168 14 -269 101.5t-101 238.5z" />
<glyph unicode="%" horiz-adv-x="1929" d="M123 977v61q0 158 88 243t258 85q172 0 258 -84t86 -244v-61q0 -158 -87 -243t-257 -85q-172 0 -259 85t-87 243zM276 973q0 -102 45.5 -147.5t147.5 -45.5q100 0 145 45t45 148v69q0 104 -45 148.5t-145 44.5t-146.5 -45t-46.5 -148v-69zM489.5 7q-4.5 7 2.5 18l403 673 l369 633q10 14 24 15h135q12 0 16.5 -7.5t-1.5 -17.5l-381 -635l-391 -672q-10 -14 -25 -14h-135q-12 0 -16.5 7zM1116 303v62q0 158 87 242.5t257 84.5q172 0 259 -85t87 -242v-62q0 -158 -88 -243t-258 -85q-172 0 -258 84t-86 244zM1270 299q0 -104 45 -148.5t145 -44.5 q101 0 147 45.5t46 147.5v70q0 102 -45 147t-148 45q-100 0 -145 -45t-45 -147v-70z" />
<glyph unicode="&#x26;" horiz-adv-x="1376" d="M102 336q0 127 63.5 223t184.5 193q-160 166 -160 323q0 147 84 219t242 72q139 0 219 -72.5t80 -203.5q0 -84 -55 -165t-172 -177l362 -351q45 133 45 328q0 20 21 20h129q20 0 20 -22q0 -266 -92 -444l264 -254q9 -9 9 -15q0 -10 -19 -10h-190q-14 0 -25 10l-135 131 q-166 -166 -457 -166q-207 0 -312.5 100.5t-105.5 260.5zM270 340q0 -92 71 -151.5t198 -59.5q214 0 325 121l-407 397q-109 -90 -148 -154.5t-39 -152.5zM358 1077q0 -55 29 -107t94 -120q86 72 126 128t40 112q0 63 -33.5 95t-107.5 32q-148 -1 -148 -140z" />
<glyph unicode="'" horiz-adv-x="378" d="M102 899v479q0 20 21 21h133q20 -1 20 -21v-479q0 -20 -20 -20h-133q-20 0 -21 20z" />
<glyph unicode="(" horiz-adv-x="552" d="M154 111v917q0 137 41 219t149 178q6 6 14 7q8 0 15 -7l84 -84q14 -14 0 -28q-76 -76 -102.5 -130.5t-26.5 -154.5v-917q0 -70 12 -114t37.5 -78t79.5 -93q12 -16 0 -29l-84 -84q-12 -12 -29 0q-111 88 -150.5 173t-39.5 225z" />
<glyph unicode=")" horiz-adv-x="552" d="M96 -174q53 59 79 93t38 78t12 114v917q0 100 -26.5 154.5t-102.5 130.5q-14 14 0 28l84 84q6 6 14.5 7.5t14.5 -7.5q109 -96 149.5 -178t40.5 -219v-917q0 -139 -40 -224.5t-150 -173.5q-16 -12 -29 0l-84 84q-12 12 0 29z" />
<glyph unicode="*" horiz-adv-x="847" d="M124 1153q-3 6 1 16l33 95q6 23 26 12l189 -80l-19 207v4q0 16 19 16h100q10 0 15.5 -6t3.5 -14l-19 -209l191 82q4 2 10 2q14 0 16 -14l33 -95q2 -4 2 -10q0 -12 -14 -14l-207 -47l137 -156q4 -4 4 -12q0 -10 -8 -17l-82 -59q-4 -4 -12 -4t-15 10l-106 178l-107 -180 q-10 -20 -26 -6l-82 61q-14 12 -2 29l137 158l-205 45q-10 2 -13 8z" />
<glyph unicode="+" d="M188 563v105q0 20 21 20h328v291q0 20 20 20h115q20 0 20 -20v-291h328q20 0 20 -20v-105q0 -20 -20 -20h-328v-291q0 -20 -20 -21h-115q-20 0 -20 21v291h-328q-20 0 -21 20z" />
<glyph unicode="," horiz-adv-x="475" d="M63 -236l103 435q2 6 7 11t11 5h154q10 0 17 -9t3 -20l-147 -434q-6 -14 -18 -14h-107q-10 0 -17.5 8t-5.5 18z" />
<glyph unicode="-" horiz-adv-x="1003" d="M143 498v92q0 20 21 20h676q20 0 20 -20v-92q0 -20 -20 -21h-676q-20 0 -21 21z" />
<glyph unicode="." horiz-adv-x="475" d="M123 90v21q0 53 27.5 83.5t87.5 30.5q59 0 86.5 -30.5t27.5 -83.5v-21q0 -53 -27.5 -84t-86.5 -31q-60 0 -87.5 31t-27.5 84z" />
<glyph unicode="/" horiz-adv-x="761" d="M27 23l538 1302q6 16 25 16h127q12 0 17 -6t1 -16l-538 -1303q-6 -16 -25 -16h-127q-12 0 -17 6t-1 17z" />
<glyph unicode="0" horiz-adv-x="1187" d="M137 440v461q0 219 121 342t336 123t336 -123t121 -342v-461q0 -219 -121 -342t-336 -123t-336 123t-121 342zM311 424q0 -139 75 -217t208 -78t208 79t75 216v494q0 137 -75 215.5t-208 78.5t-208 -77.5t-75 -216.5v-494z" />
<glyph unicode="1" horiz-adv-x="929" d="M82 20v117q0 20 20 21h320v985l-305 -94q-4 -2 -11 -2q-12 0 -12 14v119q0 18 12 22l429 144q16 4 24 4h23q14 0 14 -21v-1171h283q20 0 20 -21v-117q0 -20 -20 -20h-777q-20 0 -20 20z" />
<glyph unicode="2" horiz-adv-x="1105" d="M143 20v142q0 117 53.5 206t127 149.5t196.5 141.5q96 61 153.5 106.5t95.5 101t38 122.5v47q0 88 -62.5 132t-183.5 44q-117 0 -177 -52t-60 -138q0 -20 -4.5 -26.5t-14.5 -6.5h-133q-10 0 -15 8.5t-5 28.5q0 160 108.5 250t319.5 90q401 0 401 -338q0 -123 -49 -211 t-119 -144.5t-186 -129.5q-104 -66 -164 -113t-99.5 -114.5t-39.5 -157.5h630q20 0 21 -21v-117q0 -20 -21 -20h-790q-21 0 -21 20z" />
<glyph unicode="3" horiz-adv-x="1122" d="M123 315q0 20 5 28.5t15 8.5h133q10 0 14.5 -6t4.5 -22q0 -94 60.5 -144.5t179.5 -50.5q137 0 213.5 58.5t76.5 162.5v53q0 102 -71.5 155.5t-208.5 53.5h-178q-20 0 -21 21v110q0 20 21 21h180q121 0 183.5 55t62.5 162v53q0 178 -250 178q-246 0 -246 -194 q0 -16 -4 -22.5t-14 -6.5h-134q-20 0 -20 21q0 356 432 356q209 0 309.5 -84t100.5 -258q0 -127 -53.5 -210t-145.5 -112v-4q119 -41 175 -120.5t56 -208.5q0 -190 -118.5 -292t-341.5 -102q-201 0 -308.5 90.5t-107.5 249.5z" />
<glyph unicode="4" horiz-adv-x="1110" d="M20 285v14q0 14 7 27l551 999q10 16 24 16h143q12 0 17.5 -6t-0.5 -16l-496 -897h453v448q0 20 20 21h125q20 0 21 -21v-448h155q20 0 21 -21v-116q0 -20 -21 -21h-155v-244q0 -20 -21 -20h-127q-20 0 -20 20v244h-676q-20 0 -21 21z" />
<glyph unicode="5" horiz-adv-x="1069" d="M102 326q0 14 5.5 20t17.5 6h129q10 0 14 -5t4 -21q0 -197 242 -197q145 0 212 60.5t67 191.5v61q0 135 -69 199t-214 64q-70 0 -155 -18.5t-165 -55.5q-12 -4 -18 -4q-12 0 -21.5 9t-7.5 23l62 662q2 20 20 20h643q20 0 21 -20v-117q0 -20 -21 -20h-510l-26 -361 q123 29 223 29q195 0 303.5 -110.5t108.5 -319.5q0 -217 -120 -332t-347 -115q-195 0 -296.5 88.5t-101.5 262.5z" />
<glyph unicode="6" horiz-adv-x="1163" d="M137 416v516q0 205 123 319.5t348 114.5q182 0 291 -71.5t109 -192.5q0 -37 -21 -37h-133q-18 0 -18 27q0 55 -60.5 87.5t-165.5 32.5q-299 0 -299 -274v-213q176 129 377 129q178 0 268.5 -99.5t90.5 -293.5q0 -231 -118 -358.5t-335 -127.5t-337 114t-120 327zM311 418 q0 -135 75 -212t206 -77q133 0 206.5 77t73.5 216v57q0 111 -57 167t-170 56q-82 0 -168 -32.5t-166 -91.5v-160z" />
<glyph unicode="7" horiz-adv-x="1083" d="M113 1016v305q0 20 20 20h899q20 0 21 -20v-16q0 -8 -6 -25l-574 -1266q-6 -14 -24 -14h-142q-10 0 -14 7t0 18l528 1159h-536v-168q0 -20 -21 -21h-131q-20 0 -20 21z" />
<glyph unicode="8" horiz-adv-x="1179" d="M113 360q0 129 61.5 221.5t169.5 133.5q-90 43 -132 112.5t-42 188.5q0 164 109.5 257t310.5 93t310.5 -93t109.5 -257q0 -119 -42 -188.5t-132 -112.5q109 -41 170 -133.5t61 -221.5q0 -193 -123 -289t-354 -96q-232 0 -354.5 96.5t-122.5 288.5zM287 350 q0 -111 76.5 -169t226.5 -58q149 0 226 58.5t77 168.5v35q0 123 -81 192.5t-222 69.5t-222 -69.5t-81 -192.5v-35zM344 989q0 -98 64.5 -152.5t181.5 -54.5t181.5 54.5t64.5 152.5v31q0 92 -63.5 145.5t-182.5 53.5t-182.5 -53.5t-63.5 -145.5v-31z" />
<glyph unicode="9" horiz-adv-x="1187" d="M137 895q0 229 116 350t335 121t341 -120t122 -335v-481q0 -225 -119 -340t-354 -115q-199 0 -307.5 83t-108.5 229q0 35 20 35h133q18 0 19 -31q0 -66 65.5 -114t180.5 -48q297 0 297 291v188q-88 -70 -171 -99.5t-180 -29.5q-190 0 -289.5 106.5t-99.5 309.5zM311 846 q0 -102 63.5 -158.5t176.5 -56.5q168 0 326 125v168q0 135 -78 211.5t-213 76.5q-133 0 -204 -74.5t-71 -213.5v-78z" />
<glyph unicode=":" horiz-adv-x="475" d="M123 90v21q0 53 27.5 83.5t87.5 30.5q59 0 86.5 -30.5t27.5 -83.5v-21q0 -53 -27.5 -84t-86.5 -31q-60 0 -87.5 31t-27.5 84zM123 844v20q0 53 27.5 84t87.5 31q59 0 86.5 -30.5t27.5 -84.5v-20q0 -53 -27.5 -84t-86.5 -31q-60 0 -87.5 31t-27.5 84z" />
<glyph unicode=";" horiz-adv-x="483" d="M27 -236l102 435q2 6 7 11t11 5h154q10 0 16.5 -9t4.5 -20l-148 -434q-6 -14 -18 -14h-107q-10 0 -17 8t-5 18zM131 844v20q0 53 27.5 84t87.5 31q59 0 86.5 -30.5t27.5 -84.5v-20q0 -53 -27.5 -84t-86.5 -31q-60 0 -87.5 31t-27.5 84z" />
<glyph unicode="&#x3c;" d="M184 547v121q0 16 17 22l819 314l8 2q16 0 16 -19v-127q0 -18 -16 -24l-672 -228l672 -229q16 -6 16 -25v-127q0 -10 -7 -15t-17 -1l-819 313q-16 6 -17 23z" />
<glyph unicode="=" d="M190 389v103q0 20 21 20h807q20 0 20 -20v-103q0 -20 -20 -20h-807q-21 0 -21 20zM190 739v103q0 20 21 20h807q20 0 20 -20v-103q0 -20 -20 -20h-807q-21 0 -21 20z" />
<glyph unicode="&#x3e;" d="M184 227v127q0 18 17 25l671 229l-671 228q-16 6 -17 24v127q0 10 7.5 15.5t17.5 1.5l819 -314q16 -6 16 -22v-121q0 -16 -16 -23l-819 -313l-8 -2q-16 0 -17 18z" />
<glyph unicode="?" horiz-adv-x="952" d="M94 995q0 188 101.5 279.5t304.5 91.5q188 0 283.5 -73.5t95.5 -211.5q0 -84 -35 -154.5t-82 -122.5t-119 -120q-63 -59 -95 -97t-34 -75l-2 -82q0 -8 -6 -14t-14 -6h-125q-9 0 -15 6t-6 14v80q0 72 43 129t127 133q92 84 139 148.5t47 148.5q0 150 -208 150 q-121 0 -173.5 -56.5t-52.5 -169.5q0 -23 -18 -22h-135q-20 0 -21 24zM322 68v59q0 45 29.5 69.5t82.5 24.5q55 0 85 -24.5t30 -69.5v-59q0 -45 -30 -69t-85 -24q-53 0 -82.5 24t-29.5 69z" />
<glyph unicode="@" horiz-adv-x="2048" d="M133 385v205q0 250 94.5 437t289 291.5t487.5 104.5q462 0 686.5 -193.5t224.5 -578.5v-102q0 -233 -122 -375.5t-337 -142.5q-100 0 -167.5 40t-98.5 107q-199 -150 -354 -149q-256 0 -256 262q0 43 6 92l30 231q25 180 127.5 282.5t278.5 102.5q92 0 223 -24 q94 -16 150 -21q23 -2 20 -26l-74 -537q-6 -39 -6 -74q0 -68 29 -100.5t94 -32.5q127 0 205 97.5t78 267.5v102q0 305 -181.5 461t-555.5 156q-338 0 -517.5 -175t-179.5 -503v-205q0 -608 694 -608h279q20 0 20 -21v-114q0 -20 -20 -21h-279q-868 0 -868 764zM750 324 q0 -74 32.5 -108t106.5 -34q63 0 127.5 36t148.5 104l4 32l66 469q-102 23 -213 23q-96 0 -157.5 -57.5t-80.5 -190.5l-28 -203q-6 -39 -6 -71z" />
<glyph unicode="A" horiz-adv-x="1146" d="M2 23l453 1302q6 16 24 16h183q18 0 24 -16l459 -1302l2 -9q0 -14 -19 -14h-145q-18 0 -25 16l-98 297h-584l-96 -297q-6 -16 -24 -16h-138q-23 0 -16 23zM328 465h481l-158 473l-84 246h-2l-82 -240z" />
<glyph unicode="B" horiz-adv-x="1173" d="M174 20v1301q0 20 21 20h364q465 0 465 -335q0 -111 -53 -179.5t-174 -113.5v-4q284 -51 284 -338q0 -190 -127 -280.5t-393 -90.5h-366q-21 0 -21 20zM348 152h211q186 0 267 53t81 176q0 127 -81 185.5t-261 58.5h-217v-473zM348 766h203q156 0 227.5 52t71.5 165 t-72.5 161t-245.5 48h-184v-426z" />
<glyph unicode="C" horiz-adv-x="1296" d="M150 457v428q0 227 134 354t373 127q145 0 259 -47t178.5 -137t64.5 -211q0 -16 -4 -58q-4 -29 -22 -28h-134q-10 0 -15 6t-3 14v20q0 133 -77 207q-83 80 -245 80q-164 0 -249.5 -84t-85.5 -241v-432q0 -158 86 -242t249 -84q150 0 237 69.5t87 192.5q0 29 -2 45v4 q0 16 18 17h131q12 0 17.5 -7.5t7.5 -21.5q2 -18 2 -51q0 -121 -63.5 -212t-177 -140.5t-261.5 -49.5q-239 0 -372 127t-133 355z" />
<glyph unicode="D" horiz-adv-x="1312" d="M174 20v1301q0 20 21 20h358q315 0 471 -146t156 -443v-103q0 -328 -156 -488.5t-471 -160.5h-358q-21 0 -21 20zM348 147h193q240 0 352.5 119t112.5 371v127q0 221 -113 325.5t-352 104.5h-193v-1047z" />
<glyph unicode="E" horiz-adv-x="1091" d="M174 20v1301q0 20 21 20h729q20 0 20 -20v-117q0 -20 -20 -20h-576v-426h526q20 0 21 -21v-110q0 -20 -21 -21h-526v-448h576q20 0 20 -21v-117q0 -20 -20 -20h-729q-21 0 -21 20z" />
<glyph unicode="F" horiz-adv-x="1036" d="M174 20v1301q0 20 21 20h729q20 0 20 -20v-117q0 -20 -20 -20h-576v-447h498q20 0 20 -20v-111q0 -20 -20 -20h-498v-566q0 -20 -20 -20h-133q-21 0 -21 20z" />
<glyph unicode="G" horiz-adv-x="1337" d="M150 457v428q0 225 137 353t377 128q150 0 261 -47t172.5 -135t61.5 -205q0 -35 -2 -53q-2 -20 -22 -21h-134q-10 0 -15 6.5t-3 14.5q1 12 1 24q0 122 -74 188q-81 74 -242 74q-170 0 -257 -81.5t-87 -243.5v-432q0 -326 329 -326q170 0 259 84t89 242v77h-319 q-20 0 -20 21v111q0 20 20 20h461q20 0 20 -20v-404q0 -131 15 -237v-5q0 -18 -19 -18h-108q-18 0 -23 16q-12 66 -14 129h-2q-59 -84 -158.5 -127t-226.5 -43q-224 0 -350.5 128t-126.5 354z" />
<glyph unicode="H" horiz-adv-x="1353" d="M174 20v1301q0 20 21 20h133q20 0 20 -20v-553h658v553q0 20 20 20h133q20 0 21 -20v-1301q0 -20 -21 -20h-133q-20 0 -20 20v596h-658v-596q0 -20 -20 -20h-133q-21 0 -21 20z" />
<glyph unicode="I" horiz-adv-x="522" d="M174 20v1301q0 20 21 20h133q20 0 20 -20v-1301q0 -20 -20 -20h-133q-21 0 -21 20z" />
<glyph unicode="J" horiz-adv-x="542" d="M-10 -150q0 18 37 27q82 20 125 94t43 197v1153q0 20 20 20h133q20 0 21 -20v-1145q0 -197 -75 -312.5t-218 -148.5q-15 -4 -31 -4t-20 13l-35 120v6z" />
<glyph unicode="K" horiz-adv-x="1218" d="M174 20v1301q0 20 21 20h133q20 0 20 -20v-395q0 -166 -2 -248h2l189 209l399 444q8 10 25 10h174q12 0 16 -7t-4 -17l-481 -520l518 -772q4 -9 4 -13q0 -12 -17 -12h-170q-14 0 -24 14l-432 650l-197 -213v-431q0 -20 -20 -20h-133q-20 0 -21 20z" />
<glyph unicode="L" horiz-adv-x="974" d="M174 20v1301q0 20 21 20h133q20 0 20 -20v-1163h565q20 0 21 -21v-117q0 -20 -21 -20h-718q-21 0 -21 20z" />
<glyph unicode="M" horiz-adv-x="1574" d="M143 20l29 1301q0 20 21 20h217q14 0 22 -16l359 -805l352 805q8 16 22 16h217q20 0 21 -20l29 -1301q0 -20 -21 -20h-129q-20 0 -20 20l-21 824v43q0 95 6 256h-4q-53 -127 -129 -299l-303 -658q-6 -14 -23 -14h-4q-16 0 -22 14l-307 668q-41 88 -99 231l-22 58h-4 q4 -139 4 -213v-78l-21 -832q0 -20 -20 -20h-129q-21 0 -21 20z" />
<glyph unicode="N" horiz-adv-x="1355" d="M174 20v1301q0 20 21 20h229q18 0 25 -14l409 -831l150 -308h4l-2 336v797q0 20 20 20h131q20 0 21 -20v-1301q0 -20 -21 -20h-221q-18 0 -25 14l-385 772l-182 367h-4l2 -424v-709q0 -20 -20 -20h-131q-21 0 -21 20z" />
<glyph unicode="O" horiz-adv-x="1314" d="M150 457v428q0 233 126.5 357t380.5 124t381 -124t127 -357v-428q0 -233 -127 -357.5t-381 -124.5t-380.5 124t-126.5 358zM324 459q0 -162 85 -246t248 -84q164 0 249 84t85 246v424q0 162 -85 245.5t-249 83.5t-248.5 -84t-84.5 -245v-424z" />
<glyph unicode="P" horiz-adv-x="1116" d="M174 20v1301q0 20 21 20h342q246 0 371.5 -105.5t125.5 -311.5q0 -205 -126 -311.5t-371 -106.5h-189v-486q0 -20 -20 -20h-133q-21 0 -21 20zM348 653h184q170 0 249 64.5t79 200.5q0 143 -80 209.5t-252 66.5h-180v-541z" />
<glyph unicode="Q" horiz-adv-x="1314" d="M150 457v428q0 233 126.5 357t380.5 124t381 -124t127 -357v-428q0 -195 -89 -314.5t-265 -152.5q6 -111 34.5 -157t90.5 -46q12 0 32.5 4t30.5 6h5q18 0 18 -18v-113q0 -18 -25 -26q-45 -12 -94 -13q-119 0 -181.5 84t-76.5 264q-248 2 -371.5 126t-123.5 356zM324 459 q0 -162 85 -246t248 -84q164 0 249 84t85 246v424q0 162 -85 245.5t-249 83.5t-248.5 -84t-84.5 -245v-424z" />
<glyph unicode="R" horiz-adv-x="1236" d="M174 20v1301q0 20 21 20h395q242 0 360.5 -92t118.5 -276q0 -147 -70.5 -244.5t-199.5 -134.5v-2l342 -567q4 -8 4 -13q0 -12 -19 -12h-157q-16 0 -25 14l-334 557h-262v-551q0 -20 -20 -20h-133q-21 0 -21 20zM348 711h223q172 0 248 58t76 192q0 127 -70.5 180 t-240.5 53h-236v-483z" />
<glyph unicode="S" horiz-adv-x="1161" d="M106 356q2 37 25 37h129q25 0 25 -33q0 -123 72.5 -178t226.5 -55q295 0 295 211q0 80 -41 126t-146 89l-301 125q-139 57 -200.5 136t-61.5 198q0 174 111.5 263t326.5 89q217 0 338 -96.5t121 -272.5q0 -39 -20 -39h-132q-12 0 -16 8.5t-4 30.5q0 104 -74.5 160.5 t-218.5 56.5q-258 0 -258 -190q0 -72 42 -118t151 -91l297 -125q141 -59 200.5 -138t59.5 -208q0 -176 -120 -271.5t-364 -95.5q-239 1 -357 103q-107 93 -107 246q0 16 1 32z" />
<glyph unicode="T" horiz-adv-x="1095" d="M72 1204v117q0 20 20 20h912q20 0 20 -20v-117q0 -20 -20 -20h-369v-1164q0 -20 -21 -20h-133q-20 0 -20 20v1164h-369q-20 0 -20 20z" />
<glyph unicode="U" horiz-adv-x="1318" d="M164 461v860q0 20 20 20h133q20 0 21 -20v-866q0 -158 83 -242t238 -84q156 0 239 84t83 242v866q0 20 20 20h134q20 0 20 -20v-864q0 -225 -132 -353.5t-364 -128.5q-235 0 -365 126t-130 360z" />
<glyph unicode="V" horiz-adv-x="1196" d="M31 1327q0 14 18 14h144q18 0 24 -16l283 -872q51 -160 90 -285h4q27 88 65 199l27 79l295 879q6 16 25 16h141q23 0 16 -22l-448 -1303q-6 -16 -25 -16h-194q-19 0 -25 16l-438 1303z" />
<glyph unicode="W" horiz-adv-x="1734" d="M41 1325q0 16 20 16h136q18 0 22 -16l238 -846l78 -289h2l86 281l172 571l-74 256l-2 7q0 16 20 16h140q18 0 22 -18l232 -850l71 -263h2l74 283l229 852q4 16 23 16h141q10 0 15.5 -6t3.5 -16l-361 -1303q-4 -16 -22 -16h-195q-18 0 -22 16l-140 482q-27 90 -75 270h-3 l-79 -264l-146 -488q-6 -16 -22 -16h-187q-18 0 -22 16l-375 1303z" />
<glyph unicode="X" horiz-adv-x="1128" d="M11.5 7q-3.5 7 2.5 18l439 667l-410 625q-4 8 -4 12q0 12 16 12h164q12 0 23 -12l231 -354l96 -154h2l103 162l223 346q10 12 25 12h155q13 0 16 -7t-3 -17l-408 -629l432 -663q4 -8 4 -13q0 -12 -16 -12h-164q-14 0 -25 12l-243 375l-31 49q-53 82 -76 121h-2 q-63 -104 -104 -166l-244 -377q-10 -14 -25 -14h-161q-12 0 -15.5 7z" />
<glyph unicode="Y" horiz-adv-x="1095" d="M20 1327q0 14 17 14h156q18 0 24 -14l225 -463l107 -219h2l108 225l224 457q6 14 24 14h152q10 0 14 -7t0 -17l-438 -856v-441q0 -20 -21 -20h-133q-20 0 -20 20v441l-438 856q-2 4 -3 10z" />
<glyph unicode="Z" horiz-adv-x="1116" d="M41 18v5q0 10 8 26l610 932q86 135 134 203v2q-78 -2 -236 -2h-428q-20 0 -20 20v117q0 20 20 20h920q8 0 14 -5t6 -13v-4q0 -10 -8 -27l-602 -911q-106 -166 -148 -223v-2q90 2 271 2h419q20 0 21 -21v-117q0 -20 -21 -20h-940q-8 0 -14 5t-6 13z" />
<glyph unicode="[" horiz-adv-x="552" d="M154 -270v1677q0 20 20 20h379q20 0 20 -20v-102q0 -20 -20 -21h-225v-1431h225q20 0 20 -21v-102q0 -20 -20 -21h-379q-20 0 -20 21z" />
<glyph unicode="\" horiz-adv-x="761" d="M25 1327q0 14 20 14h127q18 0 25 -16l538 -1302q2 -2 2 -9q0 -14 -20 -14h-127q-19 0 -25 16l-538 1303q-2 2 -2 8z" />
<glyph unicode="]" horiz-adv-x="552" d="M-20 -168q0 20 20 21h225v1431h-225q-20 0 -20 21v102q0 20 20 20h379q20 0 20 -20v-1677q0 -20 -20 -21h-379q-20 1 -20 21v102z" />
<glyph unicode="^" horiz-adv-x="1036" d="M95 724q-5 7 1 17l338 643q8 14 25 15h121q16 0 24 -15l338 -643q2 -4 2 -10q0 -14 -16 -14h-127q-18 0 -25 14l-258 510l-256 -510q-8 -14 -24 -14h-127q-11 0 -16 7z" />
<glyph unicode="_" horiz-adv-x="1105" d="M0 -150q0 20 20 21h1065q21 -1 21 -21v-92q0 -20 -21 -20h-1065q-20 0 -20 20v92z" />
<glyph unicode="`" horiz-adv-x="442" d="M61 1409q0 14 19 14h139q16 0 24 -14l133 -246l5 -10q0 -6 -5.5 -10t-13.5 -4h-102q-17 0 -25 12l-170 248z" />
<glyph unicode="a" horiz-adv-x="1011" d="M98 256q0 109 42 174.5t134.5 102t249.5 51.5l160 14v84q0 102 -42 145t-142 43q-185 0 -185 -123q0 -24 -18 -24h-135q-12 0 -17.5 13.5t-5.5 45.5q0 109 100.5 175.5t266.5 66.5q178 0 265 -84t87 -254v-438q0 -147 14 -225v-5q0 -18 -20 -18h-119q-10 0 -15 7t-9 22 q-10 43 -17 131q-96 -98 -178 -141.5t-172 -43.5q-121 0 -182.5 72t-61.5 209zM272 268q0 -139 115 -139q64 0 130.5 39t166.5 139v158l-164 -14q-141 -12 -194.5 -51.5t-53.5 -131.5z" />
<glyph unicode="b" horiz-adv-x="1097" d="M154 16v1362q0 20 20 21h133q20 0 21 -21v-497q88 76 166.5 109.5t167.5 33.5q149 0 227 -95t78 -286v-252q0 -416 -418 -416q-78 0 -197 19q-133 18 -198 22zM328 150q102 -20 196 -21q137 0 203 68.5t66 210.5v225q0 123 -41 180t-127 57q-66 0 -132.5 -34.5 t-164.5 -118.5v-567z" />
<glyph unicode="c" horiz-adv-x="1058" d="M127 373v254q0 193 108.5 295t313.5 102q178 0 282.5 -80t104.5 -211q0 -27 -5 -37t-16 -10h-135q-18 0 -18 33q0 70 -57.5 110.5t-155.5 40.5q-125 0 -186.5 -63.5t-61.5 -196.5v-221q0 -260 246 -260q96 0 154.5 42t58.5 108q0 33 18 32h135q20 0 21 -18q1 -13 1 -25 q-1 -128 -97 -206q-106 -86 -291 -87q-203 0 -311.5 102.5t-108.5 295.5z" />
<glyph unicode="d" horiz-adv-x="1112" d="M131 356v256q0 195 98.5 303.5t272.5 108.5q72 0 150.5 -17.5t129.5 -45.5v417q0 20 21 21h133q20 0 20 -21v-1147q0 -51 4.5 -113.5t10.5 -88.5l2 -9q0 -20 -23 -20h-125q-23 0 -24 23q-10 57 -15 127q-96 -90 -180 -132.5t-178 -42.5q-145 0 -221 96.5t-76 284.5z M305 346q0 -217 168 -217q72 0 139.5 38t169.5 136v510q-59 27 -126.5 42t-123.5 15q-227 0 -227 -278v-246z" />
<glyph unicode="e" horiz-adv-x="1062" d="M127 340v287q0 193 104.5 295t303.5 102t302 -99.5t103 -287.5v-160q0 -20 -20 -20h-619v-66q0 -139 57.5 -200.5t186.5 -61.5q96 0 147 32t53 93q0 10 6.5 16t16.5 6h133q16 0 21 -18q1 -9 1 -18q1 -118 -97 -189q-104 -76 -291 -76q-396 0 -408 365zM301 606h465v12 q-4 129 -59.5 190.5t-169.5 61.5q-236 0 -236 -254v-10z" />
<glyph unicode="f" horiz-adv-x="751" d="M41 870v109q0 20 20 20h158v107q0 150 88 233.5t246 83.5q45 0 94 -9t86 -23q39 -14 39 -33v-113q0 -14 -14 -14t-33 8q-33 14 -78 23.5t-82 9.5q-84 0 -128 -43t-44 -127v-103h297q20 0 21 -20v-109q0 -20 -21 -20h-297v-830q0 -20 -20 -20h-133q-21 0 -21 20v830h-158 q-20 0 -20 20z" />
<glyph unicode="g" horiz-adv-x="1062" d="M72 -143q0 152 127 229q-51 47 -52 137q0 57 24 98t83 89q-92 86 -92 264t93 264t290 86q63 0 106 -8q16 143 37 225q6 25 25 25h129q23 0 16 -21q-31 -92 -61 -284q118 -85 118 -286q0 -181 -92 -266t-284 -85q-102 0 -181 24q-51 -33 -51 -88q0 -37 23.5 -52t77.5 -20 l340 -20q241 -15 241 -279q0 -156 -110.5 -224t-356.5 -68q-238 0 -344 63.5t-106 196.5zM252 -111q0 -82 61.5 -113.5t216.5 -31.5q111 0 172.5 14.5t88 47t26.5 92.5q0 59 -28.5 87.5t-94.5 30.5l-358 19q-84 -43 -84 -146zM336 672q0 -109 45 -153t158 -44t157.5 44 t44.5 153q0 111 -45 155.5t-157 44.5q-113 0 -158 -45t-45 -155z" />
<glyph unicode="h" horiz-adv-x="1138" d="M154 20v1358q0 20 20 21h133q20 0 21 -21v-526q90 90 175 131t181 41q147 0 224 -87t77 -255v-662q0 -20 -20 -20h-134q-20 0 -20 20v654q0 196 -164 196h-2q-76 0 -152.5 -42t-164.5 -132v-676q0 -20 -21 -20h-133q-20 0 -20 20z" />
<glyph unicode="i" horiz-adv-x="481" d="M133 1262v55q0 45 28 67.5t81 22.5q111 0 111 -90v-55q0 -43 -29 -65.5t-82 -22.5t-81 22.5t-28 65.5zM154 20v959q0 20 20 20h133q20 0 21 -20v-959q0 -20 -21 -20h-133q-20 0 -20 20z" />
<glyph unicode="j" horiz-adv-x="483" d="M-27 -270q0 10 11 16q170 117 170 385v848q0 20 20 20h133q21 0 21 -20v-858q0 -178 -59.5 -301t-182.5 -209q-8 -4 -12 -4q-6 0 -17 10l-80 100q-4 4 -4 13zM133 1262v55q0 45 28 67.5t81 22.5q111 0 111 -90v-55q0 -43 -29 -65.5t-82 -22.5t-81 22.5t-28 65.5z" />
<glyph unicode="k" horiz-adv-x="1005" d="M154 20v1358q0 20 20 21h133q20 0 21 -21v-530q0 -188 -2 -283h2q74 84 151 164l242 260q8 10 24 10h181q14 0 17 -7t-7 -17l-340 -348l371 -602q4 -9 4 -13q0 -12 -19 -12h-157q-14 0 -25 14l-299 484l-143 -146v-332q0 -20 -21 -20h-133q-20 0 -20 20z" />
<glyph unicode="l" horiz-adv-x="481" d="M154 20v1358q0 20 20 21h133q20 0 21 -21v-1358q0 -20 -21 -20h-133q-20 0 -20 20z" />
<glyph unicode="m" horiz-adv-x="1730" d="M139 975v4q0 20 23 20h123q10 0 14 -3t6 -11q16 -104 19 -137q94 94 175 135t175 41q207 0 260 -190q100 102 184 146t180 44q137 0 208 -86t71 -254v-664q0 -20 -21 -20h-133q-20 0 -20 20v654q0 196 -147 196h-1q-68 0 -138 -41t-165 -133v-676q0 -20 -20 -20h-133 q-20 0 -21 20v654q0 196 -146 196h-1q-68 0 -138.5 -41t-164.5 -133v-676q0 -20 -21 -20h-133q-20 0 -20 20v730q0 133 -15 225z" />
<glyph unicode="n" horiz-adv-x="1138" d="M139 973v6q0 20 21 20h125q10 0 14 -4t8 -16q8 -33 17 -129q94 92 177 133t181 41q147 0 225 -87t78 -255v-662q0 -20 -20 -20h-134q-20 0 -20 20v654q0 100 -41 148t-127 48q-74 0 -144.5 -38.5t-170.5 -135.5v-676q0 -20 -21 -20h-133q-20 0 -20 20v730 q0 57 -4.5 121.5t-10.5 101.5z" />
<glyph unicode="o" horiz-adv-x="1097" d="M127 381v237q0 406 422 406q207 0 314.5 -101.5t107.5 -304.5v-237q0 -406 -422 -406t-422 406zM301 397q0 -137 59.5 -202.5t188.5 -65.5t188.5 65.5t59.5 202.5v205q0 137 -59.5 202.5t-188.5 65.5t-188.5 -65.5t-59.5 -202.5v-205z" />
<glyph unicode="p" horiz-adv-x="1099" d="M139 975v4q0 20 21 20h125q20 0 22 -20q12 -63 15 -107q92 80 170.5 116t169.5 36q307 0 307 -381v-256q0 -199 -94.5 -305.5t-272.5 -106.5q-72 0 -147.5 16.5t-126.5 45.5v-395q0 -20 -21 -21h-133q-20 0 -20 21v1126q0 102 -15 207zM328 184q53 -27 116.5 -41 t120.5 -14q117 0 173.5 68.5t56.5 210.5v225q0 121 -42 179t-128 58q-66 0 -131.5 -34.5t-165.5 -120.5v-531z" />
<glyph unicode="q" horiz-adv-x="1107" d="M131 356v252q0 416 418 416q55 0 109.5 -7t105.5 -18q12 -2 69.5 -12t120.5 -14v-1331q0 -20 -20 -21h-133q-20 0 -21 21v479q-86 -76 -170 -111t-176 -35q-154 0 -228.5 94.5t-74.5 286.5zM305 367q0 -125 40 -181.5t128 -56.5q70 0 138.5 34t168.5 120v565 q-104 22 -206 22h-9q-137 0 -198.5 -66.5t-61.5 -211.5v-225z" />
<glyph unicode="r" horiz-adv-x="729" d="M139 977v4q0 8 6.5 13t14.5 5h125q20 0 22 -18q12 -68 17 -145q66 82 148.5 135t150.5 53q37 0 55 -6q14 -4 18 -21q2 -20 2 -61q0 -59 -6 -113q-4 -23 -26 -16q-31 8 -74 8q-68 0 -137.5 -40t-126.5 -109v-646q0 -20 -21 -20h-133q-20 0 -20 20v736q0 119 -15 221z" />
<glyph unicode="s" horiz-adv-x="952" d="M109 299q0 18 20 18h135q18 0 19 -16q0 -92 46 -133t150 -41q100 0 151.5 33t51.5 98q0 45 -28.5 78t-90.5 59l-233 97q-113 47 -160 106t-47 154q0 272 342 272q174 0 270 -73.5t96 -205.5q0 -18 -20 -18h-135q-20 0 -21 33q0 53 -49 82.5t-135 29.5q-88 0 -131 -29.5 t-43 -90.5q0 -45 22.5 -67.5t96.5 -53.5l233 -99q111 -47 159 -108.5t48 -155.5q0 -141 -98.5 -217t-280.5 -76q-368 0 -368 324z" />
<glyph unicode="t" horiz-adv-x="792" d="M41 870v109q0 20 20 20h162l23 246q2 20 22 21h103q20 0 20 -21l2 -246h305q20 0 21 -20v-109q0 -20 -21 -20h-305v-549q0 -96 34 -135t116 -39q80 0 153 33q4 2 11 2q14 0 14 -17v-112q0 -16 -16 -23q-84 -35 -201 -35q-154 0 -219.5 78t-65.5 244v553h-158 q-20 0 -20 20z" />
<glyph unicode="u" horiz-adv-x="1110" d="M154 317v662q0 20 20 20h133q20 0 21 -20v-653q0 -100 35.5 -148.5t111.5 -48.5q70 0 139.5 40t167.5 134v676q0 20 21 20h133q20 0 20 -20v-729q0 -123 15 -230v-4q0 -16 -23 -16h-114q-23 0 -25 20q-12 86 -14 138q-193 -182 -371 -183q-131 0 -200.5 88.5t-69.5 253.5 z" />
<glyph unicode="v" horiz-adv-x="1015" d="M51 985q0 14 19 14h141q18 0 25 -16l182 -573q61 -188 88 -283h4q23 80 88 281l182 575q6 16 25 16h141q23 0 17 -22l-336 -961q-6 -16 -25 -16h-190q-19 0 -25 16l-334 961z" />
<glyph unicode="w" horiz-adv-x="1466" d="M51 985q0 14 19 14h143q16 0 23 -18l161 -565l74 -262h4l82 254l111 342l-62 206l-2 9q0 14 19 14h129q18 0 22 -16l152 -557l65 -252h4l72 258l164 569q6 18 22 18h144q22 1 16 -22l-299 -959q-6 -18 -22 -18h-187q-16 0 -22 16l-64 209l-78 277h-4l-86 -271l-69 -215 q-6 -16 -23 -16h-186q-16 0 -23 18l-297 959z" />
<glyph unicode="x" horiz-adv-x="976" d="M20.5 8q-4.5 8 4.5 17l354 489l-330 461q-4 4 -4 12q0 4 4 8t12 4h160q16 0 25 -12l143 -207q35 -49 98 -147h2q76 111 111 160l137 194q8 12 25 12h149q12 0 16.5 -7t-3.5 -17l-330 -455l358 -495q4 -4 4 -13q0 -4 -4 -8t-12 -4h-160q-16 0 -24 12l-138 193l-133 192h-2 q-61 -96 -104 -155l-25 -37l-135 -193q-8 -12 -24 -12h-158q-12 0 -16.5 8z" />
<glyph unicode="y" horiz-adv-x="1015" d="M47 985q0 14 16 14h146q16 0 22 -16l185 -496q27 -72 47 -131q10 -29 21.5 -62.5t25.5 -70.5h2l96 264l185 496q6 16 24 16h137q11 0 16 -7t1 -17l-518 -1337q-6 -16 -23 -17h-133q-10 0 -14 7t0 18l145 366l-379 963q-2 4 -2 10z" />
<glyph unicode="z" horiz-adv-x="950" d="M51 18v5q0 16 8 26l449 633q78 111 119 166v2h-234h-274q-20 0 -21 20v109q0 20 21 20h760q8 0 14 -5t6 -13v-4q0 -16 -8 -27l-436 -614q-86 -123 -131 -184v-2h206h326q20 0 21 -21v-109q0 -20 -21 -20h-784q-9 0 -15 5t-6 13z" />
<glyph unicode="{" horiz-adv-x="544" d="M20 516v102q0 20 21 21h31q74 0 103.5 36t29.5 128v256q0 158 28.5 234.5t97 104t204.5 29.5q20 0 20 -20v-102q0 -20 -20 -21q-68 -2 -101 -16.5t-44 -52t-11 -113.5v-299q0 -104 -27.5 -158.5t-91.5 -77.5q61 -20 90 -75.5t29 -159.5v-297q0 -78 12 -116t44 -51 t100 -15q20 0 20 -21v-102q0 -20 -20 -21q-138 2 -206.5 32t-96 105.5t-27.5 231.5v254q0 94 -30 129t-103 35h-31q-20 0 -21 20z" />
<glyph unicode="|" horiz-adv-x="526" d="M174 -193v1725q0 20 21 20h137q20 0 20 -20v-1725q0 -20 -20 -20h-137q-20 0 -21 20z" />
<glyph unicode="}" horiz-adv-x="544" d="M-10 -168q0 20 20 21q68 2 99.5 15t44 51t12.5 116v297q0 104 28.5 159.5t90.5 75.5q-63 23 -91 77t-28 159v299q0 76 -11.5 113.5t-44 52t-100.5 16.5q-20 0 -20 21v102q0 20 20 20q135 -2 204 -29.5t97.5 -104t28.5 -234.5v-256q0 -92 29.5 -128t103.5 -36h31 q20 0 20 -21v-102q0 -20 -20 -20h-31q-74 0 -103.5 -35t-29.5 -129v-254q0 -156 -27.5 -231.5t-96.5 -105.5t-206 -32q-20 1 -20 21v102z" />
<glyph unicode="~" d="M190 545v102q0 8 2.5 13.5t8.5 7.5q39 18 99 35.5t132 17.5q57 0 98 -7t95 -22q49 -14 87 -21t89 -7q61 0 134 20.5t81 22.5l8 2q14 0 14 -19v-102q0 -18 -14 -25q-119 -49 -227 -49q-58 0 -98 7t-91 22q-53 14 -90 21t-90 7q-61 0 -134 -20.5t-81 -22.5l-8 -2 q-14 0 -15 19z" />
<glyph unicode="&#xa2;" horiz-adv-x="1290" d="M242 475v254q0 174 90 275.5t260 117.5v140q0 20 20 20h115q20 0 21 -20v-142q141 -16 222 -93t81 -191q0 -27 -5.5 -37.5t-15.5 -10.5h-135q-18 0 -18 33q0 70 -57.5 111t-155.5 41q-125 0 -186.5 -63.5t-61.5 -196.5v-221q0 -260 246 -261q96 0 154 42t58 108 q0 33 19 33h135q21 -1 21 -19q8 -129 -73 -211t-228 -100v-141q0 -20 -21 -21h-115q-20 0 -20 21v139q-170 16 -260 117.5t-90 275.5z" />
<glyph unicode="&#xa3;" horiz-adv-x="1290" d="M176 645v103q0 20 21 20h149v193q4 190 90 297.5t283 107.5q168 0 258 -82t90 -274q0 -20 -20 -21h-132q-16 0 -16 21q0 92 -38 147t-140 55q-113 0 -157 -62.5t-44 -203.5v-178h314q20 0 20 -20v-103q0 -20 -20 -20h-314v-248q0 -80 -21.5 -131t-60.5 -88h672 q20 -1 20 -21v-117q0 -20 -20 -20h-842q-20 0 -20 20v89q0 14 10 24q88 96 88 207v285h-149q-20 0 -21 20z" />
<glyph unicode="&#xa5;" horiz-adv-x="1290" d="M141 1327q0 14 17 14h153q18 0 25 -14l225 -498l23 -49l63 -143h2q25 57 86 194l226 496q6 14 24 14h150q10 0 14 -7t0 -17l-352 -727h151q20 0 21 -21v-102q0 -20 -21 -21h-215v-104h215q20 0 21 -20v-103q0 -20 -21 -20h-215v-179q0 -20 -20 -20h-133q-20 0 -21 20v179 h-217q-20 0 -20 20v103q0 20 20 20h217v104h-217q-20 0 -20 21v102q0 20 20 21h154l-353 727q-2 4 -2 10z" />
<glyph unicode="&#xa8;" horiz-adv-x="677" d="M62 1251v60q0 41 27.5 63.5t76.5 22.5q51 0 78.5 -22.5t27.5 -63.5v-60q0 -39 -27.5 -61.5t-78.5 -22.5q-47 0 -75.5 22.5t-28.5 61.5zM406 1251v60q0 41 27.5 63.5t76.5 22.5q51 0 79 -22.5t28 -63.5v-60q0 -39 -28 -61.5t-79 -22.5q-47 0 -75.5 22.5t-28.5 61.5z" />
<glyph unicode="&#xa9;" horiz-adv-x="1466" d="M154 475v287q0 238 144 369t435 131t435.5 -131.5t144.5 -368.5v-287q0 -238 -144.5 -369t-435.5 -131t-435 131.5t-144 368.5zM301 469q0 -176 109.5 -267t322.5 -91t322.5 91t109.5 267v299q0 176 -109.5 267t-322.5 91t-322.5 -91t-109.5 -267v-299zM455 537v163 q0 131 74.5 204t209.5 73q133 0 205 -62.5t72 -175.5q0 -23 -19 -22h-114q-18 0 -19 24q0 45 -31.5 70t-91.5 25q-133 0 -133 -146v-143q0 -145 129 -146q125 0 125 95q0 12 4 17t17 5h112q18 0 19 -20q0 -106 -73 -172t-206 -66t-206.5 73t-73.5 204z" />
<glyph unicode="&#xab;" horiz-adv-x="1019" d="M147.5 538.5q-0.5 8.5 4.5 14.5l188 319q10 14 25 15h135q10 0 15 -7.5t-1 -17.5l-176 -323l176 -324l4 -10q0 -6 -5 -10.5t-13 -4.5h-135q-15 1 -25 15l-188 319q-4 6 -4.5 14.5zM496 538.5q0 8.5 4 14.5l188 319q10 14 25 15h135q10 0 15 -7.5t-1 -17.5l-176 -323 l176 -324l4 -10q0 -6 -5 -10.5t-13 -4.5h-135q-15 1 -25 15l-188 319q-4 6 -4 14.5z" />
<glyph unicode="&#xad;" horiz-adv-x="1003" d="M143 498v92q0 20 21 20h676q20 0 20 -20v-92q0 -20 -20 -21h-676q-20 0 -21 21z" />
<glyph unicode="&#xae;" horiz-adv-x="1224" d="M162 1001v62q0 176 111.5 276.5t338.5 100.5t339 -100.5t112 -276.5v-62q0 -176 -111.5 -276t-339.5 -100q-227 0 -338.5 100t-111.5 276zM268 989q0 -127 89 -195.5t255 -68.5t255 68.5t89 195.5v86q0 127 -89 195.5t-255 68.5t-255 -68.5t-89 -195.5v-86zM444 829v418 q0 18 23 19h145q111 0 159 -37t48 -109q0 -53 -24.5 -83.5t-81.5 -51.5l106 -151q6 -6 6 -13q0 -12 -16 -12h-66q-14 0 -24 14l-101 150h-77v-144q0 -20 -21 -20h-55q-21 0 -21 20zM541 1051h82q98 0 98 57v16q0 35 -23.5 49.5t-79.5 14.5h-77v-137z" />
<glyph unicode="&#xb4;" horiz-adv-x="442" d="M64.5 1146q-5.5 7 0.5 17l133 246q8 14 25 14h139q12 0 16.5 -7t-2.5 -17l-170 -248q-8 -12 -24 -12h-102q-10 0 -15.5 7z" />
<glyph unicode="&#xb8;" horiz-adv-x="417" d="M62 -307q0 18 18 18q16 0 29.5 -2t25.5 -2q84 0 84 49v27q0 31 -16 42t-53 11h-41q-20 0 -21 21q0 23 4 34l45 150q6 16 25 16h86q10 0 15 -6t3 -16l-36 -119h20q45 0 76 -37t31 -94v-31q0 -82 -48.5 -119.5t-146.5 -37.5q-43 0 -82 8q-18 0 -18 20v68z" />
<glyph unicode="&#xbb;" horiz-adv-x="1019" d="M154 872q0 6 5 10.5t13 4.5h135q14 0 25 -15l188 -319q4 -6 4 -14.5t-4 -14.5l-188 -319q-10 -14 -25 -15h-135q-10 0 -15 7.5t1 17.5l176 324l-176 323zM502 872q0 6 5 10.5t13 4.5h135q14 0 25 -15l188 -319q4 -6 4 -14.5t-4 -14.5l-188 -319q-10 -14 -25 -15h-135 q-10 0 -15 7.5t1 17.5l176 324l-176 323z" />
<glyph unicode="&#x2c6;" horiz-adv-x="655" d="M61 1145v100q0 14 14 25l238 135q6 4 14.5 4t14.5 -4l237 -135q14 -10 15 -25v-100q0 -10 -7.5 -15.5t-17.5 0.5l-242 121l-241 -121l-11 -4q-6 0 -10 5.5t-4 13.5z" />
<glyph unicode="&#x2da;" horiz-adv-x="577" d="M62 1325q0 94 60.5 145.5t166.5 51.5q105 0 166.5 -51.5t61.5 -145.5t-60.5 -145.5t-167.5 -51.5q-104 0 -165.5 51.5t-61.5 145.5zM185 1325q0 -94 104 -94t105 94q0 94 -105 94q-104 0 -104 -94z" />
<glyph unicode="&#x2dc;" horiz-adv-x="655" d="M61 1221v94q0 18 12 26q68 51 152 52q37 0 60.5 -7.5t64.5 -21.5q53 -23 84 -23q51 0 135 39q4 2 10 2q14 0 15 -16v-94q0 -16 -13 -27q-68 -51 -151 -51q-48 0 -109 27q-25 10 -50.5 17t-49.5 7q-51 0 -135 -39q-4 -2 -11 -2q-14 0 -14 17z" />
<glyph unicode="&#x401;" horiz-adv-x="1091" d="M174 20v1301q0 20 21 20h729q20 0 20 -20v-117q0 -20 -20 -20h-576v-426h526q20 0 21 -21v-110q0 -20 -21 -21h-526v-448h576q20 0 20 -21v-117q0 -20 -20 -20h-729q-21 0 -21 20zM295 1540v59q0 43 28.5 66t77.5 23q51 0 78.5 -23t27.5 -66v-59q0 -41 -27.5 -63.5 t-78.5 -22.5q-49 0 -77.5 23.5t-28.5 62.5zM637 1540v59q0 43 28.5 66t77.5 23q53 0 81 -23t28 -66v-59q0 -41 -29 -63.5t-80 -22.5q-47 0 -76.5 23.5t-29.5 62.5z" />
<glyph unicode="&#x402;" horiz-adv-x="1519" d="M72 1204v117q0 20 20 20h952q20 0 21 -20v-117q0 -20 -21 -20h-409v-447q180 164 393 164q162 0 250 -94t88 -268v-140q0 -180 -91 -290.5t-251 -131.5l-25 -2q-10 0 -13 2.5t-5 10.5l-35 121q-2 4 -2 12q0 14 35 18q104 16 158.5 81t54.5 175v125q0 115 -51 171.5 t-156 56.5q-86 0 -168 -40t-182 -130v-558q0 -20 -21 -20h-133q-20 0 -20 20v1164h-369q-20 0 -20 20z" />
<glyph unicode="&#x403;" horiz-adv-x="983" d="M174 20v1301q0 20 21 20h696q20 0 20 -20v-117q0 -20 -20 -20h-543v-1164q0 -20 -20 -20h-133q-21 0 -21 20zM454.5 1461q-4.5 7 2.5 18l112 204q6 14 25 15h143q12 0 16.5 -7.5t-4.5 -17.5l-147 -207q-8 -12 -25 -12h-106q-12 0 -16.5 7z" />
<glyph unicode="&#x404;" horiz-adv-x="1245" d="M150 389v563q0 219 109.5 316.5t352.5 97.5q231 0 356.5 -79t125.5 -224l-2 -31q-4 -25 -8.5 -34t-14.5 -9h-133q-10 0 -14 9.5t-4 31.5q0 96 -70 139t-221 43q-166 0 -234.5 -53t-68.5 -182v-217h553q20 0 20 -21v-114q0 -20 -20 -21h-553v-235q0 -131 72.5 -185.5 t246.5 -54.5q156 0 224.5 42t68.5 138q0 23 4 32t14 9h133q10 0 15.5 -13t5.5 -46q0 -164 -107.5 -240t-343.5 -76q-270 0 -388.5 97.5t-118.5 316.5z" />
<glyph unicode="&#x405;" horiz-adv-x="1161" d="M106 356q2 37 25 37h129q25 0 25 -33q0 -123 72.5 -178t226.5 -55q295 0 295 211q0 80 -41 126t-146 89l-301 125q-139 57 -200.5 136t-61.5 198q0 174 111.5 263t326.5 89q217 0 338 -96.5t121 -272.5q0 -39 -20 -39h-132q-12 0 -16 8.5t-4 30.5q0 104 -74.5 160.5 t-218.5 56.5q-258 0 -258 -190q0 -72 42 -118t151 -91l297 -125q141 -59 200.5 -138t59.5 -208q0 -176 -120 -271.5t-364 -95.5q-239 0 -357 102.5t-106 278.5z" />
<glyph unicode="&#x406;" horiz-adv-x="522" d="M174 20v1301q0 20 21 20h133q20 0 20 -20v-1301q0 -20 -20 -20h-133q-21 0 -21 20z" />
<glyph unicode="&#x407;" horiz-adv-x="522" d="M-16 1540v59q0 43 28.5 66t77.5 23q51 0 78.5 -23t27.5 -66v-59q0 -41 -27.5 -63.5t-78.5 -22.5q-49 0 -77.5 23.5t-28.5 62.5zM174 20v1301q0 20 21 20h133q20 0 20 -20v-1301q0 -20 -20 -20h-133q-21 0 -21 20zM326 1540v59q0 43 28.5 66t77.5 23q53 0 81 -23t28 -66 v-59q0 -41 -29 -63.5t-80 -22.5q-47 0 -76.5 23.5t-29.5 62.5z" />
<glyph unicode="&#x408;" horiz-adv-x="542" d="M-10 -150q0 18 37 27q82 20 125 94t43 197v1153q0 20 20 20h133q20 0 21 -20v-1145q0 -197 -75 -312.5t-218 -148.5q-15 -4 -31 -4t-20 13l-35 120v6z" />
<glyph unicode="&#x409;" horiz-adv-x="1755" d="M2 23l426 1302q6 16 25 16h182q18 0 24 -16l162 -485h359q250 0 371.5 -99.5t121.5 -302.5q0 -213 -128 -325.5t-371 -112.5h-248q-14 4 -21 16l-282 910q-23 78 -82 258h-2q-18 -53 -52 -168q-2 -4 -26 -86l-281 -914q-6 -16 -24 -16h-138q-22 0 -16 23zM870 692 l181 -545h114q334 0 334 291q0 135 -76.5 194.5t-251.5 59.5h-301z" />
<glyph unicode="&#x40a;" horiz-adv-x="1980" d="M174 20v1301q0 20 21 20h133q20 0 20 -20v-510h658v510q0 20 20 20h133q20 0 21 -20v-510h225q242 0 367.5 -100.5t125.5 -290.5q0 -201 -131 -310.5t-368 -109.5h-373q-20 0 -20 20v639h-658v-639q0 -20 -20 -20h-133q-20 0 -21 20zM1180 147h211q163 0 248 70t85 201 q0 125 -79.5 183t-247.5 58h-217v-512z" />
<glyph unicode="&#x40b;" horiz-adv-x="1519" d="M72 1204v117q0 20 20 20h952q20 0 21 -20v-117q0 -20 -21 -20h-409v-447q180 164 393 164q162 0 250 -94t88 -268v-519q0 -20 -20 -20h-134q-20 0 -20 20v500q0 227 -211 228q-86 0 -167 -40t-179 -130v-558q0 -20 -21 -20h-133q-20 0 -20 20v1164h-369q-20 0 -20 20z " />
<glyph unicode="&#x40c;" horiz-adv-x="1187" d="M174 20v1301q0 20 21 20h133q20 0 20 -20v-561h172l436 569q10 12 27 12h150q12 0 16 -7t-4 -17l-473 -617l512 -675q4 -4 4 -13q0 -4 -4 -8t-13 -4h-165q-16 0 -27 12l-453 592h-178v-584q0 -20 -20 -20h-133q-21 0 -21 20zM485.5 1461q-4.5 7 2.5 18l112 204 q6 14 25 15h143q12 0 16.5 -7.5t-4.5 -17.5l-147 -207q-8 -12 -25 -12h-106q-12 0 -16.5 7z" />
<glyph unicode="&#x40d;" horiz-adv-x="1347" d="M174 20v1301q0 20 21 20h129q20 0 20 -20v-809l-12 -276h4l151 276l492 815q10 14 25 14h149q20 0 21 -20v-1301q0 -20 -21 -20h-129q-20 0 -20 20v811l14 277h-4l-152 -274l-493 -820q-10 -14 -25 -14h-149q-21 0 -21 20zM484 1686q0 4 4 8t12 4h143q17 -1 25 -15 l112 -204q4 -8 5 -13q0 -12 -19 -12h-106q-16 0 -25 12l-147 207q-4 4 -4 13z" />
<glyph unicode="&#x40e;" horiz-adv-x="1120" d="M51 1327q0 14 17 14h151q18 0 25 -14l237 -483q72 -145 94 -195h5q20 49 94 195l239 483q6 14 25 14h145q10 0 14.5 -7t0.5 -17l-660 -1303q-6 -14 -24 -14h-133q-11 0 -15 7t0 18l221 446l-434 846q-2 4 -2 10zM287 1556v113q0 12 7 16.5t18 -2.5q53 -35 122.5 -63.5 t139.5 -28.5t139.5 29t122.5 63q8 4 12 5q12 0 13 -19v-113q0 -16 -15 -24q-45 -29 -119.5 -58.5t-152.5 -29.5q-84 0 -155.5 28.5t-119.5 59.5q-12 10 -12 24z" />
<glyph unicode="&#x40f;" horiz-adv-x="1351" d="M174 20v1301q0 20 21 20h133q20 0 20 -20v-1163h656v1163q0 20 20 20h133q21 0 21 -20v-1301q0 -20 -21 -20h-393v-246q0 -20 -21 -20h-133q-20 0 -20 20v246h-395q-20 0 -21 20z" />
<glyph unicode="&#x410;" horiz-adv-x="1146" d="M2 23l453 1302q6 16 24 16h183q18 0 24 -16l459 -1302l2 -9q0 -14 -19 -14h-145q-18 0 -25 16l-98 297h-584l-96 -297q-6 -16 -24 -16h-138q-23 0 -16 23zM328 465h481l-158 473l-84 246h-2l-82 -240z" />
<glyph unicode="&#x411;" horiz-adv-x="1159" d="M174 20v1301q0 20 21 20h706q20 0 21 -20v-117q0 -20 -21 -20h-553v-361h225q244 0 369 -101t125 -300q0 -205 -129 -313.5t-371 -108.5h-372q-20 0 -21 20zM348 147h211q168 0 251 69t83 208q0 133 -78 192.5t-250 59.5h-217v-529z" />
<glyph unicode="&#x412;" horiz-adv-x="1173" d="M174 20v1301q0 20 21 20h364q465 0 465 -335q0 -111 -53 -179.5t-174 -113.5v-4q285 -51 284 -340q0 -188 -127 -278.5t-393 -90.5h-366q-21 0 -21 20zM348 152h211q186 0 267 53t81 176q0 127 -81 185.5t-261 58.5h-217v-473zM348 766h203q156 0 227.5 52t71.5 165 t-72.5 161t-245.5 48h-184v-426z" />
<glyph unicode="&#x413;" horiz-adv-x="983" d="M174 20v1301q0 20 21 20h696q20 0 20 -20v-117q0 -20 -20 -20h-543v-1164q0 -20 -20 -20h-133q-21 0 -21 20z" />
<glyph unicode="&#x414;" d="M0 137q0 20 20 21h89l387 1167q6 16 24 16h182q18 0 25 -16l391 -1167h90q21 -1 21 -21v-383q0 -20 -21 -20h-133q-20 0 -20 20v246h-881v-246q0 -20 -20 -20h-134q-20 0 -20 20v383zM287 158h645l-213 673l-111 353h-2q-20 -70 -33 -105q-16 -59 -77 -256z" />
<glyph unicode="&#x415;" horiz-adv-x="1091" d="M174 20v1301q0 20 21 20h729q20 0 20 -20v-117q0 -20 -20 -20h-576v-426h526q20 0 21 -21v-110q0 -20 -21 -21h-526v-448h576q20 0 20 -21v-117q0 -20 -20 -20h-729q-21 0 -21 20z" />
<glyph unicode="&#x416;" horiz-adv-x="1755" d="M62.5 7q-5.5 7 0.5 18l361 667l-340 625q-2 4 -2 10t5 10t13 4h142q18 0 24 -14l309 -567h216v561q0 20 20 20h133q20 0 21 -20v-561h221l311 567q6 14 25 14h133q12 0 17 -7t-1 -17l-340 -625l361 -667q2 -4 2 -11q0 -6 -5.5 -10t-13.5 -4h-153q-16 0 -25 14l-317 590 h-215v-584q0 -20 -21 -20h-133q-20 0 -20 20v584h-218l-317 -590q-8 -14 -25 -14h-151q-12 0 -17.5 7z" />
<glyph unicode="&#x417;" horiz-adv-x="1181" d="M113 330q0 20 20 20h133q18 0 19 -20q0 -106 62.5 -153.5t205.5 -47.5q176 0 259 59.5t83 190.5q0 117 -79 170t-255 53h-196q-20 0 -21 21v110q0 20 21 21h167q164 0 239 57t75 182q0 115 -68.5 167t-218.5 52q-139 0 -200.5 -48t-61.5 -154q0 -20 -18 -21h-134 q-20 0 -20 21q-8 172 107.5 264t338.5 92t336 -87t113 -259q0 -121 -62.5 -206t-175.5 -120v-2q287 -53 287 -311q0 -197 -129 -301.5t-385 -104.5q-223 0 -332.5 87.5t-109.5 267.5z" />
<glyph unicode="&#x418;" horiz-adv-x="1347" d="M174 20v1301q0 20 21 20h129q20 0 20 -20v-809l-12 -276h4l151 276l492 815q10 14 25 14h149q20 0 21 -20v-1301q0 -20 -21 -20h-129q-20 0 -20 20v811l14 277h-4l-152 -274l-493 -820q-10 -14 -25 -14h-149q-21 0 -21 20z" />
<glyph unicode="&#x419;" horiz-adv-x="1347" d="M174 20v1301q0 20 21 20h129q20 0 20 -20v-809l-12 -276h4l151 276l492 815q10 14 25 14h149q20 0 21 -20v-1301q0 -20 -21 -20h-129q-20 0 -20 20v811l14 277h-4l-152 -274l-493 -820q-10 -14 -25 -14h-149q-21 0 -21 20zM387 1556v113q0 12 7 16.5t18 -2.5 q53 -35 122.5 -63.5t139.5 -28.5t139.5 29t122.5 63q8 4 12 5q12 0 13 -19v-113q0 -16 -15 -24q-45 -29 -119.5 -58.5t-152.5 -29.5q-84 0 -155.5 28.5t-119.5 59.5q-12 10 -12 24z" />
<glyph unicode="&#x41a;" horiz-adv-x="1187" d="M174 20v1301q0 20 21 20h133q20 0 20 -20v-561h172l436 569q10 12 27 12h150q12 0 16 -7t-4 -17l-473 -617l512 -675q4 -4 4 -13q0 -4 -4 -8t-13 -4h-165q-16 0 -27 12l-453 592h-178v-584q0 -20 -20 -20h-133q-21 0 -21 20z" />
<glyph unicode="&#x41b;" horiz-adv-x="1134" d="M2 23l447 1302q6 16 24 16h182q18 0 25 -16l453 -1302l2 -9q0 -14 -19 -14h-145q-18 0 -25 16l-303 922l-82 246h-2l-78 -242l-301 -926q-6 -16 -24 -16h-138q-22 0 -16 23z" />
<glyph unicode="&#x41c;" horiz-adv-x="1574" d="M143 20l29 1301q0 20 21 20h217q14 0 22 -16l359 -805l352 805q8 16 22 16h217q20 0 21 -20l29 -1301q0 -20 -21 -20h-129q-20 0 -20 20l-21 824q-2 98 6 299h-4q-53 -127 -129 -299l-303 -658q-6 -14 -23 -14h-4q-16 0 -22 14l-307 668q-41 88 -99 231l-22 58h-4 q4 -139 4 -213v-78l-21 -832q0 -20 -20 -20h-129q-21 0 -21 20z" />
<glyph unicode="&#x41d;" horiz-adv-x="1353" d="M174 20v1301q0 20 21 20h133q20 0 20 -20v-553h658v553q0 20 20 20h133q20 0 21 -20v-1301q0 -20 -21 -20h-133q-20 0 -20 20v596h-658v-596q0 -20 -20 -20h-133q-21 0 -21 20z" />
<glyph unicode="&#x41e;" horiz-adv-x="1314" d="M150 457v428q0 233 126.5 357t380.5 124t381 -124t127 -357v-428q0 -233 -127 -357.5t-381 -124.5t-380.5 124t-126.5 358zM324 459q0 -162 85 -246t248 -84q164 0 249 84t85 246v424q0 162 -85 245.5t-249 83.5t-248.5 -84t-84.5 -245v-424z" />
<glyph unicode="&#x41f;" horiz-adv-x="1351" d="M174 20v1301q0 20 21 20h962q20 0 21 -20v-1301q0 -20 -21 -20h-133q-20 0 -20 20v1164h-656v-1164q0 -20 -20 -20h-133q-21 0 -21 20z" />
<glyph unicode="&#x420;" horiz-adv-x="1116" d="M174 20v1301q0 20 21 20h342q246 0 371.5 -105.5t125.5 -311.5q0 -205 -126 -311.5t-371 -106.5h-189v-486q0 -20 -20 -20h-133q-21 0 -21 20zM348 653h184q170 0 249 64.5t79 200.5q0 143 -80 209.5t-252 66.5h-180v-541z" />
<glyph unicode="&#x421;" horiz-adv-x="1296" d="M150 457v428q0 227 134 354t373 127q145 0 259 -47t178.5 -137t64.5 -211q0 -16 -4 -58q-4 -29 -22 -28h-134q-10 0 -15 6t-3 14q6 147 -77 227t-245 80q-164 0 -249.5 -84t-85.5 -241v-432q0 -158 86 -242t249 -84q150 0 237 69.5t87 192.5q0 29 -2 45v4q0 16 18 17h131 q12 0 17.5 -7.5t7.5 -21.5q2 -18 2 -51q0 -121 -63.5 -212t-177 -140.5t-261.5 -49.5q-239 0 -372 127t-133 355z" />
<glyph unicode="&#x422;" horiz-adv-x="1095" d="M72 1204v117q0 20 20 20h912q20 0 20 -20v-117q0 -20 -20 -20h-369v-1164q0 -20 -21 -20h-133q-20 0 -20 20v1164h-369q-20 0 -20 20z" />
<glyph unicode="&#x423;" horiz-adv-x="1120" d="M51 1327q0 14 17 14h151q18 0 25 -14l237 -483q72 -145 94 -195h5q20 49 94 195l239 483q6 14 25 14h145q10 0 14.5 -7t0.5 -17l-660 -1303q-6 -14 -24 -14h-133q-11 0 -15 7t0 18l221 446l-434 846q-2 4 -2 10z" />
<glyph unicode="&#x424;" horiz-adv-x="1705" d="M150 489v361q0 258 157.5 382t442.5 132h16v102q0 20 20 21h134q20 0 20 -21v-102q291 -4 453.5 -129t162.5 -385v-361q0 -262 -161.5 -385.5t-454.5 -128.5v-100q0 -20 -20 -20h-134q-20 0 -20 20v100q-291 4 -453.5 129t-162.5 385zM324 500q0 -193 114.5 -283 t331.5 -94v1094q-217 -4 -331.5 -94.5t-114.5 -282.5v-340zM936 123q217 4 331.5 94t114.5 283v340q0 193 -114.5 282.5t-331.5 94.5v-1094z" />
<glyph unicode="&#x425;" horiz-adv-x="1128" d="M11.5 7q-3.5 7 2.5 18l439 667l-410 625q-4 8 -4 12q0 12 16 12h164q12 0 23 -12l231 -354l96 -154h2l103 162l223 346q10 12 25 12h155q13 0 16 -7t-3 -17l-408 -629l432 -663q4 -8 4 -13q0 -12 -16 -12h-164q-14 0 -25 12l-243 375l-31 49q-53 82 -76 121h-2 q-63 -104 -104 -166l-244 -377q-10 -14 -25 -14h-161q-12 0 -15.5 7z" />
<glyph unicode="&#x426;" horiz-adv-x="1335" d="M174 20v1301q0 20 21 20h133q20 0 20 -20v-1163h623v1163q0 20 20 20h133q20 0 21 -20v-1163h119q20 0 20 -21v-383q0 -20 -20 -20h-134q-20 0 -20 20v246h-915q-20 0 -21 20z" />
<glyph unicode="&#x427;" horiz-adv-x="1290" d="M154 823v498q0 20 20 20h133q20 0 21 -20v-471q0 -135 53 -192.5t178 -57.5q197 0 383 143v578q0 20 21 20h133q20 0 20 -20v-1301q0 -20 -20 -20h-133q-20 0 -21 20v564q-205 -139 -420 -140q-186 0 -277 91.5t-91 287.5z" />
<glyph unicode="&#x428;" horiz-adv-x="1832" d="M174 20v1301q0 20 21 20h133q20 0 20 -20v-1163h483v1163q0 20 21 20h129q20 0 20 -20v-1163h484v1163q0 20 20 20h133q21 0 21 -20v-1301q0 -20 -21 -20h-1443q-20 0 -21 20z" />
<glyph unicode="&#x429;" horiz-adv-x="1832" d="M174 20v1301q0 20 21 20h133q20 0 20 -20v-1163h477v1163q0 20 21 20h129q20 0 20 -20v-1163h478v1163q0 20 20 20h133q20 0 21 -20v-1163h114q20 0 21 -21v-383q0 -20 -21 -20h-133q-20 0 -20 20v246h-1413q-20 0 -21 20z" />
<glyph unicode="&#x42a;" horiz-adv-x="1343" d="M72 1204v117q0 20 20 20h430q20 0 21 -20v-481h225q250 0 372 -99.5t122 -302.5q0 -213 -128 -325.5t-372 -112.5h-373q-20 0 -20 20v1164h-277q-20 0 -20 20zM543 147h211q333 0 333 291q0 135 -76.5 194.5t-250.5 59.5h-217v-545z" />
<glyph unicode="&#x42b;" horiz-adv-x="1671" d="M174 20v1301q0 20 21 20h133q20 0 20 -20v-481h225q250 0 372 -99.5t122 -302.5q0 -213 -128 -325.5t-372 -112.5h-372q-21 0 -21 20zM348 147h211q334 0 334 291q0 135 -77 194.5t-251 59.5h-217v-545zM1323 20v1301q0 20 21 20h133q20 0 20 -20v-1301q0 -20 -20 -20 h-133q-21 0 -21 20z" />
<glyph unicode="&#x42c;" horiz-adv-x="1148" d="M174 20v1301q0 20 21 20h133q20 0 20 -20v-481h225q250 0 372 -99.5t122 -302.5q0 -213 -128 -325.5t-372 -112.5h-372q-21 0 -21 20zM348 147h211q334 0 334 291q0 135 -77 194.5t-251 59.5h-217v-545z" />
<glyph unicode="&#x42d;" horiz-adv-x="1236" d="M129 291q0 33 5 46t16 13h133q10 0 14 -9t4 -32q0 -96 68.5 -138t224.5 -42q174 0 246.5 54.5t72.5 185.5v235h-553q-20 0 -20 21v114q0 20 20 21h553v217q0 129 -68.5 182t-234.5 53q-152 0 -221.5 -43t-69.5 -139q0 -23 -4 -32t-14 -9h-133q-10 0 -14 9.5t-9 33.5 l-2 31q0 145 125 224t357 79q244 0 353 -97.5t109 -316.5v-563q0 -219 -118.5 -316.5t-388.5 -97.5q-236 0 -343.5 76t-107.5 240z" />
<glyph unicode="&#x42e;" horiz-adv-x="1783" d="M174 20v1301q0 20 21 20h133q20 0 20 -20v-553h324v117q0 229 124 355t357 126t357 -126t124 -355v-428q0 -229 -124 -355.5t-357 -126.5t-357 126t-124 356v159h-324v-596q0 -20 -20 -20h-133q-20 0 -21 20zM846 455q0 -158 79 -242t228 -84q150 0 228.5 84t78.5 242 v432q0 158 -78.5 241.5t-228.5 83.5t-228.5 -84t-78.5 -241v-432z" />
<glyph unicode="&#x42f;" horiz-adv-x="1245" d="M74 7q-4 7 2 18l203 360q70 127 122 211v4q-119 39 -179 128t-60 226q0 193 120.5 290t358.5 97h410q20 0 20 -20v-1301q0 -20 -20 -20h-133q-20 0 -21 20v551h-324l-305 -557q-6 -14 -24 -14h-154q-12 0 -16 7zM336 938q0 -86 30.5 -135t99.5 -70.5t189 -21.5h242v483 h-250q-162 0 -236.5 -61.5t-74.5 -194.5z" />
<glyph unicode="&#x430;" horiz-adv-x="1011" d="M98 256q0 109 42 174.5t134.5 102t249.5 51.5l160 14v84q0 102 -42 145t-142 43q-188 0 -185 -127q0 -20 -18 -20h-135q-12 0 -17.5 13.5t-5.5 45.5q0 109 100.5 175.5t266.5 66.5q178 0 265 -84t87 -254v-438q0 -147 14 -225v-5q0 -18 -20 -18h-119q-10 0 -15 7t-9 22 q-10 43 -17 131q-96 -98 -178 -141.5t-172 -43.5q-121 0 -182.5 72t-61.5 209zM272 268q0 -139 115 -139q64 0 130.5 39t166.5 139v158l-164 -14q-141 -12 -194.5 -51.5t-53.5 -131.5z" />
<glyph unicode="&#x431;" horiz-adv-x="1116" d="M154 373v475q0 176 54 278.5t154 155.5q51 27 105.5 43t130.5 35q86 20 135 36.5t90 43.5l11 4q12 0 16 -17l35 -118l2 -9q0 -8 -10 -18q-33 -25 -79 -39t-122 -31q-131 -23 -211 -59q-137 -63 -137 -258v-102q135 162 336 161q149 0 234 -87t85 -255v-239 q0 -197 -105.5 -297.5t-312.5 -100.5t-309 98.5t-102 299.5zM328 389q0 -135 56 -197.5t185 -62.5q127 0 183.5 64.5t56.5 195.5v199q0 211 -180 211q-82 0 -163 -45t-138 -123v-242z" />
<glyph unicode="&#x432;" horiz-adv-x="1105" d="M154 373v692q0 176 101 267t298 91q352 0 352 -299q0 -109 -45 -191.5t-123 -115.5v-2q125 -18 180.5 -100t55.5 -223v-103q0 -201 -108.5 -307.5t-315.5 -106.5q-395 1 -395 398zM328 389q0 -137 53 -198.5t172 -61.5q125 0 185.5 65.5t60.5 200.5v109q0 102 -46 149 t-145 47q-119 0 -280 -49v-262zM328 791l166 34q117 25 178 85.5t61 172.5q0 98 -47 144.5t-145 46.5q-104 0 -158.5 -51.5t-54.5 -149.5v-282z" />
<glyph unicode="&#x433;" horiz-adv-x="976" d="M104 236q0 111 52.5 180t167.5 112l231 86q74 27 100.5 60t26.5 88q0 59 -43 84.5t-139 25.5q-203 0 -203 -118q0 -31 -18 -31h-136q-18 0 -22 31q-12 119 88 194.5t289 75.5q174 0 266 -65.5t92 -198.5q0 -106 -50 -171t-167 -108l-238 -86q-68 -25 -95 -59.5t-27 -93.5 q0 -66 43 -91.5t141 -25.5q117 0 175 31.5t60 101.5q0 16 4.5 23.5t12.5 7.5h135q14 0 18 -8.5t4 -40.5q0 -125 -98 -195t-305 -70q-186 0 -275.5 58.5t-89.5 202.5z" />
<glyph unicode="&#x434;" horiz-adv-x="1103" d="M127 410v198q0 209 101.5 312.5t308.5 103.5q55 0 111.5 -7t109.5 -18q129 -23 192 -26v-991q0 -186 -106.5 -285.5t-304.5 -99.5q-111 0 -197 29.5t-133 82.5t-47 119q0 16 2 25q2 35 24 34h136q18 0 18 -28q0 -53 52 -82t147 -29q125 0 180 52.5t55 170.5v62 q0 94 2 141h-2q-88 -76 -168 -110.5t-172 -34.5q-309 0 -309 381zM301 420q0 -125 41 -181.5t131 -56.5q70 0 137.5 35t165.5 119v512q-49 10 -113.5 16t-111.5 6q-133 0 -191.5 -65.5t-58.5 -212.5v-172z" />
<glyph unicode="&#x435;" horiz-adv-x="1062" d="M127 340v287q0 193 104.5 295t303.5 102t302 -99.5t103 -287.5v-160q0 -20 -20 -20h-619v-66q0 -139 57.5 -200.5t186.5 -61.5q96 0 147 32t53 93q0 10 6.5 16t16.5 6h133q16 0 21 -18q8 -131 -96.5 -207t-290.5 -76q-396 0 -408 365zM301 606h465v12q-4 129 -59.5 190.5 t-169.5 61.5q-236 0 -236 -254v-10z" />
<glyph unicode="&#x436;" horiz-adv-x="1431" d="M35 7q-4 7 2 18l313 530l-278 420q-4 8 -4 12t4 8t12 4h152q18 0 26 -12l234 -383h133v774q0 20 20 21h133q20 0 21 -21v-774h133l233 383q8 12 27 12h152q12 0 15 -7t-3 -17l-279 -420l314 -530l4 -11q0 -14 -19 -14h-155q-16 0 -25 12l-258 453h-139v-445 q0 -20 -21 -20h-133q-20 0 -20 20v445h-142l-258 -453q-8 -12 -24 -12h-154q-12 0 -16 7z" />
<glyph unicode="&#x437;" horiz-adv-x="976" d="M72 -147q0 41 7 54t21 13h136q18 0 18 -33q0 -66 51 -102.5t146 -36.5q117 0 177 54.5t60 156.5v129q0 94 -61.5 139t-188.5 45h-159q-20 0 -21 21v108q0 20 21 21h145q106 0 169.5 58.5t63.5 158.5v45q0 190 -206 190q-86 0 -133.5 -31.5t-49.5 -88.5q0 -31 -18 -31 h-135q-20 0 -27 37q-6 76 39 136t135 94t211 34q174 0 262 -78t88 -231v-78q0 -90 -45 -162t-127 -110v-3q106 -25 158.5 -92t52.5 -168v-120q0 -184 -108.5 -284.5t-307.5 -100.5q-170 0 -272 71.5t-102 184.5z" />
<glyph unicode="&#x438;" horiz-adv-x="1110" d="M154 317v662q0 20 20 20h133q20 0 21 -20v-653q0 -100 35.5 -148.5t111.5 -48.5q70 0 139.5 40t167.5 134v676q0 20 21 20h133q20 0 20 -20v-729q0 -123 15 -230v-4q0 -16 -23 -16h-114q-23 0 -25 20q-12 86 -14 138q-193 -182 -371 -183q-131 0 -200.5 88.5t-69.5 253.5 z" />
<glyph unicode="&#x439;" horiz-adv-x="1110" d="M154 317v662q0 20 20 20h133q20 0 21 -20v-653q0 -100 35.5 -148.5t111.5 -48.5q70 0 139.5 40t167.5 134v676q0 20 21 20h133q20 0 20 -20v-729q0 -123 15 -230v-4q0 -16 -23 -16h-114q-23 0 -25 20q-12 86 -14 138q-193 -182 -371 -183q-131 0 -200.5 88.5t-69.5 253.5 zM305 1264v110q0 16 10 17q2 0 14 -9q37 -37 96.5 -67.5t133.5 -30.5t133 31t96 67q12 8 14 9q10 0 11 -17v-110q0 -16 -9 -25q-35 -37 -94 -68.5t-151 -31.5q-93 0 -152 31.5t-94 68.5q-8 8 -8 25z" />
<glyph unicode="&#x43a;" horiz-adv-x="995" d="M154 20v1358q0 20 20 21h133q20 0 21 -21v-774h141l285 383q10 12 26 12h154q12 0 16 -8t-4 -16l-323 -422l358 -528l4 -11q0 -14 -18 -14h-160q-16 0 -25 12l-307 453h-147v-445q0 -20 -21 -20h-133q-20 0 -20 20z" />
<glyph unicode="&#x43b;" horiz-adv-x="931" d="M12 7q-4 7 0 18l346 946q6 16 13.5 22t21.5 6h146q14 0 21 -6t13 -22l347 -946q2 -4 2 -11q0 -14 -17 -14h-143q-16 0 -23 16l-190 551l-27 78q-31 86 -53 156h-4q-33 -104 -80 -238l-192 -547q-6 -16 -23 -16h-143q-11 0 -15 7z" />
<glyph unicode="&#x43c;" horiz-adv-x="1282" d="M135 20l17 959q0 20 20 20h145q14 0 23 -16l301 -590l301 590q8 16 23 16h145q20 0 20 -20l17 -959q0 -20 -21 -20h-129q-20 0 -20 20l-4 553q0 35 4 109l2 53h-4l-19 -45q-8 -16 -24.5 -54t-32.5 -65l-242 -436q-4 -8 -16 -8q-10 0 -16 8l-242 436q-16 27 -32.5 65 t-24.5 54l-19 45h-4l2 -53q4 -74 4 -109l-4 -553q0 -20 -20 -20h-129q-21 0 -21 20z" />
<glyph unicode="&#x43d;" horiz-adv-x="1114" d="M154 20v959q0 20 20 20h133q20 0 21 -20v-393h458v393q0 20 21 20h133q21 0 21 -20v-959q0 -20 -21 -20h-133q-20 0 -21 20v416h-458v-416q0 -20 -21 -20h-133q-20 0 -20 20z" />
<glyph unicode="&#x43e;" horiz-adv-x="1097" d="M127 381v237q0 406 422 406q207 0 314.5 -101.5t107.5 -304.5v-237q0 -406 -422 -406t-422 406zM301 397q0 -137 59.5 -202.5t188.5 -65.5t188.5 65.5t59.5 202.5v205q0 137 -59.5 202.5t-188.5 65.5t-188.5 -65.5t-59.5 -202.5v-205z" />
<glyph unicode="&#x43f;" horiz-adv-x="1138" d="M139 973v6q0 20 21 20h125q10 0 14 -4t8 -16q8 -33 17 -129q94 92 177 133t181 41q147 0 225 -87t78 -255v-662q0 -20 -20 -20h-134q-20 0 -20 20v654q0 100 -41 148t-127 48q-74 0 -144.5 -38.5t-170.5 -135.5v-676q0 -20 -21 -20h-133q-20 0 -20 20v730 q0 57 -4.5 121.5t-10.5 101.5z" />
<glyph unicode="&#x440;" horiz-adv-x="1099" d="M139 975v4q0 20 21 20h125q20 0 22 -20q12 -63 15 -107q92 80 170.5 116t169.5 36q307 0 307 -381v-256q0 -199 -94.5 -305.5t-272.5 -106.5q-72 0 -147.5 16.5t-126.5 45.5v-395q0 -20 -21 -21h-133q-20 0 -20 21v1126q0 102 -15 207zM328 184q53 -27 116.5 -41 t120.5 -14q117 0 173.5 68.5t56.5 210.5v225q0 121 -42 179t-128 58q-66 0 -131.5 -34.5t-165.5 -120.5v-531z" />
<glyph unicode="&#x441;" horiz-adv-x="1058" d="M127 373v254q0 193 108.5 295t313.5 102q178 0 282.5 -80t104.5 -211q0 -27 -5 -37t-16 -10h-135q-18 0 -18 33q0 70 -57.5 110.5t-155.5 40.5q-125 0 -186.5 -63.5t-61.5 -196.5v-221q0 -260 246 -260q96 0 154.5 42t58.5 108q0 33 18 32h135q20 0 21 -18 q10 -145 -95.5 -231.5t-291.5 -86.5q-203 0 -311.5 102.5t-108.5 295.5z" />
<glyph unicode="&#x442;" horiz-adv-x="1730" d="M139 975v4q0 20 23 20h123q10 0 14 -3t6 -11q16 -104 19 -137q94 94 175 135t175 41q207 0 260 -190q100 102 184 146t180 44q137 0 208 -86t71 -254v-664q0 -20 -21 -20h-133q-20 0 -20 20v654q0 197 -148 196q-68 0 -138 -41t-165 -133v-676q0 -20 -20 -20h-133 q-20 0 -21 20v654q0 197 -147 196q-68 0 -138.5 -41t-164.5 -133v-676q0 -20 -21 -20h-133q-20 0 -20 20v730q0 133 -15 225z" />
<glyph unicode="&#x443;" horiz-adv-x="1015" d="M47 985q0 14 16 14h146q16 0 22 -16l185 -496q27 -72 47 -131q10 -29 21.5 -62.5t25.5 -70.5h2l96 264l185 496q6 16 24 16h137q11 0 16 -7t1 -17l-518 -1337q-6 -16 -23 -17h-133q-10 0 -14 7t0 18l145 366l-379 963q-2 4 -2 10z" />
<glyph unicode="&#x444;" horiz-adv-x="1435" d="M127 369v262q0 393 467 393h37v356q0 20 20 21h133q20 0 21 -21v-356h37q467 0 467 -393v-262q0 -393 -467 -394h-37v-333q0 -20 -21 -21h-133q-20 0 -20 21v333h-37q-467 0 -467 394zM301 385q0 -260 277 -260h53v749h-53q-276 0 -277 -260v-229zM805 125h53 q276 0 277 260v229q0 260 -277 260h-53v-749z" />
<glyph unicode="&#x445;" horiz-adv-x="976" d="M20.5 8q-4.5 8 4.5 17l354 489l-330 461q-4 4 -4 12q0 4 4 8t12 4h160q16 0 25 -12l143 -207q35 -49 98 -147h2q76 111 111 160l137 194q8 12 25 12h149q12 0 16.5 -7t-3.5 -17l-330 -455l358 -495q4 -4 4 -13q0 -4 -4 -8t-12 -4h-160q-16 0 -24 12l-138 193l-133 192h-2 q-61 -96 -104 -155l-25 -37l-135 -193q-8 -12 -24 -12h-158q-12 0 -16.5 8z" />
<glyph unicode="&#x446;" horiz-adv-x="1120" d="M154 317v662q0 20 20 20h133q20 0 21 -20v-653q0 -100 35.5 -148.5t111.5 -48.5q70 0 139.5 40t167.5 134v676q0 20 21 20h133q20 0 20 -20v-729q0 -66 2 -100h121q21 -1 21 -21v-354q0 -20 -21 -21h-121q-20 0 -20 21v225h-104q-23 0 -25 20q-12 86 -14 138 q-193 -182 -371 -183q-131 0 -200.5 88.5t-69.5 253.5z" />
<glyph unicode="&#x447;" horiz-adv-x="1069" d="M123 606v373q0 20 20 20h133q20 0 21 -20v-344q0 -213 141 -213q143 0 303 166v391q0 20 21 20h133q20 0 20 -20v-959q0 -20 -20 -20h-133q-21 0 -21 20v408q-82 -74 -170 -115t-170 -41q-135 0 -206.5 86t-71.5 248z" />
<glyph unicode="&#x448;" horiz-adv-x="1705" d="M154 315v664q0 20 20 20h133q20 0 21 -20v-653q0 -197 141 -197q61 0 132 41t165 133v676q0 20 20 20h134q20 0 20 -20v-653q0 -197 141 -197q61 0 132 41t165 133v676q0 20 21 20h133q20 0 20 -20v-729q0 -133 15 -225v-5q0 -20 -23 -20h-123q-10 0 -14 3t-6 11 q-16 104 -19 138q-92 -92 -173 -134.5t-171 -42.5q-201 0 -254 191q-100 -100 -183 -145.5t-175 -45.5q-133 0 -202.5 87.5t-69.5 252.5z" />
<glyph unicode="&#x449;" horiz-adv-x="1718" d="M154 315v664q0 20 20 20h133q20 0 21 -20v-653q0 -197 141 -197q61 0 132 41t165 133v676q0 20 20 20h134q20 0 20 -20v-653q0 -197 141 -197q61 0 132 41t165 133v676q0 20 21 20h133q20 0 20 -20v-729q0 -66 2 -100h123q21 -1 21 -21v-354q0 -20 -21 -21h-121 q-20 0 -20 21v225h-115q-10 0 -14 3t-6 11q-16 104 -19 138q-92 -92 -173 -134.5t-171 -42.5q-201 0 -254 191q-100 -100 -183 -145.5t-175 -45.5q-133 0 -202.5 87.5t-69.5 252.5z" />
<glyph unicode="&#x44a;" horiz-adv-x="1191" d="M41 877v102q0 20 20 20h396q20 0 20 -20v-379q68 72 143.5 107.5t167.5 35.5q142 0 216.5 -79.5t74.5 -235.5v-88q0 -178 -104.5 -271.5t-302.5 -93.5q-195 0 -282 89.5t-87 285.5v506h-242q-20 0 -20 21zM477 322q0 -201 207 -201q102 0 159.5 52t57.5 149v100 q0 82 -41 125t-119 43q-147 0 -264 -154v-114z" />
<glyph unicode="&#x44b;" horiz-adv-x="1468" d="M154 350v629q0 20 20 20h133q20 0 21 -20v-379q68 72 143.5 107.5t167.5 35.5q141 0 216 -79.5t75 -235.5v-88q0 -178 -104.5 -271.5t-303.5 -93.5q-195 0 -281.5 89.5t-86.5 285.5zM328 322q0 -201 207 -201q102 0 159.5 52t57.5 149v100q0 82 -41 125t-119 43 q-147 0 -264 -154v-114zM1141 20v959q0 20 20 20h133q20 0 21 -20v-959q0 -20 -21 -20h-133q-20 0 -20 20z" />
<glyph unicode="&#x44c;" horiz-adv-x="1042" d="M154 350v629q0 20 20 20h133q20 0 21 -20v-379q68 72 143.5 107.5t167.5 35.5q141 0 216 -79.5t75 -235.5v-88q0 -178 -104.5 -271.5t-303.5 -93.5q-195 0 -281.5 89.5t-86.5 285.5zM328 322q0 -201 207 -201q102 0 159.5 52t57.5 149v100q0 82 -41 125t-119 43 q-147 0 -264 -154v-114z" />
<glyph unicode="&#x44d;" horiz-adv-x="1042" d="M102 240q6 37 27 36h135q18 0 19 -30q0 -57 55 -87t160 -30q127 0 185 47t58 152v108h-438q-20 0 -20 21v102q0 20 20 21h438v98q0 96 -58 144t-177 48q-96 0 -150.5 -30.5t-56.5 -83.5q0 -29 -18 -29h-136q-14 0 -19 11.5t-5 43.5q0 111 106.5 176.5t290.5 65.5 q397 0 397 -352v-324q0 -188 -102 -280.5t-309 -92.5q-195 0 -303.5 73t-98.5 192z" />
<glyph unicode="&#x44e;" horiz-adv-x="1495" d="M154 20v1358q0 20 20 21h133q20 0 21 -21v-792h225v41q0 197 104.5 297t303.5 100q198 0 302.5 -100.5t104.5 -296.5v-254q0 -197 -104.5 -297.5t-302.5 -100.5q-201 0 -304.5 100.5t-103.5 297.5v63h-225v-416q0 -20 -21 -20h-133q-20 0 -20 20zM727 389 q0 -260 234 -260q233 0 233 260v221q0 260 -233 260t-234 -260v-221z" />
<glyph unicode="&#x44f;" horiz-adv-x="1036" d="M76 7q-4 7 2 18l141 221q78 121 103 155v2q-203 57 -203 279q0 158 95 237.5t273 79.5h375q20 0 21 -20v-959q0 -20 -21 -20h-133q-20 0 -20 20v357h-213l-224 -363q-8 -14 -26 -14h-154q-12 0 -16 7zM293 684q0 -88 53 -124t170 -36h193v326h-224q-106 0 -149 -42 t-43 -124z" />
<glyph unicode="&#x451;" horiz-adv-x="1062" d="M127 340v287q0 193 104.5 295t303.5 102t302 -99.5t103 -287.5v-160q0 -20 -20 -20h-619v-66q0 -139 57.5 -200.5t186.5 -61.5q96 0 147 32t53 93q0 10 6.5 16t16.5 6h133q16 0 21 -18q8 -131 -96.5 -207t-290.5 -76q-396 0 -408 365zM250 1276v60q0 41 27.5 63.5 t76.5 22.5q51 0 78.5 -22.5t27.5 -63.5v-60q0 -39 -27.5 -61.5t-78.5 -22.5q-47 0 -75.5 22.5t-28.5 61.5zM301 606h465v12q-4 129 -59.5 190.5t-169.5 61.5q-236 0 -236 -254v-10zM594 1276v60q0 41 27.5 63.5t76.5 22.5q51 0 79 -22.5t28 -63.5v-60q0 -39 -28 -61.5 t-79 -22.5q-47 0 -75.5 22.5t-28.5 61.5z" />
<glyph unicode="&#x452;" horiz-adv-x="1120" d="M-12 1153v102q0 20 20 21h146v102q0 20 20 21h133q20 0 21 -21v-102h219q20 0 20 -21v-102q0 -20 -20 -20h-219v-279q90 90 175 130t181 40q147 0 224 -87t77 -255v-561q0 -184 -58.5 -310t-183.5 -200q-8 -4 -12 -4q-6 0 -16 10l-80 100q-4 4 -4 13q0 10 10 16 q170 113 170 385v543q0 197 -166 196q-76 0 -152.5 -42t-164.5 -132v-676q0 -20 -21 -20h-133q-20 0 -20 20v1113h-146q-20 0 -20 20z" />
<glyph unicode="&#x453;" horiz-adv-x="976" d="M104 236q0 111 52.5 180t167.5 112l231 86q74 27 100.5 60t26.5 88q0 59 -43 84.5t-139 25.5q-203 0 -203 -118q0 -31 -18 -31h-136q-18 0 -22 31q-12 119 88 194.5t289 75.5q174 0 266 -65.5t92 -198.5q0 -106 -50 -171t-167 -108l-238 -86q-68 -25 -95 -59.5t-27 -93.5 q0 -66 43 -91.5t141 -25.5q117 0 175 31.5t60 101.5q0 16 4.5 23.5t12.5 7.5h135q14 0 18 -8.5t4 -40.5q0 -125 -98 -195t-305 -70q-186 0 -275.5 58.5t-89.5 202.5zM384.5 1146q-5.5 7 0.5 17l133 246q8 14 25 14h139q12 0 16.5 -7t-2.5 -17l-170 -248q-8 -12 -24 -12h-102 q-10 0 -15.5 7z" />
<glyph unicode="&#x454;" horiz-adv-x="1060" d="M127 348v324q0 352 397 352q184 0 291 -65.5t107 -176.5q0 -33 -5.5 -44t-19.5 -11h-135q-10 0 -14.5 6t-4.5 23q-2 53 -56 83.5t-150 30.5q-119 0 -177.5 -48t-58.5 -144v-98h438q20 0 21 -21v-102q0 -20 -21 -21h-438v-108q0 -104 58.5 -151.5t185.5 -47.5 q104 0 159.5 29.5t55.5 87.5q0 16 4 23t14 7h135q14 0 19.5 -12t5.5 -45q0 -111 -106.5 -177.5t-292.5 -66.5q-207 0 -309.5 92.5t-102.5 280.5z" />
<glyph unicode="&#x455;" horiz-adv-x="952" d="M109 299q0 18 20 18h135q18 0 19 -16q0 -92 46 -133t150 -41q100 0 151.5 33t51.5 98q0 45 -28.5 78t-90.5 59l-233 97q-113 47 -160 106t-47 154q0 272 342 272q174 0 270 -73.5t96 -205.5q0 -18 -20 -18h-135q-20 0 -21 33q0 53 -49 82.5t-135 29.5q-88 0 -131 -29.5 t-43 -90.5q0 -45 22.5 -67.5t96.5 -53.5l233 -99q111 -47 159 -108.5t48 -155.5q0 -141 -98.5 -217t-280.5 -76q-368 0 -368 324z" />
<glyph unicode="&#x456;" horiz-adv-x="481" d="M133 1262v55q0 45 28 67.5t81 22.5q111 0 111 -90v-55q0 -43 -29 -65.5t-82 -22.5t-81 22.5t-28 65.5zM154 20v959q0 20 20 20h133q20 0 21 -20v-959q0 -20 -21 -20h-133q-20 0 -20 20z" />
<glyph unicode="&#x457;" horiz-adv-x="481" d="M-36 1251v60q0 41 27.5 63.5t76.5 22.5q51 0 78.5 -22.5t27.5 -63.5v-60q0 -39 -27.5 -61.5t-78.5 -22.5q-47 0 -75.5 22.5t-28.5 61.5zM154 20v959q0 20 20 20h133q20 0 21 -20v-959q0 -20 -21 -20h-133q-20 0 -20 20zM308 1251v60q0 41 27.5 63.5t76.5 22.5 q51 0 79 -22.5t28 -63.5v-60q0 -39 -28 -61.5t-79 -22.5q-47 0 -75.5 22.5t-28.5 61.5z" />
<glyph unicode="&#x458;" horiz-adv-x="483" d="M-27 -270q0 10 11 16q170 117 170 385v848q0 20 20 20h133q21 0 21 -20v-858q0 -178 -59.5 -301t-182.5 -209q-8 -4 -12 -4q-6 0 -17 10l-80 100q-4 4 -4 13zM133 1262v55q0 45 28 67.5t81 22.5q111 0 111 -90v-55q0 -43 -29 -65.5t-82 -22.5t-81 22.5t-28 65.5z" />
<glyph unicode="&#x459;" horiz-adv-x="1478" d="M-20.5 7q-4.5 7 0.5 18l346 946q6 16 13 22t21 6h148q14 0 21.5 -6t13.5 -22l157 -434q158 207 375 206q142 0 216.5 -81.5t74.5 -233.5v-88q0 -178 -100.5 -271.5t-284.5 -93.5q-143 0 -219 53.5t-123 184.5l-123 354l-27 78q-31 86 -53 156h-4q-33 -104 -80 -238 l-192 -547q-6 -16 -23 -16h-143q-10 0 -14.5 7zM748 408l49 -136q35 -92 72.5 -121.5t113.5 -29.5q96 0 150.5 52t54.5 149v100q0 82 -40 125t-118 43t-150.5 -46t-131.5 -136z" />
<glyph unicode="&#x45a;" horiz-adv-x="1675" d="M154 20v959q0 20 20 20h133q20 0 21 -20v-395h458v395q0 20 21 20h133q20 0 21 -20v-379q68 72 143.5 107.5t167.5 35.5q141 0 216 -79.5t75 -235.5v-88q0 -178 -104.5 -271.5t-303.5 -93.5q-195 0 -282 89.5t-87 285.5v90h-458v-420q0 -20 -21 -20h-133q-20 0 -20 20z M961 322q0 -201 206 -201q102 0 159.5 52t57.5 149v100q0 82 -40.5 125t-118.5 43q-147 0 -264 -154v-114z" />
<glyph unicode="&#x45b;" horiz-adv-x="1138" d="M-12 1153v102q0 20 20 21h146v102q0 20 20 21h133q20 0 21 -21v-102h215q20 0 20 -21v-102q0 -20 -20 -20h-215v-281q90 90 175 131t181 41q147 0 224 -87t77 -255v-662q0 -20 -20 -20h-134q-20 0 -20 20v654q0 197 -166 196q-76 0 -152.5 -42t-164.5 -132v-676 q0 -20 -21 -20h-133q-20 0 -20 20v1113h-146q-20 0 -20 20z" />
<glyph unicode="&#x45c;" horiz-adv-x="995" d="M154 20v1358q0 20 20 21h133q20 0 21 -21v-774h141l285 383q10 12 26 12h154q12 0 16 -8t-4 -16l-323 -422l358 -528l4 -11q0 -14 -18 -14h-160q-16 0 -25 12l-307 453h-147v-445q0 -20 -21 -20h-133q-20 0 -20 20zM453.5 1146q-5.5 7 0.5 17l133 246q8 14 25 14h139 q12 0 16.5 -7t-2.5 -17l-170 -248q-8 -12 -24 -12h-102q-10 0 -15.5 7z" />
<glyph unicode="&#x45d;" horiz-adv-x="1110" d="M154 317v662q0 20 20 20h133q20 0 21 -20v-653q0 -100 35.5 -148.5t111.5 -48.5q70 0 139.5 40t167.5 134v676q0 20 21 20h133q20 0 20 -20v-729q0 -123 15 -230v-4q0 -16 -23 -16h-114q-23 0 -25 20q-12 86 -14 138q-193 -182 -371 -183q-131 0 -200.5 88.5t-69.5 253.5 zM356 1409q0 14 19 14h139q16 0 24 -14l133 -246l5 -10q0 -6 -5.5 -10t-13.5 -4h-102q-17 0 -25 12l-170 248z" />
<glyph unicode="&#x45e;" horiz-adv-x="1015" d="M47 985q0 14 16 14h146q16 0 22 -16l185 -496q27 -72 47 -131q10 -29 21.5 -62.5t25.5 -70.5h2l96 264l185 496q6 16 24 16h137q11 0 16 -7t1 -17l-518 -1337q-6 -16 -23 -17h-133q-10 0 -14 7t0 18l145 366l-379 963q-2 4 -2 10zM248 1264v110q0 16 10 17q2 0 14 -9 q37 -37 96.5 -67.5t133.5 -30.5t133 31t96 67q12 8 14 9q10 0 11 -17v-110q0 -16 -9 -25q-35 -37 -94 -68.5t-151 -31.5q-93 0 -152 31.5t-94 68.5q-8 8 -8 25z" />
<glyph unicode="&#x45f;" horiz-adv-x="1110" d="M154 317v662q0 20 20 20h133q20 0 21 -20v-653q0 -100 35.5 -148.5t111.5 -48.5q70 0 139.5 40t167.5 134v676q0 20 21 20h133q20 0 20 -20v-729q0 -123 15 -230v-4q0 -16 -23 -16h-114q-23 0 -25 20q-12 86 -14 138q-104 -98 -197 -142v-241q0 -20 -20 -21h-123 q-20 0 -21 21v200h-10q-131 0 -200.5 88.5t-69.5 253.5z" />
<glyph unicode="&#x490;" horiz-adv-x="983" d="M174 20v1301q0 20 21 20h548v258q0 20 21 21h127q20 -1 20 -21v-395q0 -20 -20 -20h-543v-1164q0 -20 -20 -20h-133q-20 0 -21 20z" />
<glyph unicode="&#x491;" horiz-adv-x="854" d="M20 25v112q0 10 7.5 14.5t17.5 0.5q59 -25 107 -25q35 0 50 25.5t21 107.5l25 371q14 198 86 291.5t235 93.5q125 0 150 74q6 23 6 49v32q0 16 23 17h112q14 0 14 -25q0 -150 -49 -209q-35 -43 -85 -65.5t-146 -24.5q-88 -2 -125 -54t-47 -183l-25 -330 q-12 -174 -64 -248t-157 -74q-59 0 -139 27q-16 6 -17 23z" />
<glyph unicode="&#x4c0;" horiz-adv-x="522" d="M174 20v1301q0 20 21 20h133q20 0 20 -20v-1301q0 -20 -20 -20h-133q-21 0 -21 20z" />
<glyph unicode="&#x4cf;" horiz-adv-x="481" d="M154 20v1358q0 20 20 21h133q20 0 21 -21v-1358q0 -20 -21 -20h-133q-20 0 -20 20z" />
<glyph unicode="&#x4e2;" horiz-adv-x="1347" d="M174 20v1301q0 20 21 20h129q20 0 20 -20v-809l-12 -276h4l151 276l492 815q10 14 25 14h149q20 0 21 -20v-1301q0 -20 -21 -20h-129q-20 0 -20 20v811l14 277h-4l-152 -274l-493 -820q-10 -14 -25 -14h-149q-21 0 -21 20zM432 1485v112q0 20 21 21h440q21 -1 21 -21 v-112q0 -20 -21 -21h-440q-20 0 -21 21z" />
<glyph unicode="&#x4e3;" horiz-adv-x="1110" d="M154 317v662q0 20 20 20h133q20 0 21 -20v-653q0 -100 35.5 -148.5t111.5 -48.5q70 0 139.5 40t167.5 134v676q0 20 21 20h133q20 0 20 -20v-729q0 -123 15 -230v-4q0 -16 -23 -16h-114q-23 0 -25 20q-12 86 -14 138q-193 -182 -371 -183q-131 0 -200.5 88.5t-69.5 253.5 zM338 1227v106q0 20 21 21h399q21 -1 21 -21v-106q0 -20 -21 -21h-399q-20 0 -21 21z" />
<glyph unicode="&#x4ee;" horiz-adv-x="1120" d="M51 1327q0 14 17 14h151q18 0 25 -14l237 -483q72 -145 94 -195h5q20 49 94 195l239 483q6 14 25 14h145q10 0 14.5 -7t0.5 -17l-660 -1303q-6 -14 -24 -14h-133q-11 0 -15 7t0 18l221 446l-434 846q-2 4 -2 10zM331 1485v112q0 20 21 21h440q21 -1 21 -21v-112 q0 -20 -21 -21h-440q-20 0 -21 21z" />
<glyph unicode="&#x4ef;" horiz-adv-x="1015" d="M47 985q0 14 16 14h146q16 0 22 -16l185 -496q27 -72 47 -131q10 -29 21.5 -62.5t25.5 -70.5h2l96 264l185 496q6 16 24 16h137q11 0 16 -7t1 -17l-518 -1337q-6 -16 -23 -17h-133q-10 0 -14 7t0 18l145 366l-379 963q-2 4 -2 10zM280 1227v106q0 20 21 21h399 q21 -1 21 -21v-106q0 -20 -21 -21h-399q-20 0 -21 21z" />
<glyph unicode="&#x2000;" horiz-adv-x="849" />
<glyph unicode="&#x2001;" horiz-adv-x="1698" />
<glyph unicode="&#x2002;" horiz-adv-x="849" />
<glyph unicode="&#x2003;" horiz-adv-x="1698" />
<glyph unicode="&#x2004;" horiz-adv-x="566" />
<glyph unicode="&#x2005;" horiz-adv-x="424" />
<glyph unicode="&#x2006;" horiz-adv-x="283" />
<glyph unicode="&#x2007;" horiz-adv-x="283" />
<glyph unicode="&#x2008;" horiz-adv-x="212" />
<glyph unicode="&#x2009;" horiz-adv-x="339" />
<glyph unicode="&#x200a;" horiz-adv-x="94" />
<glyph unicode="&#x2010;" horiz-adv-x="1003" d="M143 498v92q0 20 21 20h676q20 0 20 -20v-92q0 -20 -20 -21h-676q-20 0 -21 21z" />
<glyph unicode="&#x2011;" horiz-adv-x="1003" d="M143 498v92q0 20 21 20h676q20 0 20 -20v-92q0 -20 -20 -21h-676q-20 0 -21 21z" />
<glyph unicode="&#x2012;" horiz-adv-x="1003" d="M143 498v92q0 20 21 20h676q20 0 20 -20v-92q0 -20 -20 -21h-676q-20 0 -21 21z" />
<glyph unicode="&#x2013;" horiz-adv-x="1515" d="M143 498v92q0 20 21 20h1188q20 0 20 -20v-92q0 -20 -20 -21h-1188q-20 0 -21 21z" />
<glyph unicode="&#x2014;" horiz-adv-x="1802" d="M143 498v92q0 20 21 20h1474q21 0 21 -20v-92q0 -20 -21 -21h-1474q-20 0 -21 21z" />
<glyph unicode="&#x2018;" horiz-adv-x="475" d="M117 893l147 434q6 14 18 14h107q10 0 17.5 -8t5.5 -18l-103 -435q-2 -6 -7 -11t-11 -5h-154q-10 0 -17 9t-3 20z" />
<glyph unicode="&#x2019;" horiz-adv-x="475" d="M63 890l103 435q2 6 7 11t11 5h154q10 0 17 -9t3 -20l-147 -434q-6 -14 -18 -14h-107q-10 0 -17.5 8t-5.5 18z" />
<glyph unicode="&#x201a;" horiz-adv-x="475" d="M63 -236l103 435q2 6 7 11t11 5h154q10 0 17 -9t3 -20l-147 -434q-6 -14 -18 -14h-107q-10 0 -17.5 8t-5.5 18z" />
<glyph unicode="&#x201c;" horiz-adv-x="792" d="M117 893l147 434q6 14 18 14h107q10 0 17.5 -8t5.5 -18l-103 -435q-2 -6 -7 -11t-11 -5h-154q-10 0 -17 9t-3 20zM435 893l147 434q6 14 18 14h107q10 0 17.5 -8t5.5 -18l-103 -435q-2 -6 -7 -11t-11 -5h-154q-10 0 -17 9t-3 20z" />
<glyph unicode="&#x201d;" horiz-adv-x="792" d="M63 890l103 435q2 6 7 11t11 5h154q10 0 17 -9t3 -20l-147 -434q-6 -14 -18 -14h-107q-10 0 -17.5 8t-5.5 18zM380 890l103 435q2 6 7 11t11 5h154q10 0 17 -9t3 -20l-147 -434q-6 -14 -18 -14h-107q-10 0 -17.5 8t-5.5 18z" />
<glyph unicode="&#x201e;" horiz-adv-x="792" d="M63 -236l103 435q2 6 7 11t11 5h154q10 0 17 -9t3 -20l-147 -434q-6 -14 -18 -14h-107q-10 0 -17.5 8t-5.5 18zM380 -236l103 435q2 6 7 11t11 5h154q10 0 17 -9t3 -20l-147 -434q-6 -14 -18 -14h-107q-10 0 -17.5 8t-5.5 18z" />
<glyph unicode="&#x2026;" horiz-adv-x="1413" d="M123 90v21q0 53 27.5 83.5t87.5 30.5q59 0 86.5 -30.5t27.5 -83.5v-21q0 -53 -27.5 -84t-86.5 -31q-60 0 -87.5 31t-27.5 84zM592 90v21q0 53 27.5 83.5t87.5 30.5q59 0 86.5 -30.5t27.5 -83.5v-21q0 -53 -27.5 -84t-86.5 -31q-60 0 -87.5 31t-27.5 84zM1061 90v21 q0 53 27.5 83.5t87.5 30.5q59 0 86.5 -30.5t27.5 -83.5v-21q0 -53 -27.5 -84t-86.5 -31q-60 0 -87.5 31t-27.5 84z" />
<glyph unicode="&#x202f;" horiz-adv-x="339" />
<glyph unicode="&#x2039;" horiz-adv-x="671" d="M147.5 538.5q-0.5 8.5 4.5 14.5l188 319q10 14 25 15h135q10 0 15 -7.5t-1 -17.5l-176 -323l176 -324l4 -10q0 -6 -5 -10.5t-13 -4.5h-135q-15 1 -25 15l-188 319q-4 6 -4.5 14.5z" />
<glyph unicode="&#x203a;" horiz-adv-x="671" d="M154 872q0 6 5 10.5t13 4.5h135q14 0 25 -15l188 -319q4 -6 4 -14.5t-4 -14.5l-188 -319q-10 -14 -25 -15h-135q-10 0 -15 7.5t1 17.5l176 324l-176 323z" />
<glyph unicode="&#x205f;" horiz-adv-x="424" />
<glyph unicode="&#x20ac;" horiz-adv-x="1290" d="M94 451l23 94q4 18 22 18h123v142h-139q-10 0 -15.5 6t-3.5 16l23 94q4 18 23 19h112v45q0 215 123 348t350 133q143 0 247.5 -53t159 -144.5t54.5 -201.5q0 -20 -20 -21h-136q-16 0 -16 21q0 106 -70.5 175.5t-218.5 69.5q-150 0 -226.5 -85t-76.5 -240v-47h418 q20 0 16 -23l-22 -94q-2 -18 -23 -18h-389v-142h367q10 0 15 -6t3 -16l-22 -95q-2 -18 -23 -18h-340q8 -143 85 -221t218 -78q139 0 214 67.5t75 178.5q0 20 16 20h136q20 0 20 -20q0 -119 -57.5 -209t-162 -140.5t-241.5 -50.5q-219 0 -341 124t-132 329h-151q-20 0 -17 23 z" />
<glyph unicode="&#x2122;" horiz-adv-x="1695" d="M102 1300v78q0 20 21 21h567q20 0 21 -21v-78q0 -20 -21 -20h-207v-543q0 -20 -20 -20h-111q-20 0 -20 20v543h-209q-20 0 -21 20zM831 731l13 655q0 14 14 15h135q8 0 15 -12l211 -361l198 361q6 12 15 12h135q14 0 14 -15l12 -655q0 -14 -14 -14h-117q-14 0 -14 14 l-6 438l-209 -387q-4 -8 -11.5 -8t-11.5 8l-229 387l-4 -438q0 -14 -14 -14h-117q-15 0 -15 14z" />
<glyph unicode="&#x25fc;" horiz-adv-x="1003" d="M0 0v1004h1004v-1004h-1004z" />
</font>
</defs>
</svg>
